<svg id="eFo10QwCD6X1" xmlns="http://www.w3.org/2000/svg" xmlns:xlink="http://www.w3.org/1999/xlink" viewBox="0 0 400 350.413223" shape-rendering="geometricPrecision" text-rendering="geometricPrecision"><g><path d="M88.042,25.954c-.455.379-1.104.689-1.441.689s-1.5.474-2.584,1.052-2.315,1.052-2.736,1.052c-.743,0-1.098.237-2.578,1.722-2.274,2.282-3.681,3.873-3.681,4.161c0,.181-.378.886-.84,1.567-.463.681-.949,1.73-1.081,2.331s-.542,1.254-.912,1.452c-.468.251-.673.736-.673,1.598c0,1.268-.446,2.389-1.285,3.228-.396.396-.459,12.226-.383,71.605l.091,71.13.788.553c.578.404.789.901.789,1.857c0,.87.233,1.504.701,1.905.386.33.701.997.701,1.483s.329,1.158.73,1.494c.401.335,1.034,1.162,1.406,1.837.984,1.785,1.441,2.438,2.422,3.462c1.004,1.047,3.522,2.832,4.009,2.841.18.004.688.345,1.127.758.747.701,2.257,1.343,6.082,2.585c2.554.829,221.603.775,224.994-.056c1.293-.316,2.587-.777,2.876-1.024.29-.247.96-.557,1.49-.689.531-.133.964-.351.964-.486c0-.326,3.075-2.483,3.539-2.483.53,0,4.174-3.85,4.174-4.409c0-.261.473-1.014,1.052-1.673.578-.659,1.051-1.586,1.051-2.061s.316-1.149.701-1.498c.435-.394.702-1.08.702-1.807c0-.706.279-1.452.701-1.874.985-.986,1.123-143.172.139-143.892-.326-.238-.638-1.135-.744-2.142-.101-.952-.468-2.047-.815-2.432-.347-.386-.747-1.164-.887-1.73-.141-.565-.625-1.573-1.078-2.24-.452-.666-.822-1.34-.822-1.496c0-1.048-5.241-5.346-7.167-5.878-.679-.187-1.654-.67-2.165-1.072s-1.357-.731-1.879-.731c-.523,0-1.236-.315-1.585-.701-.993-1.098-224.575-1.086-225.893.012M310.079,42.957c3.907,1.977,3.492-6.377,3.598,72.347.093,68.049.089,68.512-.613,69.961-.389.803-.706,1.734-.706,2.07c0,.383-.57.862-1.532,1.287-.842.373-1.729.916-1.971,1.207-.39.471-12.397.53-107.508.53h-107.069l-1.777-1.015c-1.279-.73-2.061-1.512-2.792-2.792l-1.015-1.777v-69.448c0-42.685.127-69.686.33-70.064.485-.906,2.901-2.482,4.639-3.026c1.264-.396,19.264-.464,107.915-.41l106.397.066l2.104,1.064M106.408,56.718c-.344.897-.189,118.368.156,118.915.499.789,44.112.787,45.061-.002.467-.389,1.93-.566,5.745-.697c4.717-.161,5.181-.237,5.908-.964.621-.621,1.187-.789,2.662-.789c1.429,0,2.025-.166,2.509-.701.349-.385,1.052-.701,1.564-.701.511,0,1.461-.392,2.111-.872s1.728-.975,2.395-1.1c1.242-.233,1.85-.638,3.49-2.322.516-.531,1.228-.964,1.584-.964.801,0,4.401-3.657,5.004-5.084.245-.578,1.086-1.604,1.869-2.278c1.025-.884,1.426-1.502,1.431-2.208.005-.57.354-1.305.833-1.753.454-.425,1.03-1.399,1.28-2.166.251-.767.747-1.871,1.102-2.454.356-.583.648-1.459.648-1.946.001-.488.317-1.156.703-1.487.516-.441.701-1.034.701-2.241c0-1.06.213-1.877.603-2.307.406-.45.681-1.581.844-3.478.189-2.199.401-2.96.975-3.494.681-.635.733-1.058.734-6.016.001-4.71.083-5.466.701-6.48c1.071-1.755,1.069-14.36-.001-15.329-.64-.579-.701-1.08-.701-5.775c0-5.047-.016-5.155-.876-5.903-.781-.679-.877-1.033-.877-3.251c0-1.958-.149-2.679-.701-3.38-.481-.611-.701-1.422-.701-2.579c0-1.314-.194-1.897-.877-2.633-.482-.52-.876-1.215-.876-1.544c0-.328-.394-1.339-.876-2.246-.482-.906-.877-1.947-.877-2.312c0-.366-.394-1.091-.876-1.611s-.877-1.231-.877-1.581-.63-1.22-1.401-1.933-1.818-2.021-2.326-2.906c-1.245-2.167-2.186-3.156-3.547-3.726-.627-.262-1.139-.643-1.139-.846c0-.202-.213-.368-.472-.368s-.772-.338-1.139-.752c-.368-.414-1.332-1.049-2.143-1.412-.812-.363-1.563-.802-1.67-.974-.106-.173-.666-.418-1.244-.545-.578-.126-1.213-.533-1.411-.903-.229-.428-.733-.673-1.385-.673-.585,0-1.316-.31-1.699-.722-.469-.503-1.295-.785-2.73-.931-1.132-.114-2.445-.46-2.917-.767-1.772-1.154-55.844-1.93-56.274-.809m105.883-.197c-.643.36-.847,118.097-.205,119.112.526.833,45.873.719,47.763-.12.991-.44,2.381-.579,5.808-.579c4.369,0,4.529-.026,5.268-.876.626-.721,1.08-.877,2.549-.877c1.257,0,2.053-.208,2.679-.701.49-.385,1.259-.701,1.707-.701.449,0,1.098-.3,1.443-.667s1.32-.852,2.168-1.079c1.443-.386,2.762-1.132,4.419-2.502.385-.318,1.076-.693,1.534-.833c1.06-.322,4.557-3.911,4.815-4.943.108-.43.893-1.508,1.744-2.396.983-1.027,1.547-1.933,1.547-2.489c0-.48.316-1.144.701-1.474.403-.345.702-1.034.702-1.62c0-.561.354-1.591.788-2.289c1.147-1.843,1.567-7.505,1.115-15.014-.187-3.107-.304-3.609-.884-3.793-.45-.142-.741-.667-.891-1.603-.133-.833-.485-1.532-.876-1.742-.36-.192-.655-.572-.655-.843s-.789-1.395-1.753-2.496c-.964-1.102-1.752-2.12-1.752-2.262c0-.411-1.996-2.437-2.4-2.437-.201,0-.582-.31-.848-.689-.445-.636-5.092-3.167-5.815-3.167-.174,0-.501-.221-.725-.492-.224-.27-.835-.597-1.357-.727-.523-.129-1.266-.518-1.651-.864-.386-.346-1.486-.731-2.446-.855-2.682-.347-3.419-2.321-.866-2.321.369,0,1.417-.715,2.329-1.59.913-.874,2.05-1.687,2.527-1.807s1.372-.722,1.988-1.339c.617-.617,1.849-1.42,2.737-1.786.889-.365,1.617-.836,1.617-1.046.001-.21.374-.552.828-.759.48-.218.912-.794,1.031-1.371.207-1.014.846-2.004,2.272-3.525.46-.491.889-1.504,1.01-2.39.116-.847.506-1.806.866-2.132c1.032-.934.992-15.919-.046-17.487-.383-.578-.697-1.559-.699-2.179-.001-.62-.265-1.725-.588-2.454-.322-.73-.834-1.914-1.139-2.632-.304-.718-.751-1.31-.992-1.315s-.438-.152-.438-.326c0-.493-2.467-3.337-3.109-3.585-.315-.121-1.194-.791-1.955-1.489-.761-.699-1.577-1.27-1.814-1.27-.236,0-.899-.394-1.472-.876s-1.449-.877-1.947-.877c-.579,0-1.112-.316-1.479-.876-.464-.707-.862-.876-2.065-.876-.915,0-1.812-.251-2.326-.65-1.352-1.05-58.979-2.022-60.762-1.024M148.619,74.825c.509.461,1.426.729,2.85.832c1.425.103,2.239.34,2.529.737.235.323,1.098.783,1.918,1.023.819.241,1.49.587,1.49.769c0,.183.512.548,1.139.811c1.537.646,3.769,2.672,3.769,3.422c0,.598.845,1.777,2.342,3.27.42.419.878,1.227,1.016,1.796.139.569.465,1.345.726,1.725.26.381.473,1.032.473,1.447c0,.416.237,1.322.526,2.015.289.692.531,2.249.537,3.46.007,1.379.204,2.457.526,2.883.77,1.018.77,32.328,0,33.346-.283.374-.52,1.41-.526,2.301-.006.892-.248,2.292-.537,3.112s-.526,1.914-.526,2.431-.232,1.247-.516,1.621-1.014,1.706-1.623,2.959c-1.024,2.11-1.498,2.804-2.698,3.948-.25.239-.645.65-.876.914-4.333,4.927-6.958,6.707-9.895,6.707-.882,0-2.109.276-2.727.614-1.488.813-13.435.923-14.389.132-.923-.766-.89-82.207.034-82.763c1.204-.724,13.561-.307,14.438.488m107.642.109c.403.434,1.137.789,1.629.789c1.45,0,5.907,3.724,6.7,5.597.282.668.773,1.405,1.09,1.637.496.362.578,1.237.578,6.167v5.745l-.97,1.207c-.533.664-1.16,1.435-1.393,1.714s-.664.989-.958,1.578c-.331.662-.967,1.21-1.665,1.435-.622.201-1.647.753-2.279,1.225-.965.723-1.626.88-4.129.983-2.367.098-3.134.265-3.729.815-.927.856-11.966.867-12.819.013-.496-.496-.893-24.728-.453-27.698.31-2.102.565-2.156,9.707-2.07c7.753.073,7.975.095,8.691.863m.356,50.427c2.971.154,3.819.32,4.399.862.395.37,1.217.772,1.828.894.764.153,1.685.874,2.962,2.321c2.35,2.661,2.317,2.599,2.601,5.014.147,1.247.488,2.278.885,2.675.928.928.894,5.519-.054,7.483-.373.771-.683,1.997-.69,2.725-.009,1.054-.313,1.656-1.502,2.971-2.622,2.903-4.977,4.991-5.632,4.993-.35.002-.981.196-1.402.431s-1.791.536-3.044.668c-1.254.133-3.142.492-4.196.8-2.242.653-11.289.781-13.418.19-1.778-.494-1.719.118-1.598-16.587l.106-14.658.866-.701c.902-.731,4.963-.749,17.889-.081" fill="#c90e14" fill-rule="evenodd"/><path d="M0,175.285v175.285h200h200v-175.285L400,0h-200L0,0v175.285M313.851,23.839c.72.385,1.679.701,2.132.701s1.096.301,1.429.669c.334.369,1.016.773,1.517.899.501.125,1.299.534,1.774.908.475.373,1.008.679,1.185.679.469,0,2.74,2.28,2.74,2.752c0,.222.208.403.462.403.255,0,.801.355,1.214.789.414.434,1.231,1.262,1.816,1.84.585.579,1.064,1.219,1.065,1.422c0,.204.394.905.876,1.558.482.654.877,1.5.877,1.881s.276.998.613,1.371c1.414,1.561,1.434,2.605,1.462,76.41.029,73.593.042,72.897-1.407,75.71-.368.713-.668,1.608-.668,1.988c0,.381-.71,1.402-1.578,2.269-.867.868-1.577,1.876-1.577,2.24c0,1.097-4.545,5.353-5.716,5.353-.318,0-.837.394-1.153.876-.391.597-.894.877-1.577.877-.684,0-1.187.279-1.578.876-.406.62-.889.877-1.651.877-.633,0-1.421.324-1.916.788l-.839.789-111.015.102c-115.275.107-113.426.123-114.714-.994-.435-.377-1.24-.685-1.79-.685-.631,0-1.283-.325-1.763-.877-.419-.482-1.049-.876-1.4-.876s-.938-.3-1.304-.667c-.367-.366-1.013-.776-1.437-.911-.857-.272-1.073-.437-3.944-3.02-1.109-.998-2.016-1.977-2.016-2.176s-.72-1.425-1.6-2.725c-1.292-1.908-1.64-2.754-1.81-4.397-.151-1.469-.413-2.2-.941-2.628l-.732-.592v-72.396-72.395l.789-.84c.456-.485.789-1.283.789-1.89c0-.578.336-1.747.747-2.598.411-.85,1.024-2.181,1.362-2.958.338-.776.953-1.727,1.368-2.112.414-.386,1.092-1.056,1.505-1.49.414-.434.961-.789,1.216-.789.254,0,.462-.24.462-.533c0-.294.381-.707.847-.919.466-.213.918-.66,1.006-.995s.601-.72,1.141-.856c.541-.135,1.371-.552,1.846-.925.475-.374,1.055-.68,1.289-.68s.789-.315,1.233-.701c.445-.386,1.14-.706,1.544-.713s1.366-.317,2.137-.689c2.249-1.086,223.657-1.086,225.683,0M93.002,44.475c-3.667,1.93-3.256-7.071-3.256,71.278c0,59.748.066,68.694.51,68.864.28.108.81.705,1.177,1.328c1.496,2.535-8.953,2.324,110.319,2.225l107.161-.089.758-.955c.417-.525,1.113-1.418,1.547-1.984l.789-1.029v-68.595-68.596l-1.025-1.024c-.563-.564-1.238-1.025-1.499-1.025-.262,0-.745-.316-1.076-.701-.598-.699-1.02-.701-107.089-.68l-106.489.021-1.827.962m60.589,10.477c1.133.705,1.72.789,5.518.789c3.871,0,4.29.062,4.688.701.337.539.818.701,2.084.701c2.017,0,3.444.505,3.444,1.218c0,.377.36.535,1.219.535.67,0,1.735.317,2.366.705s1.712.86,2.402,1.049c.693.19,1.971,1.05,2.857,1.924.882.869,1.692,1.58,1.801,1.58c1.06,0,5.262,3.655,5.652,4.915.28.907.756,1.525,2.371,3.078.678.652.964,1.279.964,2.109c0,.881.176,1.228.69,1.362.379.1.795.519.924.932.13.413.529,1.127.888,1.587s.653,1.109.653,1.442c0,.334.292.983.648,1.443s.751,1.259.877,1.776c.126.516.497,1.207.824,1.534.588.588.917,2.28,1.467,7.552.156,1.499.533,3.029.86,3.497.472.674.583,1.716.583,5.5c0,4.185.072,4.748.701,5.422c1.06,1.138,1.086,17.341.03,18.298-.599.541-.685,1.224-.789,6.293-.093,4.473-.237,5.87-.678,6.546-.309.473-.663,1.885-.787,3.138-.504,5.088-.677,5.938-1.325,6.525-.362.328-.658,1.014-.658,1.525s-.394,1.464-.876,2.117-.877,1.562-.877,2.02c0,.465-.695,1.685-1.577,2.768-.868,1.066-1.578,2.233-1.578,2.594s-.307.821-.683,1.022c-.681.364-1.224,1.186-2.324,3.511-.318.673-1.152,1.739-1.853,2.37s-1.596,1.461-1.988,1.845c-.413.404-1.189.697-1.841.697-.62,0-1.127.182-1.127.403c0,.472-2.27,2.752-2.74,2.752-.176,0-.709.306-1.184.68s-1.274.782-1.775.908c-.5.125-1.183.53-1.516.898s-1.015.675-1.516.682c-.5.007-1.304.238-1.786.513-.482.276-1.586.512-2.454.525s-1.884.255-2.258.538c-.517.391-1.771.515-5.22.515-3.919,0-4.601.084-4.988.613-.688.941-47.411,1.139-48.094.204-.812-1.11-.623-121.229.191-122.043.594-.595,1.944-.63,23.576-.614l22.946.017l1.268.789m110.093.014c1.12.692,1.726.775,5.669.775c3.844,0,4.496.084,5.042.651.345.358,1.24.746,1.99.862s1.663.533,2.029.926c.367.394.992.716,1.389.716c1.138,0,4.838,1.833,5.05,2.502.106.332.644.703,1.197.825c1.083.238,3.393,2.88,3.745,4.282.111.442.378.804.593.804.542,0,2.688,2.467,2.688,3.09c0,.28.296,1,.656,1.602.361.601.749,1.924.861,2.939s.448,2.194.746,2.62c.925,1.321.79,15.441-.159,16.648-.424.539-.701,1.422-.701,2.234c0,1.072-.302,1.697-1.49,3.095-2.035,2.392-3.024,3.708-3.273,4.358-.116.302-.494.638-.841.748s-.715.523-.818.916c-.103.394-.514.801-.914.906-.4.104-.728.325-.728.491c0,.165-.512.558-1.139.874-.627.315-1.691,1.088-2.366,1.718-.675.629-1.675,1.249-2.222,1.378-.546.128-1.359.598-1.805,1.044-.446.447-1.103.946-1.46,1.111-.509.236-.348.328.75.428.768.07,1.557.248,1.752.395.196.147,1.302.634,2.459,1.082s2.34,1.014,2.629,1.257.964.551,1.499.685c.536.134,1.127.53,1.315.88.187.35.639.732,1.004.848s.739.497.83.847c.096.365.617.726,1.221.847.732.146,1.49.78,2.475,2.069.781,1.022,1.746,2.189,2.145,2.594.399.406.832,1.273.961,1.929.129.655.524,1.397.878,1.649s.643.831.643,1.286c0,1.167.349,1.937.877,1.937.656,0,.876.83.876,3.312c0,1.672.169,2.418.701,3.094.983,1.25.983,4.906,0,6.39-.561.847-.697,1.648-.699,4.111-.002,2.875-.055,3.094-.878,3.634-.698.457-.878.869-.885,2.024-.004.896-.269,1.784-.693,2.326-.377.482-.689,1.075-.693,1.317-.005.243-.481,1.095-1.06,1.893-.578.799-1.051,1.686-1.051,1.971s-.908,1.373-2.016,2.418c-1.109,1.044-2.337,2.207-2.729,2.583-.393.377-.837.685-.988.685s-1.146.71-2.211,1.578-2.236,1.577-2.603,1.577c-.366,0-.864.32-1.107.71-.261.421-.983.797-1.768.924-.735.118-1.474.487-1.656.826-.2.374-.944.705-1.907.85-.869.13-1.671.385-1.783.567-.113.182-.945.335-1.849.341-.905.007-1.951.243-2.325.526-.518.392-1.777.515-5.262.515-4.202,0-4.618.058-5.019.701-.608.973-50.096,1.119-51.064.15-.759-.759-.854-120.549-.096-121.585.788-1.078,2.308-1.139,27.605-1.1l24.729.039l1.254.775M135.866,75.801c-.487.694-.546,5.133-.546,40.666v39.887h5.434c4.966,0,5.494-.06,6.135-.701.576-.576,1.168-.701,3.318-.701c2.205,0,2.672-.104,2.97-.661.195-.363.792-.768,1.327-.9.91-.223,1.311-.525,3.399-2.558.446-.434.993-.789,1.217-.789s.557-.395.74-.877.571-.876.861-.876.627-.394.748-.876.331-.877.467-.877c.137,0,.606-1.013,1.043-2.252.438-1.239.998-2.331,1.246-2.426.266-.102.52-1.006.619-2.197.13-1.569.338-2.137.922-2.525.648-.431.755-.835.755-2.865c0-1.833.157-2.564.701-3.256c1.02-1.297,1.101-29.381.087-30.5-.448-.494-.665-1.518-.804-3.791-.161-2.612-.316-3.23-.965-3.834-.537-.5-.772-1.129-.772-2.065c0-.742-.226-1.533-.504-1.764-.276-.229-.603-.872-.725-1.427-.121-.555-.684-1.591-1.249-2.302-.565-.712-1.028-1.471-1.028-1.687c0-.555-1.691-2.315-2.224-2.315-.421,0-3.037-1.762-4.024-2.71-.254-.245-.679-.445-.944-.445-.264,0-.687-.291-.939-.646-.345-.486-1.097-.698-3.047-.86-1.922-.159-2.786-.399-3.353-.932-1.214-1.14-10.059-1.089-10.865.062m104.383-.341c-.472.729-.558,25.716-.092,26.587.387.724.551.741,5.187.533c10.426-.467,12.958-1.036,14.16-3.179.142-.253.796-.561,1.453-.685c1.022-.191,1.227-.399,1.422-1.438.127-.673.533-1.377.914-1.581c1.973-1.056.407-15.66-1.689-15.748-.246-.011-.597-.414-.78-.896-.193-.508-.612-.876-.996-.876-.364,0-1.047-.303-1.517-.672-.47-.37-1.428-.78-2.128-.911-.7-.132-1.544-.539-1.876-.906-.754-.833-13.533-1.04-14.058-.228m-.117,51.995c-.202.53-.342,6.651-.342,14.899v14h5.816c5.286,0,5.898-.064,6.709-.701.718-.565,1.422-.701,3.632-.701c2.457,0,2.833-.091,3.618-.877.482-.482,1.191-.876,1.577-.876c1.603,0,5.992-5.113,5.992-6.981c0-1.22.219-1.967.789-2.692.602-.765.789-1.461.789-2.939c0-1.541-.162-2.098-.789-2.725-.555-.556-.789-1.205-.789-2.192c0-.934-.234-1.636-.701-2.103-.386-.386-.703-.977-.705-1.315-.005-.777-1.998-2.716-3.151-3.065-.482-.145-1.159-.56-1.504-.922-.535-.562-1.165-.658-4.306-.658-2.476,0-4.089-.171-4.937-.525-.921-.385-2.612-.526-6.307-.526h-5.05l-.341.899M57.065,252.956l.779.546v26.586c0,23.919.056,26.607.555,26.798.305.117,5.994.213,12.643.213c7.663,0,12.337.133,12.767.363c1.042.558,1.042,11.337,0,11.895-1.285.688-40.678.481-41.45-.218-1.05-.95-.992-64.976.06-66.028.951-.951,13.323-1.082,14.646-.155m63.461,14.505c1.407.163,2.827.53,3.155.814s1.21.611,1.961.726s1.697.512,2.103.883c.406.372,1.076.777,1.488.902.413.125,1.144.577,1.624,1.004.481.428,1.442,1.251,2.135,1.83.694.578,1.264,1.192,1.269,1.365.004.173.335.646.737,1.052c1.146,1.159,2.762,3.825,2.77,4.566.003.371.273.97.6,1.331s.796,1.714,1.042,3.007c.245,1.293.701,3.534,1.011,4.98.657,3.055.502,8.391-.314,10.888-.281.856-.618,2.346-.751,3.31s-.543,2.245-.912,2.846c-.368.601-.673,1.311-.676,1.578-.008.586-1.76,3.355-2.77,4.377-.402.406-.73.919-.73,1.14c0,.22-.125.401-.277.401-.153,0-1.058.706-2.012,1.57-.954.863-2.203,1.763-2.775,2-.572.238-1.324.714-1.669,1.06-.346.346-1.093.629-1.66.629-.568,0-1.633.354-2.367.788-2.223,1.314-15.076,1.371-16.375.072-.27-.27-1.162-.642-1.983-.826-.821-.185-1.935-.662-2.475-1.061-.54-.4-1.219-.726-1.509-.726s-.697-.316-.903-.701c-.206-.386-.567-.706-.801-.71-1.896-.039-6.125-6.003-8.074-11.385-1.89-5.219-1.986-19.775-.145-21.827.301-.335.657-1.203.791-1.927.135-.725.516-1.672.847-2.104s.713-1.088.849-1.459c.369-1.006,3.756-4.908,4.923-5.671.56-.367,1.478-.928,2.04-1.248.561-.319,1.313-.846,1.67-1.169.358-.323,1.333-.674,2.167-.78.835-.105,1.81-.447,2.167-.759c1.073-.937,8.705-1.359,13.829-.766m44.334.304c.481.4.565,2.626.684,18.055.139,17.874.137,17.846,1.459,20.133c1.649,2.853,8.531,4.083,10.819,1.934.461-.433,1.025-.788,1.254-.788s.416-.215.416-.479c0-.263.339-.91.754-1.437c2.057-2.616,2.688-8.313,2.723-24.619.022-9.742.13-12.752.467-12.967c1.388-.885,13.849-.498,14.807.459.948.949.784,50.008-.171,50.962-.726.726-10.478,1.097-11.402.433-.589-.423-1.433-1.919-1.919-3.4-.416-1.268-.481-1.322-.743-.614-.158.427-.451.777-.651.777s-.707.394-1.126.876-.908.877-1.087.877c-.178,0-.793.394-1.366.876s-1.365.877-1.762.877c-.396,0-1.291.354-1.989.788-1.189.74-1.65.789-7.403.789s-6.214-.049-7.403-.789c-.698-.434-1.581-.788-1.962-.788s-.965-.302-1.298-.67-1.028-.851-1.545-1.074c-.516-.222-1.412-1.031-1.99-1.796s-1.408-1.844-1.842-2.397c-.435-.553-.886-1.533-1.003-2.179-.116-.646-.549-1.884-.962-2.752-.876-1.841-1.433-39.064-.608-40.605.614-1.148,13.543-1.567,14.849-.482m57.368-.325c.994.278,1.324.807,1.608,2.585.115.722.561,1.722.991,2.222l.781.908l1.219-1.254c.67-.689,1.354-1.255,1.519-1.257.165-.003.768-.399,1.341-.881s1.438-.876,1.924-.876c.485,0,1.261-.299,1.725-.664c1.728-1.359,13.505-1.4,14.853-.051.333.333,1.203.702,1.932.821.752.122,1.543.525,1.827.931.276.394.724.716.995.716.544,0,4.025,4.009,4.025,4.635c0,.216.219.642.486.946c1.788,2.032,2.101,5.452,2.234,24.39l.126,17.877-.761.616c-.953.771-13.887.943-14.636.195-.315-.315-.421-4.517-.421-16.749c0-12.696-.1-16.483-.449-17.021-.248-.38-.649-1.273-.892-1.985-.243-.711-.906-1.79-1.473-2.398l-1.031-1.104-3.91.022c-2.931.016-4.052.15-4.475.537-2.035,1.86-3.195,3.127-3.195,3.492c0,.232-.348,1.046-.774,1.81-.762,1.365-.777,1.653-.888,16.989-.112,15.294-.128,15.613-.842,16.214-.853.718-13.074.932-14.346.251-.704-.377-1.102-50.315-.41-51.399.462-.722,8.776-1.117,10.917-.518m74.776.743c.895.662,1.49.704,10.003.704c11.103,0,10.609-.186,10.609,3.983c0,3.623-1.12,5.094-4.089,5.367-3.402.314-3.308.24-2.733,2.133.893,2.944.689,9.704-.357,11.83-.474.964-.867,1.88-.873,2.036-.013.339-2.141,3.124-2.64,3.455-.193.128-.824.641-1.403,1.139-.578.498-1.225.906-1.438.907-.213,0-.813.394-1.333.876-.526.488-1.368.877-1.897.877-.523,0-1.58.353-2.348.785-1.269.712-1.958.796-7.487.906-6.084.121-6.09.122-6.887,1.048l-.797.927.929.95.929.95l9.48.109c7.979.092,9.616.198,10.34.671.473.31,1.591.671,2.485.805.916.136,1.895.541,2.245.927.342.378.85.686,1.13.686.622,0,3.94,3.274,3.94,3.888c0,.241.257.724.572,1.071c1.664,1.839,1.491,14.322-.198,14.322-.164,0-.394.381-.511.846-.331,1.322-4.392,5.815-5.255,5.815-.256,0-.891.395-1.411.877-.521.482-1.26.876-1.643.876-.384,0-1.125.314-1.648.699-.522.384-1.738.795-2.702.914-.964.118-2.384.497-3.155.842-2.792,1.247-20.367,1.199-21.802-.06-.349-.306-1.395-.666-2.325-.8-.996-.143-1.928-.521-2.269-.919-.318-.372-.824-.676-1.124-.676s-1.046-.458-1.658-1.017c-.613-.559-1.24-1.072-1.393-1.139-.521-.228-2.243-2.748-2.54-3.717-1.409-4.587-1.478-4.988-1.123-6.476.888-3.725,1.229-4.692,1.846-5.236.364-.32.663-.714.665-.876.005-.409,2.272-2.573,2.696-2.573.191,0,.634-.318.986-.706.352-.389,1.224-.8,1.94-.915c1.425-.228,1.572-1.142.358-2.235-2.442-2.202-3.46-7.624-1.676-8.929.33-.241.6-.57.6-.73c0-.35,2.63-2.845,3.199-3.035.659-.22.009-1.577-1.089-2.272-5.148-3.26-7.237-14.194-4.013-21.005c1.221-2.578,4.55-6.448,5.548-6.448.294,0,.841-.329,1.215-.73.4-.43,1.306-.809,2.204-.923.839-.106,1.817-.448,2.175-.76c1.485-1.296,13.981-1.331,15.723-.044m57.422-.053c.482.353,1.491.74,2.241.861.751.12,1.708.541,2.126.934.419.393.914.715,1.102.715.411,0,2.422,1.612,3.437,2.756.404.455,1.168,1.307,1.699,1.893.53.585.964,1.26.964,1.5s.228.524.507.631.687.859.905,1.671c.219.812.661,1.878.983,2.368.758,1.156,1.105,15.161.397,16.014-.359.433-2.728.512-15.543.517-8.316.003-15.324.135-15.575.294-.654.415.031,4.356.963,5.541.396.503.719,1.106.719,1.339c0,.882,3.187,3.341,4.797,3.702.872.196,2.035.588,2.584.872c1.278.661,4.334.666,5.34.009.427-.279,2.259-.697,4.072-.929c2.322-.297,3.487-.614,3.944-1.07.356-.357,1.097-.649,1.646-.649s1.372-.324,1.829-.72c.841-.729,2.178-.702,2.958.061.192.188.404,2.522.47,5.185.124,4.992-.408,6.692-2.096,6.692-.202,0-.768.316-1.259.701-.49.386-1.385.702-1.988.702-.604,0-1.726.354-2.495.788-1.345.76-1.72.789-10.161.789-8.479,0-8.805-.026-10.033-.789-.697-.434-1.731-.788-2.298-.788-.566,0-1.564-.395-2.218-.877-.653-.482-1.467-.876-1.808-.876-.342,0-.79-.316-.996-.701-.206-.386-.594-.702-.861-.702-.661,0-5.8-5.631-5.8-6.356c0-.319-.228-.668-.507-.775-.28-.107-.687-.859-.905-1.671-.219-.812-.633-1.835-.92-2.273-1.718-2.622-1.701-19.037.024-22.141.294-.53.706-1.643.914-2.472.209-.829.607-1.596.887-1.703.279-.107.507-.484.507-.838c0-.593,3.632-5.252,4.323-5.545.166-.07.821-.583,1.454-1.139.634-.556,1.412-1.011,1.73-1.011s.665-.226.771-.502c.21-.547,1.927-1.251,3.053-1.251.39,0,1.013-.276,1.385-.612c1.442-1.305,14.985-1.422,16.732-.145m-66.608,9.133c0,.171-.617.559-1.37.86-1.083.434-1.461.827-1.803,1.879-.238.731-.647,1.641-.909,2.022-.813,1.181-.604,4.857.401,7.054.482,1.053.876,2.052.876,2.219c0,.447,4.377,2.48,5.34,2.48c6.57,0,8.887-12.896,2.866-15.951-1.722-.874-5.401-1.257-5.401-.563m55.565,1.469c-2.4,1.149-3.573,2.034-4.103,3.095-.328.658-.766,1.301-.973,1.429s-.473,1.049-.591,2.046l-.215,1.815h8.638h8.638v-1.034c0-1.851-2.371-5.603-4.032-6.381-.386-.18-1.096-.556-1.578-.834-.989-.571-4.693-.658-5.784-.136m-233.479,2.464c-.772.573-1.644,1.569-1.939,2.213-.295.645-.75,1.428-1.01,1.742-1.312,1.581-1.286,16.786.032,18.366.276.331.68,1.021.898,1.533.217.511.815,1.221,1.328,1.577s1.233.923,1.6,1.261c1.057.971,8.362.902,9.257-.088.349-.385.847-.701,1.106-.701s.472-.215.472-.479c0-.263.339-.909.753-1.436c3.376-4.292,2.477-21.655-1.204-23.272-.152-.067-.727-.5-1.278-.964-1.648-1.386-8.029-1.229-10.015.248m173.188,39.217c-.575.379-1.475.783-2,.898-.525.116-1.045.494-1.155.841-.11.346-.512.912-.892,1.257-1.625,1.47-.898,3.644,2.034,6.087c1.774,1.477,15.134,1.282,17.082-.249.533-.42,1.197-.763,1.475-.763.8,0,2.445-1.857,2.708-3.056.54-2.454-.028-3.533-2.458-4.669l-2.223-1.039-6.763.002c-6.132.002-6.861.066-7.808.691" fill="#fbfbfb" fill-rule="evenodd"/><path d="M332.512,115.688c0,38.852.041,54.746.091,35.32s.05-51.214,0-70.64-.091-3.532-.091,35.32M238.896,89.22c0,6.941.047,9.831.104,6.421.058-3.41.058-9.089,0-12.621-.057-3.531-.104-.741-.104,6.2m-42.095,11.218c.001,2.121.058,2.944.128,1.828s.069-2.851-.001-3.856c-.071-1.006-.128-.093-.127,2.028m-28.367,15.25c0,8.002.046,11.275.102,7.274s.056-10.547,0-14.548-.102-.728-.102,7.274m28.371,15.074c0,2.411.056,3.397.124,2.192.069-1.206.069-3.177,0-4.383-.068-1.205-.124-.219-.124,2.191m42.093,11.569c0,7.809.046,11.004.102,7.099.057-3.904.057-10.293,0-14.198-.056-3.904-.102-.71-.102,7.099m-44.952,3.155c0,.675.073.951.161.614.088-.338.088-.89,0-1.227-.088-.338-.161-.061-.161.613m-44.165,10.058c.337.088.889.088,1.227,0c.337-.088.061-.16-.614-.16-.674,0-.951.072-.613.16m106.223.009c.53.081,1.397.081,1.928,0c.53-.08.096-.146-.964-.146-1.061,0-1.495.066-.964.146M145.223,208.151c30.61.049,80.697.049,111.306,0c30.609-.05,5.566-.09-55.653-.09-61.218,0-86.262.04-55.653.09" fill="#d79e9f" fill-rule="evenodd"/><path d="M88.869,24.514c-.578.141-1.367.417-1.752.614-2.93,1.496-6.121,2.918-6.548,2.918-.282,0-.846.355-1.253.788-.406.434-1.774,1.815-3.04,3.068-1.265,1.253-2.301,2.412-2.303,2.575-.001.163-.295.715-.653,1.227-.357.512-.761,1.391-.898,1.955-.136.563-.554,1.412-.928,1.887-.373.475-.679,1.331-.679,1.901s-.315,1.438-.701,1.928c-.696.885-.701,1.422-.701,72.657c0,71.319.004,71.769.701,72.399.388.352.701,1.08.701,1.633c0,.55.316,1.588.701,2.307.386.72.701,1.496.701,1.725s.365.862.811,1.407c.445.545,1.226,1.701,1.735,2.569c1.057,1.802,2.545,3.258,4.816,4.71.868.555,1.975,1.277,2.461,1.606.486.328,1.221.704,1.634.835.412.131.941.469,1.175.75.234.282.729.513,1.1.513.372,0,1.329.315,2.127.701c1.923.929,224.214,1.13,225.536.204.39-.273,1.283-.604,1.983-.736.701-.131,1.546-.539,1.877-.905.332-.367.761-.667.954-.667c1.184,0,8.656-5.926,8.656-6.865c0-.223.622-1.187,1.382-2.142c1.407-1.767,2.459-4.18,2.469-5.661.002-.452.32-1.223.706-1.713c1.106-1.406,1.106-143.414,0-145.582-.386-.756-.701-1.74-.701-2.187c0-.446-.216-1.123-.479-1.504-.263-.38-.599-1.077-.746-1.548-1.117-3.575-6.062-8.61-10.504-10.695-1.744-.819-3.801-1.788-4.573-2.155-1.459-.693-222.953-1.2-225.767-.517m225.066,1.428c.349.386,1.062.701,1.585.701.522,0,1.368.329,1.879.731s1.486.885,2.165,1.072c1.926.532,7.167,4.83,7.167,5.878c0,.156.37.83.822,1.496.453.667.937,1.675,1.078,2.24.14.566.54,1.344.887,1.73.347.385.714,1.48.815,2.432.106,1.007.418,1.904.744,2.142.984.72.846,142.906-.139,143.892-.422.422-.701,1.168-.701,1.874c0,.727-.267,1.413-.702,1.807-.385.349-.701,1.023-.701,1.498s-.473,1.402-1.051,2.061c-.579.659-1.052,1.412-1.052,1.673c0,.559-3.644,4.409-4.174,4.409-.464,0-3.539,2.157-3.539,2.483c0,.135-.433.353-.964.486-.53.132-1.2.442-1.49.689-.289.247-1.583.708-2.876,1.024-3.391.831-222.44.885-224.994.056-3.825-1.242-5.335-1.884-6.082-2.585-.439-.413-.947-.754-1.127-.758-.487-.009-3.005-1.794-4.009-2.841-.981-1.024-1.438-1.677-2.422-3.462-.372-.675-1.005-1.502-1.406-1.837-.401-.336-.73-1.008-.73-1.494s-.315-1.153-.701-1.483c-.468-.401-.701-1.035-.701-1.905c0-.956-.211-1.453-.789-1.857l-.788-.553-.091-71.13c-.076-59.379-.013-71.209.383-71.605.839-.839,1.285-1.96,1.285-3.228c0-.862.205-1.347.673-1.598.37-.198.78-.851.912-1.452s.618-1.65,1.081-2.331c.462-.681.84-1.386.84-1.567c0-.288,1.407-1.879,3.681-4.161c1.48-1.485,1.835-1.722,2.578-1.722.421,0,1.652-.474,2.736-1.052s2.247-1.052,2.584-1.052.986-.31,1.441-.689c1.318-1.098,224.9-1.11,225.893-.012M93.663,42.237c-1.738.544-4.154,2.12-4.639,3.026-.203.378-.33,27.379-.33,70.064v69.448l1.015,1.777c.731,1.28,1.513,2.062,2.792,2.792l1.777,1.015h107.069c95.111,0,107.118-.059,107.508-.53.242-.291,1.129-.834,1.971-1.207.962-.425,1.532-.904,1.532-1.287c0-.336.317-1.267.706-2.07.702-1.449.706-1.912.613-69.961-.106-78.724.309-70.37-3.598-72.347l-2.104-1.064-106.397-.066c-88.651-.054-106.651.014-107.915.41m216.065,1.65c.772.518,1.679,1.189,2.016,1.49c1.029.919.943,139.019-.088,140.329-.385.491-.701,1.104-.701,1.364s-.783.87-1.741,1.355l-1.741.883-106.322-.004-106.322-.003-1.828-.851c-1.294-.603-1.893-1.107-2.048-1.724-.12-.48-.52-1.145-.888-1.478-.784-.71-1.083-137.896-.304-139.352.412-.769,2.822-2.383,4.175-2.797.491-.15,48.93-.246,107.642-.213l106.748.059l1.402.942M106.105,55.356c-.654.788-.582,120.313.073,121.102.794.957,44.516.879,46.103-.082.889-.539,1.993-.691,5.906-.816c3.688-.118,4.959-.281,5.434-.698.342-.3,1.51-.652,2.597-.783c1.088-.13,2.271-.46,2.63-.731.359-.272.923-.5,1.254-.506s1.606-.563,2.834-1.238c1.227-.675,2.463-1.227,2.746-1.227s1.217-.704,2.075-1.565c.858-.86,1.968-1.656,2.468-1.768c1.138-.256,4.456-3.487,5.081-4.949.258-.602,1.106-1.779,1.884-2.614.779-.835,1.416-1.861,1.416-2.28c0-.418.259-.975.574-1.237.836-.694,2.079-2.779,2.378-3.99.143-.577.433-1.258.644-1.512.516-.622,1.637-3.914,1.652-4.85.006-.412.323-1.438.704-2.278.416-.915.698-2.302.703-3.457.006-1.253.238-2.304.664-3.003.546-.895.681-1.992.803-6.553.13-4.822.229-5.569.833-6.235c1.134-1.252,1.242-15.274.129-16.779-.687-.929-.789-1.595-.943-6.136-.149-4.387-.264-5.175-.827-5.684-.516-.468-.653-1.096-.653-3.008c0-1.5-.206-2.817-.544-3.471-.3-.579-.637-1.832-.75-2.784s-.42-1.91-.682-2.128c-.263-.217-.478-.534-.478-.703c0-.702-2.935-6.835-3.503-7.319-.338-.29-.726-.995-.861-1.568s-.786-1.566-1.446-2.207-1.461-1.671-1.781-2.289c-.895-1.732-2.602-3.714-3.417-3.969-.724-.226-2.162-1.26-3.54-2.544-.962-.896-3.804-2.498-4.433-2.498-.283,0-1.049-.394-1.702-.876-.654-.482-1.528-.877-1.942-.877-.415,0-1.04-.315-1.389-.701-.48-.53-1.079-.701-2.461-.701-1.363,0-2.081-.2-2.829-.789-.892-.702-1.524-.81-5.744-.982-2.91-.119-5.067-.372-5.585-.655-1.294-.709-45.489-.767-46.075-.062m106.675-.267c-2.54.52-2.421-2.467-2.426,61.125-.005,61.82-.048,59.877,1.358,60.46c1.77.733,48.18.331,49.015-.425.57-.516,1.379-.614,5.073-.614c3.764,0,4.515-.094,5.231-.656.46-.362,1.688-.774,2.73-.917c1.919-.263,3.144-.675,5.994-2.013c6.975-3.275,11.693-6.862,13.725-10.436.603-1.061,1.469-2.276,1.924-2.701.455-.424.827-1.149.827-1.61c0-.462.316-1.125.702-1.474.448-.406.701-1.08.701-1.872c0-.785.276-1.532.756-2.042.62-.661.801-1.42,1.008-4.23.138-1.883.497-4.056.798-4.827.57-1.465.464-2.678-.336-3.846-.29-.424-.473-1.673-.473-3.225c0-2.216-.11-2.652-.877-3.479-.482-.52-.876-1.294-.876-1.72s-.395-1.199-.877-1.72c-.482-.52-.876-1.186-.876-1.481c0-1.662-7.551-8.967-10.326-9.991-.852-.314-2.091-.905-2.752-1.314-.662-.409-1.515-.744-1.896-.744s-.979-.315-1.328-.701c-.407-.45-1.085-.703-1.895-.706-1.966-.009-2.458-.512-1.158-1.184.594-.307,1.682-1.111,2.418-1.787.735-.675,1.607-1.228,1.938-1.229.33-.001,1.119-.453,1.753-1.005.633-.551,1.678-1.273,2.322-1.603c1.255-.643,4.614-3.657,4.614-4.141c0-.346,1.196-2.087,2.526-3.678.523-.624,1.119-1.807,1.325-2.629.207-.822.608-1.913.891-2.425.864-1.558.741-14.88-.163-17.65-.378-1.156-.971-3.1-1.319-4.319-.428-1.503-1.051-2.674-1.936-3.641-.717-.783-1.879-2.259-2.582-3.28-.703-1.02-1.717-2.036-2.254-2.259-.537-.222-1.335-.786-1.773-1.253-.439-.466-1.073-.848-1.41-.848-.338,0-1.082-.394-1.655-.876s-1.428-.877-1.901-.877c-.472,0-1.145-.315-1.494-.701-.383-.424-1.079-.701-1.759-.701-.637,0-1.561-.343-2.128-.789-.895-.705-1.506-.807-5.744-.964-2.997-.111-5.043-.347-5.56-.641-.874-.498-47.535-.836-49.855-.361m-56.233,1.597c3.857.206,5.507.432,6.135.841.472.307,1.785.653,2.917.767c1.435.146,2.261.428,2.73.931.383.412,1.114.722,1.699.722.652,0,1.156.245,1.385.673.198.37.833.777,1.411.903.578.127,1.138.372,1.244.545.107.172.858.611,1.67.974.811.363,1.775.998,2.143,1.412.367.414.88.752,1.139.752s.472.166.472.368c0,.203.512.584,1.139.846c1.361.57,2.302,1.559,3.547,3.726.508.885,1.555,2.193,2.326,2.906s1.401,1.583,1.401,1.933.395,1.061.877,1.581.876,1.245.876,1.611c0,.365.395,1.406.877,2.312.482.907.876,1.918.876,2.246c0,.329.394,1.024.876,1.544.683.736.877,1.319.877,2.633c0,1.157.22,1.968.701,2.579.552.701.701,1.422.701,3.38c0,2.218.096,2.572.877,3.251.86.748.876.856.876,5.903c0,4.695.061,5.196.701,5.775c1.07.969,1.072,13.574.001,15.329-.618,1.014-.7,1.77-.701,6.48-.001,4.958-.053,5.381-.734,6.016-.574.534-.786,1.295-.975,3.494-.163,1.897-.438,3.028-.844,3.478-.39.43-.603,1.247-.603,2.307c0,1.207-.185,1.8-.701,2.241-.386.331-.702.999-.703,1.487c0,.487-.292,1.363-.648,1.946-.355.583-.851,1.687-1.102,2.454-.25.767-.826,1.741-1.28,2.166-.479.448-.828,1.183-.833,1.753-.005.706-.406,1.324-1.431,2.208-.783.674-1.624,1.7-1.869,2.278-.603,1.427-4.203,5.084-5.004,5.084-.356,0-1.068.433-1.584.964-1.64,1.684-2.248,2.089-3.49,2.322-.667.125-1.745.62-2.395,1.1s-1.6.872-2.111.872c-.512,0-1.215.316-1.564.701-.484.535-1.08.701-2.509.701-1.475,0-2.041.168-2.662.789-.727.727-1.191.803-5.908.964-3.815.131-5.278.308-5.745.697-.949.789-44.562.791-45.061.002-.345-.547-.5-118.018-.156-118.915.209-.545,40.052-.571,50.139-.032m109.185-.059c5.513.229,6.611.366,7.321.918.514.399,1.411.65,2.326.65c1.203,0,1.601.169,2.065.876.367.56.9.876,1.479.876.498,0,1.374.395,1.947.877s1.236.876,1.472.876c.237,0,1.053.571,1.814,1.27.761.698,1.64,1.368,1.955,1.489.642.248,3.109,3.092,3.109,3.585c0,.174.197.321.438.326s.688.597.992,1.315c.305.718.817,1.902,1.139,2.632.323.729.587,1.834.588,2.454.002.62.316,1.601.699,2.179c1.038,1.568,1.078,16.553.046,17.487-.36.326-.75,1.285-.866,2.132-.121.886-.55,1.899-1.01,2.39-1.426,1.521-2.065,2.511-2.272,3.525-.119.577-.551,1.153-1.031,1.371-.454.207-.827.549-.828.759c0,.21-.728.681-1.617,1.046-.888.366-2.12,1.169-2.737,1.786-.616.617-1.511,1.219-1.988,1.339s-1.614.933-2.527,1.807c-.912.875-1.96,1.59-2.329,1.59-2.553,0-1.816,1.974.866,2.321.96.124,2.06.509,2.446.855.385.346,1.128.735,1.651.864.522.13,1.133.457,1.357.727.224.271.551.492.725.492.723,0,5.37,2.531,5.815,3.167.266.379.647.689.848.689.404,0,2.4,2.026,2.4,2.437c0,.142.788,1.16,1.752,2.262.964,1.101,1.753,2.225,1.753,2.496s.295.651.655.843c.391.21.743.909.876,1.742.15.936.441,1.461.891,1.603.58.184.697.686.884,3.793.452,7.509.032,13.171-1.115,15.014-.434.698-.788,1.728-.788,2.289c0,.586-.299,1.275-.702,1.62-.385.33-.701.994-.701,1.474c0,.556-.564,1.462-1.547,2.489-.851.888-1.636,1.966-1.744,2.396-.258,1.032-3.755,4.621-4.815,4.943-.458.14-1.149.515-1.534.833-1.657,1.37-2.976,2.116-4.419,2.502-.848.227-1.823.712-2.168,1.079s-.994.667-1.443.667c-.448,0-1.217.316-1.707.701-.626.493-1.422.701-2.679.701-1.469,0-1.923.156-2.549.877-.739.85-.899.876-5.268.876-3.427,0-4.817.139-5.808.579-1.89.839-47.237.953-47.763.12-.642-1.015-.438-118.752.205-119.112.654-.366,44.17-.28,53.441.106M134.181,74.337c-.924.556-.957,81.997-.034,82.763.954.791,12.901.681,14.389-.132.618-.338,1.845-.614,2.727-.614c2.937,0,5.562-1.78,9.895-6.707.231-.264.626-.675.876-.914c1.2-1.144,1.674-1.838,2.698-3.948.609-1.253,1.339-2.585,1.623-2.959s.516-1.104.516-1.621.237-1.611.526-2.431.531-2.22.537-3.112c.006-.891.243-1.927.526-2.301.77-1.018.77-32.328,0-33.346-.322-.426-.519-1.504-.526-2.883-.006-1.211-.248-2.768-.537-3.46-.289-.693-.526-1.599-.526-2.015c0-.415-.213-1.066-.473-1.447-.261-.38-.587-1.156-.726-1.725-.138-.569-.596-1.377-1.016-1.796-1.497-1.493-2.342-2.672-2.342-3.27c0-.75-2.232-2.776-3.769-3.422-.627-.263-1.139-.628-1.139-.811c0-.182-.671-.528-1.49-.769-.82-.24-1.683-.7-1.918-1.023-.29-.397-1.104-.634-2.529-.737-1.424-.103-2.341-.371-2.85-.832-.877-.795-13.234-1.212-14.438-.488m104.669-.024c-1.132.471-1.224,1.818-1.1,16.205.086,9.956.214,12.969.566,13.321.853.854,11.892.843,12.819-.013.595-.55,1.362-.717,3.729-.815c2.503-.103,3.164-.26,4.129-.983.632-.472,1.657-1.024,2.279-1.225.698-.225,1.334-.773,1.665-1.435.294-.589.725-1.299.958-1.578s.86-1.05,1.393-1.714l.97-1.207v-5.745c0-4.93-.082-5.805-.578-6.167-.317-.232-.808-.969-1.09-1.637-.793-1.873-5.25-5.597-6.7-5.597-.492,0-1.226-.355-1.629-.789-.796-.854-15.579-1.382-17.411-.621m-91.126,1.015c.601.361,2.019.746,3.151.856c1.393.134,2.308.432,2.828.92.422.398.925.722,1.116.722s.891.404,1.555.897c.664.494,1.682,1.125,2.262,1.403c1.351.647,2.977,2.15,2.977,2.752c0,.256.622,1.247,1.382,2.202c1.438,1.806,2.46,4.187,2.469,5.751.003.5.32,1.195.706,1.544.579.524.701,1.08.701,3.191c0,2.054.173,2.881.877,4.205l.876,1.648v14.269v14.269l-.876,1.648c-.613,1.153-.877,2.2-.877,3.48c0,1.043-.221,2.148-.514,2.566-.283.405-.624,1.418-.758,2.253-.133.835-.69,2.37-1.238,3.411-.548,1.04-.996,2.139-.996,2.441c0,.647-.092.753-4.072,4.724-1.691,1.686-3.395,3.167-3.788,3.292s-1.115.523-1.604.884c-.568.42-1.774.736-3.337.874-1.484.131-2.704.44-3.098.783-.791.691-10.637,1.032-12.237.424l-.961-.366v-40.482c0-38.184.035-40.502.614-40.839c1.193-.695,11.597-.47,12.842.278m107.628.032c.792.379,1.992.935,2.667,1.236c2.756,1.23,4.806,3.164,6.135,5.788c1.404,2.771,1.332,11.436-.114,13.7-.544.852-1.258,1.983-1.585,2.514-.328.53-.822.964-1.098.964s-1.403.631-2.504,1.402c-1.871,1.311-2.164,1.403-4.485,1.414-1.717.008-2.917.221-3.886.689-1.463.707-9.625,1.035-10.583.426-1.011-.643-1.161-2.459-1.157-14.033.004-12.706.115-14.319,1.003-14.555c2.082-.555,14.235-.2,15.607.455m-16.624,50.082l-.866.701-.106,14.658c-.121,16.705-.18,16.093,1.598,16.587c2.129.591,11.176.463,13.418-.19c1.054-.308,2.942-.667,4.196-.8c1.253-.132,2.623-.433,3.044-.668s1.052-.429,1.402-.431c.655-.002,3.01-2.09,5.632-4.993c1.189-1.315,1.493-1.917,1.502-2.971.007-.728.317-1.954.69-2.725.948-1.964.982-6.555.054-7.483-.397-.397-.738-1.428-.885-2.675-.284-2.415-.251-2.353-2.601-5.014-1.277-1.447-2.198-2.168-2.962-2.321-.611-.122-1.433-.524-1.828-.894-.792-.74-2.217-.863-14.751-1.267-6.323-.204-6.717-.179-7.537.486m14.615.938c1.111.29,3.114.526,4.453.526c4.959,0,10.039,4.349,10.039,8.594c0,.62.316,1.529.701,2.019.537.682.702,1.422.702,3.155s-.165,2.473-.702,3.155c-.481.612-.701,1.424-.702,2.589-.001,1.978-4.395,7.171-6.504,7.687-.568.139-1.408.544-1.868.9-.628.487-1.438.648-3.255.648-1.714,0-2.692.179-3.354.613-1.208.793-11.42,1.12-13.108.42l-1.042-.432.105-14.62c.085-11.759.199-14.734.586-15.2.666-.802,10.926-.841,13.949-.054" fill="#fc747c" fill-rule="evenodd"/><path d="M88.168,23.839c-.771.372-1.733.682-2.137.689s-1.099.327-1.544.713c-.444.386-.999.701-1.233.701s-.814.306-1.289.68c-.475.373-1.305.79-1.846.925-.54.136-1.053.521-1.141.856s-.54.782-1.006.995c-.466.212-.847.625-.847.919c0,.293-.208.533-.462.533-.255,0-.802.355-1.216.789-.413.434-1.091,1.104-1.505,1.49-.415.385-1.03,1.336-1.368,2.112-.338.777-.951,2.108-1.362,2.958-.411.851-.747,2.02-.747,2.598c0,.607-.333,1.405-.789,1.89l-.789.84v72.395v72.396l.732.592c.528.428.79,1.159.941,2.628.17,1.643.518,2.489,1.81,4.397.88,1.3,1.6,2.526,1.6,2.725s.907,1.178,2.016,2.176c2.871,2.583,3.087,2.748,3.944,3.02.424.135,1.07.545,1.437.911.366.367.953.667,1.304.667s.981.394,1.4.876c.48.552,1.132.877,1.763.877.55,0,1.355.308,1.79.685c1.288,1.117-.561,1.101,114.714.994l111.015-.102.839-.789c.495-.464,1.283-.788,1.916-.788.762,0,1.245-.257,1.651-.877.391-.597.894-.876,1.578-.876.683,0,1.186-.28,1.577-.877.316-.482.835-.876,1.153-.876c1.171,0,5.716-4.256,5.716-5.353c0-.364.71-1.372,1.577-2.24.868-.867,1.578-1.888,1.578-2.269c0-.38.3-1.275.668-1.988c1.449-2.813,1.436-2.117,1.407-75.71-.028-73.805-.048-74.849-1.462-76.41-.337-.373-.613-.99-.613-1.371s-.395-1.227-.877-1.881c-.482-.653-.876-1.354-.876-1.558-.001-.203-.48-.843-1.065-1.422-.585-.578-1.402-1.406-1.816-1.84-.413-.434-.959-.789-1.214-.789-.254,0-.462-.181-.462-.403c0-.472-2.271-2.752-2.74-2.752-.177,0-.71-.306-1.185-.679-.475-.374-1.273-.783-1.774-.908-.501-.126-1.183-.53-1.517-.899-.333-.368-.976-.669-1.429-.669s-1.412-.316-2.132-.701c-2.026-1.086-223.434-1.086-225.683,0m225.72.878c.552.288,1.152.524,1.334.524c3.625,0,14.663,9.722,14.664,12.916c0,.259.316.871.701,1.362.386.49.701,1.323.701,1.851s.318,1.678.706,2.556c1.033,2.334.943,143.44-.092,144.584-.338.373-.615,1.06-.616,1.526-.001.467-.238,1.301-.526,1.853-.288.553-.523,1.252-.523,1.555s-.592,1.271-1.315,2.151-1.598,2.159-1.944,2.842c-.346.682-1.292,1.751-2.103,2.375-4.344,3.343-5.676,4.271-6.13,4.271-.276,0-.971.395-1.543.877-.573.482-1.389.876-1.813.876-.425,0-1.162.276-1.639.614-.82.58-6.817.618-112.172.706l-111.306.093-1.972-.882c-1.085-.485-2.189-.894-2.454-.909s-1.192-.483-2.06-1.04-2.191-1.348-2.941-1.757c-1.553-.849-1.765-1.01-3.992-3.026-1.621-1.467-3.458-4.105-4.471-6.419-.296-.675-.769-1.646-1.052-2.158s-.515-1.384-.515-1.938c0-.573-.302-1.266-.701-1.607-1.103-.945-1.103-143.553,0-145.218.383-.578.697-1.54.699-2.136.001-.638.291-1.347.703-1.72.386-.349.701-.884.701-1.189c0-1.938,6.756-10.204,8.34-10.204.296,0,1.183-.376,1.971-.835c1.191-.694,4.189-1.974,6.517-2.784c1.482-.515,223.848-.228,224.843.29M94.264,43.105c-1.712.521-4.221,2.214-4.546,3.067-.738,1.942-.398,138.401.346,139.075.368.333.854,1.052,1.08,1.597.289.699.934,1.208,2.182,1.727l1.772.737h105.997h105.997l1.67-.729c1.314-.574,1.874-1.096,2.632-2.454l.964-1.726v-68.864c0-70.915.01-70.389-1.463-70.857-.442-.14-1.253-.587-1.803-.994l-1-.739-106.456-.059c-58.551-.033-106.868.066-107.372.219m214.143,1.067c.331.385.814.701,1.076.701.261,0,.936.461,1.499,1.025l1.025,1.024v68.596v68.595l-.789,1.029c-.434.566-1.13,1.459-1.547,1.984l-.758.955-107.161.089c-119.272.099-108.823.31-110.319-2.225-.367-.623-.897-1.22-1.177-1.328-.444-.17-.51-9.116-.51-68.864c0-78.349-.411-69.348,3.256-71.278l1.827-.962l106.489-.021c106.069-.021,106.491-.019,107.089.68M105.801,54.76c-.814.814-1.003,120.933-.191,122.043.683.935,47.406.737,48.094-.204.387-.529,1.069-.613,4.988-.613c3.449,0,4.703-.124,5.22-.515.374-.283,1.39-.525,2.258-.538s1.972-.249,2.454-.525c.482-.275,1.286-.506,1.786-.513.501-.007,1.183-.314,1.516-.682s1.016-.773,1.516-.898c.501-.126,1.3-.534,1.775-.908s1.008-.68,1.184-.68c.47,0,2.74-2.28,2.74-2.752c0-.221.507-.403,1.127-.403.652,0,1.428-.293,1.841-.697.392-.384,1.287-1.214,1.988-1.845s1.535-1.697,1.853-2.37c1.1-2.325,1.643-3.147,2.324-3.511.376-.201.683-.661.683-1.022s.71-1.528,1.578-2.594c.882-1.083,1.577-2.303,1.577-2.768c0-.458.395-1.367.877-2.02s.876-1.606.876-2.117.296-1.197.658-1.525c.648-.587.821-1.437,1.325-6.525.124-1.253.478-2.665.787-3.138.441-.676.585-2.073.678-6.546.104-5.069.19-5.752.789-6.293c1.056-.957,1.03-17.16-.03-18.298-.629-.674-.701-1.237-.701-5.422c0-3.784-.111-4.826-.583-5.5-.327-.468-.704-1.998-.86-3.497-.55-5.272-.879-6.964-1.467-7.552-.327-.327-.698-1.018-.824-1.534-.126-.517-.521-1.316-.877-1.776s-.648-1.109-.648-1.443c0-.333-.294-.982-.653-1.442s-.758-1.174-.888-1.587c-.129-.413-.545-.832-.924-.932-.514-.134-.69-.481-.69-1.362c0-.83-.286-1.457-.964-2.109-1.615-1.553-2.091-2.171-2.371-3.078-.39-1.26-4.592-4.915-5.652-4.915-.109,0-.919-.711-1.801-1.58-.886-.874-2.164-1.734-2.857-1.924-.69-.189-1.771-.661-2.402-1.049s-1.696-.705-2.366-.705c-.859,0-1.219-.158-1.219-.535c0-.713-1.427-1.218-3.444-1.218-1.266,0-1.747-.162-2.084-.701-.398-.639-.817-.701-4.688-.701-3.798,0-4.385-.084-5.518-.789l-1.268-.789-22.946-.017c-21.632-.016-22.982.019-23.576.614m105.96-.388c-2.279.485-2.12-4.131-2.12,61.709c0,54.265.054,60.26.551,60.756.968.969,50.456.823,51.064-.15.401-.643.817-.701,5.019-.701c3.485,0,4.744-.123,5.262-.515.374-.283,1.42-.519,2.325-.526.904-.006,1.736-.159,1.849-.341.112-.182.914-.437,1.783-.567.963-.145,1.707-.476,1.907-.85.182-.339.921-.708,1.656-.826.785-.127,1.507-.503,1.768-.924.243-.39.741-.71,1.107-.71.367,0,1.538-.709,2.603-1.577s2.06-1.578,2.211-1.578.595-.308.988-.685c.392-.376,1.62-1.539,2.729-2.583c1.108-1.045,2.016-2.133,2.016-2.418s.473-1.172,1.051-1.971c.579-.798,1.055-1.65,1.06-1.893.004-.242.316-.835.693-1.317.424-.542.689-1.43.693-2.326.007-1.155.187-1.567.885-2.024.823-.54.876-.759.878-3.634.002-2.463.138-3.264.699-4.111.983-1.484.983-5.14,0-6.39-.532-.676-.701-1.422-.701-3.094c0-2.482-.22-3.312-.876-3.312-.528,0-.877-.77-.877-1.937c0-.455-.289-1.034-.643-1.286s-.749-.994-.878-1.649c-.129-.656-.562-1.523-.961-1.929-.399-.405-1.364-1.572-2.145-2.594-.985-1.289-1.743-1.923-2.475-2.069-.604-.121-1.125-.482-1.221-.847-.091-.35-.465-.731-.83-.847s-.817-.498-1.004-.848c-.188-.35-.779-.746-1.315-.88-.535-.134-1.21-.442-1.499-.685s-1.472-.809-2.629-1.257-2.263-.935-2.459-1.082c-.195-.147-.984-.325-1.752-.395-1.098-.1-1.259-.192-.75-.428.357-.165,1.014-.664,1.46-1.111.446-.446,1.259-.916,1.805-1.044.547-.129,1.547-.749,2.222-1.378.675-.63,1.739-1.403,2.366-1.718.627-.316,1.139-.709,1.139-.874c0-.166.328-.387.728-.491.4-.105.811-.512.914-.906.103-.393.471-.806.818-.916s.725-.446.841-.748c.249-.65,1.238-1.966,3.273-4.358c1.188-1.398,1.49-2.023,1.49-3.095c0-.812.277-1.695.701-2.234.949-1.207,1.084-15.327.159-16.648-.298-.426-.634-1.605-.746-2.62s-.5-2.338-.861-2.939c-.36-.602-.656-1.322-.656-1.602c0-.623-2.146-3.09-2.688-3.09-.215,0-.482-.362-.593-.804-.352-1.402-2.662-4.044-3.745-4.282-.553-.122-1.091-.493-1.197-.825-.212-.669-3.912-2.502-5.05-2.502-.397,0-1.022-.322-1.389-.716-.366-.393-1.279-.81-2.029-.926s-1.645-.504-1.99-.862c-.546-.567-1.198-.651-5.042-.651-3.943,0-4.549-.083-5.669-.775l-1.254-.775-24.729-.039c-13.602-.021-25.274.078-25.94.22m-59.263,1.021c.592.342,2.411.566,5.609.69c4.31.167,4.804.254,5.522.972.621.622,1.186.789,2.662.789c1.429,0,2.025.167,2.508.701.349.386,1.059.701,1.578.701s1.212.297,1.541.661c.328.363,1.276.85,2.104,1.082.829.232,2.281,1.031,3.226,1.775.945.743,2.419,1.794,3.276,2.335c1.787,1.128,4.577,3.91,4.577,4.565c0,.244.789,1.314,1.753,2.378.964,1.065,1.752,2.222,1.752,2.572s.395,1.007.877,1.46c.482.452.876,1.04.876,1.306s.308,1.066.685,1.779c1.828,3.461,3.172,6.657,3.172,7.546c0,.541.192,1.328.428,1.749.235.421.519,2.042.63,3.6.156,2.185.379,3.06.974,3.816.706.898.772,1.374.774,5.58.002,3.998.094,4.734.699,5.649c1.069,1.613,1.069,15.389,0,16.748-.627.797-.701,1.422-.701,5.922c0,4.693-.059,5.141-.876,6.677-.637,1.197-.88,2.201-.889,3.678-.007,1.118-.238,2.426-.514,2.908-.275.482-.506,1.438-.513,2.124-.007.687-.244,1.554-.527,1.929-.283.374-.525.917-.537,1.206s-.41,1.315-.884,2.279c-.475.964-.864,1.934-.866,2.156-.002.221-.634,1.242-1.405,2.269-.771,1.026-1.403,2.146-1.403,2.489c0,.342-.641,1.283-1.425,2.091-.783.807-1.649,2.006-1.924,2.663-.606,1.45-3.852,4.578-5.064,4.88-.482.12-1.573.902-2.424,1.738-.852.837-1.709,1.521-1.906,1.521-.196,0-1.424.552-2.728,1.227s-2.631,1.227-2.948,1.227-.977.315-1.467.701c-.624.49-1.423.701-2.657.701-1.185,0-1.987.201-2.439.609-.544.493-1.583.644-5.461.792-3.632.139-5.061.331-5.916.796-1.044.568-2.761.606-23.478.523l-22.35-.091-.445-.876c-.621-1.223-.492-119.879.131-120.63.619-.746,45.1-.71,46.393.037m110.079.018c.581.326,2.531.552,5.793.673c4.415.164,5.02.263,5.92.971.583.46,1.489.789,2.169.789.809,0,1.283.215,1.543.701.245.459.734.701,1.414.701.572,0,1.34.3,1.706.667.367.366,1.037.782,1.49.924.453.141,1.342.709,1.975,1.261.633.553,1.372,1.005,1.641,1.005.27,0,.852.512,1.293,1.139c1.065,1.51,1.074,1.522,3.056,3.907c1.207,1.451,1.898,2.702,2.325,4.206.335,1.178.911,3.107,1.281,4.287c1.71,5.451.457,19.817-1.968,22.569-.424.482-1.268,1.665-1.874,2.629-1.336,2.124-3.228,4.039-5.077,5.141-.756.451-1.892,1.253-2.524,1.783-.633.53-1.319.964-1.526.964-.483,0-2.462,1.347-3.478,2.367-.432.433-1.023.788-1.312.788s-.526.141-.526.313c0,.421.895.739,2.078.739.533,0,1.254.316,1.603.701.349.386.929.701,1.288.701.36,0,1.541.474,2.625,1.052c1.084.579,2.224,1.053,2.535,1.053.31.001,1.314.672,2.232,1.49.917.819,2.216,1.883,2.885,2.365.67.482,1.774,1.705,2.455,2.717.68,1.012,1.381,1.841,1.557,1.841s.514.591.751,1.314c.238.723.723,1.521,1.079,1.773.364.257.648.884.648,1.429c0,.582.35,1.3.876,1.794.762.716.877,1.123.877,3.122c0,1.56.244,2.887.759,4.131.745,1.796.747,1.864.133,3.337-.358.859-.728,2.945-.862,4.862-.189,2.704-.385,3.549-1.009,4.341-.437.556-.774,1.48-.774,2.122c0,.625-.236,1.332-.524,1.571s-.69,1.055-.894,1.814c-.205.758-.596,1.465-.87,1.57s-.931,1.047-1.461,2.093c-.976,1.928-4.429,5.554-6.055,6.358-.489.242-1.52.911-2.291,1.486-1.285.958-2.232,1.455-6.836,3.589-.868.402-1.873.877-2.234,1.056s-1.544.414-2.629.523c-1.118.112-2.336.479-2.809.847-.712.552-1.49.648-5.231.648-3.694,0-4.503.098-5.073.614-.897.812-48.947.964-49.754.158-.899-.899-.826-119.273.074-120.417.95-1.207-.821-1.133,26.464-1.1c20.054.025,24.339.114,25.066.521M135.32,74.927c-.289.11-.642.374-.784.586-.488.731-.32,80.766.17,81.083c1.14.738,10.74.553,12.279-.236.836-.428,2.474-.846,3.76-.959c1.433-.126,2.589-.441,3.115-.85.46-.358,1.047-.651,1.305-.651.415,0,2.755-1.932,4.313-3.562c2.753-2.879,3.665-4.059,3.96-5.128.189-.684.723-1.845,1.187-2.58s.844-1.78.844-2.321c0-.542.315-1.603.701-2.36.425-.833.702-2.071.703-3.141.002-1.173.237-2.12.699-2.819.668-1.008.697-1.672.697-16.301s-.029-15.293-.697-16.301c-.53-.801-.697-1.647-.699-3.547-.001-1.961-.152-2.684-.703-3.385-.386-.491-.701-1.256-.701-1.701c0-1.378-1.118-3.909-2.518-5.699-.736-.941-1.338-1.898-1.338-2.125c0-.617-1.728-2.122-3.395-2.957-.806-.404-1.569-.901-1.695-1.105-.126-.203-.834-.612-1.574-.908s-1.426-.749-1.525-1.007c-.111-.288-1.093-.566-2.552-.722-1.305-.14-2.854-.547-3.441-.906-1.063-.648-10.628-.963-12.111-.398m104.382.123c-.904.527-.946,26.685-.045,27.972.711,1.015,9.614,1.052,10.825.045.406-.337,1.729-.593,3.696-.715c2.861-.177,3.165-.271,4.592-1.434.84-.685,1.967-1.354,2.504-1.486.594-.146,1.11-.589,1.316-1.131.186-.49.772-1.459,1.302-2.155c1.528-2.004,1.489-11.634-.058-14.288-1.324-2.271-4.974-5.434-6.271-5.434-.234,0-1.167-.394-2.072-.876-1.796-.956-14.324-1.351-15.789-.498m-92.971.689c.567.533,1.431.773,3.353.932c1.95.162,2.702.374,3.047.86.252.355.675.646.939.646.265,0,.69.2.944.445.987.948,3.603,2.71,4.024,2.71.533,0,2.224,1.76,2.224,2.315c0,.216.463.975,1.028,1.687.565.711,1.128,1.747,1.249,2.302.122.555.449,1.198.725,1.427.278.231.504,1.022.504,1.764c0,.936.235,1.565.772,2.065.649.604.804,1.222.965,3.834.139,2.273.356,3.297.804,3.791c1.014,1.119.933,29.203-.087,30.5-.544.692-.701,1.423-.701,3.256c0,2.03-.107,2.434-.755,2.865-.584.388-.792.956-.922,2.525-.099,1.191-.353,2.095-.619,2.197-.248.095-.808,1.187-1.246,2.426-.437,1.239-.906,2.252-1.043,2.252-.136,0-.346.395-.467.877s-.458.876-.748.876-.678.394-.861.876-.516.877-.74.877-.771.355-1.217.789c-2.088,2.033-2.489,2.335-3.399,2.558-.535.132-1.132.537-1.327.9-.298.557-.765.661-2.97.661-2.15,0-2.742.125-3.318.701-.641.641-1.169.701-6.135.701h-5.434v-39.887c0-35.533.059-39.972.546-40.666.806-1.151,9.651-1.202,10.865-.062m107.576-.051c.332.367,1.176.774,1.876.906.7.131,1.658.541,2.128.911.47.369,1.153.672,1.517.672.384,0,.803.368.996.876.183.482.534.885.78.896c2.096.088,3.662,14.692,1.689,15.748-.381.204-.787.908-.914,1.581-.195,1.039-.4,1.247-1.422,1.438-.657.124-1.311.432-1.453.685-1.202,2.143-3.734,2.712-14.16,3.179-4.636.208-4.8.191-5.187-.533-.466-.871-.38-25.858.092-26.587.525-.812,13.304-.605,14.058.228m-14.668,50.717c-.989.99-.816,29.782.183,30.317c1.29.69,11.853.3,13.003-.481.618-.419,1.884-.708,3.681-.841c1.893-.139,2.999-.402,3.576-.851.46-.357,1.095-.649,1.41-.649c1.511,0,6.343-5.705,6.343-7.489c0-1.16.22-1.97.701-2.582.531-.674.702-1.422.702-3.075c0-1.654-.171-2.401-.702-3.076-.385-.49-.701-1.34-.701-1.888-.001-4.559-5.107-8.884-10.49-8.884-1.496,0-3.494-.235-4.441-.522-2.525-.766-12.493-.75-13.265.021m12.191.677c.848.354,2.461.525,4.937.525c3.141,0,3.771.096,4.306.658.345.362,1.022.777,1.504.922c1.153.349,3.146,2.288,3.151,3.065.002.338.319.929.705,1.315.467.467.701,1.169.701,2.103c0,.987.234,1.636.789,2.192.627.627.789,1.184.789,2.725c0,1.478-.187,2.174-.789,2.939-.57.725-.789,1.472-.789,2.692c0,1.868-4.389,6.981-5.992,6.981-.386,0-1.095.394-1.577.876-.785.786-1.161.877-3.618.877-2.21,0-2.914.136-3.632.701-.811.637-1.423.701-6.709.701h-5.816v-14c0-8.248.14-14.369.342-14.899l.341-.899h5.05c3.695,0,5.386.141,6.307.526" fill="#f8bcbc" fill-rule="evenodd"/><path d="M43.541,253.532c-.729.728-.597,64.993.134,65.274c1.139.437,38.544.237,38.989-.208.614-.614.585-9.875-.033-10.387-.299-.248-4.691-.412-12.883-.481-6.836-.058-12.627-.233-12.868-.389-.344-.223-.438-5.979-.438-26.836c0-20.184-.101-26.653-.421-26.973-.293-.293-2.181-.421-6.24-.421s-5.947.128-6.24.421m67.93,14.632c-.874.161-2.339.547-3.255.858-.917.311-1.901.566-2.188.566-1.346,0-5.624,2.662-7.883,4.905-11.006,10.931-8.449,37.006,4.188,42.702.693.313,1.497.753,1.786.977c2.533,1.968,13.7,3.171,16.863,1.817.695-.298,1.957-.656,2.805-.797c13.374-2.226,20.043-25.246,11.678-40.314-2.014-3.628-9.03-9.29-11.512-9.29-.254,0-1.462-.32-2.684-.71-2.5-.799-7.401-1.156-9.798-.714m40.589.079l-.964.352.001,17.236c.001,18.815.248,22.078,1.951,25.801c1.658,3.624,5.275,6.956,8.214,7.567.675.14,1.663.477,2.196.749c4.431,2.265,13.813-.018,18.709-4.551l2.208-2.045.864.865c.476.475,1.045,1.553,1.265,2.395.22.841.656,1.727.968,1.968.591.457,7.912.641,8.994.226.954-.367.833-50.096-.124-50.608-.89-.476-9.779-.469-11.151.009l-1.066.371-.182,15.317c-.195,16.281-.298,17.364-1.988,20.907-2.863,5.997-12.498,7.229-15.992,2.044-1.736-2.576-1.896-4.433-1.896-21.98c0-15.761-.023-16.317-.678-16.668-.864-.462-10.04-.426-11.329.045m61.086.046l-.876.443-.091,24.705c-.085,22.914-.048,24.737.505,25.143.66.485,11.181.634,11.912.169.294-.187.451-4.213.566-14.456.171-15.401.369-17.215,2.263-20.745c2.621-4.885,11.048-6.53,14.84-2.897c2.632,2.522,2.596,2.241,2.711,21.089l.104,16.902l1.123.204c.618.113,3.49.158,6.382.101l5.259-.104-.006-19.106-.006-19.106-.97-2.405c-2.408-5.975-6.992-9.288-14.129-10.211-1.884-.244-6.996.315-7.645.836-.21.168-.934.421-1.609.562-1.631.341-4.821,2.327-6.5,4.046-2.351,2.408-3.135,1.969-4.171-2.337-.483-2.009-.77-2.575-1.467-2.892-1.185-.54-7.095-.497-8.195.059m73.445-.117c-11.153,1.708-16.652,7.277-16.652,16.865c0,5.153,2.739,11.522,5.346,12.43c1.342.468,2.594,2.643,1.825,3.169-5.899,4.033-6.649,7.602-2.577,12.255c1.896,2.168,1.845,2.969-.192,2.974-.397.001-1.747.673-3,1.493-9.378,6.137-5.769,19.345,5.96,21.811c1.253.263,2.909.645,3.681.848c1.759.463,11.383.472,13.497.013.867-.189,2.603-.515,3.856-.725c12.68-2.122,20.228-12.749,16.153-22.74-2.537-6.219-5.625-7.529-18.958-8.041-10.208-.393-12.169-.749-12.831-2.331-1.153-2.761.704-4.036,5.493-3.77c8.305.461,16.783-3.032,19.783-8.15c2.214-3.778,2.908-9.392,1.578-12.766-1.146-2.906-.744-3.851,1.642-3.859.543-.002,1.816-.389,2.828-.861l1.84-.856v-2.959c0-3.684.889-3.384-10.018-3.384-7.891,0-9.14-.078-10.927-.68-2.38-.803-5.877-1.112-8.327-.736m56.266-.007c-13.852,2.463-20.193,10.86-20.137,26.664.053,15.196,6.582,22.975,21.539,25.664c2.492.448,9.935.114,11.745-.528.771-.273,2.191-.605,3.155-.738s2.743-.72,3.954-1.304l2.201-1.062-.098-4.614c-.112-5.272-.202-5.403-2.843-4.125-12.84,6.216-26.527,1.53-26.527-9.081c0-2.557-.631-2.459,15.778-2.459c8.687,0,15.043-.14,15.575-.342l.899-.342v-4.913c0-8.087-1.624-12.573-6.179-17.07-1.434-1.416-2.818-2.574-3.075-2.574s-.856-.306-1.331-.679c-.475-.374-1.325-.785-1.888-.914-.563-.128-2.028-.533-3.255-.899-2.556-.762-7.198-1.096-9.513-.684m-48.123,9.147c2.306,1.696,3.075,3.665,3.075,7.876c0,6.917-3.112,9.924-9.447,9.133-6.605-.826-8.707-12.579-3.028-16.933c2.193-1.681,7.163-1.721,9.4-.076m57.033,1.648c3.013,1.997,5.371,7.247,3.789,8.435-.811.609-18.761.462-19.381-.159-1.02-1.021,1.748-6.648,3.985-8.103c3.05-1.983,8.748-2.069,11.607-.173m-231.293.952c6.637,4.215,7.698,21.801,1.667,27.635-2.209,2.137-9.258,2.818-12.323,1.191-8.051-4.273-7.299-26.773.979-29.295c1.977-.603,8.486-.287,9.677.469m181.097,40.257c5.329,3.132,2.064,9.213-5.865,10.927-6.996,1.511-8.231,1.528-12.812.174-6.531-1.929-7.856-7.399-2.619-10.809c2.135-1.39,2.216-1.4,11.224-1.331l8.413.064l1.659.975" fill="#7c7c7c" fill-rule="evenodd"/><path d="M49.833,253.023c4.303.077,5.936.227,6.22.568.269.325.411,8.41.474,27.068.079,23.356.154,26.61.616,26.644.302.022.339-.024.087-.108-.345-.116-.438-5.772-.438-26.711c0-31.599.979-27.754-7.039-27.645l-5.757.079l5.837.105m-6.902.527c-.432,1.133.02,65.236.461,65.325.246.05.285.011.087-.087-.554-.275-.494-64.701.062-65.256.327-.327.325-.421-.011-.421-.238,0-.507.198-.599.439m65.044,15.162c-1.446.455-2.358.839-2.028.852.331.013,1.352-.231,2.269-.542.916-.311,2.381-.687,3.255-.835c1.445-.245,1.477-.271.361-.286-.675-.01-2.41.355-3.857.811m10.528-.525c.873.148,2.338.524,3.255.835s1.889.566,2.161.566c1.395,0,5.685,2.682,8.051,5.032c3.587,3.564,5.69,7.702,6.706,13.198l.486,2.629-.176-2.345c-.403-5.376-4.139-12.155-8.492-15.405-1.98-1.478-5.645-3.458-6.404-3.459-.296,0-1.436-.316-2.533-.702-1.098-.385-2.591-.682-3.319-.66l-1.323.042l1.588.269m32.818.094c-1.008.737-.682,37.191.365,40.746c1.208,4.106,3.076,6.764,6.265,8.916c1.891,1.276,6.525,2.934,7.612,2.724.651-.125.617-.159-.199-.199-.54-.026-1.408-.265-1.928-.531-.521-.266-1.499-.598-2.174-.738-2.939-.611-6.556-3.943-8.214-7.567-1.703-3.723-1.95-6.986-1.951-25.801l-.001-17.236.964-.352c.53-.194.718-.365.417-.38-.3-.015-.821.173-1.156.418m12.132-.067c.57.332.614,1.503.614,16.657c0,17.542.16,19.399,1.896,21.975c1.727,2.563,5.642,3.845,8.98,2.94c2.045-.554,1.402-.772-.782-.265-.846.196-2.01.147-3.331-.14-5.998-1.307-6.393-2.843-6.404-24.911-.009-15.879-.066-16.657-1.218-16.624-.203.006-.092.171.245.368m20.859,0c-.566.329-.614,1.318-.619,12.697-.01,21.234-1.014,25.811-6.129,27.953-.494.207-.54.301-.157.316c1.211.05,3.47-2.12,4.539-4.361c1.7-3.562,1.802-4.629,1.997-20.929l.183-15.321.925-.339c.51-.187.69-.347.4-.356-.289-.01-.802.143-1.139.34m12.095,0c.575.335.613,1.92.613,25.399v25.041l-.789.183c-.433.101-2.445.228-4.469.284l-3.681.1l3.967.074c6.022.112,5.323,3.481,5.323-25.635c0-25.271-.027-25.848-1.21-25.814-.202.006-.092.171.246.368m15.951,0c-.576.335-.614,1.908-.614,25.16c0,25.012.029,25.644,1.189,25.644.191,0,.079-.197-.249-.438-.553-.406-.59-2.229-.505-25.143l.091-24.705.876-.443c.482-.244.64-.441.351-.438s-.802.166-1.139.363m9.087.037c.567.274.914,1.005,1.362,2.868c1.037,4.31,1.82,4.749,4.172,2.34c1.679-1.719,4.869-3.705,6.5-4.046.675-.141,1.405-.399,1.623-.574.217-.174,1.321-.452,2.454-.618c1.514-.221,1.734-.312.831-.345-3.148-.113-8.546,2.326-11.508,5.199-2.131,2.068-2.985,1.656-3.59-1.734-.43-2.406-1.17-3.553-2.245-3.482-.198.013-.018.189.401.392m22.376-.073c6.739,1.223,10.717,4.288,13.043,10.048l.971,2.405.005,19.164c.003,15.991.082,19.099.474,18.773.594-.492.358-34.259-.262-37.465-1.396-7.227-8.346-13.503-14.644-13.224-.794.035-.713.094.413.299m39.697.258c-.919.306-1.6.628-1.513.715s.918-.088,1.846-.389s2.319-.606,3.09-.678l1.403-.131-1.578-.037c-.868-.021-2.329.213-3.248.52m8.507-.267c.867.132,2.332.506,3.255.83c1.401.492,3.14.589,10.576.589c10.894,0,10.007-.3,10.007,3.384v2.959l-1.84.856c-1.85.862-1.865,1.188-.023.49c2.085-.79,2.564-1.613,2.564-4.4c0-3.766.366-3.639-10.519-3.639-8.063,0-9.162-.071-10.956-.702-1.098-.385-2.591-.68-3.319-.654l-1.323.047l1.578.24m47.934.267c-.919.306-1.599.628-1.512.715s.917-.088,1.846-.388c.928-.3,2.24-.607,2.915-.681c1.208-.133,1.206-.135-.176-.169-.771-.019-2.154.216-3.073.523m9.642-.239c.913.154,2.412.516,3.33.804.919.289,2.131.628,2.694.753s1.413.534,1.888.908c.475.373,1.074.679,1.331.679s1.641,1.158,3.075,2.574c4.555,4.497,6.179,8.983,6.179,17.07v4.913l-.899.342c-.532.202-6.888.342-15.575.342-15.383,0-15.792.039-15.773,1.515.004.314.069.314.27-.003.659-1.037,2.465-1.161,16.855-1.161c10.913,0,14.738-.107,15.052-.421.893-.893.545-10.717-.497-14.022-2.21-7.013-6.723-11.686-12.946-13.403-4.17-1.151-4.558-1.235-5.593-1.202-.753.023-.58.112.609.312m-245.66,1.747c-.121.196-.786.592-1.477.881-14.547,6.078-15.874,35.986-2.022,45.575c2.917,2.019,8.959,4.394,11.039,4.339c1.038-.027,1.122.003-3.33-1.206-1.928-.524-3.743-1.136-4.032-1.361-.289-.224-1.093-.664-1.786-.977-9.82-4.426-14.296-22.99-8.713-36.132c1.627-3.831,6.77-9.679,8.56-9.733.649-.02,3.191-1.738,2.573-1.74-.326-.001-.691.158-.812.354m173.965.345c-.49.386-1.002.701-1.138.701-.572,0-3.814,3.04-4.647,4.356-4.501,7.117-3.184,17.249,2.921,22.465c2.267,1.936,2.292,2.14.428,3.504-4.567,3.342-5.001,7.343-1.278,11.759c1.491,1.767,1.513,2.206.129,2.539-.684.165-.684.17.02.21c2.027.114,2.085-.769.192-2.932-4.072-4.653-3.322-8.222,2.577-12.255.769-.526-.483-2.701-1.825-3.169-2.607-.908-5.346-7.277-5.346-12.43c0-6.617,2.524-11.144,7.948-14.256c1.123-.644,1.788-1.176,1.477-1.182-.312-.006-.968.305-1.458.69m56.187.246c-8.351,4.87-11.744,11.85-11.724,24.119.016,10.422,2.193,15.743,8.56,20.925c1.99,1.62,6.054,3.79,7.096,3.79.294,0,1.522.315,2.729.701s2.687.682,3.288.657c1.009-.04.984-.064-.308-.308-14.574-2.743-20.996-10.622-21.004-25.765-.006-12.369,3.474-19.241,12.285-24.262.746-.425,1.199-.774,1.006-.775s-1.06.412-1.928.918m-48.759,6.853c-2.779,2.131-3.866,6.569-2.788,11.386.481,2.147,3.278,5.354,4.67,5.354.586,0,.438-.171-.63-.729-6.036-3.149-5.261-15.281,1.079-16.896.61-.155.601-.177-.083-.213-.419-.023-1.43.472-2.248,1.098m7.216-.835c6.491,2.172,6.884,14.539.55,17.287-.392.17-.413.246-.074.263.89.046,3.148-2.089,3.967-3.751c2.519-5.116-.358-14.266-4.424-14.068-.709.034-.709.038-.019.269m16.915,1.477c-.795.463-.774,1.291.088,3.477c2.85,7.23-2.202,16.819-10.166,19.299-.718.224-.75.278-.176.302c2.741.115,8.947-5.354,10.333-9.106c1.264-3.42,1.4-7.845.336-10.914-.913-2.631-.878-2.739.984-3.1c1.205-.234,1.228-.259.267-.286-.579-.016-1.328.131-1.666.328m35.069-.12c1.019.071,2.596.07,3.506-.002.909-.072.076-.13-1.852-.129-1.929.001-2.673.06-1.654.131m-4.392,1.196c-2.736,1.918-5.433,8.381-3.487,8.356.316-.004.314-.072-.009-.277-1.366-.868,1.701-6.619,4.367-8.189.918-.54,1.432-.971,1.143-.958s-1.195.494-2.014,1.068m11.381.122c2.364,1.592,3.668,3.77,3.732,6.235l.047,1.829-9.114.184-9.115.184l8.96.079c10.64.093,10.334.185,9.686-2.901-.637-3.035-3.758-6.795-5.67-6.83-.191-.003.473.545,1.474,1.22m-116.466-.372l-2.103.386l3.155-.003c8.118-.007,8.589,1.281,8.589,23.504v15.942l.899.342c.494.188,3.374.311,6.398.274l5.498-.068-6.135-.224c-3.374-.124-6.167-.251-6.206-.283-.04-.032-.119-7.67-.176-16.973-.103-16.88-.105-16.919-.916-18.565-1.032-2.096-2.832-3.682-4.526-3.988-.727-.131-1.559-.35-1.848-.485s-1.472-.072-2.629.141m-121.735.455c.916.072,2.414.072,3.33,0s.167-.131-1.665-.131-2.581.059-1.665.131m-3.243.348c-5.069,1.926-7.455,13.641-4.706,23.099.894,3.075,4.445,6.898,5.869,6.318.244-.099.188-.18-.137-.196-1.509-.076-4.401-3.248-5.175-5.677-3.124-9.803-.739-21.16,4.921-23.431.857-.344.119-.451-.772-.113m9.354.131c7.988,2.312,8.294,25.869.377,29.05-.509.204-.593.326-.235.34c6.492.259,8.849-22.288,2.897-27.706-1.55-1.411-2.667-2.073-3.444-2.038-.471.021-.335.14.405.354m110.475.847c-4.02,3.132-4.549,5.779-4.746,23.746l-.157,14.287-.758.177c-.418.097-3.046.219-5.842.272l-5.083.096l5.369.077c7.53.108,6.725,1.644,6.725-12.845c0-11.558.291-16.127,1.295-20.382.558-2.363,3.358-5.738,5.224-6.296.774-.231.843-.312.287-.335-.402-.016-1.443.525-2.314,1.203m-90.791,15.069c-.493,11.039-4.203,17.855-12.119,22.26-.818.454-1.425.888-1.35.962.265.266,3.93-2.013,5.789-3.601c5.549-4.736,8.372-12.442,8.024-21.9-.093-2.542-.144-2.206-.344,2.279m150.015-1.324c.627.077,1.652.077,2.279,0c.627-.078.114-.142-1.139-.142-1.254,0-1.766.064-1.14.142m46.737,5.072c-.106,4.335,5.767,11.238,9.476,11.137.271-.007-.496-.441-1.703-.964-3.79-1.641-5.969-4.408-7.238-9.189-.338-1.273-.52-1.607-.535-.984m-39.638,2.108c-.482.208-1.507.507-2.278.664-1.341.274-1.325.281.35.149c1.752-.136,4.907-1.217,3.506-1.2-.386.005-1.096.179-1.578.387m-12.29,1.145c-1.876,1.02-1.945,4.822-.085,4.702.557-.036.562-.059.04-.197-2.557-.675-.924-4.274,2.169-4.782.769-.126.747-.148-.175-.177-.579-.019-1.456.186-1.949.454m4.665.09c.724.076,1.907.076,2.63,0s.131-.138-1.315-.138-2.038.062-1.315.138m74.058,4.731c-.578.206-1.363.588-1.743.849s-1.011.493-1.402.516c-.557.031-.583.074-.121.196.325.086,1.469-.26,2.542-.767c3.135-1.483,3.162-1.45,3.276,3.937l.098,4.626-1.961.927c-1.078.511-1.889,1-1.801,1.088.088.087,1.005-.287,2.038-.833l1.879-.992.098-4.501c.122-5.586-.133-6.031-2.903-5.046m-292.58.184c8.184.066,12.215.223,12.533.486.63.524.673,9.774.047,10.4-.314.315-5.234.442-19.544.505l-19.124.085l19.076.093c22.885.113,20.364.867,20.364-6.089c0-6.362,1.42-5.762-13.387-5.66l-12.03.083l12.065.097m216.856.379c.098.098,3.845.309,8.328.47c4.482.16,8.86.366,9.728.458.867.091.394-.052-1.052-.317-2.481-.456-17.384-.991-17.004-.611m-173.443,1.37c1.012.071,2.669.071,3.681,0s.184-.129-1.841-.129c-2.024,0-2.852.058-1.84.129m195.218.812c10.447,5.415,8.258,22.223-3.514,26.986-.523.211-.571.301-.167.317.311.013,1.146-.372,1.856-.854.711-.482,1.409-.876,1.553-.876.398,0,3.63-3.173,4.641-4.558c3.948-5.401,3.534-14.662-.841-18.828-1.495-1.424-4.404-3.258-5.168-3.258-.234,0,.504.482,1.64,1.071m47.464-.651c-.482.206-1.429.493-2.104.638-1.207.26-1.21.265-.175.293.579.016,1.919-.276,2.98-.649c1.22-.43,1.606-.675,1.052-.668-.482.006-1.271.18-1.753.386m-8.49,1.242c1.019.071,2.597.07,3.506-.002s.076-.13-1.852-.129-2.673.06-1.654.131M182.094,315.46c-2.705,2.515-5.549,3.927-9.964,4.947-.974.225-1.046.29-.351.316c2.507.094,7.291-2.147,10.61-4.971c2.324-1.978,2.647-1.911,3.63.752.701,1.897,1.114,2.519,1.666,2.504.218-.006.132-.165-.19-.353-.323-.188-.697-.854-.831-1.479-.819-3.802-1.893-4.205-4.57-1.716m89.247,1.409c-6.671,4.194-7.675,13.375-2.018,18.461c1.72,1.547,5.171,3.672,5.957,3.669.243-.001-.54-.517-1.741-1.147-9.122-4.784-10.242-15.23-2.198-20.494c2.515-1.646,2.515-2.071,0-.489m11.043,2.447c-4.983,1.621-6.875,7.181-3.43,10.083c2.412,2.032,8.19,3.293,12.028,2.626c3.499-.608,6.575-1.377,5.6-1.399-.482-.012-2.217.287-3.856.662-9.834,2.255-18.536-3.281-14.075-8.953c2.02-2.568,2.848-2.771,12.147-2.981l8.413-.19-8.063-.038c-4.435-.021-8.378.065-8.764.19m-160.852.447c-.353.205-1.378.511-2.279.679l-1.637.306l1.753-.14c1.787-.143,4.864-1.209,3.506-1.215-.386-.001-.99.165-1.343.37m179.087.33c4.434,2.3,3.948,6.821-1.007,9.374-1.184.61-1.954,1.112-1.71,1.115.973.012,4.263-2.198,5.125-3.442c2.118-3.056.106-7.771-3.316-7.771-.269,0,.139.326.908.724m55.91-.315c-.482.2-1.665.486-2.629.635-1.733.268-1.737.271-.35.309.771.022,2.348-.266,3.505-.638c1.211-.39,1.732-.676,1.227-.674-.482.002-1.271.167-1.753.368m-242.675,1.247c.63.078,1.576.077,2.103-.003s.011-.144-1.145-.142c-1.157.002-1.588.067-.958.145m53.981-.006c.434.083,1.144.083,1.578,0c.434-.084.079-.152-.789-.152s-1.223.068-.789.152m179.492.009c.819.074,2.16.074,2.98,0c.819-.074.149-.134-1.49-.134s-2.31.06-1.49.134m-44.961,17.291c-.923.437-1.162.666-.701.67.386.004,1.175-.306,1.753-.689c1.31-.868.802-.858-1.052.019m-24.715,1.228c1.061.296,2.559.682,3.331.858c1.911.434,11.12.427,13.497-.01c3.49-.643,6.15-1.335,5.244-1.365-.49-.016-1.831.243-2.98.576-2.552.738-15.615.908-16.813.218-.386-.222-1.49-.496-2.454-.61l-1.753-.206l1.928.539" fill="#848484" fill-rule="evenodd"/><path d="M42.419,253.111c-1.052,1.052-1.11,65.078-.06,66.028.352.319.865.571,1.139.558.274-.012.144-.165-.29-.339l-.789-.317v-32.955-32.955l1.139-.329c.879-.253.959-.336.351-.36-.434-.018-1.104.284-1.49.669m13.945-.155l.779.546v26.586c0,27.59.028,28.152,1.335,26.844.101-.101,0-.184-.225-.184-.308,0-.409-6.572-.409-26.623v-26.623l-.779-.546c-.429-.3-.937-.546-1.13-.546s0,.246.429.546m56.97,14.438c1.116.069,2.851.069,3.857-.002c1.005-.07.092-.128-2.029-.127s-2.943.059-1.828.129m41.53.001c1.591.065,4.194.065,5.785,0c1.59-.065.289-.118-2.893-.118-3.181,0-4.483.053-2.892.118m32.954,0c1.59.065,4.193.065,5.784,0s.289-.118-2.892-.118c-3.182,0-4.483.053-2.892.118m27.344-.001c1.205.068,3.177.068,4.382,0c1.205-.069.219-.125-2.191-.125s-3.396.056-2.191.125m23.851-.001c1.018.071,2.596.07,3.505-.002.91-.072.076-.13-1.852-.129s-2.672.06-1.653.131m48.729,0c1.019.071,2.596.07,3.506-.002.909-.072.075-.13-1.853-.129s-2.672.06-1.653.131m56.267.001c1.116.069,2.851.069,3.857-.002c1.005-.07.092-.128-2.029-.127s-2.943.059-1.828.129m-237.134.78c-.455.379-.64.695-.41.701.229.007.513-.143.631-.333.117-.19.718-.491,1.335-.67c1.064-.307,1.074-.326.197-.356-.509-.017-1.298.279-1.753.658m14.668-.332c.617.195,1.218.51,1.335.7s.474.345.794.345c1.18,0-.437-1.068-1.873-1.237-1.367-.161-1.369-.16-.256.192m28.51.327c-.244.456-.335,6.445-.272,17.967l.094,17.282.085-17.326c.075-15.555.143-17.391.664-17.966.327-.362.409-.641.188-.641-.216,0-.558.308-.759.684m14.286-.139l.779.546.031,15.844c.017,8.713.135,16.632.263,17.596s.179-6.214.114-15.951c-.119-17.859-.174-18.58-1.405-18.58-.421,0-.366.136.218.545m18.892-.312c-.128.129-.196,5.69-.151,12.358l.083,12.124.094-11.92c.085-10.704.155-11.964.686-12.357.496-.368.505-.438.056-.438-.294,0-.639.105-.768.233m14.23.256c.579.44.61,1.981.526,25.658l-.09,25.19-.877.444c-.641.324-.712.445-.263.448c2.093.018,2.016,1.017,2.016-26.262c0-26.296.017-25.998-1.515-25.956-.227.006-.136.221.203.478m13.795.065c-.117.305-.213,11.895-.213,25.755c0,27.742-.134,26,1.993,25.894.35-.017.124-.18-.503-.361l-1.139-.329v-25.389c0-23.81.038-25.411.613-25.746.544-.317.548-.358.038-.368-.317-.006-.672.239-.789.544m11.089-.313c.336.087.755.661.933,1.274.296,1.023.325,1.041.354.22.036-1.017-.553-1.755-1.353-1.695-.421.032-.406.077.066.201m11.086.448c-1.063.885-.795.888.925.012.999-.51,1.174-.701.639-.701-.405,0-1.109.31-1.564.689m13.535.007c.751.382,1.454.606,1.563.497.342-.342-1.118-1.193-2.044-1.193-.783,0-.728.079.481.696m34.493-.007c-.456.379-.662.695-.46.701.203.007.543-.163.756-.376.214-.214.916-.513,1.56-.666l1.172-.277-1.1-.035c-.625-.021-1.458.261-1.928.653m13.721-.195c2.752,1.039,2.703,1.032,1.801.236-.477-.421-1.293-.724-1.928-.715l-1.1.015l1.227.464m42.72.195c-.455.379-.662.695-.459.701.202.007.543-.163.756-.376.214-.214.916-.513,1.56-.666l1.172-.277-1.101-.035c-.625-.021-1.457.261-1.928.653m14.485-.441c.516.079,1.127.371,1.357.649.231.278.676.5.99.493.444-.009.386-.165-.257-.701-.485-.404-1.283-.668-1.928-.637-1.023.049-1.035.063-.162.196m-249.154,1.488c-.826.334-1.82,1.419-1.301,1.419.193,0,.547-.237.788-.527s.931-.671,1.533-.845c.668-.194.822-.321.394-.327-.386-.005-1.022.12-1.414.28m22.398-.004c.551.182,1.302.602,1.668.933s.744.523.841.427c.356-.356-1.141-1.337-2.306-1.511-1.15-.172-1.159-.165-.203.151m104.058.546c-.573.482-1.176.878-1.341.881-.165.002-.836.554-1.49,1.228-1.333,1.372-1.829,1.244-2.739-.706l-.491-1.052.203,1.226c.397,2.408,1.228,2.703,3.015,1.069.854-.78,1.658-1.419,1.788-1.419s.682-.375,1.227-.833c.545-.459,1.307-.914,1.692-1.012.656-.165.652-.179-.06-.217-.42-.023-1.231.353-1.804.835m20.444-.533c.578.189,1.247.612,1.486.939.24.327.503.527.586.445.386-.386-.869-1.393-1.934-1.551l-1.189-.177l1.051.344m27.871-.092c-.604.225-1.906,1.502-1.531,1.502.137,0,.531-.255.875-.567.345-.312,1.146-.691,1.781-.841.933-.221.986-.275.277-.281-.482-.005-1.113.079-1.402.187m29.778.012c9.827.121,9.486-.015,9.486,3.754c0,2.923-1.22,4.594-3.752,5.139l-1.332.286l1.533-.136c2.782-.247,3.901-1.774,3.901-5.323c0-4.157.39-4.002-9.806-3.902l-8.248.081l8.218.101m48.828.054c.525.175,1.374.649,1.887,1.052.514.404,1.096.734,1.295.734s.611.223.917.496c1.041.928,3.358,3.273,4.324,4.376.53.605.964.963.964.796c0-.168-.434-.784-.964-1.369-.531-.586-1.295-1.438-1.699-1.893-1.015-1.144-3.026-2.756-3.437-2.756-.188,0-.674-.313-1.081-.696-.408-.383-1.285-.777-1.951-.877-1.09-.163-1.115-.149-.255.137m-23.016.584c-.834.834-.659,1.052.238.296.434-.365.854-.705.935-.755.08-.05-.027-.091-.238-.091s-.632.247-.935.55M99.415,271.669c-.712.566-1.412,1.079-1.555,1.139-.464.197-4.258,4.842-4.258,5.213c0,.198-.303.787-.673,1.31-.371.522-.763,1.502-.873,2.176-.109.675-.107.991.005.702.833-2.155,2.279-4.679,3.616-6.311c1.601-1.955,1.938-2.278,4.371-4.188.75-.589,1.205-1.07,1.012-1.07-.192,0-.933.463-1.645,1.029m30.776.183c1.972,1.402,4.872,4.448,5.688,5.974c1.798,3.361,1.894,3.504,1.888,2.805-.006-.764-1.605-3.416-2.769-4.594-.402-.406-.733-.879-.737-1.052-.005-.173-.579-.787-1.276-1.365-.698-.579-1.55-1.316-1.894-1.639-.699-.655-1.885-1.341-2.32-1.341-.157,0,.482.545,1.42,1.212m124.344.851c.999,1.135,2.281,3.067,2.848,4.294.81,1.752.989,1.973.83,1.028-.111-.662-.437-1.464-.724-1.781s-.521-.753-.521-.969c0-.534-3.442-4.635-3.89-4.635-.197,0,.459.928,1.457,2.063m18.7-.085c-2.215,2.288-4.37,6.401-4.308,8.225l.041,1.19.242-1.227c.489-2.48,2.489-6.023,4.581-8.115c1.128-1.128,1.896-2.051,1.706-2.051s-1.208.89-2.262,1.978m57.483-.96c-.603.549-1.236,1.057-1.408,1.129-.639.27-4.332,4.926-4.332,5.463c0,.307.434-.079.964-.858c1.441-2.117,3.215-4.002,5.134-5.454.943-.714,1.496-1.294,1.227-1.288s-.982.459-1.585,1.008m-40.686,5.186c.928.079,2.19.451,2.804.825c1.511.921,1.967.864.75-.093-.748-.589-1.5-.788-3.114-.826-1.643-.038-1.743-.017-.44.094m-3.568.819c-.455.379-.738.689-.63.689.478,0,1.984-.841,1.984-1.108c0-.467-.461-.325-1.354.419m80.259.919c.371.726.674,1.532.674,1.79s.258.968.573,1.578c.315.609.703,1.903.862,2.874.278,1.699.283,1.682.132-.441-.087-1.213-.356-2.554-.599-2.979s-.679-1.471-.968-2.325-.711-1.612-.936-1.685c-.24-.078-.131.415.262,1.188m-82.556,1.392c-.959,1.715-1.319,3.364-.448,2.05.491-.742,1.666-3.672,1.471-3.672-.064,0-.525.73-1.023,1.622m11.17-.307c1.008,2.78,1.567,3.83,1.582,2.973.012-.696-1.609-4.288-1.936-4.288-.067,0,.092.592.354,1.315m14.526-1.052c-.105.688.158,1.714.602,2.348.27.385.512,1.178.538,1.762.035.784.087.862.196.298.082-.42-.086-1.555-.373-2.521-.391-1.317-.418-1.8-.109-1.926.228-.093.138-.181-.2-.196-.337-.015-.632.091-.654.235m32.324.225c-.223.269-.853.674-1.402.902-1.172.485-3.309,3.598-3.077,4.483.12.46.17.416.201-.176.022-.434.185-.789.362-.789s.611-.591.964-1.314c.583-1.193,1.644-2.015,4.148-3.214.687-.328.686-.336-.045-.357-.41-.013-.928.197-1.151.465m6.857-.139c.414.167.857.472.985.678.127.207.419.37.649.364s.045-.322-.41-.701-1.086-.68-1.402-.667c-.413.015-.362.108.178.326m-25.064.966c-.177.337-.439,1.163-.584,1.835-.144.672-.489,1.567-.765,1.989s-.565,1.686-.64,2.81c-.118,1.751-.098,1.842.145.64.436-2.152,1.851-6.244,2.374-6.863.552-.653.599-1.025.13-1.025-.186,0-.483.277-.66.614m-65.585.263c-.011.386.215,2.265.503,4.176.403,2.678.524,6.988.524,18.789c0,16.492.061,15.909-1.753,16.576-.438.161-.429.198.049.221.316.015.918-.251,1.337-.59l.763-.618-.137-18.05c-.118-15.444-.219-18.278-.701-19.628-.31-.867-.573-1.262-.585-.876m-145.249.083c1.013.071,2.669.071,3.681,0c1.013-.071.184-.129-1.84-.129-2.025,0-2.853.058-1.841.129m120.603-.004c.63.078,1.576.076,2.103-.004s.011-.144-1.146-.142c-1.156.002-1.587.068-.957.146m4.204-.006c.436.083,1.067.08,1.403-.008.335-.087-.022-.156-.793-.152-.772.004-1.046.076-.61.16m114.199.847c.581.651,1.365,1.792,1.741,2.535.376.744.736,1.193.801.998.186-.558-2.007-3.897-2.843-4.327-.607-.313-.547-.156.301.794m-242.488.106c-.517.455-1.069.884-1.227.953-.534.232-2.309,4.047-2.114,4.541.12.303.205.197.223-.277.015-.422.192-.87.393-.994.2-.124.607-.83.902-1.569.332-.828,1.065-1.692,1.914-2.254.756-.5,1.376-.987,1.376-1.081c0-.372-.573-.107-1.467.681m10.295,0c.517.455,1.069.884,1.227.953c3.739,1.627,4.588,18.73,1.159,23.368-.453.612-.744,1.191-.648,1.288c1.184,1.183,3.415-6.826,3.415-12.262c0-6.975-2.932-14.266-5.705-14.187-.214.006.035.384.552.84m110.43.431c-1.778,1.491-3.596,5.01-3.521,6.815l.05,1.193.228-1.227c.126-.675.498-1.813.827-2.53s.598-1.453.598-1.635c0-.43,2.344-2.846,2.761-2.846.176,0,.41-.237.521-.526.268-.698.276-.702-1.464.756m10.424-.649c.233.445.629.887.878.983.249.095.663.836.92,1.645.598,1.887,1.385,3.156,1.385,2.235c0-.9-1.511-3.599-2.638-4.713-.876-.865-.929-.879-.545-.15m-103.039.967c0,.191.229.675.509,1.074.28.4.656,1.5.837,2.445.181.944.342,1.323.359.841.049-1.39-.552-3.554-1.153-4.156-.304-.304-.552-.395-.552-.204M91.17,283.409c-.263.317-.528,1.399-.588,2.405l-.111,1.828.326-1.527c.18-.84.505-1.742.723-2.004s.335-.657.262-.877c-.087-.26-.302-.199-.612.175m177.475,1.779c.002,1.157.067,1.588.145.958s.077-1.576-.003-2.103-.144-.011-.142,1.145m68.684.877c0,.675.073.951.161.613.088-.337.088-.889,0-1.227-.088-.337-.161-.061-.161.614m-231.73,3.771c-.52,3.302-.508,6.152.038,9.255.377,2.142.411,1.745.413-4.82.001-3.935-.004-7.154-.011-7.154s-.205,1.223-.44,2.719m34.097-1.142c.529,4.732.583,7.86.174,10.027-.502,2.665-.287,3.974.312,1.892.682-2.371.875-7.153.403-9.992-.519-3.122-1.183-4.563-.889-1.927m156.164.613c-.785,1.919-1.132,2.333-2.789,3.331-1.04.627-1.683,1.139-1.427,1.139c1.783,0,5.588-4.445,5.231-6.111-.065-.303-.521.436-1.015,1.641m-12.598-1.271c-.002.68,1.619,3.989,1.954,3.989.165,0-.835-2.577-1.498-3.857-.421-.814-.454-.823-.456-.132m27.752.922c-.032.724-.374,1.905-.76,2.624-.385.72-.701,1.485-.701,1.702c0,.494-2.358,3.646-3.254,4.35-1.485,1.166-2.44,2.103-2.143,2.103.172-.001.787-.409,1.365-.907.579-.498,1.21-1.011,1.403-1.139.454-.302,2.629-3.105,2.629-3.389c0-.12.404-1.072.898-2.116.621-1.313.856-2.306.76-3.221l-.138-1.323-.059,1.316M89.909,291.535c-.138,1.851-.114,4.494.055,5.872.267,2.175.31,1.732.328-3.367.024-6.771-.034-7.153-.383-2.505m179.163-1.821c.092.947.493,2.209.89,2.805.651.976.699.996.482.207-.132-.482-.384-1.057-.56-1.278-.176-.22-.468-1.088-.65-1.928l-.329-1.527.167,1.721m52.218,2.1c-.135,1.62-.107,4.263.061,5.872.286,2.732.309,2.536.349-2.945.048-6.565-.049-7.259-.41-2.927m-94.786-1.718c-.072.386-.228,7.007-.347,14.714l-.215,14.013-.876.443c-.576.291-.679.445-.302.448c2.094.019,2.08.131,1.971-15.77-.055-8.002-.159-14.233-.231-13.848m60.262,2.805c.653.482,1.511.876,1.906.876.476,0,.163-.295-.929-.876-.905-.482-1.763-.876-1.905-.876-.143,0,.275.394.928.876M270.64,293.92c0,.489,2.628,3.598,3.53,4.176c1.085.695,1.724,2.051,1.071,2.269-.569.19-3.199,2.685-3.199,3.035c0,.16-.27.489-.6.73-1.79,1.309-.754,6.78,1.692,8.929.329.289.652.828.717,1.198.066.369.31.735.543.813.532.177-.443-1.877-1.078-2.27-3.911-2.418-2.467-9.51,2.513-12.341.61-.347-.128-2.028-1.014-2.31-.561-.178-1.078-.712-3.494-3.613-.374-.45-.681-.727-.681-.616m-88.095,2.574c-.211,3.146-1.363,7.499-2.299,8.689-.415.527-.749,1.135-.743,1.35.024.856,1.613-1.816,2.364-3.975.731-2.102,1.506-8.43,1.032-8.43-.107,0-.266,1.065-.354,2.366m186.302-.393c-.095,1.48-.365,1.507-16.267,1.609-16.974.11-16.214-.016-15.475,2.553l.504,1.753-.187-1.801c-.249-2.388-1.371-2.231,15.938-2.231c16.187,0,16.041.017,15.689-1.821-.144-.753-.157-.757-.202-.062m-66.151,4.021c-.131.212-.732.6-1.336.863-.915.398-.969.48-.326.491.424.008,1.196-.38,1.716-.863.52-.482.774-.876.565-.876-.21,0-.489.173-.619.385M90.509,301.665c-.019.787.338,2.249.814,3.331c1.026,2.332,1.132,1.81.196-.963-.375-1.109-.747-2.412-.829-2.894-.094-.556-.16-.364-.181.526m231.49,1.13c.077,1.006.344,2.189.595,2.629.251.439.693,1.497.982,2.351s.757,1.627,1.04,1.72c.442.144.439.048-.022-.676-.575-.905-2.273-5.534-2.56-6.979-.096-.482-.112-.052-.035.955m-24.316-.693c-.454.316-1.953.691-3.33.832l-2.504.257l2.63-.096c1.886-.068,3.024-.309,4.026-.85.923-.499,1.161-.749.701-.737-.383.01-1.068.278-1.523.594m-191.42.507c-.022.518.12,1.042.315,1.163.196.121.658.811,1.027,1.535.588,1.153,3.809,3.835,3.478,2.896-.07-.198-.68-.728-1.355-1.178-.675-.449-1.482-1.324-1.794-1.945-.312-.62-.729-1.327-.926-1.57-.198-.243-.437-.758-.532-1.144-.134-.544-.181-.49-.213.243m32.913.432c0,.968-1.951,6.067-2.626,6.863-.245.289-.544.841-.663,1.227-.474,1.531-6.244,6.836-7.435,6.836-.212,0-.663.306-1.002.681s-.955.748-1.369.829c-.735.144-.734.148.036.195.434.026,1.072-.235,1.418-.581.345-.346,1.097-.822,1.669-1.06.572-.237,1.821-1.137,2.775-2c.954-.864,1.859-1.57,2.012-1.57.152,0,.277-.181.277-.401c0-.221.328-.734.73-1.14c1.01-1.022,2.762-3.791,2.77-4.377.003-.267.311-.978.684-1.582.656-1.062,1.391-4.77.945-4.77-.122,0-.221.383-.221.85m198.428-.538c-.013,1.22,3.989,6.328,4.532,5.784.086-.085-.431-.639-1.148-1.231-.717-.591-1.541-1.573-1.83-2.181-.897-1.887-1.549-2.881-1.554-2.372m-51.977.637c.433.083,1.143.083,1.577,0c.434-.084.079-.152-.789-.152-.867,0-1.222.068-.788.152m-1.841.804c-.351.388-.559.784-.463.881.096.096.463-.143.814-.531s.559-.784.463-.88c-.097-.097-.463.142-.814.53M150.09,305.62c-.045,1.786.915,4.904,1.243,4.04.087-.23-.034-.778-.269-1.218-.236-.44-.541-1.671-.678-2.737l-.25-1.936-.046,1.851m15.735-1.144c-.009,1.195,3.042,4.384,4.141,4.328.835-.042.85-.064.142-.2-.836-.161-2.611-1.663-3.022-2.557-.781-1.697-1.256-2.289-1.261-1.571m117.435,1.177c0,.333,1.171,1.446,1.521,1.446.131,0,.043-.312-.196-.694-.461-.739-1.325-1.229-1.325-.752m80.269.781c-.717.642-.745.728-.164.505c2.549-.981,2.774-.665,2.924,4.089.139,4.422-.17,6.177-1.185,6.727-.378.204-1.081.611-1.563.905s-1.271.633-1.753.755l-.877.222.917.041c.505.023,1.318-.274,1.808-.66.491-.385,1.057-.701,1.259-.701c1.688,0,2.22-1.7,2.096-6.692-.066-2.663-.278-4.997-.47-5.185-.805-.787-2.118-.79-2.992-.006M83.358,307.645c.745.522.779.768.779,5.773v5.227l-.964.523c-.531.288-.757.53-.503.538c1.686.051,1.817-.405,1.817-6.297c0-5.162-.051-5.612-.678-5.947-1.033-.553-1.33-.433-.451.183m8.853-.155c-.006.311.304.967.69,1.458.386.49.701,1.042.701,1.226c0,.482,1.844,2.794,3.77,4.725c2.4,2.406,2.533,2.051.161-.427-2.235-2.335-3.579-4.004-3.582-4.449-.004-.577-1.729-3.089-1.74-2.533m27.859.31c-.349.386-.531.701-.405.701.127,0,.545-.315.931-.701.386-.385.568-.701.405-.701s-.582.316-.931.701m57.844,0c-.349.386-.531.701-.405.701s.545-.315.931-.701c.386-.385.568-.701.405-.701s-.582.316-.931.701m117.616-.381c5.543.145,8.128.343,8.696.667.445.253.997.398,1.226.322c1.979-.66-1.936-1.136-9.571-1.164l-8.239-.031l7.888.206m64.66.177c-1.038.759-.482.842.897.134.921-.473,1.047-.63.505-.63-.397-.001-1.028.223-1.402.496M113.322,308.76c1.108.07,2.923.07,4.031,0c1.109-.069.202-.126-2.016-.126-2.217,0-3.124.057-2.015.126m59.075.34c.436.084,1.067.08,1.402-.007.335-.088-.022-.157-.793-.153s-1.045.076-.609.16m136.551.453c.49.386,1.009.701,1.153.701s-.024-.315-.373-.701-.868-.701-1.153-.701c-.334,0-.201.25.373.701m35.963.008c.841.381,1.787.68,2.104.665.787-.039-2.055-1.355-2.931-1.357-.42-.001-.089.276.827.692m8.518-.36c-.644.152-1.354.472-1.577.71-.439.469-.347.453,3.1-.518c1.957-.551.679-.713-1.523-.192m-28.446,1.057c-.006.686,5.158,6.306,5.795,6.306.267,0,.655.316.861.702.206.385.626.701.933.701s-.447-.804-1.675-1.786c-1.229-.982-2.629-2.248-3.112-2.813-1.339-1.567-2.106-2.534-2.468-3.114-.291-.466-.329-.466-.334.004m-12.644,1.591c1.571,1.468,3.274,4.249,3.641,5.942.097.444.167.3.193-.391.023-.614-.266-1.481-.66-1.983-.386-.49-.701-1.077-.701-1.303c0-.515-3.296-3.86-3.804-3.86-.205,0,.394.718,1.331,1.595m-160.72-.245c.096.646.53,1.626.965,2.179.434.553,1.264,1.632,1.842,2.397s1.474,1.574,1.99,1.796c.517.223,1.212.706,1.545,1.074s.936.66,1.34.647c.665-.02.652-.055-.132-.368-.477-.19-.95-.464-1.052-.609-.102-.146-.74-.601-1.418-1.012-.677-.412-1.622-1.271-2.1-1.91-1.702-2.278-2.559-3.628-2.854-4.492-.251-.733-.271-.684-.126.298m30.904,4.64c-.935.947-1.555,1.723-1.377,1.723.177,0,.666-.395,1.085-.877s.926-.876,1.126-.876.493-.35.651-.777c.262-.708.327-.654.743.614.781,2.379,1.777,3.674,2.804,3.641.316-.01.229-.137-.217-.317-.436-.176-1.187-1.25-1.822-2.607-.594-1.269-1.127-2.294-1.186-2.277-.058.016-.871.805-1.807,1.753m88.292-.03c-.349.385-.807.703-1.018.705-.458.004-2.663,2.212-2.663,2.666c0,.174-.315.513-.701.754s-.701.682-.701.979c0,.298.791-.409,1.757-1.57.967-1.162,2.101-2.296,2.52-2.52c1.029-.551,2.253-1.715,1.803-1.715-.199,0-.648.315-.997.701m-170.591.964c.228.434.672.789.986.789.315,0,.506-.041.426-.092-.08-.05-.524-.405-.986-.788l-.84-.698.414.789m1.971,1.146c.283.458,2.248,1.469,2.582,1.329.143-.06-.427-.462-1.268-.893s-1.432-.628-1.314-.436m77.256.291c-.46.357-1.072.739-1.362.849-.428.163-.416.205.068.228.327.015,1.037-.362,1.578-.838c1.149-1.01.939-1.187-.284-.239m154.992.228c.654.482,1.513.858,1.909.836.703-.04.704-.045.021-.218-.385-.097-1.076-.473-1.537-.835-.461-.363-1.005-.659-1.209-.659s.163.394.816.876m-90.436-.306c-.017.624.946,1.257,1.638,1.077.505-.131.477-.172-.141-.204-.424-.023-.932-.317-1.129-.655-.196-.337-.362-.435-.368-.218m72.286,3.637c.003,3.011.032,3.158.302,1.538.167-.996.166-2.474-.002-3.33-.256-1.302-.302-1.026-.3,1.792m-210.077-2.195c.286.112.731.415.989.673.259.259.811.47,1.229.47.594,0,.475-.152-.55-.701-.72-.386-1.506-.689-1.748-.674-.278.018-.248.103.08.232m16.308.461c-.773.366-1.119.668-.771.673.643.009,2.699-.925,2.699-1.227c0-.274-.452-.144-1.928.554m38.563-.019c.578.383,1.361.697,1.739.699.452.001.216-.239-.688-.699-1.768-.902-2.413-.902-1.051,0m13.847.042c-.897.481-1.038.657-.526.656.386-.001,1.175-.315,1.753-.698c1.317-.873.422-.842-1.227.042m106.586.18c-1.485.788-3.128,2.388-3.155,3.075-.02.499,1.349-.865,1.572-1.566.11-.347.63-.725,1.155-.841c1.083-.238,3.326-1.611,2.519-1.542-.289.025-1.23.418-2.091.874m18.439.131c2.71,1.293,3.652,5.172,1.531,6.307-.34.183-.726.612-.858.954-.16.418.099.3.785-.358c2.977-2.852,1.04-8.035-2.969-7.943-.352.008.328.476,1.511,1.04m38.867-.353c.578.383,1.446.683,1.928.667.781-.026.755-.065-.246-.354-.617-.178-1.218-.48-1.335-.669-.118-.19-.48-.344-.806-.343-.405.001-.259.224.459.699m20.067-.494c-.115.114-.811.423-1.549.686-1.223.436-1.256.479-.375.493.531.009,1.554-.3,2.273-.685.972-.521,1.122-.701.583-.701-.398,0-.818.093-.932.207m-246.606,1.456c1.697.064,4.379.064,5.96-.001c1.581-.064.193-.117-3.085-.117-3.278.001-4.571.054-2.875.118m53.795-.001c1.398.067,3.686.067,5.084,0c1.398-.066.254-.121-2.542-.121s-3.94.055-2.542.121m179.141.001c1.977.063,5.211.063,7.187,0c1.977-.062.36-.113-3.593-.113s-5.57.051-3.594.113m-80.112,2.294c-.949,3.379-.965,3.177.639,8.399.297.969,2.019,3.489,2.54,3.717.153.067.78.58,1.393,1.139.612.559,1.354,1.012,1.648,1.007.407-.009.377-.103-.126-.396-1.604-.931-4.071-3.392-4.071-4.06c0-.243-.139-.442-.308-.442-.957,0-1.82-5.281-1.384-8.469.353-2.584.234-2.906-.331-.895m12.979,1.827c.004.771.076,1.045.16.609s.08-1.067-.007-1.402c-.088-.335-.157.022-.153.793m37.814.986c-.122,1.91-2.04,4.954-4.925,7.816-1.047,1.04-1.722,1.89-1.499,1.89.39,0,2.55-2.075,4.193-4.03.435-.517.886-1.32,1.002-1.785.117-.465.341-.846.498-.846.412,0,1.123-2.336.932-3.064-.149-.572-.163-.571-.201.019m-37.552.843c0,.477,2.683,2.904,3.21,2.904.222,0,.024-.317-.439-.704-.463-.386-1.276-1.123-1.807-1.636-.53-.513-.964-.767-.964-.564m19.942,1.8c-.459.356-1.072.738-1.361.848-.468.178-.468.202,0,.217.289.009,1.156-.372,1.928-.847.771-.475,1.147-.864.836-.865-.312-.001-.943.29-1.403.647m-13.13,1.736c1.22.262,2.95.368,4.056.249c5.611-.606,5.58-.715-.199-.711-5.778.005-5.911.021-3.857.462m22.604,5.892c-.258.311-.79.696-1.183.855-.57.231-.594.293-.118.311.328.012,1.021-.372,1.542-.854.52-.482.784-.877.586-.877-.197,0-.569.255-.827.565m-35.496,1.73c.102.266.498.582.881.704c1.082.343,1.051.028-.06-.61-.775-.445-.964-.466-.821-.094m32.183-.167c-.128.207-.571.512-.985.679-.54.218-.591.31-.178.326.316.012.947-.288,1.402-.667s.64-.695.41-.701c-.23-.007-.522.157-.649.363m-3.579,1.269c.338.088.89.088,1.227,0c.338-.088.062-.16-.613-.16s-.951.072-.614.16m-23.852.684c.351.351,1.302.617,2.441.683c1.697.099,1.739.085.465-.155-.771-.146-1.747-.454-2.168-.684-1.08-.591-1.414-.52-.738.156m21.195-.181c-.353.205-1.378.498-2.278.65l-1.638.276l1.501.041c1.385.038,3.933-.718,3.933-1.168c0-.311-.824-.202-1.518.201m-11.882,1.265c.825.074,2.087.073,2.805-.002s.043-.136-1.5-.135c-1.542.002-2.13.063-1.305.137" fill="#ddc9ca" fill-rule="evenodd"/><path d="M49.939,252.673c7.8.148,6.853-3.692,6.853,27.796v26.548l.789.212c.434.116,6.123.213,12.644.216c7.492.003,12.104.138,12.532.368c1.041.556,1.041,10.636,0,11.193-.443.237-7.244.363-19.654.363-12.411,0-19.212-.126-19.655-.363-.663-.355-.678-1.091-.678-32.965v-32.602l.788-.317c.434-.174.605-.327.38-.339-1.598-.087-1.519-1.819-1.519,33.328v32.925l.899.342c1.641.623,38.551.444,39.784-.193l1.035-.535v-5.23c0-6.987,1.445-6.321-13.722-6.321-6.69,0-12.413-.096-12.718-.213-.499-.191-.554-2.879-.554-26.798v-26.586l-.779-.546c-.639-.448-1.79-.532-6.398-.468l-5.619.078l5.592.107m58.628,15.154c-.543.17-1.174.461-1.403.645-.228.185-1.081.445-1.895.58-.814.134-1.864.546-2.334.916-.47.369-1.001.672-1.18.672-.391,0-3.507,2.345-4.423,3.33-2.642,2.838-4.289,5.44-5.107,8.065-.24.77-.656,1.891-.925,2.491-.841,1.876-1.321,9.162-.891,13.54.97,9.895,5.066,16.427,12.932,20.624c1.061.566,2.222,1.03,2.582,1.03.359,0,1.241.315,1.961.701.9.482,1.911.687,3.241.657l1.934-.044-1.753-.265c-3.402-.515-7.923-2.333-10.864-4.369-12.476-8.636-13.153-33.721-1.172-43.439c3.057-2.48,4.763-3.26,10.458-4.781c2.378-.636,9.628-.417,11.829.356c1.097.386,2.238.702,2.535.702.698,0,3.533,1.484,5.9,3.088c11.57,7.844,13.008,32.158,2.491,42.15-2.422,2.302-6.722,4.889-8.13,4.892-.343,0-1.211.249-1.928.552s-2.25.678-3.407.832l-2.103.281l2.103.037c1.374.024,2.604-.191,3.545-.618.792-.36,2.08-.762,2.861-.894s1.695-.544,2.031-.916c.336-.371.785-.675.997-.675c1.191,0,6.961-5.305,7.435-6.836.119-.386.418-.938.663-1.227c2.329-2.745,4.396-14.635,3.381-19.446-.204-.97-.536-2.893-.737-4.274-.2-1.38-.601-2.958-.891-3.505-.289-.548-.763-1.548-1.051-2.223-1.611-3.764-7.215-9.816-9.089-9.816-.148,0-.654-.303-1.124-.672-.47-.37-1.517-.784-2.327-.921-.809-.137-1.862-.505-2.339-.818-.992-.651-11.998-.971-13.806-.402m42.033.326c-.878.97-.712,37.681.18,39.647.306.675.671,1.858.811,2.629.404,2.228,3.365,6.351,5.314,7.401.661.355,1.202.756,1.202.89s.592.43,1.315.657s1.956.712,2.74,1.079c.918.429,2.102.648,3.33.616l1.905-.049-1.753-.24c-7.116-.975-11.995-5.084-13.958-11.756-.875-2.972-1.384-39.709-.565-40.697.548-.66,12.222-.727,12.875-.074.315.314.421,4.331.421,15.912c0,22.122.453,23.913,6.371,25.204c4.485.978,9.085-.966,10.77-4.551c1.786-3.799,1.867-4.63,2.038-20.86.142-13.472.227-15.3.725-15.688.778-.604,12.026-.62,12.629-.017.832.832.582,50.301-.257,50.75-.373.2-2.486.363-4.694.363-4.624,0-5.018-.189-5.99-2.865-.965-2.659-1.295-2.729-3.62-.767-3.673,3.097-6.585,4.459-10.785,5.043l-1.753.243l1.942.049c1.285.033,2.375-.171,3.223-.604.705-.359,1.744-.746,2.309-.859c1.313-.262,4.067-2.104,5.763-3.853l1.318-1.359l1.094,2.336c.777,1.661,1.359,2.438,2.012,2.688c1.367.521,9.265.238,9.981-.358.919-.764.885-50.392-.035-51.09-.764-.581-12.379-.689-13.432-.125-.648.346-.679.858-.699,11.481-.037,20.003-.607,24.015-3.905,27.487-2.979,3.134-9.354,3.259-11.962.234-2.095-2.43-2.079-2.279-2.229-21.16-.135-16.872-.15-17.189-.865-17.792-1.146-.966-12.884-.92-13.766.055m61.407-.304c-.575.348-.613,1.956-.613,25.757v25.385l1.441.389c2.079.559,11.946.314,12.704-.317.516-.429.578-1.71.578-11.813c0-19.148.633-22.864,4.419-25.967l1.652-1.353h4.112c4.671,0,5.132.234,6.862,3.484l.834,1.567v16.601c0,13.781.085,16.717.498,17.282.754,1.032,13.05,1.043,14.189.012c2.026-1.832.769-37.426-1.492-42.26-.976-2.087-4.191-5.976-4.939-5.976-.258,0-.556-.229-.663-.508s-.873-.684-1.702-.901c-.83-.217-2.15-.698-2.934-1.07-2.103-.998-10.597-.995-12.557.004-.735.375-1.833.79-2.441.922-.608.133-1.551.615-2.096,1.072s-1.097.831-1.227.831-.93.635-1.778,1.41c-1.91,1.746-2.603,1.368-3.218-1.756-.217-1.104-.53-2.226-.696-2.495-.382-.619-9.971-.882-10.933-.3m71.343-.023c-.625.149-1.335.434-1.577.634-.243.2-1.072.472-1.843.604-.771.131-1.797.503-2.279.825s-1.328.817-1.88,1.099c-5.382,2.754-8.76,14.412-5.913,20.404.43.905.782,1.799.782,1.986s.307.708.681,1.158c2.416,2.901,2.933,3.435,3.494,3.613.886.282,1.624,1.963,1.014,2.31-4.98,2.831-6.424,9.923-2.513,12.341.237.147.667.739.954,1.315l.523,1.047-1.315.211c-1.861.297-7.007,4.662-7.557,6.409-1.075,3.419-.446,11.259.905,11.259.169,0,.308.199.308.442c0,1.498,5.726,5.525,8.577,6.032.765.136,1.869.51,2.454.831c1.6.877,17.152.864,19.469-.017.867-.33,2.584-.758,3.815-.952s2.493-.577,2.805-.851c.311-.274,1.063-.604,1.669-.733.607-.129,1.381-.541,1.72-.915.339-.375.8-.682,1.024-.682.383,0,3.538-2.949,4.782-4.47c2.864-3.504,3.707-12.132,1.592-16.312-.965-1.907-3.993-5.16-4.804-5.16-.219,0-.799-.315-1.289-.701-.491-.386-1.304-.683-1.809-.66-.732.032-.776.075-.215.215c12.039,2.998,11.688,21.903-.516,27.822-4.255,2.063-3.822,1.936-11.929,3.481-2.093.399-11.721.396-13.497-.003-11.367-2.559-15.075-5.923-15.075-13.677c0-5.506,4.39-11.218,8.621-11.218c1.195,0,1.084-.755-.362-2.471-3.428-4.065-3.366-7.572.192-10.824c1.071-.979,2.092-1.78,2.27-1.78.838,0,.144-1.149-1.586-2.627-6.007-5.132-7.4-14.847-3.165-22.074.91-1.553,4.261-4.747,4.98-4.747.197,0,.553-.235.792-.523s1.087-.69,1.884-.893s2.461-.677,3.699-1.054c3.169-.965,9.088-.957,11.857.016c1.097.386,2.631.68,3.409.655l1.414-.047-1.577-.267c-.868-.146-2.209-.512-2.98-.814-1.518-.593-9.814-.757-12.005-.237m56.442-.016c-.626.157-1.336.45-1.578.65s-1.071.475-1.842.611c-3.226.566-10.309,6.682-11.228,9.694-.137.448-.438,1.051-.669,1.34-4.521,5.652-3.32,25.95,1.866,31.558.311.336.96,1.089,1.442,1.674c1.114,1.351,5.209,4.63,5.781,4.63.239,0,.829.31,1.311.689s1.568.798,2.413.931c.846.133,1.902.479,2.347.767.493.32,1.864.565,3.506.626c2.531.095,2.578.084.768-.179-1.061-.154-2.683-.54-3.606-.856-.922-.317-1.934-.576-2.248-.576-3.336,0-10.723-6.212-13.134-11.043-4.641-9.299-3.3-25.12,2.75-32.442c2.427-2.939,7.77-6.641,9.589-6.645.296-.001,1.436-.317,2.533-.703c2.523-.886,10.101-.982,12.354-.156.771.283,2.079.673,2.906.866c5.522,1.29,10.773,6.97,12.653,13.686.873,3.118,1.103,12.799.322,13.58-.314.314-4.133.421-15.022.421-17.88,0-17.489-.083-16.579,3.505c1.85,7.302,6.187,10.417,14.049,10.094c2.281-.094,4.497-.358,4.924-.587.427-.228,1.661-.579,2.742-.779c1.081-.199,2.543-.664,3.249-1.032c3.811-1.987,4.305-1.46,4.176,4.448l-.098,4.508-2.269,1.14c-1.247.626-2.622,1.139-3.055,1.139s-1.541.262-2.464.582c-.923.319-2.703.691-3.956.826l-2.279.245l2.279.035c1.296.019,2.883-.199,3.681-.507.771-.297,2.266-.706,3.323-.909c1.056-.203,2.318-.63,2.804-.948.486-.319,1.196-.745,1.577-.949c1.553-.828,1.808-10.566.292-11.148-.557-.214-4.483.967-5.204,1.565-.244.202-1.445.524-2.67.715-1.224.19-2.924.578-3.778.862-7.246,2.409-14.716-1.553-16.526-8.764-.853-3.396-2.008-3.152,15.432-3.263c13.704-.088,15.425-.16,15.846-.669.884-1.069.625-12.502-.332-14.615-.425-.94-.773-1.903-.773-2.139c0-.605-1.68-3.725-2.458-4.565-2.598-2.804-4.688-4.733-5.128-4.733-.188,0-.86-.383-1.495-.851s-1.809-.959-2.61-1.09c-.8-.131-1.748-.497-2.105-.814-.73-.646-11.606-.981-13.809-.425m-117.455.639c.295.337.734,1.69.976,3.005.601,3.27,1.464,3.662,3.566,1.621c3.964-3.846,8.32-5.373,14.799-5.188c2.493.071,4.522.291,4.807.519.27.218,1.412.66,2.538.983c2.952.847,6.284,4.217,7.836,7.927c1.568,3.749,1.859,7.78,1.86,25.819l.001,15.143-.779.545c-.91.638-10.774.801-12.344.204l-.899-.342-.009-16.047c-.011-21.006-.329-22.206-6.176-23.294-6.324-1.176-11.047,2.061-12.026,8.24-.203,1.285-.527,3.341-.72,4.569-.193,1.227-.351,7.689-.351,14.361c0,11.891-.014,12.137-.722,12.516-1.085.58-11.617.31-12.371-.317-.919-.765-.885-49.963.035-50.499c1.144-.667,9.361-.473,9.979.235m93.448,1.334c1.166.817,1.159,5.297-.009,6.361-1.173,1.068-2.053,1.441-4.014,1.702-2.797.371-2.848.456-1.898,3.206c1.085,3.141.961,7.571-.307,10.95-1.384,3.688-7.504,9.133-10.269,9.137-.344,0-1.212.254-1.929.565-.716.31-2.171.684-3.231.83l-1.928.266l1.905.046c1.222.03,2.416-.193,3.33-.62.784-.366,2.001-.764,2.705-.885.703-.121,1.675-.531,2.158-.912.484-.381,1.029-.692,1.212-.692.182,0,.734-.355,1.226-.789.491-.434,1.195-1.025,1.563-1.314.896-.704,3.254-3.856,3.254-4.35c0-.217.342-1.022.759-1.791c1.016-1.868,1.178-8.941.238-10.377-1.35-2.061-1.083-2.519,1.722-2.945c3.819-.58,4.994-1.819,4.994-5.267c0-2.567-.532-3.666-1.771-3.666-.294,0-.178.218.29.545m-28.12,6.7c-5.897,1.681-7.067,12.845-1.733,16.53c1.725,1.192,6.901,1.409,7.976.334.333-.333.809-.728,1.058-.877c2.447-1.464,3.431-8.885,1.647-12.42-1.449-2.871-5.595-4.524-8.948-3.567m6.243,1.274c6.06,4.186,3.206,16.036-3.857,16.014-8.071-.025-9.838-13.63-2.2-16.94c1.243-.538,4.703-.009,6.057.926m47.09,1.248c-2.674,1.575-5.78,7.661-4.215,8.262c1.332.511,18.363.209,18.57-.33c2.218-5.781-8.216-11.546-14.355-7.932m9.971.465c2.047,1.326,3.653,3.751,3.995,6.03l.243,1.617h-9.025-9.024l.242-1.825c.293-2.211,1.973-4.965,3.385-5.55.549-.228,1.179-.633,1.402-.902.892-1.074,6.808-.65,8.782.63m-239.838.176c-7.804,2.769-9.032,23.282-1.699,28.368c1.539,1.067,6.554,1.605,9.614,1.031c6.871-1.289,9.092-21.342,3.035-27.4-1.989-1.989-7.925-3.073-10.95-1.999m7.66.326c6.848,1.37,8.822,20.519,2.77,26.868l-1.75,1.837-3.999.118c-4.509.133-6.838-.8-8.069-3.232-.304-.601-.746-1.33-.982-1.619-2.099-2.574-1.818-15.361.439-20.012.863-1.776,1.427-2.341,3.738-3.734.759-.457,5.95-.607,7.853-.226m165.277,22.989c-1.252.605-1.654,3.058-.664,4.048.425.425,5.408.901,12.126,1.159c4.339.166,8.519.392,9.29.503l1.403.201-1.403-.579c-1.118-.461-3.301-.63-10.783-.835-8.323-.228-9.46-.328-10.079-.888-1.533-1.387-.408-3.273,2.207-3.7l1.477-.241-1.402-.02c-.771-.011-1.749.148-2.172.352m4.714.185c.626.078,1.652.078,2.278,0c.627-.078.114-.142-1.139-.142s-1.766.064-1.139.142m-7.509,17.187c-3.727,1.983-4.8,6.014-2.29,8.604c2.379,2.455,8.413,3.502,13.585,2.359c1.726-.382,3.516-.697,3.978-.701c4.514-.041,8.782-6.113,6.259-8.904-1.937-2.143-2.836-2.322-11.652-2.322h-8.068l-1.812.964m19.396.314c5.402,3.166,1.622,8.889-6.541,9.905-1.832.228-3.938.506-4.68.618-7.331,1.105-13.806-4.139-10.469-8.479c1.987-2.584,3.212-2.88,12.107-2.928l8-.043l1.583.927" fill="#c4c4c4" fill-rule="evenodd"/></g></svg>
