<svg id="epHS7j5xDry1" xmlns="http://www.w3.org/2000/svg" xmlns:xlink="http://www.w3.org/1999/xlink" viewBox="0 0 400 400" shape-rendering="geometricPrecision" text-rendering="geometricPrecision"><g><path d="M82.9,33.861c-.388.16-.5,3.775-.5,16.172v15.967l-8.1.043c-4.455.024-8.595.048-9.2.054s-1.1.128-1.1.27c0,.143,4.064.187,9.032.098c6.335-.113,9.165-.028,9.48.287.586.586,17.888.633,17.888.048c0-.26,5.592-.4,15.976-.4c10.22,0,16.066.144,16.224.4.153.247,3.604.4,9.024.4c5.584,0,8.776-.145,8.776-.4c0-.486,15.124-.537,17.2-.058c1.233.284,6.023-.053,5-.352-.637-.186-4.977-.294-13.895-.344L150.409,66l-.104-16.1-.105-16.1-8-.113c-4.4-.063-8.405-.014-8.9.107l-.9.221v15.993v15.992h-15.995-15.996l-.104-16.1-.105-16.1-8.4-.072c-4.62-.04-8.625.02-8.9.133m208.793,8.206c-.811.811-.707,59.776.107,60.59.527.527.6,6.486.6,48.772v48.171h7.6h7.6v-48.171c0-42.286.073-48.245.6-48.772.523-.523.6-4.489.6-30.799v-30.199l-8.307-.043c-6.096-.03-8.439.09-8.8.451M61.817,66.372c-.126.205-.063.476.14.602.522.322,1.685-.183,1.417-.616-.29-.469-1.264-.46-1.557.014M57.8,67.2c-.316.511,1.01.511,1.8,0c.469-.303.366-.389-.476-.394-.592-.003-1.188.174-1.324.394M174,67.16c0,.552,1.011.805,1.636.409.31-.196.474-.373.364-.393-.11-.019-.605-.111-1.1-.203s-.9-.008-.9.187M55,68c-.136.22.113.4.553.4s.911-.18,1.047-.4-.113-.4-.553-.4-.911.18-1.047.4m121.8-.125c0,.057.531.379,1.18.715c1.375.711,2.42.79,2.42.185c0-.234-.315-.393-.7-.354-1.233.125-1.753-.011-1.515-.397.128-.206-.132-.348-.576-.315-.445.034-.809.108-.809.166m-124,.95c0,.206.36.375.8.375s.8-.142.8-.315-.36-.342-.8-.375-.8.109-.8.315m-1.378.81c.197.32-.652.55-1.522.412-.165-.026-.255.178-.2.453s-.215.475-.6.444c-.385-.03-.7.105-.7.3c0,.196-.178.356-.395.356-.88,0-8.695,7.443-8.266,7.872.127.128,1.683-1.231,3.458-3.02c1.774-1.789,3.408-3.252,3.631-3.252s.778-.347,1.233-.771s1.753-1.232,2.883-1.795c1.131-.563,1.966-1.04,1.856-1.059-.11-.02-.516-.097-.902-.17-.386-.074-.6.029-.476.23M181,69.6c-.136.22.108.4.543.4s.861.212.947.471c.09.269.374.337.663.158.361-.223.198-.473-.569-.871-1.283-.666-1.271-.664-1.584-.158m4,2.4c-.136.22.033.4.376.4s.624.18.624.4.182.4.403.4c.428,0,2.043,1.334,4.287,3.54.75.737,1.466,1.237,1.592,1.111.255-.255-4.079-4.651-4.585-4.651-.176,0-.58-.36-.897-.8-.624-.865-1.405-1.039-1.8-.4m8.2,7.712c0,.281.36.771.8,1.088s.8.807.8,1.088c0,.282.18.512.4.512s.4.27.4.6.195.6.433.6c.537,0,.46-.187-1.033-2.506-1.207-1.875-1.8-2.331-1.8-1.382M39,80.4c.136.22-.033.4-.376.4s-.624.27-.624.6c0,.796.391.759,1.043-.1.65-.855.695-1.3.133-1.3-.233,0-.312.18-.176.4m-1.81,2.669C35.786,84.808,35.218,86.4,36,86.4c.22,0,.4-.36.4-.8s.18-.8.4-.8.4-.255.4-.567c0-.311.207-.635.46-.72.253-.084.383-.383.29-.664-.123-.367-.336-.305-.76.22M197.2,86.176c0,.317.169.681.376.809.206.128.348-.132.315-.576-.069-.914-.691-1.123-.691-.233M35.067,87.1c-.173.275-.216.66-.095.855s-.049.577-.376.849c-.659.547-.844,2.996-.196,2.596.22-.136.4-.741.4-1.344s.197-1.293.438-1.534c.24-.24.371-.771.29-1.18-.106-.535-.234-.603-.461-.242m163.739,3.2c.003.385.173.963.376,1.284.268.424.359.232.333-.7-.037-1.305-.72-1.867-.709-.584M38.8,91.617c-.99.178-2.655.337-3.7.353-1.045.017-1.9.19-1.9.387c0,.558,2.066.937,2.538.465.573-.573,111.708-.595,112.062-.022.136.22.856.4,1.6.4s1.464.18,1.6.4.676.4,1.2.4s1.064.18,1.2.4.597.4,1.024.4.776.18.776.4.36.4.8.4.8.18.8.4.36.4.8.4.8.135.801.3c0,.165.855.84,1.9,1.5l1.899,1.2-2.3.12-2.3.12.053,40.68c.03,22.374.165,44.91.3,50.08l.247,9.4l8.5.012l8.501.012-8.401-.12-8.4-.12v-49.792-49.792h2.376c1.307,0,2.459-.135,2.56-.3.477-.783-7.338-5.4-10.936-6.461-.99-.291-2.16-.679-2.6-.862-.44-.182-1.61-.456-2.6-.608-2.579-.395-106.239-.541-108.4-.152m160.72,1.852c-.198.958.093,2.531.468,2.531.342,0,.271-2.674-.081-3.026-.13-.13-.304.092-.387.495M57.653,140.3c.03,22.385.165,44.93.3,50.1l.247,9.4l8.5.108l8.5.108-.091-8.508L75.017,183l-.117,8.3-.116,8.3h-8.192-8.192v-49.815-49.816l8.4.116c4.621.063,8.401-.02,8.4-.185c0-.165-3.96-.3-8.8-.3h-8.8l.053,40.7m33.645,9.4l.102,50.1h8.6h8.6l.102-50.1.101-50.1h-8.803-8.803l.101,50.1M124.8,99.9c-.001.165,3.779.248,8.4.185l8.4-.116v49.816v49.815h-8.192-8.192l-.116-8.3-.117-8.3-.092,8.508-.091,8.508l8.5-.108l8.5-.108.247-9.4c.135-5.17.27-27.715.3-50.1l.053-40.7h-8.8c-4.84,0-8.8.135-8.8.3m-16.4,49.9v49.8h-8.4-8.4v-49.8-49.8h8.4h8.4v49.8m66.8,33.6c0,.521,1.667.6,12.6.6s12.6-.079,12.6-.6-1.667-.6-12.6-.6-12.6.079-12.6.6M9.691,217.595c-.5.469-.804,1.022-.676,1.229s.042.376-.191.376-.424.529-.424,1.176-.18,1.288-.4,1.424c-.524.324-.556,124.279-.032,124.82.202.209.447,1.55.544,2.98.196,2.895,1.059,6.867,2.085,9.6c1.016,2.706,4.727,10,5.088,10c.173,0,.315.191.315.423c0,.955,10.206,11.973,11.095,11.979.168.001.88.541,1.583,1.2s1.396,1.198,1.539,1.198.737.339,1.321.753c1.726,1.224,4.045,2.447,4.641,2.447.305,0,.614.147.688.326.449,1.1,9.231,3.671,13.533,3.962c1.43.097,2.771.342,2.98.544.542.525,292.896.493,293.22-.032.136-.22,1.308-.4,2.605-.4c1.296,0,2.771-.159,3.276-.353.506-.194,2.337-.68,4.07-1.08c1.733-.399,3.355-.93,3.604-1.179s.675-.378.948-.287.602-.108.73-.442c.132-.346.495-.508.84-.375.334.128.725.07.867-.129.143-.198,1.475-.988,2.96-1.754s2.7-1.516,2.7-1.667c0-.152.241-.334.536-.405c1.11-.267,11.864-10.181,11.864-10.937c0-.129.539-.811,1.198-1.514s1.199-1.475,1.2-1.716.368-.77.816-1.175.729-.958.625-1.229c-.104-.27.07-.591.386-.712.316-.122.575-.497.575-.833c0-.337.18-.613.4-.613s.4-.265.4-.588.347-1.206.772-1.962c.424-.755.665-1.48.535-1.609-.129-.13.064-.567.43-.971.365-.404.561-.839.434-.965-.126-.127.046-.765.384-1.417.337-.653.5-1.3.362-1.438s-.056-.656.182-1.151c1.755-3.638,1.815-5.919,1.859-71.099.028-42.045-.09-62.178-.366-62.131-.239.041-.346-.576-.258-1.5.093-.969-.019-1.569-.292-1.569-.243,0-.442-.259-.442-.576s-.206-.704-.458-.86c-.251-.155-85.796-.359-190.1-.452L10.6,216.743l-.909.852m380.2,1.105c.214.605.596,1.727.849,2.493.576,1.741.69,125.44.117,126.153-.201.25-.38,1.328-.397,2.396-.018,1.069-.235,2.186-.482,2.484-.262.317-.338,1.046-.182,1.758.209.949.131,1.216-.356,1.216-.458,0-.587.32-.485,1.2.095.817-.035,1.2-.407,1.2-.342,0-.548.451-.548,1.2c0,.66-.16,1.2-.355,1.2-.196,0-.483.675-.637,1.499-.155.825-.408,1.59-.563,1.7-.481.344-2.045,3.22-2.045,3.762c0,.283-.36.841-.8,1.239s-.8.939-.8,1.203c0,.263-.54,1.043-1.2,1.734s-1.2,1.428-1.2,1.639c0,.212-.315.568-.7.792s-.559.413-.386.42-.281.534-1.008,1.172c-.727.639-2.226,2.034-3.333,3.1-3.008,2.902-6.416,5.372-8.273,5.998-.385.129-.7.394-.7.589c0,.194-.27.353-.6.353s-.6.18-.6.4-.36.4-.8.4-.8.191-.8.424-.191.305-.425.16c-.234-.144-.752.033-1.151.394-.398.361-1.422.766-2.274.901-.853.135-1.682.442-1.844.683s-.297-.201-.3-.982.157-1.591.357-1.8.492-1.37.649-2.58c.47-3.611.654-128.094.19-128.558-.221-.221-.402-.906-.402-1.522s-.18-1.12-.4-1.12-.4-.28-.4-.622c0-2.115-6.463-8.578-8.578-8.578-.342,0-.622-.18-.622-.4s-.529-.4-1.176-.4-1.288-.18-1.424-.4c-.164-.266-56.737-.4-168.424-.4h-168.176L8.764,233c-.02-4.51-.053-8.727-.073-9.371-.02-.645.183-1.436.45-1.758.268-.323.436-.75.373-.949s.145-1.028.461-1.842l.574-1.48h189.477h189.477l.388,1.1M209.6,250.619c24.113,6.35,32.389,37.004,13.991,51.824-2.196,1.768-6.173,3.957-7.192,3.957-.413,0-.851.16-.972.356-.218.353-1.664.677-4.919,1.102l-1.692.221-.108,8.461L208.6,325h-8.6-8.6l-.11-12.8c-.127-14.816-.032-15.458,2.71-18.2c2.153-2.153,4.045-2.8,8.188-2.8c10.147,0,15.397-4.601,13.852-12.138-1.606-7.831-7.136-11.951-16.04-11.951-8.851,0-13.992,3.752-15.99,11.671l-.661,2.618h-8.374-8.375l-.129-1.587c-.742-9.098,7.624-21.796,17.729-26.91c6.292-3.184,17.988-4.236,25.4-2.284m-1.28,82.661c.811.811.668,16.562-.153,16.877-.348.134-4.023.243-8.167.243s-7.819-.109-8.167-.243c-.821-.315-.964-16.066-.153-16.877.341-.341,2.756-.48,8.32-.48s7.979.139,8.32.48" fill="#cdd8e7" fill-rule="evenodd"/><path d="M228.503,75.375c-1.397.772-2.455,1.845-3.106,3.151-.702,1.407-.819,11.295-.17,14.274.48,2.201,1.15,7.594,1.429,11.5.114,1.595.359,2.9.544,2.9s.437,1.305.561,2.9c.536,6.958.725,8.522,1.071,8.88.203.209.368,1.593.368,3.076s.18,2.808.4,2.944.4,1.497.4,3.024c0,1.584.172,2.776.4,2.776.231,0,.4,1.259.4,2.976c0,1.637.18,3.088.4,3.224s.4,1.396.4,2.8.18,2.664.4,2.8.4,1.486.4,3s.18,2.864.4,3s.4,1.497.4,3.024c0,1.584.172,2.776.4,2.776.231,0,.4,1.267.4,3s.169,3,.4,3c.228,0,.4,1.192.4,2.776c0,1.527.18,2.888.4,3.024s.4,1.486.4,3s.18,2.864.4,3s.4,1.396.4,2.8.18,2.664.4,2.8.4,1.587.4,3.224c0,1.717.169,2.976.4,2.976.229,0,.4,1.2.4,2.8s.171,2.8.4,2.8c.231,0,.4,1.267.4,3c0,1.65.171,3,.379,3c.209,0,.434.945.5,2.1l.121,2.1l25.965.103l25.964.103-.264-12.303c-.145-6.767-.264-28.638-.264-48.603-.001-36.033-.007-36.3-.801-36.3-.44,0-.8.18-.8.4s-.36.4-.8.4-.8.18-.8.4-.36.4-.8.4-.8.18-.8.4-.54.4-1.2.4-1.2.18-1.2.4-.72.4-1.6.4-1.6.18-1.6.4-.99.4-2.2.4-2.2.18-2.2.4c0,.256-3.467.4-9.6.4s-9.6-.144-9.6-.4c0-.222-1.059-.4-2.376-.4-1.307,0-2.488-.18-2.624-.4s-.766-.4-1.4-.4-1.264-.18-1.4-.4-.687-.4-1.224-.4-.976-.18-.976-.4-.283-.4-.629-.4c-1.266,0-1.771-1.069-1.771-3.748c0-1.433-.18-2.716-.4-2.852s-.4-1.497-.4-3.024c0-1.584-.172-2.776-.4-2.776-.229,0-.4-1.2-.4-2.8s-.171-2.8-.4-2.8-.4-1.2-.4-2.8-.171-2.8-.4-2.8c-.22,0-.4-.444-.4-.986c0-3.712-8.936-6.741-13.097-4.439M362.2,75.264c-1.823,1.002-3.8,3.3-3.8,4.417c0,.616-.18,1.119-.4,1.119-.229,0-.4,1.2-.4,2.8s-.171,2.8-.4,2.8-.4,1.2-.4,2.8-.171,2.8-.4,2.8c-.228,0-.4,1.192-.4,2.776c0,1.527-.18,2.888-.4,3.024s-.4,1.419-.4,2.852c0,2.718-.245,3.208-2,3.998-2.357,1.061-3.307,1.35-4.442,1.35-.702,0-1.102.167-.958.4.155.251-.729.4-2.376.4-1.483,0-2.624.174-2.624.4c0,.256-3.467.4-9.6.4s-9.6-.144-9.6-.4c0-.22-.99-.4-2.2-.4s-2.2-.18-2.2-.4-.72-.4-1.6-.4-1.6-.18-1.6-.4-.54-.4-1.2-.4-1.2-.18-1.2-.4-.36-.4-.8-.4-.8-.18-.8-.4-.294-.4-.653-.4-.985-.383-1.391-.85l-.737-.851-.41,1.077c-.271.712-.409,17.309-.409,49.05v47.974h25.367c28.677,0,26.633.187,26.633-2.443c0-1.076.166-1.957.368-1.957.203,0,.471-1.305.595-2.9.592-7.596.728-8.7,1.07-8.7.202,0,.367-1.339.367-2.976s.18-3.088.4-3.224.4-1.396.4-2.8.18-2.664.4-2.8.4-1.486.4-3s.18-2.864.4-3s.4-1.497.4-3.024c0-1.584.172-2.776.4-2.776.231,0,.4-1.267.4-3s.169-3,.4-3c.228,0,.4-1.192.4-2.776c0-1.527.18-2.888.4-3.024s.4-1.486.4-3s.18-2.864.4-3s.4-1.396.4-2.8.18-2.664.4-2.8.4-1.587.4-3.224c0-1.717.169-2.976.4-2.976.228,0,.4-1.192.4-2.776c0-1.527.18-2.888.4-3.024s.4-1.461.4-2.944.165-2.867.368-3.076c.346-.358.535-1.922,1.071-8.88.124-1.595.375-2.9.56-2.9.184,0,.423-1.215.531-2.7.278-3.841.988-9.59,1.445-11.7.643-2.967.528-12.87-.165-14.259-.619-1.241-1.802-2.401-3.305-3.241-1.115-.623-7.987-.65-9.105-.036" fill="#ca546c" fill-rule="evenodd"/><path d="M270.8,8.031c0,.203-1.091.369-2.424.369-1.748,0-2.343.13-2.134.468.199.321.065.382-.427.193-.394-.151-.919-.107-1.166.098s-.629.377-.849.383c-.861.022-3.8.977-3.8,1.235c0,.151-.63.521-1.4.823s-1.4.696-1.4.875-.27.325-.6.325-.6.158-.6.351c0,.194-.54.576-1.2.849s-1.2.745-1.2,1.049c0,.303-.152.551-.339.551-.544,0-2.061,1.45-2.061,1.971c0,.262-.135.399-.3.305-.383-.218-2.124,1.567-1.822,1.868.124.124-.248.442-.826.705-.581.265-1.052.809-1.052,1.215c0,.405-.36,1.096-.8,1.536s-.8.98-.8,1.2-.199.4-.443.4c-.243,0-.341.265-.216.589.124.326-.081.769-.458.988-.375.219-.52.404-.321.411s.083.327-.257.712-.892,1.69-1.227,2.9c-1.858,6.723-2.089,11.436-.578,11.804.495.121,6.378.17,13.074.108l12.174-.112.156-1.4c.087-.77.324-1.46.529-1.534s.269-.3.144-.503.054-.477.398-.609.625-.411.625-.62c0-.21-.225-.274-.5-.143s-.17.007.234-.276c.403-.283,1.213-.92,1.8-1.415.586-.494,1.37-.899,1.742-.9.372,0,.788-.18.924-.4s.856-.4,1.6-.4s1.464.18,1.6.4.569.4.962.4s1.04.36,1.438.8.966.8,1.262.8.538.36.538.8.18.8.4.8.4.255.4.567c0,.311.194.631.431.71s.462.769.5,1.533l.069,1.39l4.3.114c3.647.096,4.3.02,4.3-.5c0-.533,1.16-.614,8.821-.614h8.821l-.085-2.632c-.148-4.581-2.056-11.391-3.44-12.279-.266-.17-.382-.575-.258-.9.125-.324.027-.589-.216-.589-.244,0-.443-.204-.443-.454s-.448-.87-.996-1.377c-.563-.522-.898-1.179-.771-1.51.14-.365-.088-.686-.604-.85-.456-.145-.829-.422-.829-.617c0-.597-6.001-6.392-6.619-6.392-.32,0-.581-.147-.581-.326c0-.485-3.216-2.111-3.648-1.844-.204.126-.322-.009-.262-.3.061-.294-.246-.541-.69-.556-.44-.014-1.25-.218-1.8-.453s-1.163-.33-1.362-.212-.241.02-.094-.218c.343-.556-1.01-.994-1.953-.632-.497.191-.632.131-.433-.191.209-.338-.386-.468-2.134-.468-1.333,0-2.424-.166-2.424-.369s-1.89-.369-4.2-.369-4.2.166-4.2.369M7.6,208.533c0,9.572.187,10.323,2.047,8.204c1.014-1.155,379.692-1.155,380.706,0c1.86,2.12,2.047,1.37,2.047-8.225v-8.955l-41.7.254c-22.935.139-41.912.319-42.172.398-.26.08-24.641-.052-54.18-.293-40.492-.329-53.745-.324-53.861.023-.203.61-167.511.67-167.887.061-.156-.253-4.804-.4-12.624-.4h-12.376v8.933m185,42.466c-13.831,2.602-25.4,15.621-25.4,28.584v1.217h7.792h7.793l.227-1.1c3.988-19.291,33.89-17.793,33.926,1.7.013,7.014-3.596,9.555-15.138,10.659l-5.2.498-2.1,2.095-2.1,2.096v14.026v14.026h7.6h7.6v-8.386c0-9.65-.225-9.124,4.065-9.513c1.297-.118,2.453-.369,2.57-.558.117-.188.564-.343.994-.343.74,0,1.124-.149,3.271-1.27c3.161-1.65,4.001-2.232,6.154-4.266c12.487-11.795,10.14-34.023-4.654-44.074-.77-.523-1.49-1.068-1.6-1.21-.333-.43-5.265-2.643-7.4-3.319-4.752-1.506-12.938-1.89-18.4-.862m-.2,90.801v7.8h7.6h7.6v-7.8-7.8h-7.6-7.6v7.8" fill="#7b7c94" fill-rule="evenodd"/><path d="M61.2,66.467c0,.256-.114.353-.253.214-.138-.139-.628.011-1.089.333-.953.668-2.434.795-2.052.176.139-.225.015-.36-.276-.3-.292.061-.659.425-.817.81-.167.407-.711.7-1.3.7-.557,0-1.013.18-1.013.4s-.461.4-1.024.4c-.58,0-.916.173-.776.4.136.22-.044.4-.4.4-.405,0-.539-.187-.359-.5.167-.29.135-.36-.077-.167-.2.184-.364.541-.364.795s-.336.526-.747.605c-.539.104-.657-.007-.424-.395.243-.402.128-.39-.452.049-1.204.909-1.232.959-.377.676l.8-.265-.8.609c-.44.334-1.117.875-1.505,1.201-.387.325-.864.592-1.059.592s-1.27.896-2.388,1.99c-1.294,1.268-2.253,1.906-2.64,1.758-.335-.129-.608-.024-.608.233c0,.256.18.355.4.219.669-.413.449.137-.482,1.208-.485.558-1.127.921-1.426.806-.377-.145-.474.012-.316.511.135.425-.1,1.071-.574,1.58-.441.474-.802,1.139-.802,1.478s-.18.617-.4.617-.4.27-.4.6-.18.6-.4.6-.4.36-.4.8-.18.8-.4.8-.4.461-.4,1.024-.144.934-.32.825c-.176-.108-.364.457-.418,1.258-.054.8-.315,1.717-.58,2.037-.419.507-.065.536,2.718.219c4.001-.454,106.323-.484,109.6-.032c1.32.182,2.76.477,3.2.655.44.177,1.61.562,2.6.853c3.598,1.061,11.413,5.678,10.936,6.461-.101.165-1.253.3-2.56.3h-2.376v49.8v49.8h8.4h8.4v-8.4-8.4h12.6h12.6v-43.4c0-24.849-.151-43.4-.353-43.4-.502,0-.765-1.709-.406-2.627.18-.458.314-.542.331-.206.015.311.134.46.263.331.13-.129-.134-.744-.586-1.367-.5-.688-.855-1.864-.909-3.004-.066-1.428-.259-1.917-.813-2.062-.419-.109-.727-.555-.727-1.051c0-.474-.18-.75-.4-.614s-.4-.033-.4-.376.225-.636.5-.651.095-.222-.4-.461-.9-.677-.9-.973c0-.297-.18-.539-.4-.539-.498,0-.532-1.085-.039-1.267.198-.073.074-.397-.277-.72-.564-.52-.606-.509-.373.1.32.833.028.883-.73.125-.31-.309-.603-1.093-.652-1.742-.073-.957-.238-1.14-.877-.973-.615.161-.73.056-.524-.479.157-.41.103-.586-.136-.439-.219.135-.667-.023-.995-.351-.787-.787-.759-1.202.06-.888.556.214.577.157.135-.376-.408-.491-.59-.517-.836-.119-.292.473-2.263-.825-2.688-1.771-.074-.165-.39-.3-.701-.3-.312,0-.567-.18-.567-.4s-.292-.4-.649-.4c-.503,0-.547-.123-.196-.545.367-.443.252-.507-.613-.342-.939.18-1.038.099-.835-.677.2-.767.147-.814-.404-.359-.5.413-.668.418-.801.023-.093-.275-.514-.5-.935-.5-.422,0-.746-.135-.72-.3.154-.974-.068-1.486-.41-.946-.234.37-.703.466-1.41.288-.583-.146-.953-.438-.823-.649.137-.222-.053-.273-.449-.12-.435.167-.59.107-.422-.164.171-.277-.25-.403-1.196-.358-.803.038-1.706-.177-2.006-.478-.358-.357-1.337-.517-2.839-.462-3.3.122-4.565.031-4.353-.311.102-.165-3.577-.248-8.177-.185-5.004.07-8.362.27-8.362.5c0,.531-17.472.515-17.8-.015-.158-.256-6.004-.4-16.224-.4-10.384,0-15.976.14-15.976.4c0,.585-17.302.538-17.888-.048-.315-.315-3.145-.4-9.48-.287-4.968.089-9.032.021-9.032-.152c0-.172-.191-.313-.424-.313s-.324.161-.202.358c.268.433-.895.938-1.417.616-.203-.126-.266-.397-.14-.602.127-.204.04-.372-.193-.372s-.424.21-.424.467m-2.8,83.325v49.808h8.153h8.153l.272-16.5c.15-9.075.216-31.44.147-49.7L75,100.2l-8.3-.108-8.3-.108v49.808m33.2.008v49.8h8.4h8.4v-49.8-49.8h-8.4-8.4v49.8m33.467-49.533c-.345.345-.347,70.961-.002,87.033l.264,12.3h8.136h8.135v-49.8-49.8h-8.133c-4.474,0-8.254.12-8.4.267M9.975,219.08c-.316.814-.524,1.643-.461,1.842s-.105.626-.373.949c-.267.322-.47,1.113-.45,1.758.02.644.053,4.861.073,9.371l.036,8.2h168.176c111.687,0,168.26.134,168.424.4.136.22.777.4,1.424.4s1.176.18,1.176.4.28.4.622.4c2.115,0,8.578,6.463,8.578,8.578c0,.342.18.622.4.622s.4.504.4,1.12.181,1.301.402,1.522c.464.464.28,124.947-.19,128.558-.157,1.21-.449,2.371-.649,2.58s-.36,1.019-.357,1.8.138,1.223.3.982.991-.548,1.844-.683c.852-.135,1.876-.54,2.274-.901.399-.361.917-.538,1.151-.394.234.145.425.073.425-.16s.36-.424.8-.424.8-.18.8-.4.27-.4.6-.4.6-.159.6-.353c0-.195.315-.46.7-.589c1.857-.626,5.265-3.096,8.273-5.998c1.107-1.066,2.606-2.461,3.333-3.1.727-.638,1.181-1.165,1.008-1.172s.001-.196.386-.42.7-.58.7-.792c0-.211.54-.948,1.2-1.639s1.2-1.471,1.2-1.734c0-.264.36-.805.8-1.203s.8-.956.8-1.239c0-.542,1.564-3.418,2.045-3.762.155-.11.408-.875.563-1.7.154-.824.441-1.499.637-1.499.195,0,.355-.54.355-1.2c0-.749.206-1.2.548-1.2.372,0,.502-.383.407-1.2-.099-.856.03-1.2.453-1.2.326,0,.593.315.594.7.002.47.199.323.6-.446.329-.63.587-1.35.573-1.6s-.215-.004-.446.546l-.42,1-.41-1.166c-.294-.836-.276-1.378.061-1.918.258-.414.484-1.6.501-2.635.035-2.139.495-2.948,1.468-2.58.605.229.602.185-.027-.45-.66-.666-.693-4.175-.6-62.84.054-34.174-.032-62.054-.19-61.956-.159.098-.398-.325-.533-.939-.134-.614-.431-1.611-.66-2.216l-.416-1.1h-189.477-189.477l-.574,1.48M377.3,377.398c-.569.647-.639,1.002-.196,1.002.167,0,.528-.36.803-.8.571-.913.144-1.055-.607-.202m-4.271,4.031c-.424.309-.693.64-.599.734s.518-.082.941-.392c.424-.309.693-.64.599-.734s-.518.082-.941.392" fill="#e3f3fc" fill-rule="evenodd"/><path d="M88.6,8c-.136.22-.745.4-1.352.4-1.411,0-4.848,1.161-4.848,1.638c0,.199-.248.362-.552.362-.303,0-1.248.707-2.1,1.572-4.453,4.52-4.948,6-4.948,14.806v7.222h3.976c2.22,0,4.086-.177,4.224-.4.334-.541,16.866-.541,17.2,0c.339.548,32.461.548,32.8,0c.334-.541,16.866-.541,17.2,0c.139.225,2.071.4,4.424.4h4.176v-6.257c0-7.115-.821-11.071-2.624-12.639-.537-.466-.976-1.072-.976-1.345c0-1.509-6.422-5.359-8.94-5.359-.803,0-1.46-.18-1.46-.4c0-.552-55.859-.552-56.2,0" fill="#5494e4" fill-rule="evenodd"/><path d="M83.062,33.5c-.102.165,3.74.3,8.538.3s8.64-.135,8.538-.3-3.944-.3-8.538-.3-8.436.135-8.538.3m50,0c-.102.165,3.74.3,8.538.3s8.64-.135,8.538-.3-3.944-.3-8.538-.3-8.436.135-8.538.3M35.786,92.823c-.15.243-.757.315-1.422.169-1.052-.231-1.152-.161-1.078.745.046.55-.159,1.453-.456,2.007-.412.769-.442,1.392-.128,2.629.226.891.25,1.521.053,1.399-.21-.13-.355,20.432-.352,49.762.006,45.051.068,50.008.634,50.225.346.133,6.149.241,12.896.242h12.267l-.249-9.5c-.137-5.226-.272-27.816-.3-50.201L57.6,99.6h8.8h8.8v50.2v50.2h8.1h8.1l-.103-50.2-.103-50.2h8.806h8.806l-.103,50.2L108.6,200h8.1h8.1v-50.2-50.2h8.8h8.8l-.051,40.7c-.028,22.385-.163,44.975-.3,50.201l-.249,9.5h8.2h8.2l-.249-9.5c-.137-5.226-.272-27.807-.3-50.181L157.6,99.64l2.3-.12l2.3-.12-1.899-1.2c-1.045-.66-1.9-1.335-1.9-1.5-.001-.165-.361-.3-.801-.3s-.8-.18-.8-.4-.36-.4-.8-.4-.8-.18-.8-.4-.349-.4-.776-.4-.888-.18-1.024-.4-.676-.4-1.2-.4-1.064-.18-1.2-.4-.856-.4-1.6-.4-1.464-.18-1.6-.4c-.355-.575-111.659-.551-112.014.023M175.2,192.006v8.005l12.5-.105l12.5-.106.108-7.9.109-7.9h-12.609-12.608v8.006" fill="#8ddafa" fill-rule="evenodd"/><path d="M296.1,41.498c2.365.071,6.235.071,8.6,0c2.365-.07.43-.128-4.3-.128s-6.665.058-4.3.128M62.7,200.298c2.255.072,5.945.072,8.2,0c2.255-.071.41-.129-4.1-.129s-6.355.058-4.1.129m33.2,0c2.255.072,5.945.072,8.2,0c2.255-.071.41-.129-4.1-.129s-6.355.058-4.1.129m33.2,0c2.255.072,5.945.072,8.2,0c2.255-.071.41-.129-4.1-.129s-6.355.058-4.1.129m33.6,0c2.255.072,5.945.072,8.2,0c2.255-.071.41-.129-4.1-.129s-6.355.058-4.1.129M104.9,216.7c52.305.056,137.895.056,190.2,0s9.51-.102-95.1-.102-147.405.046-95.1.102M192,250.4l-1,.32l1-.007c.55-.004,1.54-.145,2.2-.313l1.2-.305-1.2-.008c-.66-.004-1.65.137-2.2.313m13.8,0c.66.168,1.65.309,2.2.313l1,.007-1-.32c-.55-.176-1.54-.317-2.2-.313l-1.2.008l1.2.305m-17,.8c-.533.345-.533.388,0,.388.33,0,.87-.175,1.2-.388.533-.345.533-.388,0-.388-.33,0-.87.175-1.2.388m21,0c1.196.514,2.195.514,1.4,0-.33-.213-.96-.378-1.4-.366l-.8.022.8.344m-26.252,2.23c-4.204,2.197-9.127,6.625-11.643,10.473-1.856,2.838-2.575,4.311-1.9,3.894.217-.134.395-.423.395-.643c0-.666,3.021-4.893,5.204-7.282c2.307-2.525,6.28-5.313,10.067-7.065c1.391-.644,2.259-1.173,1.929-1.175-.33-.003-2.153.806-4.052,1.798m29.652-1.152c.77.336,1.76.768,2.2.959c4.715,2.048,8.676,5.677,13.512,12.377.411.57.327.255-.2-.747-2.576-4.897-13.14-13.433-16.38-13.234-.292.018.098.308.868.645m-17.685,14.45c-.377.15,1.641.272,4.485.272s4.862-.122,4.485-.272c-.377-.149-2.395-.272-4.485-.272s-4.108.123-4.485.272m-5.943,2.634c-1.861,1.366-4.627,4.516-4.274,4.869.106.107.519-.307.916-.919.932-1.434,3.281-3.617,4.686-4.355c1.068-.561,1.412-.967.8-.947-.165.005-1.123.614-2.128,1.352M208,268.19c0,.104.585.475,1.3.824l1.3.634-1-.815c-.963-.785-1.6-1.041-1.6-.643m-39.35,1.801c-.903,2.256-.763,2.592.187.451.429-.967.708-1.83.621-1.917s-.45.573-.808,1.466m61.796-1.391c.007.22.36,1.12.783,2s.657,1.15.52.6c-.282-1.133-1.324-3.212-1.303-2.6M210.8,269.735c0,.16.585.878,1.3,1.595s1.623,1.746,2.017,2.287c.692.948.693.936.007-.329-.71-1.311-3.324-4.105-3.324-3.553m-43.35,3.915c-.333,1.667-.01,1.99.35.35.152-.691.193-1.341.091-1.442-.102-.102-.3.389-.441,1.092m64.618-.65c-.006.44.143,1.16.332,1.6.438,1.019.438-.032,0-1.4-.257-.804-.323-.843-.332-.2m-65.418,4.65c-.341,1.704-.315,3.551.05,3.548.165-.002.352-1.082.415-2.4.126-2.619-.073-3.11-.465-1.148m17.223-.697c-.15.392-.262,1.013-.248,1.38.017.442.156.341.412-.299.212-.531.324-1.152.248-1.38-.076-.227-.261-.093-.412.299m31.761-.153c.012.33.177.96.366,1.4l.344.8.022-.8c.012-.44-.153-1.07-.366-1.4-.345-.533-.385-.533-.366,0m17.352,4.795c.008,2.947.128,4.828.267,4.181.339-1.58.335-7.333-.007-8.557-.15-.54-.267,1.429-.26,4.376m-16.477.005c0,.99.078,1.395.173.9.096-.495.096-1.305,0-1.8-.095-.495-.173-.09-.173.9m-45.209-.102c2.145.072,5.655.072,7.8,0s.39-.131-3.9-.131-6.045.059-3.9.131m44.325,4.042c-1.402,3.384-6.573,5.629-13.102,5.688-1.718.016-3.483.174-3.923.352-1.13.457,5.885.086,8.8-.465c4.611-.872,10.341-5.107,8.883-6.565-.096-.097-.393.349-.658.99m16.604,3.089c-.148.586-.191,1.143-.097,1.237.095.094.292-.308.439-.895.148-.586.191-1.143.097-1.237-.095-.094-.292.308-.439.895m-36.97,4.358c-1.426,1.008-3.261,3.425-3.257,4.292.002.286.283-.019.626-.679.849-1.636,2.42-3.224,3.922-3.965.688-.339.98-.612.65-.606s-1.203.437-1.941.958m35.282.056c-1.087,2.957-6.057,8.564-9.259,10.445-.945.555-1.628,1.099-1.518,1.209.358.358,5.307-3.428,7.009-5.362c1.932-2.194,4.62-6.475,4.28-6.816-.129-.128-.359.107-.512.524M191.402,299.3c-.128.715-.181,6.79-.118,13.5L191.4,325h8.6h8.6l.108-8.5.108-8.5l1.092-.028c.601-.016,1.452-.199,1.892-.408.622-.295.499-.333-.55-.172-.743.115-1.687.208-2.1.208-.71,0-.75.458-.75,8.6v8.6h-8.424-8.425l.125-13.4c.128-13.842.118-14.278-.274-12.1m23.398,7.117c-1.21.404-1.84.742-1.4.753.874.02,3.62-.857,4.059-1.296.402-.402-.197-.279-2.659.543m-23.357,27.416c-.352.917-.299,15.685.057,15.905.165.103.3-3.442.3-7.876v-8.062h8.2h8.2v8.062c0,4.434.135,7.979.3,7.876.356-.22.409-14.988.057-15.905-.366-.955-16.748-.955-17.114,0" fill="#a89bae" fill-rule="evenodd"/><path d="M32.745,200.106c.169.168,6.145.258,13.281.199L59,200.199L45.72,200c-7.305-.11-13.143-.062-12.975.106m46.133.192c2.353.071,6.313.071,8.8.001s.562-.128-4.278-.129c-4.84,0-6.875.058-4.522.128m33.2,0c2.353.071,6.313.071,8.8.001s.562-.128-4.278-.129c-4.84,0-6.875.058-4.522.128m33.422.001c2.475.07,6.525.07,9,0c2.475-.071.45-.128-4.5-.128s-6.975.057-4.5.128m35.6,0c3.575.067,9.425.067,13,0c3.575-.066.65-.12-6.5-.12s-10.075.054-6.5.12m114.178-.001c2.353.071,6.313.071,8.8.001s.562-.128-4.278-.129c-4.84,0-6.875.058-4.522.128M104.9,216.3c52.305.056,137.895.056,190.2,0s9.51-.102-95.1-.102-147.405.046-95.1.102m89.323,34.047c-.648.139,1.952.253,5.777.253s6.425-.114,5.777-.253c-.647-.139-3.247-.252-5.777-.252s-5.13.113-5.777.252m-4.223.859c-.422.276-.185.317.8.136c1.725-.317,2.051-.544.767-.536-.532.003-1.237.183-1.567.4m-9.707,4.608c-.821.558-1.493,1.101-1.493,1.206s.72-.285,1.6-.867c1.397-.925,1.87-1.353,1.493-1.353-.059,0-.779.456-1.6,1.014m38.112-.741c.003.18.652.746,1.443,1.259.792.513,1.324.746,1.183.519-.39-.633-2.632-2.15-2.626-1.778m-42.229,4.236L174.2,261.4l1.993-1.8c1.095-.99,2.07-1.845,2.166-1.9s.088-.186-.016-.291c-.105-.105-1.08.75-2.167,1.9m45.465-1.809c.022.165.967,1.103,2.1,2.085l2.059,1.786-1.985-2.086c-2.029-2.131-2.245-2.309-2.174-1.785M198.5,266.291c.825.087,2.175.087,3,0c.825-.086.15-.157-1.5-.157s-2.325.071-1.5.157m-5.03.69c-1.315.469-2.362,1.043-1.837,1.008.607-.041,4.447-1.535,3.967-1.543-.33-.006-1.288.235-2.13.535m12.53.209c2.573.921,2.981.983,1.6.241-.55-.295-1.63-.647-2.4-.782-.974-.172-.73-.007.8.541m-16.2,1.61c-.66.437-1.02.792-.8.788.401-.006,2.576-1.565,2.2-1.576-.11-.004-.74.351-1.4.788m19.796-.117c.548.394,1.718,1.339,2.6,2.1l1.604,1.383-1.288-1.389c-.708-.765-1.878-1.71-2.6-2.101-1.266-.686-1.277-.685-.316.007m-41.347,3.132c-.137.358-.234.951-.215,1.318s.193.136.387-.513c.377-1.262.244-1.887-.172-.805m63.195.385c.329,1.471.558,1.79.55.767-.003-.422-.189-1.037-.412-1.367-.297-.438-.334-.276-.138.6m-17.005,1.576c.462.783.917,1.424,1.011,1.424.284,0-1.014-2.331-1.448-2.599-.222-.137-.025.392.437,1.175m-46.983,1.108c-.135.504-.228,1.366-.207,1.916.023.589.182.271.387-.775.367-1.873.237-2.698-.18-1.141m17.029-.071c-.267.427-.484,1.004-.483,1.282.002.278.275-.017.608-.655.693-1.329.601-1.79-.125-.627m47.788.787c.131.99.303,1.875.383,1.967.301.347.072-2.203-.266-2.967-.237-.534-.276-.202-.117,1m-15.797,2.8c-.009.55.127,1.81.304,2.8.24,1.35.327,1.5.347.6.015-.66-.122-1.92-.304-2.8-.207-1.002-.337-1.226-.347-.6M166.934,280l.066,1l8.1.108c7.534.101,8.098.059,8.068-.6-.018-.418-.114-.504-.233-.208-.428,1.061-15.641.677-15.873-.4-.17-.793-.185-.781-.128.1m65.997,1.8c.002,1.54.074,2.121.161,1.291s.085-2.09-.003-2.8c-.089-.71-.16-.031-.158,1.509m-16.477,2.126c-.072,1.238-.694,2.388-2.202,4.073L213,289.398l1.336-1.199c1.65-1.481,2.567-3.175,2.343-4.326-.165-.848-.172-.847-.225.053m16,2.074c-.035.55-.158,1.45-.271,2l-.206,1l.43-.985c.236-.541.358-1.441.271-2L232.52,285l-.066,1M207.2,291.2c-.824.264-.859.326-.2.354.44.019,1.07-.141,1.4-.354.701-.453.214-.453-1.2,0m-8.6.8l-1.2.305l1.2.013c.66.006,2.1-.128,3.2-.3l2-.311-2-.006c-1.1-.004-2.54.131-3.2.299m-4.425,2.5L193,295.8l1.3-1.175c1.212-1.095,1.484-1.425,1.175-1.425-.069,0-.654.585-1.3,1.3m-2.318,4.6c-.428,2.585-.299,25.7.143,25.7.259,0,.4-4.8.4-13.6c0-13.501-.067-14.984-.543-12.1m33.403.742c-.298.336-.461.69-.365.787.097.097.503-.185.903-.627.399-.441.563-.795.364-.787-.199.009-.605.29-.902.627m-6.06,4.594c-.664.543-.731.679-.2.404c1.305-.674,2.028-1.228,1.6-1.225-.22.002-.85.371-1.4.821m-9.6,2.764l-1,.32l1-.007c.55-.004,1.54-.145,2.2-.313l1.2-.305-1.2-.008c-.66-.004-1.65.137-2.2.313m-1.733.667c-.446.445-.316,16.933.133,16.933.254,0,.4-3.133.4-8.6c0-4.73-.06-8.6-.133-8.6-.074,0-.254.12-.4.267m-16.086,26.237c-.109.286-.15,3.935-.09,8.108l.109,7.588h8.2h8.2v-8-8l-8.109-.108c-6.368-.085-8.153.003-8.31.412M207.6,341.8v7.8h-7.6-7.6v-7.8-7.8h7.6h7.6v7.8" fill="#848c9c" fill-rule="evenodd"/><path d="M291.216,150.703c.119,26.567.355,48.527.524,48.8.35.566,15.283.724,16.154.171.529-.336.977-97.274.449-97.274-.677,0-.743,4.391-.743,49.233v47.967h-7.6-7.6v-47.967c0-26.382-.109-48.252-.243-48.6-1.089-2.838-1.152.387-.941,47.67M274.1,217.1c14.245.058,37.555.058,51.8,0s2.59-.106-25.9-.106-40.145.048-25.9.106m-76.6,32.796c1.375.078,3.625.078,5,0s.25-.142-2.5-.142-3.875.064-2.5.142M175.381,259.3L173.8,261l1.7-1.581c1.581-1.471,1.884-1.819,1.581-1.819-.065,0-.83.765-1.7,1.7m48.819-.1c.859.88,1.652,1.6,1.762,1.6s-.503-.72-1.362-1.6-1.652-1.6-1.762-1.6.503.72,1.362,1.6m-24.9,7.876c.385.1,1.015.1,1.4,0c.385-.101.07-.183-.7-.183s-1.085.082-.7.183m-3.4,66.022c2.255.072,5.945.072,8.2,0c2.255-.071.41-.129-4.1-.129s-6.355.058-4.1.129m0,17.2c2.255.072,5.945.072,8.2,0c2.255-.071.41-.129-4.1-.129s-6.355.058-4.1.129" fill="#d4acbc" fill-rule="evenodd"/></g></svg>
