<svg id="eoNAz7p8a3l1" xmlns="http://www.w3.org/2000/svg" xmlns:xlink="http://www.w3.org/1999/xlink" viewBox="0 0 100 70" shape-rendering="geometricPrecision" text-rendering="geometricPrecision"><path d="M90,0h-80C4.5,0,0,4.5,0,10v50c0,5.5,4.5,10,10,10h80c5.5,0,10-4.5,10-10.1v-49.9c0-5.5-4.5-10-10-10Z" fill="#f01414"/><path d="M92.7,59.9c.1,1.5-1.1,2.8-2.7,2.9h-80c-1.5,0-2.7-1.3-2.7-2.8v-50C7.2,8.5,8.4,7.2,9.9,7.1h80.1c1.5,0,2.7,1.3,2.7,2.8v50Z" fill="#fff"/><path d="M30.6,57.9h-16.8v-45.8h16.8C42.5,12.1,49,19.5,49,34.8c0,13.2-4.5,23-18.4,23.1Zm7.3-22.2c0-9.2-1-16.4-10.9-16.4h-2.2v31.2h3.9c5.8,0,9.2-4.7,9.2-14.8ZM78,33.9c4.7-1.4,7.9-5.7,8-10.7c0-1-.2-11.2-13.1-11.2h-19.1v45.8h16.2c4.3,0,17.7,0,17.7-12.9c0-3.1-1.4-9.2-9.7-11ZM64.7,19.2h3.5c4.9,0,6.9,1.7,6.9,5.5c0,3-2.2,5.5-6,5.5h-4.3v-11Zm4.5,31.3h-4.5v-11.8h4.8c5.7,0,7.1,3.3,7.1,5.9c0,5.9-5.6,5.9-7.4,5.9Z" fill="#f01414"/><line x1="-50" y1="35" x2="50" y2="-35" transform="translate(50 35)" fill="none" stroke="#f00" stroke-width="3"/><line x1="-50" y1="-35" x2="50" y2="35" transform="translate(50 35)" fill="none" stroke="#f00" stroke-width="3"/></svg>
