<svg id="e2rbN7U5VL91" xmlns="http://www.w3.org/2000/svg" xmlns:xlink="http://www.w3.org/1999/xlink" viewBox="0 0 400 400" shape-rendering="geometricPrecision" text-rendering="geometricPrecision"><g><path d="M86.6,123.6c-.136.22-1.317.4-2.624.4-1.317,0-2.376.178-2.376.4c0,.22-.63.4-1.4.4s-1.4.18-1.4.4-.135.366-.3.324c-.578-.147-2.9.543-2.9.861c0,.177-.315.422-.7.544-2.222.704-9.7,7.676-9.7,9.042c0,.199-.135.422-.3.496-.463.205-2.1,3.366-2.1,4.054c0,.337-.142.672-.316.746-.4.169-3.502,9.572-3.365,10.203.056.258-.083.584-.308.723-.226.14-.411.683-.411,1.207s-.18,1.064-.4,1.2-.4.599-.4,1.029-.158,1.094-.351,1.476c-.536,1.062-1.249,3.471-1.249,4.223c0,.37-.18.672-.4.672s-.4.54-.4,1.2-.18,1.2-.4,1.2-.4.54-.4,1.2-.18,1.2-.4,1.2-.4.54-.4,1.2-.18,1.2-.4,1.2-.4.349-.4.776-.18.888-.4,1.024-.4.676-.4,1.2-.18,1.064-.4,1.2-.4.676-.4,1.2-.18,1.064-.4,1.2-.4.676-.4,1.2-.18,1.064-.4,1.2-.4.676-.4,1.2-.18,1.064-.4,1.2-.4.777-.4,1.424-.18,1.176-.4,1.176-.4.54-.4,1.2-.18,1.2-.4,1.2-.4.525-.4,1.167c0,.641-.178,1.226-.397,1.3-.218.073-.437.628-.487,1.233s-.192,1.1-.316,1.1-.475.855-.78,1.9-.684,2.17-.841,2.5c-.709,1.483-1.995,6.05-1.795,6.373.121.197.053.419-.153.493s-.5,1.259-.654,2.634l-.28,2.5h158.451h158.452v-1.223c0-1.454-.701-4.693-1.227-5.672-.205-.382-.373-1.136-.373-1.676s-.18-1.093-.4-1.229-.4-.599-.4-1.029-.175-1.094-.389-1.476c-.213-.382-1.118-2.945-2.011-5.695s-1.798-5.313-2.011-5.695c-.214-.382-.389-1.057-.389-1.5s-.18-.805-.4-.805-.4-.54-.4-1.2-.18-1.2-.4-1.2-.4-.439-.4-.976-.18-1.088-.4-1.224-.4-.766-.4-1.4-.18-1.264-.4-1.4-.4-.676-.4-1.2-.18-1.064-.4-1.2-.4-.676-.4-1.2-.18-1.064-.4-1.2-.4-.676-.4-1.2-.18-1.064-.4-1.2-.4-.687-.4-1.224-.18-.976-.4-.976-.4-.54-.4-1.2-.18-1.2-.4-1.2-.4-.551-.4-1.224c0-.713-.167-1.12-.4-.976-.343.212-.622-1.269-.437-2.33.031-.181-.128-.215-.353-.076-.348.215-.63-1.201-.457-2.294.026-.165-.111-.3-.303-.3-.293,0-.752-1.302-1.056-3-.039-.22-.168-.67-.285-1-.118-.33-.433-1.41-.701-2.4-.267-.99-.618-2.07-.78-2.4-.161-.33-.543-1.455-.848-2.5s-.695-1.9-.867-1.9-.313-.29-.313-.646c0-.713-1.625-3.876-2.1-4.087-.165-.074-.3-.389-.3-.7c0-.312-.18-.567-.4-.567s-.4-.183-.4-.406c0-.541-5.868-6.394-6.41-6.394-.233,0-.81-.36-1.282-.8s-1.095-.8-1.383-.8c-.289,0-.525-.166-.525-.368c0-.353-2.278-1.066-2.9-.908-.165.042-.3-.104-.3-.324s-.63-.4-1.4-.4-1.4-.18-1.4-.4c0-.222-1.059-.4-2.376-.4-1.307,0-2.488-.18-2.624-.4-.343-.554-226.457-.554-226.8,0" fill="#b3d3f3" fill-rule="evenodd"/><path d="M121.521,263.216c-6.262,3.308-5.435,9.533,2.075,15.608c1.208.977,2.648,2.158,3.2,2.625c5.111,4.323,15.691,12.994,16.804,13.772l1.4.979h55h55l2-1.374c1.1-.755,2.09-1.486,2.2-1.624s3.44-2.937,7.4-6.221s7.29-6.066,7.4-6.181c.11-.116,1.19-1.008,2.4-1.982c7.547-6.074,8.351-12.378,1.993-15.622-2.432-1.24-154.522-1.221-156.872.02M12.8,373.976c0,9.687.145,15.266.4,15.424.22.136.4.58.4.986c0,1.966,5.025,8.414,6.558,8.414.316,0,.65.225.742.5.131.392,6.363.526,28.933.622c30.119.128,32.394.057,33.616-1.044.413-.373,1.24-.93,1.837-1.238.598-.308.992-.713.877-.9-.116-.187.07-.34.413-.34.553,0,.689-.233.598-1.03-.015-.127.345-.553.8-.947.454-.394.826-1.011.826-1.37s.136-.653.303-.653c1.125,0,2.093-30.26,1.054-32.967-.219-.571-4.01-.633-38.8-.633h-38.557v15.176m297.043-14.543c-.428,1.115-.278,30.498.157,30.767.22.136.4.687.4,1.224s.18.976.4.976.4.294.4.653.372.976.826,1.37c.455.394.815.82.8.947-.091.797.045,1.03.598,1.03.343,0,.529.153.413.34-.115.187.279.592.877.9.597.308,1.424.865,1.837,1.238c1.222,1.101,3.497,1.172,33.616,1.044c22.57-.096,28.802-.23,28.933-.622.092-.275.426-.5.742-.5c1.192,0,5.758-5.23,5.758-6.595c0-.333.18-.605.4-.605s.4-.54.4-1.2.18-1.2.4-1.2c.26,0,.4-5.333.4-15.2v-15.2h-38.557c-34.79,0-38.581.062-38.8.633" fill="#3a5464" fill-rule="evenodd"/><path d="M158.8,47.985v35.215h9.576c5.953,0,9.67-.151,9.824-.4.136-.22.597-.4,1.024-.4s.776-.18.776-.4.36-.4.8-.4.8-.18.8-.4.235-.4.522-.4c.688,0,3.53-2.614,3.201-2.944-.141-.141-.059-.256.182-.256s1.756-1.314,3.366-2.92c1.611-1.607,3.379-3.114,3.929-3.351.55-.236,1.503-.632,2.119-.879.76-.306,5.982-.45,16.276-.45c9.674,0,15.247-.145,15.405-.4.136-.22.597-.4,1.024-.4s.776-.18.776-.4.276-.4.613-.4s2.581-1.98,4.987-4.4s4.56-4.4,4.787-4.4.413-.18.413-.4.984-.4,2.187-.4h2.188l4.744,4.7c2.609,2.585,5.27,4.946,5.913,5.247.642.3,1.481.705,1.863.9c2.075,1.056,20.705.206,20.705-.944c0-.167.225-.309.5-.316.658-.016,2.7-1.825,2.7-2.391c0-.244.135-.366.3-.272.395.225,2.119-1.572,1.807-1.883-.132-.133-.036-.241.214-.241s1.531-1.08,2.847-2.4c2.331-2.338,6.832-3.656,6.832-2c0,.22.185.4.412.4.226,0,2.583,2.16,5.237,4.8c3.418,3.4,5.1,4.8,5.765,4.8.516,0,1.05.18,1.186.4.336.544,16.6.544,16.6,0c0-.22.5-.4,1.112-.4.653,0,1.349-.33,1.688-.8.317-.44.78-.8,1.029-.8s1.017-.54,1.708-1.2s1.411-1.2,1.6-1.2.909-.54,1.6-1.2s1.411-1.2,1.6-1.2.909-.54,1.6-1.2s1.411-1.2,1.6-1.2.909-.54,1.6-1.2s1.375-1.2,1.52-1.2c1.149,0,6.943-5.361,6.943-6.425c0-.4.18-.839.4-.975s.4-1.216.4-2.4-.18-2.264-.4-2.4-.4-.597-.4-1.024-.18-.776-.4-.776-.4-.258-.4-.573-.351-.684-.78-.821c-.428-.136-1.319-.733-1.979-1.326-.66-.594-1.752-1.575-2.427-2.18s-1.378-1.1-1.562-1.1c-.183,0-.898-.54-1.589-1.2s-1.411-1.2-1.6-1.2-.909-.54-1.6-1.2-1.403-1.2-1.584-1.2c-.18,0-.677-.32-1.104-.711-.426-.391-1.405-1.147-2.175-1.681-.77-.533-1.67-1.249-2-1.589s-1.382-1.024-2.338-1.519l-1.738-.9h-62.187c-73.929,0-64.801.911-73.044-7.289-2.384-2.371-4.595-4.311-4.914-4.311-.318,0-.579-.18-.579-.4s-.36-.4-.8-.4-.8-.16-.8-.356c0-.664-2.973-.946-11.7-1.11l-8.7-.164v35.215M41.462,206.9c.242.392,316.834.392,317.076,0c.102-.165-71.24-.3-158.538-.3s-158.64.135-158.538.3" fill="#94a4a4" fill-rule="evenodd"/><path d="M75.9,0.282c-.605.094-1.1.339-1.1.545c0,.205-.263.373-.585.373C73.399,1.2,56.8,17.726,56.8,18.538c0,.364-.18.662-.4.662s-.4.36-.4.8-.16.8-.356.8c-.997,0-1.83,51.174-.85,52.154.223.223.406,1,.406,1.726s.18,1.32.4,1.32.4.32.4.712c0,.391.36.971.8,1.288s.8.788.8,1.047c0,.635,13.977,14.603,15.329,15.321.589.312,1.071.717,1.071.9c0,.182.36.332.8.332s.8.18.8.4.54.4,1.2.4s1.2.18,1.2.4c0,.553,69.858.553,70.2,0c.136-.22.699-.4,1.252-.4c2.158,0,6.746-3.923,8.123-6.946l.879-1.929.073-39.163c.04-21.539-.062-39.162-.227-39.162s-.3-.373-.3-.829c0-1.287-1.939-4.286-3.547-5.487-.799-.596-1.513-1.219-1.586-1.384-.074-.165-.374-.3-.667-.3s-.608-.225-.7-.5c-.161-.484-72.61-.885-75.6-.418M106.4,29.2c.317.44.762.806.988.813c1.88.057,2.012,1.269,2.012,18.4v16.214L108,66.013c-.77.763-2.043,1.612-2.828,1.887-1.779.623-16.772.712-16.772.1c0-.22-.381-.4-.846-.4C86.47,67.6,84,64.921,84,63.745c0-.494-.18-1.009-.4-1.145-.254-.157-.398-5.298-.394-14.124.007-16.439-.087-15.942,3.692-19.556.99-.947,18.802-.691,19.502.28M32.673,214.554c-4.087,4.045-7.395,7.42-7.351,7.5s-.686.89-1.621,1.799c-.936.909-1.701,1.575-1.701,1.48s-4.68,4.549-10.4,10.321C5.88,241.425,1.2,246.369,1.2,246.64s-.225.568-.5.66c-.734.245-.734,103.955,0,104.2.275.092.5.422.5.733c0,.312.18.567.4.567s.4.226.4.501C2,354.472,6.669,358,8.218,358c.54,0,.982.135.982.3s18.182.246,40.405.181c36.182-.107,40.43-.055,40.643.5.364.948,219.14.948,219.504,0c.213-.555,4.461-.607,40.643-.5c22.223.065,40.405-.016,40.405-.181s.457-.3,1.016-.3c1.491,0,6.184-3.54,6.184-4.664c0-.295.18-.536.4-.536s.4-.27.4-.6.142-.6.315-.6c.889,0,1.073-104.004.185-104.3-.275-.092-.5-.392-.5-.667c0-.762-7.389-8.306-7.784-7.947-.189.173-.237.125-.106-.106.131-.23-6.741-7.385-15.27-15.9L360.131,207.2h-160.013-160.013l-7.432,7.354M68.712,262.33c1.056.401,2.363,1.105,2.904,1.565s3.774,3.139,7.184,5.955c3.41,2.815,6.29,5.218,6.4,5.34.175.194,2.482,2.101,5.574,4.61c7.298,5.921,8.085,11.646,2.164,15.738L91.4,296.6h-29.629-29.629l-1.611-1.066c-3.137-2.075-3.331-3.024-3.331-16.255c0-18.453-1.107-17.599,22.896-17.646c15.239-.03,16.863.031,18.616.697m208.769-.25c8.223,3.532,7.595,11.111-1.481,17.872-.77.574-1.49,1.144-1.6,1.266-.11.123-2.36,2.014-5,4.203-2.64,2.188-5.041,4.207-5.335,4.485s-1.189.998-1.989,1.6-2.178,1.769-3.063,2.594-1.835,1.5-2.111,1.5-.502.136-.502.303c0,1.221-3.321,1.297-56.4,1.297s-56.4-.076-56.4-1.297c0-.167-.226-.303-.502-.303s-1.226-.675-2.111-1.5-2.263-1.992-3.063-2.594-1.695-1.322-1.989-1.6-2.695-2.297-5.335-4.485c-2.64-2.189-4.89-4.085-5-4.214s-.723-.636-1.363-1.128c-9.145-7.024-10.076-13.838-2.414-17.66c1.947-.972,153.417-1.301,155.658-.339m90.586.272c4.379,1.899,4.733,3.174,4.733,17.048c0,19.074,3.275,17.463-35.2,17.313l-29-.113-1.538-1.062c-5.149-3.558-5.056-10.04.202-14.138c1.13-.88,2.252-1.781,2.495-2.002.242-.221,1.431-1.208,2.641-2.194s2.29-1.891,2.4-2.011c1.458-1.593,14.87-12.234,16.116-12.788c2.597-1.154,34.507-1.2,37.151-.053M85.879,324.9c4.538,2.481,4.933,8.356.784,11.672L85.126,337.8h-26.463-26.463l-1.284-.916c-5.16-3.68-3.935-11.037,2.084-12.518c2.854-.703,51.517-.211,52.879.534m179.574.247c4.358,2.498,4.495,8.755.255,11.66l-1.449.993h-64.259-64.259l-1.449-.993c-4.996-3.424-3.808-10.638,2.045-12.42.585-.178,29.503-.293,64.263-.255l63.2.068l1.653.947m103.226-.247c4.645,2.54,4.857,8.809.405,11.984l-1.284.916h-26.463-26.463l-1.537-1.228c-4.555-3.641-3.632-10.06,1.725-11.996c2.584-.934,51.862-.636,53.617.324" fill="#e34b3b" fill-rule="evenodd"/><path d="M31.78,262.963c-3.633,1.582-3.854,2.626-3.702,17.437.182,17.647-3.76,15.8,33.722,15.8h29.2l1.63-1.107c5.122-3.478,4.69-8.968-1.094-13.894-4.386-3.735-4.758-4.047-7.14-5.994-1.208-.986-2.286-1.889-2.396-2.005s-1.188-1.019-2.396-2.005c-1.208-.987-2.648-2.186-3.2-2.665-3.492-3.024-6.796-5.39-8.004-5.731-2.268-.639-35.113-.493-36.62.164m299.394-.024c-1.089.394-7.039,4.842-8.374,6.26-.11.116-1.19,1.02-2.4,2.006-1.21.987-2.501,2.065-2.869,2.395-.367.33-3.186,2.67-6.263,5.2-8.765,7.207-9.91,12.12-3.806,16.338L309,296.2h29.2c37.645,0,33.6,2.031,33.6-16.87c0-18.344,2.105-16.7-21.529-16.819-13.613-.068-17.999.03-19.097.428" fill="#f3c21c" fill-rule="evenodd"/><path d="M10.208,178.788c-.141.226-.695.412-1.232.412s-.976.18-.976.4-.461.4-1.024.4c-.58,0-.916.173-.776.4.136.22.029.4-.237.4-.687,0-4.763,4.227-4.763,4.941c0,.326-.221.666-.491.756-1.278.426-.831,12.791.513,14.235.428.459.778,1.004.778,1.211c0,.591,2.816,3.257,3.44,3.257.308,0,.56.191.56.424s.165.321.368.196c.202-.125.607-.001.9.276.292.277.892.566,1.332.642s.983.288,1.207.471c.223.184,6.784.353,14.579.376c14.032.041,15.147.107,14.002.831-.323.204-.391.375-.15.378s.764-.354,1.162-.794.951-.8,1.228-.8c1.33,0,1.34-19.292.01-20.759-.419-.463-.599-.847-.4-.854s.013-.277-.414-.6c-.428-.323-.657-.587-.51-.587s-.493-.779-1.423-1.731-1.826-1.662-1.991-1.577c-.165.086-.3-.035-.3-.268s-.248-.424-.551-.424-.779-.274-1.057-.61c-.278-.335-.593-.522-.7-.416-.106.107-.795-.057-1.529-.364-1.661-.694-21.14-.895-21.555-.222m357.689.408c-.827.406-1.398.568-1.27.361s-.393-.025-1.158.404c-1.35.759-5.315,4.439-4.782,4.439.146,0-.083.264-.511.587-.427.323-.613.593-.414.6s.019.391-.4.854c-1.728,1.907-1.267,20.495.519,20.944c2.052.515,29.166.19,30.808-.37.488-.166.951-.238,1.028-.159s.457-.173.844-.56.869-.601,1.071-.476c.203.125.368.049.368-.169c0-.219.374-.516.832-.661c1.032-.328,3.168-2.518,3.168-3.249c0-.298.137-.541.304-.541s.54-.379.829-.842.345-.73.124-.593-.127-.303.209-.977c.788-1.58.647-12.018-.166-12.288-.275-.092-.5-.433-.5-.759c0-.699-4.069-4.941-4.739-4.941-.254,0-.461-.18-.461-.4s-.36-.4-.8-.4-.8-.18-.8-.4-.439-.4-.976-.4-1.091-.185-1.231-.412c-.504-.815-20.148-.449-21.896.408M367.8,214.8c1.75,1.76,3.271,3.2,3.381,3.2s-1.231-1.44-2.981-3.2-3.271-3.2-3.381-3.2s1.231,1.44,2.981,3.2m-336.391.391c-1.078,1.095-1.882,2.057-1.785,2.138.097.082,1.125-.814,2.284-1.991c1.159-1.176,1.962-2.138,1.785-2.138-.178,0-1.205.896-2.284,1.991m-8.1,8.249c-.93.948-1.56,1.781-1.4,1.852.369.162,3.693-3.25,3.347-3.437-.141-.076-1.017.637-1.947,1.585M385,232c1.75,1.76,3.271,3.2,3.381,3.2s-1.231-1.44-2.981-3.2-3.271-3.2-3.381-3.2s1.231,1.44,2.981,3.2m-369.991-.409c-1.078,1.095-1.882,2.057-1.785,2.138.097.082,1.125-.814,2.284-1.991c1.159-1.176,1.962-2.138,1.785-2.138-.178,0-1.205.896-2.284,1.991m-8.517,8.671C5.333,241.438,4.53,242.4,4.707,242.4c.421,0,4.299-3.936,4.069-4.129-.097-.082-1.125.814-2.284,1.991M33,324.366c-6.019,1.481-7.244,8.838-2.084,12.518l1.284.916h26.463h26.463l1.537-1.228c4.149-3.316,3.754-9.191-.784-11.672-1.362-.745-50.025-1.237-52.879-.534m103.337.021c-5.853,1.782-7.041,8.996-2.045,12.42l1.449.993h64.259h64.259l1.449-.993c4.24-2.905,4.103-9.162-.255-11.66L263.8,324.2l-63.2-.068c-34.76-.038-63.678.077-64.263.255m178.725.189c-5.357,1.936-6.28,8.355-1.725,11.996l1.537,1.228h26.463h26.463l1.284-.916c4.452-3.175,4.24-9.444-.405-11.984-1.755-.96-51.033-1.258-53.617-.324" fill="#c43c2c" fill-rule="evenodd"/><path d="M32,262.268c-4.459,1.919-4.8,3.129-4.8,17.011c0,13.231.194,14.18,3.331,16.255l1.611,1.066h29.629h29.629l1.538-1.062c5.921-4.092,5.134-9.817-2.164-15.738-3.092-2.509-5.399-4.416-5.574-4.61-.11-.122-2.99-2.525-6.4-5.34-3.41-2.816-6.643-5.495-7.184-5.955-2.6-2.208-3.449-2.298-21.52-2.262-13.934.027-16.928.132-18.096.635m298.916.137c-1.246.554-14.658,11.195-16.116,12.788-.11.12-1.19,1.025-2.4,2.011s-2.399,1.973-2.641,2.194c-.243.221-1.365,1.122-2.495,2.002-5.258,4.098-5.351,10.58-.202,14.138L308.6,296.6l29,.113c38.475.15,35.2,1.761,35.2-17.313c0-18.623,1.064-17.813-23.333-17.772-15.577.026-16.996.086-18.551.777M68.4,262.799c1.208.341,4.512,2.707,8.004,5.731.552.479,1.992,1.678,3.2,2.665c1.208.986,2.286,1.889,2.396,2.005s1.188,1.019,2.396,2.005c2.382,1.947,2.754,2.259,7.14,5.994c5.784,4.926,6.216,10.416,1.094,13.894L91,296.2h-29.2c-37.482,0-33.54,1.847-33.722-15.8-.152-14.811.069-15.855,3.702-17.437c1.507-.657,34.352-.803,36.62-.164m300.646.626c2.834,2.116,2.754,1.653,2.754,15.905c0,18.901,4.045,16.87-33.6,16.87h-29.2l-1.538-1.062c-6.104-4.218-4.959-9.131,3.806-16.338c3.077-2.53,5.896-4.87,6.263-5.2.368-.33,1.659-1.408,2.869-2.395c1.21-.986,2.29-1.89,2.4-2.006c1.335-1.418,7.285-5.866,8.374-6.26c2.724-.986,36.481-.553,37.872.486" fill="#ec872c" fill-rule="evenodd"/><path d="M158.591,48.4c0,18.81.049,26.505.109,17.1s.06-24.795,0-34.2-.109-1.71-.109,17.1M123.8,262c-.45.193,32.909.344,76.2.344s76.65-.151,76.2-.344c-.44-.189-34.73-.344-76.2-.344s-75.76.155-76.2.344m-3.944,2.034c-1.021.899-1.854,1.844-1.852,2.1.003.256.469-.123,1.036-.843.568-.72,1.691-1.657,2.496-2.082.805-.426,1.174-.782.82-.791-.354-.01-1.479.717-2.5,1.616m158.623-.818c1.803.953,3.33,2.907,3.737,4.784.167.77.382,1.177.476.903.564-1.625-3.258-6.534-5.048-6.485-.354.009.021.369.835.798m-161.006,4.137c-.15.392-.262,1.013-.248,1.38.017.442.156.341.412-.299.212-.531.324-1.152.248-1.38-.076-.227-.261-.093-.412.299m-.222,3.96c-.158,2.223,1.292,3.84,9.549,10.646c2.809,2.315,3.894,3.222,10.6,8.854c2.42,2.032,5.107,4.166,5.971,4.741l1.57,1.046l54.166.106c36.869.072,54.663-.029,55.724-.314c1.599-.431,24.133-18.761,26.435-21.503c1.027-1.223,1.837-3.519,1.398-3.958-.117-.117-.337.451-.489,1.262-.302,1.609-2.086,3.656-5.775,6.625-1.21.974-2.29,1.866-2.4,1.982-.11.115-3.44,2.897-7.4,6.181s-7.29,6.083-7.4,6.221-1.1.869-2.2,1.624l-2,1.374h-55-55l-1.4-.979c-1.113-.778-11.693-9.449-16.804-13.772-.552-.467-1.992-1.648-3.2-2.625-3.537-2.861-5.387-4.962-5.857-6.651-.241-.865-.461-1.252-.488-.86M32.5,358.7c10.505.059,27.695.059,38.2,0s1.91-.108-19.1-.108-29.605.049-19.1.108m296.8,0c10.505.059,27.695.059,38.2,0s1.91-.108-19.1-.108-29.605.049-19.1.108" fill="#ac4c4c" fill-rule="evenodd"/><path d="M282.6,269.798c0,1.607.135,2.84.3,2.739.386-.237.381-4.59-.006-5.2-.162-.255-.294.853-.294,2.461m-165.533-2.331c-.368.367-.338,4.842.033,5.071.165.102.3-1.057.3-2.576s-.015-2.762-.033-2.762c-.019,0-.154.12-.3.267m5.421,11.146c.598.63,1.159,1.064,1.247.966.088-.099-.402-.614-1.088-1.145l-1.247-.965l1.088,1.144m154.282.487l-.97,1.1l1.2-1c.66-.55,1.275-1.045,1.367-1.1.091-.055-.012-.1-.231-.1-.218,0-.833.495-1.366,1.1m-147.082,5.513c.598.63,1.159,1.064,1.247.966.088-.099-.402-.614-1.088-1.145l-1.247-.965l1.088,1.144m16.05,12.281c.254.162,24.672.294,54.262.294s54.008-.132,54.262-.294-24.164-.294-54.262-.294-54.516.132-54.262.294" fill="#bc4c44" fill-rule="evenodd"/></g><line x1="-199.92525" y1="-199.935205" x2="199.92525" y2="199.935206" transform="translate(200.07475 200.014227)" fill="none" stroke="#f00" stroke-width="5"/><line x1="-199.865252" y1="199.974716" x2="199.865253" y2="-199.974716" transform="translate(200.014753 199.974716)" fill="none" stroke="#f00" stroke-width="5"/></svg>
