<svg id="e1gv7inGQE01" xmlns="http://www.w3.org/2000/svg" xmlns:xlink="http://www.w3.org/1999/xlink" viewBox="0 0 32 32" shape-rendering="geometricPrecision" text-rendering="geometricPrecision"><g><path d="M27,2h-9c-.740055.004411-1.452363.282211-2,.78-.547637-.497789-1.259945-.775589-2-.78h-9C3.343146,2,2,3.343146,2,5v19c0,1.656854,1.343146,3,3,3v2c0,.552285.447715,1,1,1s1-.447715,1-1v-2h7c.740055-.004411,1.452363-.282211,2-.78.547637.497789,1.259945.775589,2,.78h7v2c0,.552285.447715,1,1,1s1-.447715,1-1v-2c1.656854,0,3-1.343146,3-3v-19c0-1.656854-1.343146-3-3-3ZM14,25h-9c-.552285,0-1-.447715-1-1L4,5c0-.552285.447715-1,1-1h9c.552285,0,1,.447715,1,1v19c0,.552285-.447715,1-1,1Zm14-1c0,.552285-.447715,1-1,1h-9c-.552285,0-1-.447715-1-1v-19c0-.552285.447715-1,1-1h9c.552285,0,1,.447715,1,1Z"/><path d="M12,6h-5c-.552285,0-1,.447715-1,1s.447715,1,1,1h5c.552285,0,1-.447715,1-1s-.447715-1-1-1Z"/><path d="M12,10h-5c-.552285,0-1,.447715-1,1s.447715,1,1,1h5c.552285,0,1-.447715,1-1s-.447715-1-1-1Z"/><path d="M25,6h-5c-.552285,0-1,.447715-1,1s.447715,1,1,1h5c.552285,0,1-.447715,1-1s-.447715-1-1-1Z"/><path d="M25,10h-5c-.552285,0-1,.447715-1,1s.447715,1,1,1h5c.552285,0,1-.447715,1-1s-.447715-1-1-1Z"/><path d="M7,16c-.552285,0-1,.447715-1,1v1c0,.552285.447715,1,1,1s1-.447715,1-1v-1c0-.552285-.447715-1-1-1Z"/><path d="M20,16c-.552285,0-1,.447715-1,1v1c0,.552285.447715,1,1,1s1-.447715,1-1v-1c0-.552285-.447715-1-1-1Z"/></g><line x1="-16" y1="-16" x2="16" y2="16" transform="translate(16 16)" fill="none" stroke="#f00"/><line x1="-16" y1="16" x2="16" y2="-16" transform="translate(16 16)" fill="none" stroke="#f00"/></svg>
