<svg id="eH3p0Pr1TZo1" xmlns="http://www.w3.org/2000/svg" xmlns:xlink="http://www.w3.org/1999/xlink" viewBox="0 0 24 24" shape-rendering="geometricPrecision" text-rendering="geometricPrecision"><g transform="translate(0-1028.4)"><path d="M22,12c0,5.522847-4.477153,10-10,10s-10-4.477153-10-10s4.477153-10,10-10s10,4.477153,10,10Z" transform="translate(0 1029.4)" fill="#2980b9"/><path d="M22,12c0,5.522847-4.477153,10-10,10s-10-4.477153-10-10s4.477153-10,10-10s10,4.477153,10,10Z" transform="translate(0 1028.4)" fill="#3498db"/><path d="M11,1035.4v2h2v-2h-2Zm-1,4l-1,1h2v6h-2v1h1h4h1v-1h-2v-7h-3Z" fill="#2980b9"/><path d="M11,6v2h2v-2h-2Zm-1,4L9,11h2v6h-2v1h1h4h1v-1h-2v-7h-3Z" transform="translate(0 1028.4)" fill="#ecf0f1"/></g><line x1="-12" y1="12" x2="12" y2="-12" transform="translate(12 12)" fill="none" stroke="#f00"/><line x1="-12" y1="-12" x2="12" y2="12" transform="translate(12 12)" fill="none" stroke="#f00"/></svg>
