<svg id="efFYt74jrOU1" xmlns="http://www.w3.org/2000/svg" xmlns:xlink="http://www.w3.org/1999/xlink" viewBox="0 0 400 400" shape-rendering="geometricPrecision" text-rendering="geometricPrecision"><g><path d="M187,49.2c-.141.229-2.196.4-4.8.4s-4.659.171-4.8.4c-.136.22-1.666.4-3.4.4s-3.264.18-3.4.4-1.486.4-3,.4-2.864.18-3,.4-1.216.4-2.4.4-2.264.18-2.4.4-1.227.4-2.424.4-2.176.18-2.176.4-.9.4-2,.4-2,.18-2,.4-.799.4-1.776.4-1.888.18-2.024.4-.856.4-1.6.4-1.464.18-1.6.4-.867.4-1.624.4-1.376.18-1.376.4-.72.4-1.6.4-1.6.18-1.6.4-.72.4-1.6.4-1.6.157-1.6.348c0,.192-.945.471-2.1.62-2.16.278-4.373.864-5.595,1.481-.382.193-1.057.351-1.5.351s-.805.18-.805.4-.54.4-1.2.4-1.2.18-1.2.4-.529.4-1.176.4-1.288.18-1.424.4-.676.4-1.2.4-1.064.18-1.2.4-.687.4-1.224.4-.976.18-.976.4-.439.4-.976.4-1.088.18-1.224.4-.597.4-1.024.4-.776.18-.776.4-.45.4-1,.4-1,.18-1,.4-.54.4-1.2.4-1.2.18-1.2.4-.36.4-.8.4-.8.18-.8.4-.36.4-.8.4-.8.18-.8.4-.54.4-1.2.4-1.2.18-1.2.4-.36.4-.8.4-.8.18-.8.4-.36.4-.8.4-.8.18-.8.4-.343.4-.762.4c-.816,0-4.15,1.601-4.371,2.1-.074.165-.479.3-.9.3-.422,0-.767.18-.767.4s-.291.4-.646.4c-.858,0-9.754,4.437-9.754,4.866c0,.184-.36.334-.8.334s-.8.18-.8.4-.36.4-.8.4-.8.18-.8.4-.27.4-.6.4-.6.18-.6.4-.32.4-.712.4c-.391,0-.971.36-1.288.8s-.897.8-1.288.8c-.392,0-.712.18-.712.4s-.379.4-.843.4c-.571,0-.771.186-.62.58.148.387.03.505-.357.357-.319-.123-.58-.023-.58.22c0,.244-.36.443-.8.443s-.8.18-.8.4-.27.4-.6.4-.6.18-.6.4-.27.4-.6.4-.6.18-.6.4-.32.4-.712.4c-.391,0-.971.36-1.288.8s-.882.8-1.255.8-.738.153-.812.34c-.073.187-.905.824-1.848,1.415-1.015.635-1.602,1.256-1.438,1.521.16.259.097.337-.149.185-.529-.327-1.698.09-1.698.605c0,.21.208.253.462.096.288-.178.353-.11.172.183-.159.257-.443.373-.632.256-.441-.272-2.402.615-2.402,1.087c0,.197.208.231.462.074.279-.173.353-.11.187.159-.151.244-.539.343-.862.219s-.587-.026-.587.217c0,.244-.283.443-.629.443-.345,0-.885.257-1.2.571-.686.687-.756,1.19-.109.791.279-.173.353-.11.187.159-.151.244-.539.343-.862.219s-.587-.026-.587.217c0,.244-.288.443-.64.443-.351,0-1.143.54-1.76,1.2s-1.297,1.2-1.512,1.2-1.133.72-2.04,1.6-1.753,1.6-1.88,1.6-.9.696-1.717,1.547c-.818.851-2.041,1.834-2.718,2.184-.676.35-2.3,1.679-3.608,2.953s-3.176,2.941-4.152,3.705c-.975.764-3.303,2.996-5.173,4.961s-3.637,3.77-3.927,4.011c-.67.558-11.886,11.815-15.107,15.164-1.339,1.391-2.688,3.103-2.998,3.803-.31.699-.699,1.272-.866,1.272-.166,0-.302.36-.302.8s-.18.8-.4.8-.4.525-.4,1.167c0,.641-.225,1.241-.5,1.333-.719.24-.719,17.241,0,17.96.275.275.5.914.5,1.42s.18.92.4.92.4.36.4.8.18.8.4.8.4.36.4.8.18.8.4.8.4.194.4.431c0,.238.685,1.093,1.522,1.9.838.808,1.642,1.784,1.788,2.169s.496.701.777.701c.282.001.873.544,1.313,1.207s1.295,1.426,1.9,1.696s1.1.627,1.1.794c0,.166.36.302.8.302s.8.18.8.4.36.4.8.4.8.18.8.4.36.4.8.4.8.18.8.4.54.4,1.2.4s1.2.163,1.2.363c0,.377,2.393.713,7.7,1.082c2.08.145,3.1.074,3.1-.215c0-.254.889-.43,2.176-.43c1.197,0,2.288-.18,2.424-.4s.777-.4,1.424-.4s1.176-.18,1.176-.4.36-.4.8-.4.8-.136.8-.302c0-.167.585-.558,1.3-.87s1.591-.896,1.947-1.298c.356-.401.845-.73,1.087-.73.679,0,9.545-8.626,18.466-17.967c2.09-2.189,4.128-4.098,4.529-4.242.43-.156.637-.503.505-.848-.131-.341-.053-.478.188-.33.44.273,2.585-1.377,5.685-4.371c1.049-1.013,2-1.842,2.113-1.842.388,0,2.98-2.772,2.98-3.187c0-.227.135-.384.3-.349.61.129,1.93-.647,2.96-1.739.584-.619,1.277-1.125,1.54-1.125s.983-.54,1.6-1.2s1.428-1.2,1.803-1.2c.436,0,.601-.212.457-.587-.124-.323-.025-.711.219-.862.269-.166.332-.092.159.187-.543.879.508.456,2.335-.938c1.009-.77,1.973-1.4,2.142-1.4.17,0,.568-.36.885-.8s.857-.8,1.2-.8.883-.36,1.2-.8.897-.8,1.288-.8c.392,0,.712-.18.712-.4s.32-.4.712-.4c.391,0,.971-.36,1.288-.8s.897-.8,1.288-.8c.392,0,.712-.18.712-.4s.236-.4.525-.4c.288,0,.911-.36,1.383-.8s1.136-.8,1.475-.8.617-.146.617-.325.63-.573,1.4-.875s1.4-.696,1.4-.875.236-.325.525-.325c.288,0,.911-.36,1.383-.8s1.136-.8,1.475-.8.617-.18.617-.4.315-.401.7-.402s1.586-.451,2.668-1s2.207-.998,2.5-.998.532-.18.532-.4.36-.4.8-.4.8-.18.8-.4.272-.4.605-.4.918-.168,1.3-.374c.382-.205,1.28-.609,1.995-.897.715-.289,1.3-.66,1.3-.827c0-.166.54-.302,1.2-.302s1.2-.18,1.2-.4.36-.4.8-.4.8-.18.8-.4.439-.4.976-.4s1.088-.18,1.224-.4.597-.4,1.024-.4.776-.18.776-.4.54-.4,1.2-.4s1.2-.18,1.2-.4.439-.4.976-.4s1.088-.18,1.224-.4.687-.4,1.224-.4.976-.18.976-.4.54-.4,1.2-.4s1.2-.18,1.2-.4.54-.4,1.2-.4s1.2-.18,1.2-.4.54-.4,1.2-.4s1.2-.18,1.2-.4.72-.4,1.6-.4s1.6-.18,1.6-.4.63-.4,1.4-.4s1.4-.18,1.4-.4.63-.4,1.4-.4s1.4-.18,1.4-.4.722-.4,1.605-.4s1.918-.174,2.3-.387s2.045-.581,3.695-.818s4.08-.613,5.4-.835c1.32-.223,3.435-.5,4.7-.618c1.265-.117,2.3-.377,2.3-.578c0-.2,1.44-.364,3.2-.364s3.2-.169,3.2-.376c0-.879,28.291-1.231,37-.461c2.64.234,6.15.524,7.8.645c1.65.122,3.36.386,3.8.587.44.202,1.7.457,2.8.568c2.334.236,5.383.719,10.4,1.648c1.98.366,4.365.757,5.3.868s1.7.363,1.7.561.72.36,1.6.36s1.6.18,1.6.4.72.4,1.6.4s1.6.18,1.6.4.54.4,1.2.4s1.2.18,1.2.4.439.4.976.4s1.088.18,1.224.4.766.4,1.4.4s1.274.196,1.422.435c.147.239.601.348,1.008.241.408-.106.949.058,1.204.365.255.308.802.559,1.215.559s.751.18.751.4.54.4,1.2.4s1.2.18,1.2.4.54.4,1.2.4s1.2.18,1.2.4.54.4,1.2.4s1.2.136,1.2.302c0,.167.585.538,1.3.827.715.288,1.613.692,1.995.897.382.206.967.374,1.3.374s.605.18.605.4.349.4.776.4.888.18,1.024.4.687.4,1.224.4.976.18.976.4.36.4.8.4.8.201.8.447c0,.256.411.368.963.262.691-.132.905-.032.758.353-.114.296.049.538.361.538.313,0,1.501.45,2.641,1s2.254,1,2.475,1s.402.18.402.4.36.4.8.4.8.18.8.4.36.4.8.4.8.18.8.4.36.4.8.4.8.18.8.4.27.4.6.4.6.18.6.4.27.4.6.4.6.201.6.447c0,.249.353.354.8.237.52-.136.8-.012.8.353c0,.31.32.563.712.563.391,0,.971.36,1.288.8s.897.8,1.288.8c.392,0,.712.18.712.4s.32.4.712.4c.391,0,.971.36,1.288.8s.807.8,1.088.8c.282,0,.512.15.512.332c0,.183.495.588,1.1.9.605.313,1.449.883,1.875,1.268.427.385,1.012.7,1.3.7.289,0,.525.158.525.351c0,.194.54.576,1.2.849s1.2.614,1.2.758c0,.143.675.614,1.5,1.046s1.791,1.102,2.147,1.49c.356.389.869.706,1.139.706.271,0,.997.54,1.614,1.2s1.243,1.2,1.392,1.2.962.72,1.808,1.6s1.731,1.6,1.969,1.6c.237,0,.431.18.431.4s.185.4.411.4c.225,0,1.217.807,2.203,1.793.987.987,2.287,2.112,2.889,2.5c1.213.783,3.634,2.986,6.211,5.652c7.276,7.528,13.632,13.645,15.208,14.635c1.033.649,1.878,1.324,1.878,1.5s.36.32.8.32.801.135.803.3c.004.406,1.983,1.3,2.877,1.3.396,0,.72.18.72.4s.54.4,1.2.4s1.2.18,1.2.4c0,.229,1.2.4,2.8.4s2.8.171,2.8.4c0,.22.709.4,1.576.4s1.688-.18,1.824-.4s1.317-.4,2.624-.4c1.317,0,2.376-.178,2.376-.4c0-.22.72-.4,1.6-.4s1.6-.18,1.6-.4.36-.4.8-.4.8-.18.8-.4.36-.4.8-.4.8-.18.8-.4.36-.4.8-.4.8-.264.8-.587c0-.358.235-.498.6-.358.33.127.6.043.6-.185c0-.229.36-.53.8-.67s.8-.432.8-.651c0-.218-.208-.268-.462-.111-.288.178-.353.11-.172-.183.159-.257.458-.364.665-.236.447.276,1.641-.814,1.283-1.171-.136-.137-.031-.248.233-.248.586,0,3.253-2.612,3.253-3.187c0-.227.18-.413.4-.413s.4-.27.4-.6.18-.6.4-.6.4-.36.4-.8.18-.8.4-.8.4-.36.4-.8.18-.8.4-.8.4-.525.4-1.167c0-.641.225-1.241.5-1.333.38-.127.5-2.309.5-9.1s-.12-8.973-.5-9.1c-.275-.092-.5-.512-.5-.933c0-.422-.18-.767-.4-.767s-.4-.36-.4-.8-.18-.8-.4-.8-.4-.36-.4-.8-.18-.8-.4-.8-.4-.284-.4-.631c0-.348-.72-1.323-1.6-2.169s-1.6-1.728-1.6-1.96c0-.577-17.341-17.796-20.182-20.04-1.253-.99-2.783-2.25-3.399-2.8-2.486-2.218-3.244-2.8-3.648-2.8-.233,0-1.3-.9-2.371-2s-2.158-2-2.414-2-.969-.54-1.586-1.2-1.239-1.2-1.382-1.2c-.144,0-.837-.539-1.54-1.198s-1.415-1.199-1.582-1.2-.868-.542-1.559-1.202-1.459-1.2-1.708-1.2-.712-.36-1.029-.8-.897-.8-1.288-.8c-.392,0-.712-.143-.712-.317c0-.175-.896-.85-1.992-1.5-1.096-.651-1.996-1.318-2-1.483s-.302-.3-.661-.3-.944-.316-1.3-.703c-.356-.386-1.187-.97-1.847-1.297s-1.491-.911-1.847-1.297c-.356-.387-.858-.703-1.117-.703-.258,0-.856-.36-1.328-.8s-1.095-.8-1.383-.8c-.289,0-.525-.18-.525-.4s-.32-.4-.712-.4c-.391,0-.971-.36-1.288-.8s-.897-.8-1.288-.8c-.392,0-.712-.18-.712-.4s-.36-.4-.8-.4-.8-.18-.8-.4-.36-.4-.8-.4-.8-.15-.8-.332c0-.183-.495-.588-1.1-.9s-1.19-.668-1.3-.792c-.426-.479-9.577-4.776-10.171-4.776-.346,0-.629-.18-.629-.4s-.191-.4-.424-.4-.309.225-.169.5-.104.095-.541-.4c-.861-.976-1.468-1.205-1.059-.4.14.275-.104.095-.541-.4s-1.08-.9-1.43-.9-.636-.18-.636-.4-.36-.4-.8-.4-.8-.18-.8-.4-.45-.4-1-.4-1-.18-1-.4-.36-.4-.8-.4-.8-.18-.8-.4-.36-.4-.8-.4-.8-.18-.8-.4-.439-.4-.976-.4-1.088-.18-1.224-.4-.597-.4-1.024-.4-.776-.18-.776-.4-.54-.4-1.2-.4-1.2-.18-1.2-.4-.36-.4-.8-.4-.8-.18-.8-.4-.54-.4-1.2-.4-1.2-.18-1.2-.4-.272-.4-.605-.4-.963-.18-1.4-.4-1.153-.58-1.59-.8-1.146-.4-1.576-.4-.893-.18-1.029-.4-.599-.4-1.029-.4-1.094-.162-1.476-.359c-1.609-.831-6.488-2.136-7.246-1.938-.497.13-.788.034-.735-.244.051-.275-.914-.607-2.414-.829-1.375-.204-2.5-.519-2.5-.7c0-.182-.529-.33-1.176-.33s-1.281-.168-1.407-.373c-.127-.205-.776-.358-1.443-.339-.666.019-1.419-.173-1.673-.427-.253-.253-1.235-.461-2.181-.461s-1.72-.18-1.72-.4-.72-.4-1.6-.4-1.6-.169-1.6-.375-.741-.365-1.647-.352c-.906.012-1.765-.168-1.909-.401-.144-.234-1.061-.413-2.037-.4-.976.014-1.842-.177-1.924-.424-.083-.249-1.013-.448-2.093-.448-1.068,0-2.048-.171-2.177-.379-.129-.209-1.35-.374-2.713-.367-1.432.007-2.539-.171-2.622-.421-.084-.251-1.226-.433-2.711-.433-1.445,0-2.567-.175-2.567-.4c0-.237-1.467-.4-3.6-.4s-3.6-.163-3.6-.4c0-.245-1.933-.4-5-.4s-5-.155-5-.4c0-.26-5.459-.4-15.576-.4-9.953,0-15.666.144-15.824.4m8.4,96.8c-.142.23-2.263.4-5,.4s-4.858.17-5,.4c-.136.22-1.216.4-2.4.4s-2.264.18-2.4.4-1.216.4-2.4.4-2.264.18-2.4.4-1.122.4-2.19.4c-1.19,0-2.007.192-2.109.496-.102.307-.723.448-1.633.369-.86-.074-1.468.052-1.468.304c0,.237-.72.431-1.6.431s-1.6.18-1.6.4-.63.4-1.4.4-1.4.18-1.4.4-.63.4-1.4.4-1.4.18-1.4.4-.63.4-1.4.4-1.4.18-1.4.4-.36.4-.8.4-.8.18-.8.4-.54.4-1.2.4-1.2.18-1.2.4-.54.4-1.2.4-1.2.18-1.2.4-.439.4-.976.4-1.088.18-1.224.4-.597.4-1.024.4-.776.18-.776.4-.54.4-1.2.4-1.2.166-1.2.368c0,.203-.538.487-1.195.631-.658.144-1.299.429-1.424.632-.126.203-.597.369-1.047.369-.522,0-.745.195-.613.538.15.391-.074.484-.823.34-.793-.151-.977-.06-.8.4.174.453-.003.553-.735.413-.552-.106-.963.006-.963.262c0,.246-.36.447-.8.447s-.8.18-.8.4-.22.4-.488.4c-.974,0-4.299,1.812-4.138,2.255.096.262-.119.38-.506.279-.37-.097-1.031.148-1.47.545s-1.338.991-1.998,1.321-1.549.915-1.975,1.3c-.427.385-1.012.7-1.3.7-.289,0-.525.18-.525.4s-.36.4-.8.4-.8.15-.8.332c0,.183-.495.587-1.1.898-.605.31-1.391.881-1.747,1.267-.356.387-.852.703-1.104.703-.251,0-1.021.54-1.712,1.2s-1.43,1.2-1.644,1.2c-.36,0-1.681,1.028-4.4,3.425-.609.536-1.291.975-1.517.975s-1.798,1.399-3.493,3.108c-1.696,1.709-3.713,3.55-4.483,4.091-1.935,1.359-3.282,2.745-3.043,3.131.11.178-2.424,2.922-5.631,6.097s-5.707,5.548-5.555,5.273c.63-1.139-.378-.323-3.288,2.666-4.158,4.269-6.344,6.993-6.944,8.652-.275.76-.644,1.382-.819,1.382-.176,0-.32.36-.32.8s-.18.8-.4.8-.4.529-.4,1.176-.168,1.281-.373,1.407c-.205.127-.357.803-.337,1.503s-.172,1.341-.427,1.426c-.599.2-.662,13.288-.063,13.288.22,0,.4.54.4,1.2s.18,1.2.4,1.2.4.525.4,1.167c0,.641.139,1.226.309,1.3.17.073.962,1.5,1.76,3.171c1.665,3.487,6.843,9.11,9.931,10.785.99.537,1.86,1.112,1.933,1.277.074.165.479.3.9.3.422,0,.767.18.767.4s.54.4,1.2.4s1.2.16,1.2.355c0,1.972,16.589,1.969,20.495-.004.382-.193.967-.351,1.3-.351s.605-.18.605-.4.36-.4.8-.4.8-.18.8-.4.36-.4.8-.4.8-.18.8-.4.288-.4.64-.4c.351,0,1.143-.54,1.76-1.2s1.275-1.2,1.463-1.2c.187,0,1.01-.675,1.828-1.5c2.068-2.087,8.222-8.187,14.129-14.004c2.739-2.697,4.98-5.082,4.98-5.3s.254-.396.565-.396s1.662-1.08,3.003-2.4c1.34-1.32,2.706-2.4,3.035-2.4.328,0,.601-.135.605-.3s.904-.832,2-1.483c1.096-.65,1.992-1.325,1.992-1.5c0-.174.236-.317.525-.317.288,0,.873-.325,1.3-.722.426-.398,1.36-.981,2.075-1.298.715-.316,1.3-.69,1.3-.829c0-.14.54-.478,1.2-.751s1.2-.655,1.2-.849c0-.193.36-.351.8-.351s.8-.18.8-.4.36-.4.8-.4.8-.18.8-.4.36-.4.8-.4.8-.18.8-.4.439-.4.976-.4s1.088-.18,1.224-.4.597-.4,1.024-.4.776-.18.776-.4.36-.4.8-.4.8-.18.8-.4.439-.4.976-.4s1.088-.18,1.224-.4.687-.4,1.224-.4.976-.18.976-.4.54-.4,1.2-.4s1.2-.18,1.2-.4.54-.4,1.2-.4s1.2-.18,1.2-.4.618-.4,1.374-.4s1.868-.188,2.473-.418c1.063-.404,3.603-.778,11.153-1.641c4.586-.524,14.988-.534,19.4-.018c7.36.861,10.59,1.351,11.254,1.706.381.204,1.335.371,2.12.371.784,0,1.426.18,1.426.4s.54.4,1.2.4s1.2.18,1.2.4.54.4,1.2.4s1.2.18,1.2.4.54.4,1.2.4s1.2.18,1.2.4.54.4,1.2.4s1.2.18,1.2.4.36.4.8.4.8.18.8.4.36.4.8.4.8.18.8.4.45.4,1,.4s1,.18,1,.4.36.4.8.4.8.18.8.4.36.4.8.4.8.18.8.4.278.4.617.4s1.003.36,1.475.8s1.095.8,1.383.8c.289,0,.525.18.525.4s.36.4.8.4.8.18.8.4.236.4.525.4c.288,0,.911.36,1.383.8s1.053.8,1.29.8.829.361,1.316.803c1.76,1.596,3.41,2.797,3.844,2.797.243,0,.442.199.442.443c0,.243.27.339.6.212.33-.126.6-.05.6.171c0,.519,2.209,2.712,4,3.972.77.542,2.606,2.204,4.081,3.693c2.53,2.557,3.545,3.339,2.866,2.209-.204-.34-.084-.324.376.049.733.594.928,1.053.277.651-.22-.136-.4-.124-.4.026c0,.403,7.922,8.174,8.332,8.174.192,0,.914.54,1.605,1.2c1.284,1.227,1.935,1.564,1.425.738-.173-.279-.11-.353.159-.187.244.151.352.515.239.809s.12.637.517.763c.952.3,3.087,1.596,3.256,1.977.074.165.479.3.9.3.422,0,.767.18.767.4s.54.4,1.2.4s1.2.18,1.2.4.63.4,1.4.4s1.4.18,1.4.4c0,.229,1.209.4,2.826.4c1.555,0,3.194.197,3.643.437.591.316.938.316,1.254,0c.24-.24,1.751-.437,3.357-.437c1.68,0,2.92-.17,2.92-.4c0-.22.54-.4,1.2-.4s1.2-.18,1.2-.4.54-.4,1.2-.4s1.2-.18,1.2-.4.36-.4.8-.4.8-.18.8-.4.36-.4.8-.4.8-.18.8-.4.288-.4.64-.4c.351,0,1.143-.54,1.76-1.2s1.249-1.2,1.405-1.2c.553,0,3.795-3.572,3.795-4.181c0-.34.152-.619.339-.619.631,0,2.061-1.49,2.061-2.147c0-.359.18-.653.4-.653s.4-.36.4-.8.135-.801.3-.803c.359-.004,1.3-1.941,1.3-2.677c0-.286.18-.52.4-.52s.4-.54.4-1.2.18-1.2.4-1.2.4-.979.4-2.176.18-2.288.4-2.424c.221-.137.4-1.937.4-4.024c0-2.251-.162-3.776-.4-3.776-.22,0-.4-.9-.4-2s-.18-2-.4-2-.4-.529-.4-1.176-.18-1.288-.4-1.424-.4-.687-.4-1.224-.18-.976-.4-.976-.4-.27-.4-.6-.18-.6-.4-.6-.4-.32-.4-.712c0-.391-.36-.971-.8-1.288s-.8-.813-.8-1.102c0-.288-.585-1.128-1.3-1.866s-2.56-2.75-4.1-4.472c-3.786-4.232-12.958-13.36-13.426-13.36-.207,0-1.027-.72-1.822-1.6s-1.603-1.6-1.797-1.6c-.193,0-1.27-.9-2.394-2-1.123-1.1-2.204-2-2.401-2-.198,0-1.105-.724-2.016-1.608s-2.262-1.895-3.001-2.246c-.738-.35-1.343-.797-1.343-.992s-.32-.354-.712-.354c-.391,0-.971-.36-1.288-.8s-.807-.8-1.088-.8c-.282,0-.512-.18-.512-.4s-.27-.4-.6-.4-.6-.18-.6-.4-.27-.4-.6-.4-.6-.15-.6-.332c0-.183-.495-.588-1.1-.9-.605-.313-1.449-.883-1.875-1.268-.427-.385-1.012-.7-1.3-.7-.289,0-.525-.18-.525-.4s-.36-.4-.8-.4-.8-.18-.8-.4-.36-.4-.8-.4-.8-.18-.8-.4-.278-.4-.617-.4-1.003-.36-1.475-.8-1.095-.8-1.383-.8c-.289,0-.525-.18-.525-.4s-.345-.4-.767-.4c-.421,0-.826-.136-.9-.302-.234-.529-8.04-4.098-8.965-4.098-.118,0-.101.225.039.5s-.104.095-.541-.4-1.16-.9-1.607-.9c-.446,0-.923-.18-1.059-.4s-.597-.4-1.024-.4-.776-.18-.776-.4-.36-.4-.8-.4-.8-.18-.8-.4-.439-.4-.976-.4-1.088-.18-1.224-.4-.687-.4-1.224-.4-.976-.18-.976-.4-.529-.4-1.176-.4-1.288-.18-1.424-.4-.766-.4-1.4-.4-1.274-.196-1.422-.435c-.147-.239-.611-.345-1.03-.235-.419.109-1.016-.055-1.326-.366-.311-.31-1.028-.564-1.593-.564-.566,0-1.029-.18-1.029-.4s-.709-.4-1.576-.4-1.688-.18-1.824-.4-.946-.4-1.8-.4-1.664-.18-1.8-.4-1.047-.4-2.024-.4-1.776-.18-1.776-.4-.9-.4-2-.4-2-.18-2-.4c0-.233-1.325-.4-3.176-.4-1.747,0-3.288-.18-3.424-.4s-1.666-.4-3.4-.4-3.264-.18-3.4-.4c-.154-.249-3.996-.4-10.2-.4s-10.046.151-10.2.4m15.705.275c-.383.1-1.103.104-1.6.008-.498-.096-.185-.178.695-.182.88-.005,1.287.074.905.174M90.669,195.652c-2.822,2.871-5.063,5.287-4.981,5.37.083.083,2.57-2.274,5.526-5.236s5.197-5.379,4.98-5.37-2.703,2.365-5.525,5.236M192.6,257.2c-.136.22-1.047.4-2.024.4s-1.776.18-1.776.4-.675.401-1.5.402c-.825.002-2.016.272-2.646.6-.63.329-1.35.597-1.6.595-.711-.005-6.904,3.204-7.808,4.046-.447.417-.973.757-1.17.757s-.922.54-1.613,1.2-1.416,1.2-1.613,1.2c-.518,0-5.307,4.756-6.444,6.4-.532.77-1.292,1.691-1.687,2.047s-.719.823-.719,1.038-.36.717-.8,1.115-.8.88-.8,1.07-.45,1.059-1,1.93-1,1.858-1,2.192-.18.608-.4.608-.4.439-.4.976-.18,1.088-.4,1.224-.4.597-.4,1.024-.18.776-.4.776-.4.54-.4,1.2-.18,1.2-.4,1.2-.4.72-.4,1.6-.18,1.6-.4,1.6-.4.889-.4,1.976-.18,2.088-.4,2.224c-.24.149-.4,2.871-.4,6.824c0,4.117.15,6.576.4,6.576.222,0,.4,1.067.4,2.4s.178,2.4.4,2.4c.22,0,.4.63.4,1.4s.18,1.4.4,1.4.4.45.4,1s.18,1,.4,1s.4.54.4,1.2.18,1.2.4,1.2.4.36.4.8.18.8.4.8.4.232.4.516c0,.743,2.696,5.805,3.619,6.796.429.462.781.997.781,1.189c0,.193.9,1.228,2,2.299s2,2.14,2,2.374.135.427.3.428c.165,0,1.278.888,2.474,1.972c1.196,1.083,2.636,2.207,3.2,2.495.564.289,1.296.81,1.626,1.159.33.348,1.185.888,1.9,1.2s1.3.703,1.3.87c0,.166.36.302.8.302s.8.18.8.4.36.4.8.4.8.18.8.4.36.4.8.4.8.201.8.447c0,.247.351.354.785.241.432-.113.994.046,1.249.353.255.308.802.559,1.215.559s.751.18.751.4.72.4,1.6.4s1.6.18,1.6.4.979.4,2.176.4s2.288.18,2.424.4c.149.241,2.937.4,7.024.4c4.251,0,6.776-.149,6.776-.4c0-.22.9-.4,2-.4s2-.18,2-.4.72-.4,1.6-.4s1.6-.18,1.6-.4.54-.4,1.2-.4s1.2-.18,1.2-.4.439-.4.976-.4s1.088-.18,1.224-.4.597-.4,1.024-.4.776-.136.776-.302c0-.167.585-.558,1.3-.87s1.591-.896,1.947-1.298c.356-.401.941-.73,1.3-.73s.653-.18.653-.4.294-.4.653-.4.944-.332,1.3-.737c.356-.406,1.067-.96,1.581-1.233c1.759-.932,7.666-6.578,7.666-7.326c0-.187.45-.79,1-1.34s1-1.145,1-1.321.36-.736.8-1.243.8-1.255.8-1.661c0-.407.18-.739.4-.739s.4-.36.4-.8.18-.8.4-.8.4-.36.4-.8.18-.8.4-.8.4-.27.4-.6.18-.6.4-.6.4-.45.4-1s.18-1,.4-1s.4-.45.4-1s.18-1,.4-1s.4-.72.4-1.6.18-1.6.4-1.6.4-.72.4-1.6.18-1.6.4-1.6c.241,0,.4-1.64.4-4.12c0-2.671.169-4.289.48-4.6.373-.373.373-.587,0-.96-.308-.308-.48-1.884-.48-4.4c0-2.347-.161-3.92-.4-3.92-.22,0-.4-.81-.4-1.8s-.18-1.8-.4-1.8-.4-.54-.4-1.2-.18-1.2-.4-1.2-.4-.54-.4-1.2-.18-1.2-.4-1.2-.4-.36-.4-.8-.18-.8-.4-.8-.4-.349-.4-.776-.18-.888-.4-1.024-.4-.563-.4-.948c0-.386-.36-1.088-.8-1.56s-.8-1.052-.8-1.289c0-1.536-10.249-13.203-11.599-13.203-.224,0-.973-.54-1.664-1.2s-1.499-1.2-1.796-1.2c-.298,0-.541-.18-.541-.4s-.36-.4-.8-.4-.8-.168-.8-.374-.63-.602-1.4-.88c-.77-.279-1.4-.651-1.4-.826c0-.176-.236-.32-.525-.32s-1.29-.37-2.226-.822-2.595-.928-3.687-1.057-2.081-.39-2.197-.578c-.117-.189-.922-.343-1.789-.343s-1.576-.18-1.576-.4c0-.254-3.059-.4-8.376-.4-5.153,0-8.472.154-8.624.4" fill="#040404" fill-rule="evenodd"/><path d="M209.505,146.283c.497.096,1.217.092,1.6-.008.382-.1-.025-.179-.905-.174-.88.004-1.193.086-.695.182M90.795,196.3L85,202.2l5.9-5.795c3.245-3.187,5.9-5.842,5.9-5.9c0-.286-.622.314-6.005,5.795" fill="#080404" fill-rule="evenodd"/><path d="M209.505,146.283c.497.096,1.217.092,1.6-.008.382-.1-.025-.179-.905-.174-.88.004-1.193.086-.695.182M90.795,196.3L85,202.2l5.9-5.795c3.245-3.187,5.9-5.842,5.9-5.9c0-.286-.622.314-6.005,5.795" fill="#080404" fill-rule="evenodd"/><path d="M209.505,146.283c.497.096,1.217.092,1.6-.008.382-.1-.025-.179-.905-.174-.88.004-1.193.086-.695.182M90.795,196.3L85,202.2l5.9-5.795c3.245-3.187,5.9-5.842,5.9-5.9c0-.286-.622.314-6.005,5.795" fill="#080404" fill-rule="evenodd"/><path d="M209.505,146.283c.497.096,1.217.092,1.6-.008.382-.1-.025-.179-.905-.174-.88.004-1.193.086-.695.182M90.795,196.3L85,202.2l5.9-5.795c3.245-3.187,5.9-5.842,5.9-5.9c0-.286-.622.314-6.005,5.795" fill="#080404" fill-rule="evenodd"/><path d="M209.505,146.283c.497.096,1.217.092,1.6-.008.382-.1-.025-.179-.905-.174-.88.004-1.193.086-.695.182M90.795,196.3L85,202.2l5.9-5.795c3.245-3.187,5.9-5.842,5.9-5.9c0-.286-.622.314-6.005,5.795" fill="#080404" fill-rule="evenodd"/><path d="M209.505,146.283c.497.096,1.217.092,1.6-.008.382-.1-.025-.179-.905-.174-.88.004-1.193.086-.695.182M90.795,196.3L85,202.2l5.9-5.795c3.245-3.187,5.9-5.842,5.9-5.9c0-.286-.622.314-6.005,5.795" fill="#080404" fill-rule="evenodd"/><path d="M209.505,146.283c.497.096,1.217.092,1.6-.008.382-.1-.025-.179-.905-.174-.88.004-1.193.086-.695.182M90.795,196.3L85,202.2l5.9-5.795c3.245-3.187,5.9-5.842,5.9-5.9c0-.286-.622.314-6.005,5.795" fill="#080404" fill-rule="evenodd"/><path d="M209.505,146.283c.497.096,1.217.092,1.6-.008.382-.1-.025-.179-.905-.174-.88.004-1.193.086-.695.182M90.795,196.3L85,202.2l5.9-5.795c3.245-3.187,5.9-5.842,5.9-5.9c0-.286-.622.314-6.005,5.795" fill="#080404" fill-rule="evenodd"/></g></svg>
