<svg id="elDQ06fAR8Z1" xmlns="http://www.w3.org/2000/svg" xmlns:xlink="http://www.w3.org/1999/xlink" viewBox="0 0 400 400" shape-rendering="geometricPrecision" text-rendering="geometricPrecision"><g><path d="M38.902,0.264C38.078,0.597,34,4.729,34,5.232c0,.351.136.353.553.007.429-.356.609-.314.8.184.368.957.288,1.259-.153.577-.285-.441-.389-.46-.394-.073-.004.344-.283.439-.806.273-.459-.146-.8-.072-.8.173c0,.235.135.406.3.38.862-.136.969.11.276.634-.427.323-.581.593-.343.6.789.023.449,1.213-.346,1.213-.583,0-.727-.202-.571-.8.261-.997-.353-1.052-.874-.078-.492.919-.078,1.517,1.004,1.447c1.239-.08,1.847-.569,1.649-1.326-.096-.367.065-.89.357-1.163.437-.408.488-.264.287.812-.338,1.806-.691,2.079-2.689,2.079-1.533,0-1.789.132-2.157,1.107-.385,1.021-.345,1.101.52,1.029.56-.046,1.022-.399,1.147-.875.114-.438.327-.678.472-.533.403.403-.201,2.367-.644,2.094-.213-.132-.388-.043-.388.197c0,.307-.229.316-.76.031-.574-.307-.815-.263-.985.179-.158.411.022.558.604.493.558-.063.949.225,1.2.883.355.933.339.946-.375.3-.843-.763-1.684-.889-1.684-.252c0,.233.177.314.394.18.246-.152.298.237.138,1.038-.207,1.033-.147,1.219.306.956.309-.179.422-.173.252.015-.171.187-.707.401-1.192.475-.484.074-1.065.334-1.289.578-.293.317-.154.381.491.226.495-.119.9-.054.9.145c0,.365-.57.514-1.5.393-.275-.036-.5.185-.5.492c0,.349.467.57,1.255.592.69.02,1.429.21,1.642.423.251.251.125.366-.354.326-.422-.036-.743.197-.743.537c0,.339.292.552.67.489.368-.06.801.102.962.362.184.298.12.366-.173.185-.26-.16-.57-.011-.705.339-.132.344-.535.611-.897.593-.415-.02-.473-.106-.157-.233.275-.111.5-.377.5-.592s-.18-.279-.4-.143-.4.027-.4-.243c0-.535-.569-.118-.65.476-.027.202-.078.592-.112.867-.038.307-.218.232-.467-.195-.453-.777.212-2.486.821-2.11.194.12.458.048.587-.161.129-.208.062-.485-.149-.615-.647-.4-2.098,1.493-1.91,2.491.095.5.017,1.005-.174,1.123-.499.309-.449,44.567.051,44.567.256,0,.433-7.829.5-22.1.079-16.988.209-21.869.561-21.1.271.592.312,1.155.1,1.38-.201.214-.358,9.295-.358,20.729c0,21.15-.003,21.117,1.514,18.491.403-.699.463-.712.474-.1.007.385.203.7.436.7s.312.18.176.4c-.391.633.448.465,1-.2.274-.33.701-.597.949-.594s.181.198-.149.431c-.448.318-.295.348.6.119.66-.168,35.85-.359,78.2-.424c49.829-.076,77.858-.261,79.433-.525c3.149-.527,17.185-.527,20.334,0c1.575.264,29.604.449,79.433.525c42.35.065,77.54.256,78.2.424.895.229,1.048.199.6-.119-.33-.233-.397-.428-.149-.431s.675.264.949.594c.552.665,1.391.833,1,.2-.136-.22-.057-.4.176-.4s.429-.315.436-.7c.011-.612.071-.599.474.1c1.517,2.626,1.514,2.659,1.514-18.491c0-11.434-.157-20.515-.358-20.729-.212-.225-.171-.788.1-1.38.352-.769.482,4.112.561,21.1.067,14.271.244,22.1.5,22.1.47,0,.566-44.097.097-44.568-.165-.166-.3-.871-.3-1.567c0-.928-.24-1.37-.9-1.66-.495-.217-.9-.633-.9-.923c0-.291-.185-.415-.41-.276-.226.14-.6-.289-.831-.952-.298-.855-.615-1.146-1.09-.999-.58.178-.576.146.031-.245.843-.542.938-1.387.12-1.073-.383.147-.505.03-.362-.345.12-.312.426-.527.68-.479s.407-.168.339-.481c-.101-.467-.013-.477.496-.054.34.282.52.671.401.864-.12.193-.026.668.207,1.055.367.606.409.565.308-.297-.151-1.279-.682-2.146-1.689-2.755-.765-.462-.76-.472.1-.237.525.143.9.068.9-.181c0-.235-.191-.427-.424-.427s-.313-.178-.178-.397c.135-.218-.17-.812-.678-1.319-.508-.508-.864-1.23-.792-1.604s-.063-.68-.299-.68-.429.255-.429.567c0,.311-.204.634-.454.718-.293.097-.212.392.229.833.375.375.534.679.354.676-.555-.01-1.401-.664-1.333-1.029.035-.19-.131-.41-.369-.489-.303-.101-.315.166-.04.89.255.67.256,1.034.003,1.034-.337,0-.409-.352-.386-1.9.003-.165.303-.301.668-.302.364-.001.739-.232.833-.513.123-.37-.225-.469-1.256-.355-.785.086-1.33.001-1.212-.19.35-.567-.258-1.974-.728-1.684-.279.173-.315.077-.102-.268.257-.416.46-.34.911.339.319.48.873.867,1.231.86.547-.01.527-.106-.125-.6-.693-.524-.586-.77.276-.634.165.026.3-.145.3-.38c0-.245-.341-.319-.8-.173-.477.151-.8.072-.8-.197c0-.247-.178-.34-.395-.206-.229.141-.293-.022-.154-.386.187-.488.368-.527.796-.172c1.579,1.31.299-.722-1.659-2.633-2.075-2.027-4.751-3.649-3.468-2.103.418.504.418.664-.003.86-.284.132-.022.175.583.094.605-.08,1.1-.096,1.1-.034c0,.061.121.426.268.81.197.514.128.612-.262.371-.352-.218-.434-.173-.244.134.171.277.025.462-.362.462-.356,0-.537.178-.403.395.14.227-.02.294-.376.158-.342-.131-.621-.41-.621-.619c0-.21.161-.282.358-.16s.461-.048.588-.376c.279-.729-.577-.792-1.325-.098-.438.406-.497.38-.316-.138.174-.501.007-.596-.785-.445-.932.179-.972.127-.531-.696.512-.958.184-1.748-.361-.867-.23.372-.41.399-.602.089-.391-.633-313.661-.633-314.052,0-.192.31-.372.283-.602-.089-.545-.881-.873-.091-.361.867.441.823.401.875-.531.696-.792-.151-.959-.056-.785.445.181.518.122.544-.316.138-.748-.694-1.604-.631-1.325.098.127.328.391.498.588.376s.358-.05.358.16c0,.209-.279.488-.621.619-.356.136-.516.069-.376-.158.134-.217-.047-.395-.403-.395-.387,0-.533-.185-.362-.462.19-.307.108-.352-.244-.134-.39.241-.459.143-.262-.371.147-.384.268-.749.268-.81c0-.062.495-.046,1.1.034.605.081.867.038.583-.094-.396-.185-.408-.371-.051-.802.467-.563.199-.672-.73-.297m4.815.932c-.114.437-.36.701-.545.587-.394-.244-.037-1.383.433-1.383.176,0,.226.358.112.796M356.94,0.987c.124.323.073.681-.112.796-.185.114-.431-.15-.545-.587-.239-.915.318-1.092.657-.209M37.942,3.556c.406.257.213.507-.765.995-1.566.782-1.975.552-.979-.549.811-.896.97-.937,1.744-.446m325.86.446c.996,1.101.587,1.331-.979.549-.978-.488-1.171-.738-.765-.995.774-.491.933-.45,1.744.446M296.315,6.433c2.135.238,4.063.576,4.284.752.22.175,1.481.62,2.801.988c7.529,2.102,13.131,6.772,17.561,14.642c1.313,2.331,2.719,11.416,2.246,14.501-1.16,7.554-1.626,9.003-4.083,12.702-3.623,5.452-9.547,10.148-15.324,12.145l-2.4.83-103.6.11c-115.882.123-106.881.344-112.58-2.767-8.846-4.83-12.074-9.167-15.247-20.486L68.642,35.1l1.243-4.65C73.815,15.755,82.285,8.09,96.4,6.453c4.584-.532,195.153-.551,199.915-.02M28.406,16.5c.005.728.08.785.394.3.501-.776.501-1.2,0-1.2-.22,0-.397.405-.394.9m342.26,1.433c.074.293.134.608.134.7s.191.167.424.167.32-.166.195-.37c-.126-.203-.002-.447.276-.542s.199-.128-.176-.073c-.374.055-.75-.016-.834-.157-.085-.142-.093-.018-.019.275M30.522,19.223c.165.63.096.724-.29.403-.278-.23-.634-.291-.79-.135-.156.157-.166-.025-.02-.403.355-.927.838-.868,1.1.135m342.266,2.354c.293.548.28,1.075-.045,1.788-.786,1.725-1.122.746-.777-2.265.059-.52.391-.328.822.477M18.1,70.069c-1.155.215-2.1.558-2.1.762c0,.203-.25.369-.555.369s-1.471.63-2.59,1.4c-1.12.77-2.207,1.4-2.417,1.4C9.796,74,3.6,80.399,3.6,81.063c0,.398.224.537.621.384.378-.145.518-.072.359.185-.143.232-.484.337-.757.232-1.379-.529-3.472,4.093-2.123,4.691.275.122.159.182-.259.133-.417-.048-.837.137-.933.412-.118.339.061.412.559.225.594-.223.648-.166.284.3-.833,1.067.288,3.195,1.649,3.131.22-.011.175-.11-.1-.221s-.494-.412-.487-.668c.008-.257.345-.07.751.416.405.486.849.771.986.633.138-.137.25-.03.25.238c0,1.5,9.853,2.278,15.4,1.215c1.1-.211,3.335-.48,4.968-.598c1.632-.119,3.284-.385,3.671-.592c1.83-.979,2.277-15.709.52-17.131-.463-.375-1.092-1.124-1.398-1.665-.529-.932-.605-1.172-.715-2.229-.059-.568-5.856-.625-8.746-.085m355.054.092c-.111,1.053-.187,1.291-.715,2.222-.306.541-.935,1.29-1.398,1.665-1.734,1.403-1.313,16.169.488,17.103.369.191,2.021.456,3.671.589c1.65.132,3.9.414,5,.626c5.528,1.067,15.4.29,15.4-1.212c0-.268.112-.375.25-.238.137.138.581-.147.986-.633.406-.486.743-.673.751-.416.007.256-.212.557-.487.668s-.32.21-.1.221c1.361.064,2.482-2.064,1.649-3.131-.364-.466-.31-.523.284-.3.498.187.677.114.559-.225-.096-.275-.516-.46-.933-.412-.418.049-.534-.011-.259-.133c1.349-.598-.744-5.22-2.123-4.691-.273.105-.614,0-.757-.232-.159-.257-.019-.33.359-.185.397.153.621.014.621-.384c0-.664-6.196-7.063-6.838-7.063-.21,0-1.297-.63-2.417-1.4-1.119-.77-2.285-1.4-2.59-1.4s-.555-.162-.555-.359c0-1.008-10.741-1.682-10.846-.68M22.4,70.4c0,.22-.461.4-1.024.4s-.94.135-.838.3-.517.3-1.376.3c-.87,0-1.498-.177-1.418-.4.078-.22.708-.354,1.4-.298.691.055,1.256-.08,1.256-.3c0-.221.45-.402,1-.402s1,.18,1,.4m356.4,0c0,.22-.27.4-.6.4s-.6-.18-.6-.4.27-.4.6-.4.6.18.6.4m3.467.6c.074.222-.578.4-1.467.4-1.842,0-1.943-.086-.7-.592c1.076-.439,1.984-.358,2.167.192M11.2,75c-.283.341-.604.529-.714.419s.031-.478.314-.819.604-.529.714-.419-.031.478-.314.819m378.4.298c0,.223-.265.18-.6-.098-.33-.274-.6-.678-.6-.898c0-.223.265-.18.6.098.33.274.6.678.6.898M9.168,76.461c-.396.739-.367.824.206.604.416-.159.569-.097.406.167-.143.232-.492.334-.775.225-.874-.335-2.701,1.875-2.104,2.545.417.467.395.482-.131.088-.485-.363-.746-.358-1.138.02-.407.391-.481.329-.365-.31.079-.44.411-.808.738-.818s.555-.221.506-.468C6.43,78.109,8.942,75.6,9.428,75.6c.11,0-.007.387-.26.861m383.632.934c.55.588.955,1.19.9,1.337-.055.148.123.268.395.268s.559.36.638.8c.116.639.042.701-.365.31-.392-.378-.653-.383-1.138-.02-.526.394-.548.379-.131-.088.597-.67-1.23-2.88-2.104-2.545-.283.109-.632.007-.775-.225-.163-.264-.01-.326.406-.167.579.222.604.138.19-.635-.627-1.172.496-.625,1.984.965M5.082,83.3c.048,1.199.027,1.222-.275.3-.18-.55-.345-.745-.367-.433-.022.311-.156.451-.297.309-.199-.199.511-1.476.821-1.476.036,0,.089.585.118,1.3m390.912.049c-.004.253-.163.203-.364-.114-.277-.437-.4-.347-.546.4-.138.705-.179.62-.153-.315.028-.998.15-1.185.553-.851.284.236.513.632.51.88M8.323,172.699c2.708.069,7.028.069,9.6,0c2.572-.07.357-.127-4.923-.126-5.28,0-7.385.057-4.677.126m374,0c2.708.069,7.028.069,9.6,0c2.572-.07.357-.127-4.923-.126-5.28,0-7.385.057-4.677.126M26.293,227.6c-.436,1.989-.866,59.711-.485,65.005L26.125,297l.498-1.8c.274-.99.516-1.417.538-.949.021.468.281,1.052.578,1.298.771.64,343.751.64,344.522,0c.297-.246.557-.83.578-1.298.022-.468.264-.041.538.949l.498,1.8.317-4.395c.422-5.857-.047-63.212-.532-65.005-.277-1.026-.413.95-.507,7.4l-.129,8.8-.224-8.8c-.123-4.84-.278-8.08-.343-7.2-.066.88-.211,1.375-.322,1.1s-.467-.5-.792-.5-.479.18-.343.399c.135.22-.034.8-.377,1.289l-.623.89v-.862-.863l-77.543-.039c-60.986-.031-78.174.069-80.5.469-1.791.307-6.504.507-11.957.507s-10.166-.2-11.957-.507c-2.326-.4-19.514-.5-80.5-.469L30,229.253v.863.862l-.623-.89c-.343-.489-.512-1.069-.377-1.289.136-.219-.033-.399-.376-.399s-.65.225-.681.5-.185-.22-.343-1.1c-.17-.951-.345,1.972-.431,7.2l-.145,8.8-.212-8.8c-.133-5.533-.326-8.28-.519-7.4m1.604,8.884c-.079,1.384-.144.356-.144-2.284-.001-2.64.063-3.772.142-2.516.079,1.257.08,3.417.002,4.8m344.4,0c-.079,1.384-.144.356-.144-2.284-.001-2.64.063-3.772.142-2.516.079,1.257.08,3.417.002,4.8m-343.601-.199c-.08,1.273-.145.335-.146-2.085s.064-3.462.144-2.315c.081,1.147.082,3.127.002,4.4m342.8,0c-.08,1.273-.145.335-.146-2.085s.064-3.462.144-2.315c.081,1.147.082,3.127.002,4.4M90.809,256.425c15.25,1.912,16.629,21.424,1.736,24.579-3.301.7-22.834.829-26.945.178-15.444-2.444-14.83-22.949.741-24.766c4.07-.476,20.655-.469,24.468.009m244.357.605c10.348,3.505,11.329,18.634,1.491,22.986-3.779,1.672-24.859,2.332-31.247.979-14.692-3.112-13.596-22.716,1.376-24.608c5.163-.653,25.945-.181,28.38.643M65.4,306.358c-7.975,3.693-5.806,15.11,2.956,15.557c9.012.461,12.39-11.28,4.392-15.266-2.518-1.255-5.049-1.355-7.348-.291m261.926.216c-6.49,3.021-5.901,12.79.906,15.037c4.083,1.347,8.502-.417,10.355-4.135c3.591-7.207-3.809-14.372-11.261-10.902" fill="#bbe5f0" fill-rule="evenodd"/><path d="M66.341,256.416c-15.571,1.817-16.185,22.322-.741,24.766c8.693,1.376,27.891.295,31.412-1.768c8.233-4.825,7.504-17.959-1.214-21.85-3.212-1.433-21.055-2.129-29.457-1.148m240.445-.029c-14.972,1.892-16.068,21.496-1.376,24.608c6.388,1.353,27.468.693,31.247-.979c9.838-4.352,8.857-19.481-1.491-22.986-2.435-.824-23.217-1.296-28.38-.643M26.475,295.7c-.517,2.398-.774,43.856-.288,46.5.161.88.624,2.32,1.027,3.2.404.88.858,2.286,1.009,3.124.186,1.033.446,1.458.806,1.32.333-.128.45.006.314.361-.483,1.258,1.956,6.362,2.689,5.63.093-.092.191.225.22.705.063,1.057,2.363,3.622,2.932,3.27.242-.149.308.007.163.384-.271.707.884,2.206,1.701,2.206.288,0,.717.36.952.8s.623.8.86.8c.238,0,1.291.63,2.34,1.4s2.187,1.4,2.53,1.4.727.168.853.373c.127.205,1.263.573,2.524.817c1.261.245,3.103.832,4.093,1.307c1.14.546,2.607.87,4,.883c1.21.011,2.332.2,2.494.42s.297-.001.3-.49c.006-.939,3.956-5.008,5.931-6.11c1.09-.608,59.162-1.182,62.292-.615c1.236.223,6.583,3.969,6.583,4.611c0,.192.373.468.829.613.498.158.743.488.612.827-.185.484,9.158.564,65.759.564s65.944-.08,65.759-.564c-.131-.339.114-.669.612-.827.456-.145.829-.421.829-.613c0-.642,5.347-4.388,6.583-4.611c3.13-.567,61.202.007,62.292.615c1.975,1.102,5.925,5.171,5.931,6.11.003.489.138.71.3.49s1.284-.409,2.494-.42c1.393-.013,2.86-.337,4-.883.99-.475,2.832-1.062,4.093-1.307c1.261-.244,2.397-.612,2.524-.817.126-.205.51-.373.853-.373s1.481-.63,2.53-1.4s2.102-1.4,2.34-1.4c.237,0,.625-.36.86-.8s.664-.8.952-.8c.817,0,1.972-1.499,1.701-2.206-.145-.377-.079-.533.163-.384.454.28,2.349-1.594,3.091-3.058.265-.524.869-1.434,1.343-2.022.474-.589.882-1.606.906-2.261s.205-1.091.402-.97.27-.24.162-.803c-.124-.653-.034-.961.251-.852.26.1.756-.881,1.184-2.336.405-1.379.873-2.688,1.039-2.908c1.113-1.475,1.275-45.495.181-49.24-.315-1.078-.495-1.412-.4-.741.095.67.007,1.48-.195,1.8-.3.474-.369.443-.374-.168-.005-.582-.126-.649-.544-.303-.769.639-342.955.639-343.724,0-.418-.346-.539-.279-.544.303-.005.611-.074.642-.374.168-.202-.32-.267-1.085-.144-1.7.123-.616.14-1.119.038-1.119-.103,0-.39.945-.639,2.1m45.838,10.121c6.665,2.785,7.147,12.407.782,15.632-7.683,3.893-15.725-3.589-12.137-11.293c1.908-4.098,7.143-6.098,11.355-4.339m263.545.797c2.237,1.366,4.143,4.568,4.14,6.954-.016,10.189-14.478,12.399-17.409,2.659-2.283-7.587,6.346-13.839,13.269-9.613M42.8,365.4c.278.335.321.6.098.6-.22,0-.624-.27-.898-.6-.278-.335-.321-.6-.098-.6.22,0,.624.27.898.6m315.2,0c-.274.33-.678.6-.898.6-.223,0-.18-.265.098-.6.274-.33.678-.6.898-.6.223,0,.18.265-.098.6m-190.1,5.3c17.655.058,46.545.058,64.2,0s3.21-.105-32.1-.105-49.755.047-32.1.105" fill="#df6555" fill-rule="evenodd"/><path d="M94.338,12.595C82.68,14.566,75.183,23.3,75.207,34.879C75.231,46.2,81.692,54.251,93.2,57.299l3.4.901h99.8h99.8l3.6-.942c23.606-6.175,24.34-38.747,1-44.32-3.952-.944-200.973-1.271-206.462-.343m206.965,2.302c20.429,6.162,19.427,35.04-1.4,40.358L296.2,56.2h-100-100l-3.775-1.127c-21.652-6.465-20.287-37.386,1.794-40.632c5.145-.756,204.52-.317,207.084.456M194.863,71.211c-2.316.337-4.066,1.621-4.819,3.536-.255.648-.468,7.748-.555,18.453-.175,21.649-.488,23.014-4.407,19.251-4.473-4.294-9.102-5.18-14.038-2.688-2.324,1.173-5.041,4.078-5.046,5.395-.002.353-.312,1.182-.689,1.842-.605,1.058-.717,3.142-.942,17.6-.238,15.199-.395,17.72-1.17,18.8-.158.22-.405.895-.55,1.501-.367,1.536-5.095,6.433-6.932,7.179-5.148,2.09-10.138,1.833-12.897-.664-.375-.339-.855-.616-1.068-.616-.754,0-3.232-3.03-4.252-5.2-2.129-4.53-2.066-3.853-2.208-23.8-.078-11.096-.288-18.956-.511-19.18-.209-.209-.379-.681-.379-1.049c0-1.242-1.542-4.162-2.876-5.445-7.214-6.939-18.109-3.468-19.719,6.284-.162.984-.445,1.977-.629,2.205-.183.228-.397,9.048-.476,19.6-.167,22.304.032,21.059-4.029,25.156-7.388,7.452-20.229,4.727-22.831-4.844-.348-1.28-.845-2.867-1.104-3.527-.315-.801-.553-6.187-.717-16.2l-.245-15-1.105-2.093c-1.103-2.091-3.227-4.107-4.327-4.107-.32,0-.807-.225-1.082-.5-.92-.92-6.796-.608-8.66.46-2.314,1.324-3.61,2.67-4.4,4.569-.383.919-.847,2.031-1.031,2.471-.185.44-.411,6.92-.503,14.4-.211,17.077-.67,18.73-6.373,22.925-3.805,2.798-12.055,3.376-14.724,1.03-.869-.763-1.264-.7-2.18.345-.768.876-.792,1.692-.896,30.978l-.108,30.077l1.308.62c1.163.55,9.485.63,75.307.722l74,.103l2.4,1.143c5.338,2.541,15.862,2.541,21.2,0L213,221.8l74-.103c65.64-.092,74.147-.173,75.3-.719l1.3-.616v-28.163-28.163l-.992-.992c-1.027-1.027-2.037-1.006-4.072.083-4.356,2.331-13.479-.551-15.728-4.969-.325-.637-.969-1.788-1.432-2.558-1.432-2.378-1.485-2.964-1.738-19-.273-17.297-.285-17.376-3.155-20.645-4.921-5.604-14.802-4.043-17.424,2.753-.559,1.45-.659,3.518-.659,13.67c0,11.084-.245,14.563-1.199,17.022-.17.44-.551,1.61-.845,2.6-2.505,8.421-15.066,11.167-22.09,4.83-4.487-4.049-5.051-6.213-5.06-19.402-.003-5.484-.171-10.524-.373-11.2-.202-.675-.559-2.294-.794-3.597-1.713-9.527-14.78-11.46-19.216-2.843l-1.023,1.988-.236,14.412c-.252,15.376-.719,19.751-2.4,22.471-1.112,1.798-4.67,4.939-6.364,5.617-.77.308-1.832.777-2.361,1.042-1.192.599-6.117.635-6.878.051-.308-.237-1.406-.743-2.438-1.124-3.765-1.391-7.923-7.125-7.923-10.927c0-.417-.172-.93-.382-1.14-.229-.229-.431-8.243-.505-19.98-.137-21.74-.135-21.723-2.83-24.533-2.503-2.61-8.458-4.099-10.356-2.588-.29.23-1.193.633-2.007.895-1.653.533-3.567,2.499-4.616,4.743-.619,1.324-.719,3.65-.926,21.485-.283,24.344-.97,28.6-4.615,28.6-2.436,0-2.343,1.606-2.563-44.2-.211-43.972-.13-42.268-2.114-44.123-1.584-1.482-7.868-2.074-13.423-1.266M23.8,95.223c-.44.176-1.475.953-2.3,1.728-.825.774-1.503,1.282-1.506,1.129-.003-.154-.138-.075-.3.175-1.311,2.029-12.624,2.3-15.382.368C3.822,98.28,3.102,98,2.711,98s-.711-.239-.711-.53c0-.292-.45-.953-1-1.47l-1-.939.006,37.969c.004,23.592.147,37.747.379,37.381.319-.504.41-.49.635.098.145.377.428.585.628.461.201-.124.253-.406.117-.627-.137-.221.13-.165.593.124s.842.617.842.729s4.5.204,10,.204s10-.125,10-.279c0-.153.707-.25,1.572-.216.871.035,1.467.231,1.338.441-.128.208-.023.247.235.088.257-.159.364-.458.236-.664-.127-.207.02-.472.327-.59.633-.243.768-1.38.163-1.38-.217,0-.069-.36.329-.8s.533-.8.299-.8c-.233,0-.33-.358-.216-.796.114-.437.367-.696.562-.576.195.121.355.039.355-.181s-.207-.528-.461-.684c-.319-.198-.234-.451.277-.824.405-.296.534-.539.287-.539-.443,0-.321-1.724.18-2.534.133-.216.034-.262-.221-.104-.254.157-.462.095-.462-.138s.18-.424.4-.424c.245,0,.4-1.941.4-5.024c0-3.374-.137-4.939-.416-4.766-.286.177-.404-8.133-.378-26.677.027-19.814-.082-26.904-.414-26.823-.248.06-.33-.086-.183-.325.742-1.2-1.78-2.292-3.609-1.562m349.029.546l-.891.949.045,29.274c.032,20.106-.084,29.193-.369,29.017-.271-.168-.414.721-.414,2.567c0,1.616.171,2.824.4,2.824.22,0,.4.191.4.424s-.208.295-.462.138c-.255-.158-.354-.112-.221.104.501.81.623,2.534.18,2.534-.247,0-.118.243.287.539.511.373.596.626.277.824-.254.156-.461.464-.461.684s.16.302.355.181c.195-.12.448.139.562.576.114.438.017.796-.216.796-.234,0-.099.36.299.8s.546.8.329.8c-.605,0-.47,1.137.163,1.38.307.118.454.383.327.59-.128.206-.021.505.236.664.258.159.363.12.235-.088-.129-.21.467-.406,1.338-.441.865-.034,1.572.063,1.572.216c0,.154,4.5.279,10,.279s10-.092,10-.204.379-.44.842-.729.73-.345.593-.124c-.136.221-.084.503.117.627.2.124.483-.084.628-.461.225-.588.316-.602.635-.098.232.366.375-13.789.379-37.381L400,95.061L399,96c-.55.517-1,1.178-1,1.47c0,.291-.32.53-.711.53s-1.111.28-1.601.623c-2.66,1.863-15.288,1.61-15.288-.307c0-.2-.18-.252-.4-.116s-.403.102-.407-.076c-.045-1.99-5.367-3.842-6.764-2.355M198.8,160.217c.99.332,2.16.766,2.6.963s1.255.455,1.811.574c1.441.309,3.846,2.588,4.571,4.333.822,1.977.921,54.085.105,55.148-1.02,1.328-2.214,1.565-7.887,1.565s-6.867-.237-7.887-1.565c-.59-.768-.718-55.667-.137-58.174.758-3.267,2.905-4.162,6.824-2.844M4.5,169.7c.126.379,2.256.5,8.833.5c4.767,0,8.667.135,8.667.3s-4.05.3-9,.3-9-.075-9-.167-.109-.452-.243-.8c-.133-.348-.058-.633.167-.633s.484.225.576.5m20.1.389c.22.164.001.302-.487.305-.637.004-.821-.168-.651-.611.13-.34.35-.477.487-.305.138.172.431.447.651.611m351.945-.289c.157.411-.024.6-.573.6-.674,0-.72-.095-.288-.585.643-.729.587-.728.861-.015m19.855-.433c0,1.379-.359,1.433-9.443,1.433-4.926,0-8.957-.135-8.957-.3s3.9-.3,8.667-.3c6.577,0,8.707-.121,8.833-.5.151-.454.9-.731.9-.333M65.426,364.044c-1.748.416-3.19,1.41-5.726,3.948-1.928,1.93-2.043,2.171-.861,1.795.943-.299,2.361-1.593,2.361-2.155c0-1.684,2.82-1.832,35-1.832h30.8l1.7.908c.935.5,1.7.773,1.7.607c0-.165.471.393,1.047,1.24.725,1.067,1.142,1.387,1.355,1.042.17-.275.496-.383.726-.242.229.142.53.075.668-.148.138-.224-.109-.407-.55-.407-.44,0-1.054-.362-1.364-.804-.309-.442-1.625-1.567-2.922-2.5L127,363.8l-30-.065c-17.468-.037-30.658.092-31.574.309m207.976-.155c-1.073.279-4.981,3.103-5.684,4.107-.31.442-.924.804-1.364.804-.441,0-.688.183-.55.407.138.223.439.29.668.148.23-.141.556-.033.726.242.213.345.63.025,1.355-1.042.576-.847,1.047-1.405,1.047-1.24c0,.166.765-.107,1.7-.607l1.7-.908h30.8c32.18,0,35,.148,35,1.832c0,.562,1.418,1.856,2.361,2.155c1.245.396,1.064.101-1.442-2.346-4.052-3.956-.964-3.633-35.319-3.701-16.61-.032-30.559.034-30.998.149" fill="#6a6a6a" fill-rule="evenodd"/><path d="M94.219,14.441c-8.677,1.276-16.033,8.694-17.129,17.273-1.437,11.264,4.349,20.079,15.335,23.359L96.2,56.2h100h100l3.703-.945c20.827-5.318,21.829-34.196,1.4-40.358-2.564-.773-201.939-1.212-207.084-.456m99.017,146.12c-.496.529-1.063,1.654-1.26,2.5-.581,2.507-.453,57.406.137,58.174c1.02,1.328,2.214,1.565,7.887,1.565s6.867-.237,7.887-1.565c.816-1.063.717-53.171-.105-55.148-.725-1.745-3.13-4.024-4.571-4.333-.556-.119-1.371-.377-1.811-.574-4.039-1.808-6.847-2.021-8.164-.619M0.261,170.586c-.305.795-.121,1.177.46.956.205-.078.247-.489.095-.913-.262-.732-.29-.734-.555-.043m398.832.18c-.145.553-.029.834.344.834.638,0,.705-.356.212-1.134-.257-.406-.39-.334-.556.3M0.7,171.876c-.987.258-.866.644.383,1.224c1.193.554,22.939.744,23.479.205.162-.162.581-.297.932-.3.35-.003.701-.195.779-.427.096-.285-.606-.328-2.166-.134-3.06.383-18.67.433-21.151.069L1,172.226l1.4-.261c1.324-.246,1.335-.26.2-.266-.66-.003-1.515.076-1.9.177m22.4.006c.495.096,1.305.096,1.8,0c.495-.095.09-.173-.9-.173s-1.395.078-.9.173m352,0c.495.096,1.305.096,1.8,0c.495-.095.09-.173-.9-.173s-1.395.078-.9.173m22.5.083l1.4.261-1.956.287c-2.481.364-18.091.314-21.151-.069-1.56-.194-2.262-.151-2.166.134.078.232.429.424.779.427.351.003.77.138.932.3.54.539,22.286.349,23.479-.205c1.713-.795.801-1.561-1.717-1.442-.755.036-.657.111.4.307M25.786,314c0,11.11.051,15.655.114,10.1.062-5.555.062-14.645,0-20.2-.063-5.555-.114-1.01-.114,10.1m348.4,0c0,11.11.051,15.655.114,10.1.062-5.555.062-14.645,0-20.2-.063-5.555-.114-1.01-.114,10.1M66.2,365.872c-1.897.264-5,1.356-5,1.76c0,.479-1.491,1.968-1.971,1.968-.205,0-.655.283-1,.629-.373.372-.629.442-.629.17c0-.252-.286-.399-.634-.328-.74.15-.887,15.608-.152,15.862.213.074.386,1.251.386,2.616c0,3.198.997,7.034,2.014,7.746.432.303.786.727.786.944c0,.216.395.928.878,1.581l.879,1.188l33.564-.013l33.565-.012.78-.892.779-.891-.436.9c-.353.727-.322.9.163.9.757,0,2.628-2.714,2.628-3.813c0-.455.176-1.003.39-1.217.215-.215.686-1.826,1.048-3.58.361-1.755.86-3.318,1.109-3.475.49-.308,1.059-16.865.605-17.595-.136-.219-.586-.329-1-.245-.414.085-.974-.122-1.244-.46-.411-.513-.553-.524-.854-.067-.276.42-.605.188-1.407-.993-.576-.847-1.047-1.405-1.047-1.24c0,.166-.765-.107-1.7-.607L127,365.8l-29.8-.047c-16.39-.026-30.34.028-31,.119m207.4.094c-.77.16-1.985.598-2.7.973s-1.3.545-1.3.378c0-.166-.471.391-1.047,1.238-.802,1.181-1.131,1.413-1.407.993-.301-.457-.443-.446-.854.067-.27.338-.83.545-1.244.46-.414-.084-.864.026-1,.245-.454.73.115,17.287.605,17.595.249.157.748,1.72,1.109,3.475.362,1.754.833,3.365,1.048,3.58.214.214.39.762.39,1.217c0,1.099,1.871,3.813,2.628,3.813.485,0,.516-.173.163-.9l-.436-.9.779.891.78.892l33.565.012l33.564.013.879-1.188c.483-.653.878-1.365.878-1.581c0-.217.354-.641.786-.944c1.017-.712,2.014-4.548,2.014-7.746c0-1.365.173-2.542.386-2.616.735-.254.588-15.712-.152-15.862-.348-.071-.634.076-.634.328c0,.272-.256.202-.629-.17-.345-.346-.795-.629-1-.629-.477,0-1.971-1.487-1.971-1.962c0-1.632-58.207-3.124-65.2-1.672M57.899,383.478c-.071,2.377-.129.542-.13-4.078c0-4.62.058-6.565.129-4.322s.072,6.023.001,8.4m76.799-1.378c-.073,2.035-.132.37-.132-3.7s.059-5.735.132-3.7.073,5.365,0,7.4m130.8,0c-.073,2.035-.132.37-.132-3.7s.059-5.735.132-3.7.073,5.365,0,7.4m76.801,1.378c-.071,2.377-.129.542-.13-4.078c0-4.62.058-6.565.129-4.322s.072,6.023.001,8.4" fill="#444" fill-rule="evenodd"/><path d="M148.332,11.9c26.693.057,70.253.057,96.8,0s4.708-.103-48.532-.103-74.961.046-48.268.103m-66.951,7L79.8,20.6l1.7-1.581c1.581-1.471,1.884-1.819,1.581-1.819-.065,0-.83.765-1.7,1.7M74.924,35c.002,1.32.077,1.812.166,1.093s.087-1.799-.004-2.4-.164-.013-.162,1.307M81.2,51c.746.77,1.447,1.4,1.557,1.4s-.411-.63-1.157-1.4-1.447-1.4-1.557-1.4.411.63,1.157,1.4M17.8,70.8c-.136.22.023.4.353.4s.711-.18.847-.4-.023-.4-.353-.4-.711.18-.847.4m175.416-.126c-.541.112-1.891.591-3,1.065L188.2,72.6l-76.083.2c-75.491.198-76.087.206-76.7,1-.512.664-.577,1.65-.381,5.8.156,3.291.069,5.82-.255,7.4-.68,3.324-2.029,131.961-1.409,134.43.517,2.059-3.328,1.953,79.428,2.203c42.35.127,77.63.352,78.4.499s1.13.15.8.008-1.59-.727-2.8-1.299L187,221.8l-74-.103c-65.822-.092-74.144-.172-75.307-.722l-1.308-.62.108-30.077c.104-29.286.128-30.102.896-30.978.916-1.045,1.311-1.108,2.18-.345c2.669,2.346,10.919,1.768,14.724-1.03c5.703-4.195,6.162-5.848,6.373-22.925.092-7.48.318-13.96.503-14.4.184-.44.648-1.552,1.031-2.471.79-1.899,2.086-3.245,4.4-4.569c1.864-1.068,7.74-1.38,8.66-.46.275.275.762.5,1.082.5c1.1,0,3.224,2.016,4.327,4.107l1.105,2.093.245,15c.164,10.013.402,15.399.717,16.2.259.66.756,2.247,1.104,3.527c2.602,9.571,15.443,12.296,22.831,4.844c4.061-4.097,3.862-2.852,4.029-25.156.079-10.552.293-19.372.476-19.6.184-.228.467-1.221.629-2.205c1.61-9.752,12.505-13.223,19.719-6.284c1.334,1.283,2.876,4.203,2.876,5.445c0,.368.17.84.379,1.049.223.224.433,8.084.511,19.18.142,19.947.079,19.27,2.208,23.8c1.02,2.17,3.498,5.2,4.252,5.2.213,0,.693.277,1.068.616c2.759,2.497,7.749,2.754,12.897.664c1.837-.746,6.565-5.643,6.932-7.179.145-.606.392-1.281.55-1.501.775-1.08.932-3.601,1.17-18.8.225-14.458.337-16.542.942-17.6.377-.66.687-1.489.689-1.842.005-1.317,2.722-4.222,5.046-5.395c4.936-2.492,9.565-1.606,14.038,2.688c3.919,3.763,4.232,2.398,4.407-19.251.149-18.391.186-18.756,2.119-20.608c2.369-2.269,14.263-2.375,16.644-.147c2.024,1.893,1.936.089,2.148,44.155.22,45.806.127,44.2,2.563,44.2c3.645,0,4.332-4.256,4.615-28.6.207-17.835.307-20.161.926-21.485c1.049-2.244,2.963-4.21,4.616-4.743.814-.262,1.717-.665,2.007-.895c1.898-1.511,7.853-.022,10.356,2.588c2.695,2.81,2.693,2.793,2.83,24.533.074,11.737.276,19.751.505,19.98.21.21.382.723.382,1.14c0,3.802,4.158,9.536,7.923,10.927c1.032.381,2.13.887,2.438,1.124.761.584,5.686.548,6.878-.051.529-.265,1.591-.734,2.361-1.042c1.694-.678,5.252-3.819,6.364-5.617c1.681-2.72,2.148-7.095,2.4-22.471l.236-14.412l1.023-1.988c4.436-8.617,17.503-6.684,19.216,2.843.235,1.303.592,2.922.794,3.597.202.676.37,5.716.373,11.2.009,13.189.573,15.353,5.06,19.402c7.024,6.337,19.585,3.591,22.09-4.83.294-.99.675-2.16.845-2.6.954-2.459,1.199-5.938,1.199-17.022c0-10.152.1-12.22.659-13.67c2.622-6.796,12.503-8.357,17.424-2.753c2.87,3.269,2.882,3.348,3.155,20.645.253,16.036.306,16.622,1.738,19c.463.77,1.107,1.921,1.432,2.558c2.249,4.418,11.372,7.3,15.728,4.969c2.035-1.089,3.045-1.11,4.072-.083l.992.992v28.163v28.163l-1.3.616c-1.153.546-9.66.627-75.3.719l-74,.103-2.2,1.041c-1.21.572-2.47,1.157-2.8,1.299s.03.139.8-.008s36.05-.372,78.4-.499c82.749-.25,78.912-.144,79.428-2.202.594-2.374-.755-131.25-1.408-134.431-.325-1.583-.412-4.102-.256-7.4.196-4.15.131-5.136-.381-5.8-.613-.794-1.209-.802-76.7-1L211.8,72.6l-2.2-.974c-2.18-.965-13.221-1.607-16.384-.952M381,70.8c.136.22.517.4.847.4s.489-.18.353-.4-.517-.4-.847-.4-.489.18-.353.4M7.8,76.853c-.785.69-1.351,1.329-1.259,1.421.093.093.864-.47,1.714-1.251c1.907-1.751,1.514-1.898-.455-.17m383.922.109c.838.791,1.634,1.438,1.77,1.438.42,0-1.644-2.05-2.492-2.474-.44-.221-.115.246.722,1.036M0.432,87.939c-.561,1.05-.549,1.661.035,1.661.256,0,.353-.114.214-.253s-.065-.604.165-1.034c.231-.43.329-.872.219-.982s-.395.164-.633.608M399.015,87.8c.154.44.289,1.025.299,1.3.011.275.169.5.353.5.543,0,.38-.989-.3-1.824-.623-.765-.628-.765-.352.024M0,93.73c0,.902.322,1.633,1,2.27.55.517,1,1.178,1,1.47c0,.291.32.53.711.53s1.111.28,1.601.623c2.66,1.863,15.288,1.61,15.288-.307c0-.2.18-.252.4-.116s.403.102.407-.076c.016-.722,3.271-2.971,4.533-3.132c1.445-.185,2.996.941,2.469,1.793-.147.239-.065.385.183.325.332-.081.441,7.009.414,26.823-.026,18.544.092,26.854.378,26.677.279-.173.416,1.392.416,4.766c0,3.083-.155,5.024-.4,5.024-.22,0-.4.191-.4.424s.208.295.462.138c.255-.158.354-.112.221.104-.501.81-.623,2.534-.18,2.534.247,0,.118.243-.287.539-.511.373-.596.626-.277.824.254.156.461.464.461.684s-.16.302-.355.181c-.195-.12-.448.139-.562.576-.114.438-.017.796.216.796.234,0,.099.36-.299.8s-.554.8-.347.8.421.576.474,1.279c.123,1.607.473,2.025.473.564c0-.717.157-.993.458-.807.314.194.397-.038.262-.74-.154-.807-.061-.976.442-.801.482.168.529.104.193-.261-.327-.355-.309-.876.067-1.968.929-2.695.205-70.932-.763-72.002-1.301-1.437-6.097-.562-8.459,1.542-3.966,3.535-16.107,2.334-18.072-1.788C1.223,91.921,0,91.871,0,93.73m397.872.088c-1.965,4.122-14.106,5.323-18.072,1.788-2.362-2.104-7.158-2.979-8.459-1.542-.955,1.055-1.665,69.293-.749,72.011.366,1.085.38,1.604.053,1.959-.336.365-.289.429.193.261.503-.175.596-.006.442.801-.135.702-.052.934.262.74.301-.186.458.09.458.807c0,1.461.35,1.043.473-.564.053-.703.267-1.279.474-1.279s.051-.36-.347-.8-.533-.8-.299-.8c.233,0,.33-.358.216-.796-.114-.437-.367-.696-.562-.576-.195.121-.355.039-.355-.181s.207-.528.461-.684c.319-.198.234-.451-.277-.824-.405-.296-.534-.539-.287-.539.443,0,.321-1.724-.18-2.534-.133-.216-.034-.262.221-.104.254.157.462.095.462-.138s-.18-.424-.4-.424c-.229,0-.4-1.208-.4-2.824c0-1.846.143-2.735.414-2.567.285.176.401-8.911.369-29.017l-.045-29.274.891-.949c1.397-1.487,6.719.365,6.764,2.355.004.178.187.212.407.076s.4-.084.4.116c0,1.917,12.628,2.17,15.288.307.49-.343,1.21-.623,1.601-.623s.711-.239.711-.53c0-.292.45-.953,1-1.47c1.247-1.171,1.432-3.6.274-3.6-.437,0-.994.563-1.402,1.418M3.757,169.833c.134.348.243.708.243.8s4.05.167,9,.167s9-.135,9-.3-3.9-.3-8.667-.3c-6.577,0-8.707-.121-8.833-.5-.092-.275-.351-.5-.576-.5s-.3.285-.167.633M395.5,169.7c-.126.379-2.256.5-8.833.5-4.767,0-8.667.135-8.667.3s4.031.3,8.957.3c9.084,0,9.443-.054,9.443-1.433c0-.398-.749-.121-.9.333m-368.75.5c-.027.11-.073.421-.1.692-.032.318-.686.473-1.85.438l-1.8-.054l1.6.262c.88.144-4.056.262-10.97.262-6.913,0-12.043-.114-11.4-.253l1.17-.252-1.067-.048c-.586-.026-1.142-.182-1.234-.347s-.113-.075-.046.2-.187.511-.566.525c-.481.018-.397.142.278.411.567.227,5.997.34,13.2.275L26.2,172.2l-.01,27.2-.009,27.2.209-26.8c.116-14.74.356-27.025.534-27.3.19-.295.14-.5-.124-.5-.258,0-.315-.212-.135-.5.359-.574.543-1.5.3-1.5-.091,0-.188.09-.215.2m346.191.263c.045.296.222.762.394,1.037.18.288.123.5-.135.5-.264,0-.314.205-.124.5.178.275.418,12.56.534,27.3l.209,26.8-.009-27.2-.01-27.2l12.235.111c7.203.065,12.633-.048,13.2-.275.675-.269.759-.393.278-.411-.379-.014-.633-.25-.566-.525s.046-.365-.046-.2-.648.321-1.234.347l-1.067.048l1.17.252c.643.139-4.487.253-11.4.253-6.914,0-11.85-.118-10.97-.262l1.6-.262-1.8.054c-1.119.034-1.8-.119-1.8-.405c0-.252-.121-.58-.27-.728-.148-.149-.233-.029-.189.266M27.788,197.6c0,13.97.051,19.685.112,12.7s.061-18.415,0-25.4-.112-1.27-.112,12.7m.8-.6c0,13.64.05,19.278.112,12.529.061-6.749.061-17.909,0-24.8-.062-6.891-.112-1.369-.112,12.271m342.8,0c0,13.64.05,19.278.112,12.529.061-6.749.061-17.909,0-24.8-.062-6.891-.112-1.369-.112,12.271m.8.6c0,13.97.051,19.685.112,12.7s.061-18.415,0-25.4-.112-1.27-.112,12.7M193.505,224.683c.497.096,1.217.092,1.6-.008.382-.1-.025-.179-.905-.174-.88.004-1.193.086-.695.182m11.6,0c.497.096,1.217.092,1.6-.008.382-.1-.025-.179-.905-.174-.88.004-1.193.086-.695.182M167.9,370.3c17.655.058,46.545.058,64.2,0s3.21-.105-32.1-.105-49.755.047-32.1.105M57.769,379.4c.001,4.62.059,6.455.13,4.078s.07-6.157-.001-8.4-.129-.298-.129,4.322m76.797-1c0,4.07.059,5.735.132,3.7s.073-5.365,0-7.4-.132-.37-.132,3.7m130.8,0c0,4.07.059,5.735.132,3.7s.073-5.365,0-7.4-.132-.37-.132,3.7m76.803,1c.001,4.62.059,6.455.13,4.078s.07-6.157-.001-8.4-.129-.298-.129,4.322" fill="#7c7c7c" fill-rule="evenodd"/><path d="M26.214,69.506c-.112.295-.027.426.191.291.217-.134.416-.009.441.279.098,1.106.174,1.353.715,2.307.306.541.935,1.29,1.398,1.665c1.757,1.422,1.31,16.152-.52,17.131-.387.207-2.039.473-3.671.592-1.633.118-3.868.387-4.968.598-5.547,1.063-15.4.285-15.4-1.215c0-.268-.112-.375-.25-.238-.137.138-.581-.147-.986-.633-.406-.486-.743-.673-.751-.416-.007.256.212.557.487.668s.309.216.075.233c-.691.052-2.216-1.578-1.922-2.054.164-.265.086-.323-.198-.148-.257.159-.364.457-.238.662.127.204.04.372-.193.372s-.424.281-.424.624.178.513.395.379c.227-.14.294.02.158.376-.16.417-.006.621.471.621.39,0,.606.103.479.23-.416.416,3.345,3.723,4.837,4.252.872.309,3.313.518,6.06.518h4.6l3.043-1.697c3.596-2.004,6.209-2.395,8.515-1.274.895.436,1.442.534,1.442.26c0-.243.283-.093.63.335.346.427.523.563.393.303s.096-.71.502-1c2.33-1.663,4.164-14.772,2.501-17.879-.722-1.348-.501-2.707.552-3.397.887-.581,8.045-.651,76.9-.746L187.4,71.4l2.2-.941c1.21-.517,3.01-1.092,4-1.276c1.678-.312,1.651-.32-.4-.116-1.21.12-37.93.339-81.6.486-43.67.146-79.774.381-80.231.521-1.039.317-3.594-.21-3.498-.722.111-.591-1.425-.448-1.657.154M206.4,69.183c.99.184,2.79.759,4,1.276l2.2.941l75.922.105c68.855.095,76.013.165,76.9.746c1.053.69,1.274,2.049.552,3.397-1.663,3.107.171,16.216,2.501,17.879.406.29.632.74.502,1s.047.124.393-.303c.458-.565.632-.62.636-.2.004.377.108.425.3.138c1.165-1.739,5.832-1.387,9.619.724L383,96.6h4.6c2.747,0,5.188-.209,6.06-.518c1.492-.529,5.253-3.836,4.837-4.252-.127-.127.089-.23.479-.23.477,0,.631-.204.471-.621-.136-.356-.069-.516.158-.376.217.134.395-.036.395-.379s-.191-.624-.424-.624-.32-.168-.193-.372c.126-.205.019-.503-.238-.662-.284-.175-.362-.117-.198.148.294.476-1.231,2.106-1.922,2.054-.234-.017-.2-.122.075-.233s.494-.412.487-.668c-.008-.257-.345-.07-.751.416-.405.486-.849.771-.986.633-.138-.137-.25-.03-.25.238c0,1.502-9.872,2.279-15.4,1.212-1.1-.212-3.35-.494-5-.626-1.65-.133-3.302-.398-3.671-.589-1.801-.934-2.222-15.7-.488-17.103.463-.375,1.092-1.124,1.398-1.665.541-.954.617-1.201.715-2.307.025-.288.224-.413.441-.279.218.135.303.004.191-.291-.232-.602-1.768-.745-1.657-.154.096.512-2.459,1.039-3.498.722-.457-.14-36.561-.375-80.231-.521-43.67-.147-80.39-.366-81.6-.486-2.051-.204-2.078-.196-.4.116M19.6,70.766l-1,.286l1.088.216c.598.119,1,.075.893-.099-.107-.173.303-.39.912-.482c1.018-.154,1.026-.169.107-.187-.55-.011-1.45.109-2,.266M6.985,78.479c-1.092,1.143-1.702,1.868-1.355,1.61.415-.31.789-.337,1.1-.079.338.281.358.256.071-.089-.497-.597,1.437-2.758,2.204-2.464.283.109.632.007.775-.225.165-.266.007-.325-.425-.159-.466.178-.593.112-.397-.205.564-.913-.013-.442-1.973,1.611m384.057-1.611c.196.317.069.383-.397.205-.432-.166-.59-.107-.425.159.143.232.492.334.775.225.874-.335,2.701,1.875,2.104,2.545-.417.467-.395.482.131.088.484-.363.76-.359,1.2.018.313.269-.323-.456-1.415-1.61-1.954-2.065-2.543-2.552-1.973-1.63M4.392,82.61c-.278.335-.39.725-.249.866.141.142.275.002.297-.309.022-.312.187-.117.367.433.302.922.323.899.275-.3-.061-1.508-.034-1.481-.69-.69m390.539.71c-.026.935.015,1.02.153.315.146-.747.269-.837.546-.4.201.317.36.367.364.114.003-.248-.226-.644-.51-.88-.403-.334-.525-.147-.553.851M9.1,171.498c2.255.072,5.945.072,8.2,0c2.255-.071.41-.129-4.1-.129s-6.355.058-4.1.129m373.6,0c2.255.072,5.945.072,8.2,0c2.255-.071.41-.129-4.1-.129s-6.355.058-4.1.129M27.389,198.8c0,14.63.05,20.615.111,13.3s.061-19.285,0-26.6-.111-1.33-.111,13.3m345.2,0c0,14.63.05,20.615.111,13.3s.061-19.285,0-26.6-.111-1.33-.111,13.3m-346,1c0,14.74.05,20.712.111,13.271s.061-19.501,0-26.8-.111-1.211-.111,13.529m346.8,0c0,14.74.05,20.712.111,13.271s.061-19.501,0-26.8-.111-1.211-.111,13.529M28.006,223.7c.006.894.776,2.509.788,1.652.004-.291.604-.38,1.706-.253c4.429.507,160.989.81,159.593.308-.693-.249-29.358-.476-78.293-.62-78.487-.231-83-.322-83-1.676c0-.171-.18-.311-.4-.311s-.397.405-.394.9m343.194-.589c0,1.354-4.513,1.445-83,1.676-48.935.144-77.6.371-78.293.62-1.396.502,155.164.199,159.593-.308c1.102-.127,1.702-.038,1.706.253.003.246.181.178.394-.152.509-.788.509-2.4,0-2.4-.22,0-.4.14-.4.311M26.806,295.5c.018.877.782,1.459.788.6.003-.495-.174-.9-.394-.9s-.397.135-.394.3m345.6.6c.005.728.08.785.394.3.501-.776.501-1.2,0-1.2-.22,0-.397.405-.394.9M28.4,295.913c0,.172.495.35,1.1.396.842.064.959-.008.5-.307-.725-.471-1.6-.52-1.6-.089m341.6.089c-.459.299-.342.371.5.307.605-.046,1.1-.224,1.1-.396c0-.431-.875-.382-1.6.089m-254.1.298c46.255.056,121.945.056,168.2,0s8.41-.102-84.1-.102-130.355.046-84.1.102m-50.227,9.508c-9.059,3.935-6.525,16.65,3.328,16.697c9.327.044,11.933-13.082,3.312-16.684-1.845-.77-4.883-.776-6.64-.013m261.927.008c-6.821,3.06-7.138,12.658-.521,15.784c7.784,3.677,15.655-4.064,11.821-11.626-1.998-3.941-7.374-5.919-11.3-4.158m-254.852.833c5.878,2.929,5.905,11.456.047,14.476-4.163,2.146-9.301.526-11.346-3.577-3.651-7.327,3.883-14.594,11.299-10.899m261.565-.428c8.005,3.344,6.284,15.08-2.303,15.701-5.678.411-9.48-3.144-9.136-8.542.365-5.746,6.153-9.367,11.439-7.159" fill="#85a4ac" fill-rule="evenodd"/><path d="M0.2,92c-.136.22.023.4.353.4s.711-.18.847-.4-.023-.4-.353-.4-.711.18-.847.4m398.4,0c.136.22.517.4.847.4s.489-.18.353-.4-.517-.4-.847-.4-.489.18-.353.4m-397,.556c0,4.775,14.075,7.083,18.6,3.05C21.329,94.6,23.413,93.6,24.38,93.6c.451,0,.82-.161.82-.358c0-.651-2.619.218-5.432,1.801L17,96.6h-4.6c-5.457,0-7.002-.452-9.199-2.694C2.32,93.007,1.6,92.4,1.6,92.556m395.272,1.285c-2.097,2.284-3.6,2.74-9.072,2.75L383,96.6l-2.768-1.557c-2.813-1.583-5.432-2.452-5.432-1.801c0,.197.369.358.82.358.967,0,3.051,1,4.18,2.006c3.862,3.442,15.95,2.358,18.004-1.614.909-1.758.59-1.81-.932-.151M64.631,363.794c-.863.308-2.123,1.136-2.8,1.84L60.6,366.916l1.6-1.242c2.671-2.074,3.214-2.105,35.2-1.985l29.6.111l2.36,1.696c1.297.933,2.613,2.058,2.922,2.5.31.442.74.804.957.804c1.012,0-4.429-4.512-6.298-5.222-1.735-.66-60.423-.456-62.31.216m208.308-.196c-1.822.735-7.127,5.202-6.178,5.202.217,0,.647-.362.957-.804.309-.442,1.625-1.567,2.922-2.5L273,363.8l29.6-.111c31.931-.119,32.514-.087,35.2,1.965l1.6,1.222-1.462-1.409c-.804-.775-2.154-1.601-3-1.836-1.887-.523-60.704-.555-61.999-.033M59.1,368.033c-.385.422-.548.767-.362.767s.664-.36,1.062-.8.561-.785.362-.767c-.199.019-.677.379-1.062.8M340.2,368c.398.44.876.8,1.062.8s-.022-.36-.462-.8-.918-.8-1.062-.8.064.36.462.8" fill="#84787c" fill-rule="evenodd"/><path d="M97.123,10.428c-8.357,1.238-13.201,3.497-17.375,8.106-10.832,11.958-7.27,31.143,7.096,38.227C93.56,60.072,83.747,59.8,196.6,59.8h100.4l3.266-.872c25.678-6.857,25.881-41.258.281-47.631L296.2,10.215l-98.4-.062c-54.12-.034-99.425.09-100.677.275M300.35,12.702c23.652,5.431,23.647,38.118-.007,44.584L297,58.2h-100.6-100.6l-3.338-.913c-21.066-5.759-24.094-32.504-4.85-42.851c2.027-1.09,6.225-2.054,11.188-2.57.77-.08,45.59-.119,99.6-.085l98.2.06l3.75.861M193.6,69.18c-.99.186-2.79.762-4,1.279l-2.2.941-75.922.105c-68.855.095-76.013.165-76.9.746-1.053.69-1.274,2.049-.552,3.397c1.663,3.107-.171,16.216-2.501,17.879-.406.29-.632.74-.502,1s-.047.124-.393-.303c-.433-.534-.63-.603-.63-.22c0,.432-.107.449-.48.076-.728-.728-1.296-.574-.669.181.795.958,1.341,69.57.571,71.805-.376,1.092-.394,1.613-.067,1.968.336.365.289.429-.193.261-.503-.175-.596-.006-.442.801.135.702.052.934-.262.74-.298-.185-.458.073-.458.74c0,.563-.163,1.024-.363,1.024-.199,0-.261-.388-.137-.863.14-.533.07-.766-.183-.609-.579.357-.389,2.094.215,1.967.397-.084.477,5.356.384,26.4-.064,14.578-.059,26.01.011,25.405.109-.952.873-1.642.873-.789c0,1.354,4.511,1.445,83,1.674c66.771.195,77.416.306,78.8.817c2.286.846,16.514.846,18.8,0c1.384-.511,12.029-.622,78.8-.817c78.489-.229,83-.32,83-1.674c0-.853.764-.163.873.789.07.605.075-10.827.011-25.405-.093-21.044-.013-26.484.384-26.4.604.127.794-1.61.215-1.967-.253-.157-.323.076-.183.609.124.475.062.863-.137.863-.2,0-.363-.461-.363-1.024c0-.667-.16-.925-.458-.74-.314.194-.397-.038-.262-.74.154-.807.061-.976-.442-.801-.482.168-.529.104-.193-.261.327-.355.313-.874-.053-1.959-.757-2.247-.225-70.872.557-71.814.47-.566.461-.661-.067-.661-.338,0-.706.225-.817.5-.143.354-.211.332-.233-.076-.024-.427-.195-.376-.662.2-.346.427-.523.563-.393.303s-.096-.71-.502-1c-2.33-1.663-4.164-14.772-2.501-17.879.722-1.348.501-2.707-.552-3.397-.887-.581-8.045-.651-76.9-.746L212.6,71.4l-2.8-1.151c-3.039-1.248-12.068-1.844-16.2-1.069m16,2.446l2.2.974l76.083.2c75.491.198,76.087.206,76.7,1c.512.664.577,1.65.381,5.8-.156,3.298-.069,5.817.256,7.4.658,3.204,2.001,132.063,1.402,134.455-.565,2.252,3.36,2.145-78.73,2.145-65.262,0-75.71.08-78.427.6-4.183.8-14.747.8-18.93,0-2.717-.52-13.165-.6-78.427-.6-82.096,0-78.165.107-78.73-2.146-.625-2.488.718-131.107,1.403-134.454.324-1.58.411-4.109.255-7.4-.196-4.15-.131-5.136.381-5.8.613-.794,1.209-.802,76.7-1l76.083-.2l2.016-.861c4.054-1.731,15.577-1.798,19.384-.113M28.7,209.529c-.062,6.749-.112,1.111-.112-12.529s.05-19.162.112-12.271c.061,6.891.061,18.051,0,24.8m342.8,0c-.062,6.749-.112,1.111-.112-12.529s.05-19.162.112-12.271c.061,6.891.061,18.051,0,24.8M26.989,199c0,14.52.05,20.402.111,13.071s.061-19.211,0-26.4-.111-1.191-.111,13.329m346,0c0,14.52.05,20.402.111,13.071s.061-19.211,0-26.4-.111-1.191-.111,13.329" fill="#6e939c" fill-rule="evenodd"/><path d="M35.9,2.248c-1.265,1.23-2.3,2.479-2.3,2.775c0,.295-.225.681-.5.857s-.754.77-1.064,1.32c-.525.931-.517.961.125.43.629-.52.666-.477.421.5-.222.885-.134,1.07.508,1.07.793,0,1.13-1.19.343-1.213-.238-.007-.121-.25.261-.539.381-.29.578-.643.437-.784-.142-.141-.503-.053-.803.196-.433.359-.493.314-.29-.215.168-.437.517-.586,1.009-.43.476.151.755.045.759-.288.005-.392.117-.373.438.073.359.499.391.477.194-.133-.131-.403-.238-.83-.238-.949s-.27.008-.6.282c-1.199.995-.616-.411.71-1.713c2.393-2.351,2.854-2.633,2.505-1.534-.226.711-.175.869.204.635.328-.202.405-.15.219.15-.171.277-.025.462.362.462.356,0,.537.178.403.395-.14.227.02.294.376.158.342-.131.621-.41.621-.619c0-.21-.161-.282-.358-.16s-.461-.048-.588-.376c-.279-.729.577-.792,1.325-.098.438.406.497.38.316-.138-.173-.497-.007-.596.755-.45.922.176.951.127.505-.851-.465-1.021-1.204-1.182-2.298-.499-.457.285-.457.396,0,.705.389.264.268.334-.426.25-1.178-.142-1.552-.978-.553-1.237.488-.126.527-.201.122-.229-.33-.022-1.635.966-2.9,2.197m6.5-1.824c0,.233.211.293.468.134.313-.193.385-.073.217.364-.137.359-.098.746.087.861.185.114.428-.138.538-.562.12-.456-.038-.861-.387-.995-.812-.312-.923-.288-.923.198m314.142-.173c-.251.103-.366.537-.254.964s.355.682.54.568c.185-.115.224-.502.087-.861-.168-.437-.096-.557.217-.364.257.159.468.099.468-.134c0-.443-.286-.489-1.058-.173m1.503.81c-.446.978-.417,1.027.505.851.762-.146.928-.047.755.45-.181.518-.122.544.316.138.748-.694,1.604-.631,1.325.098-.127.328-.391.498-.588.376s-.358-.05-.358.16c0,.209.279.488.621.619.356.136.516.069.376-.158-.134-.217.047-.395.403-.395.387,0,.533-.185.362-.462-.186-.3-.109-.352.219-.15.379.234.43.076.204-.635-.349-1.099.112-.817,2.505,1.534c1.3,1.276,1.923,2.72.757,1.752-.428-.355-.609-.316-.796.172-.139.364-.075.527.154.386.217-.134.395-.041.395.206c0,.269.323.348.8.197.459-.146.8-.072.8.173c0,.235-.135.406-.3.38-.862-.136-.969.11-.276.634.652.494.672.59.125.6-.358.007-.912-.38-1.231-.86-.451-.679-.654-.755-.911-.339-.213.345-.177.441.102.268.47-.29,1.078,1.117.728,1.684-.118.191.427.276,1.212.19c1.031-.114,1.379-.015,1.256.355-.094.281-.469.512-.833.513-.365.001-.665.137-.668.302-.023,1.548.049,1.9.386,1.9.253,0,.252-.364-.003-1.034-.275-.724-.263-.991.04-.89.238.079.404.299.369.489-.068.365.778,1.019,1.333,1.029.18.003.021-.301-.354-.676-.441-.441-.522-.736-.229-.833.605-.202.578-1.394-.046-2.055-.402-.427-.39-.496.066-.358.654.199,2.875,4.338,2.582,4.812-.107.174-.005.316.228.316s.424-.068.424-.151c0-.553-1.442-3.466-2.239-4.522-.529-.701-.961-1.446-.961-1.658c0-.211-.27-.487-.6-.614-.33-.126-.6-.486-.6-.8c0-.774-4.449-5.055-5.2-5.004-.405.028-.366.103.122.229.999.259.625,1.095-.553,1.237-.694.084-.815.014-.426-.25.457-.309.457-.42,0-.705-1.094-.683-1.833-.522-2.298.499M36.198,4.002c-.996,1.101-.587,1.331.979.549.978-.488,1.171-.738.765-.995-.774-.491-.933-.45-1.744.446m325.86-.446c-.406.257-.213.507.765.995c1.566.782,1.975.552.979-.549-.811-.896-.97-.937-1.744-.446M96.4,6.453C82.285,8.09,73.815,15.755,69.885,30.45L68.642,35.1l1.331,4.75c3.173,11.319,6.401,15.656,15.247,20.486c5.699,3.111-3.302,2.89,112.58,2.767l103.6-.11l2.4-.83c5.777-1.997,11.701-6.693,15.324-12.145c2.457-3.699,2.923-5.148,4.083-12.702.473-3.085-.933-12.17-2.246-14.501-4.43-7.87-10.032-12.54-17.561-14.642-1.32-.368-2.581-.813-2.801-.988-1.358-1.079-11.013-1.183-104.683-1.133-53.084.029-97.866.209-99.516.401M34.589,7.34c-.227.253-.352.758-.278,1.123.155.772-.367,1.17-1.734,1.32-.89.097-1.171-.211-1.014-1.113.031-.181-.146-.204-.394-.051-.552.341-1.695,2.989-1.412,3.271.112.113.32-.256.461-.819.217-.863.445-1,1.457-.872c1.94.246,2.999-.368,3.228-1.87.237-1.556.226-1.592-.314-.989m265.958,3.957c25.6,6.373,25.397,40.774-.281,47.631L297,59.8h-100.4c-112.853,0-103.04.272-109.756-3.039-14.366-7.084-17.928-26.269-7.096-38.227c4.174-4.609,9.018-6.868,17.375-8.106c1.252-.185,46.557-.309,100.677-.275l98.4.062l4.347,1.082m-268.808.216c-.127.483-.353.802-.504.709-.64-.396-1.466.558-.835.965.388.25.648.249.734-.002.074-.215.294-.292.488-.171.42.259.994-1.731.61-2.115-.145-.145-.367.131-.493.614m-1.861,2.366c-.108.176.232.642.755,1.033.936.702.945.7.621-.179-.352-.95-1.053-1.385-1.376-.854m-1.478.945c0,.453.18.712.4.576s.4-.507.4-.824-.18-.576-.4-.576-.4.371-.4.824m341.692.051c.059.289-.1.486-.354.438s-.56.167-.68.479c-.143.375-.021.492.362.345.818-.314.723.531-.12,1.073-.607.391-.611.423-.031.245.475-.147.792.144,1.09.999.231.663.605,1.092.831.952.225-.139.411-.018.413.27s.452.732,1,.986c1.134.526,1.447-.676.484-1.862-.564-.695-2.108-1.082-1.704-.427.146.235.093.427-.117.427-.444,0-.983-1.216-.675-1.524.115-.115.209-.016.209.22s.332.342.739.236c1.003-.262.685-1.716-.58-2.657-.661-.491-.941-.555-.867-.2M29.034,16.1c-.431.985-.58,1.106-.617.5-.036-.591-.202-.445-.639.561-.325.748-.514,1.436-.421,1.53.094.093.281-.179.416-.605.17-.537.548-.741,1.234-.665.544.059,1.108-.084,1.253-.318.167-.27.071-.308-.261-.103-.407.252-.468.043-.271-.938.325-1.627.027-1.61-.694.038m.388,2.988c-.146.378-.136.56.02.403.156-.156.512-.095.79.135.386.321.455.227.29-.403-.262-1.003-.745-1.062-1.1-.135m-2.722.341c-.165.167-.3.76-.3,1.318c0,.728.122.891.434.579.238-.238.373-.832.3-1.318-.074-.486-.269-.747-.434-.579m1.061.635c-.121.196-.072.306.109.246.182-.061.375.07.43.29s-.104.4-.354.4c-.643,0-1.142,1.561-.715,2.236.259.41.372.428.413.064.123-1.096.167-1.244.456-1.533.165-.165.3-.08.3.19s.18.379.4.243.4-.072.4.143-.225.481-.5.592c-.316.127-.258.213.157.233.362.018.765-.249.897-.593.135-.35.445-.499.705-.339.293.181.357.113.173-.185-.161-.26-.594-.422-.962-.362-.378.063-.67-.15-.67-.489c0-.33.313-.575.696-.545.382.03.61-.084.506-.252-.294-.475-2.194-.739-2.441-.339M371.966,21.1c-.336,2.925-.012,3.996.721,2.387.236-.516.265-1.264.072-1.787-.328-.886-.726-1.187-.793-.6m1.534,1.51c-.106.555-.037,1.105.154,1.223.19.118.346-.336.346-1.009c0-1.485-.237-1.587-.5-.214M26,23.024c0,.563.163.922.362.799.2-.123.269-.584.154-1.023-.288-1.101-.516-1.002-.516.224m.8,23.352c0,23.672-.031,22.649.684,22.571.267-.029.447.136.4.366-.109.542,2.406,1.09,3.485.761c3.009-.92,334.253-.92,337.262,0c1.079.329,3.594-.219,3.485-.761-.047-.23.181-.395.506-.366.569.051.945-43.914.38-44.478-.363-.363-.919,1.731-.56,2.111.201.214.358,9.295.358,20.729c0,21.15.003,21.117-1.514,18.491-.403-.699-.463-.712-.474-.1-.007.385-.203.7-.436.7s-.312.18-.176.4c.391.633-.448.465-1-.2-.274-.33-.701-.597-.949-.594s-.181.198.149.431c.448.318.295.348-.6.119-.66-.168-35.85-.359-78.2-.424-49.829-.076-77.858-.261-79.433-.525-3.149-.527-17.185-.527-20.334,0-1.575.264-29.604.449-79.433.525-42.35.065-77.54.256-78.2.424-.895.229-1.048.199-.6-.119.33-.233.397-.428.149-.431s-.675.264-.949.594c-.552.665-1.391.833-1,.2.136-.22.057-.4-.176-.4s-.429-.315-.436-.7c-.011-.612-.071-.599-.474.1-1.517,2.627-1.514,2.661-1.514-18.548c0-11.762.154-20.5.362-20.629.414-.255.12-1.725-.41-2.053-.201-.124-.352,9.241-.352,21.806M25.6,48.28c-.11,11.704-.063,21.144.104,20.977.167-.168.257-9.744.199-21.281L25.8,27l-.2,21.28m348.491-.204c-.05,11.592.044,21.16.209,21.262.273.169.268-15.162-.01-34.738-.06-4.18-.149,1.884-.199,13.476M25.771,206.8c-.006,18.59.088,30.92.209,27.4s.126-18.73.011-33.8l-.21-27.4-.01,33.8m348.142-6.3c-.062,15.015-.014,30.18.107,33.7s.256-8.765.3-27.3-.004-33.7-.107-33.7-.238,12.285-.3,27.3M27.3,225.065c-.383.155-.479,2.362-.412,9.468l.088,9.267.224-8.8c.123-4.84.278-8.08.343-7.2.066.88.211,1.375.322,1.1s.467-.5.792-.5.479.18.343.399c-.135.22.034.8.377,1.289l.623.89v-.862-.863l77.543-.039c60.986-.031,78.174.069,80.5.469c1.791.307,6.504.507,11.957.507s10.166-.2,11.957-.507c2.326-.4,19.514-.5,80.5-.469l77.543.039v.863.862l.623-.89c.343-.489.512-1.069.377-1.289-.136-.219.018-.399.343-.399s.681.225.792.5.256-.22.322-1.1c.065-.88.22,2.36.343,7.2l.224,8.8.088-9.257c.079-8.329.021-9.283-.58-9.514-.368-.141-.814-.026-.994.257-.203.32-.328.345-.332.066-.004-.29-.606-.381-1.706-.258-1.912.214-31.636.408-109.9.715-74.505.292-223.974-.169-229-.707-.899-.096-1.729.02-1.894.264-.2.296-.296.275-.3-.066-.006-.521-.263-.575-1.106-.235m.453,9.135c0,2.64.065,3.668.144,2.284.078-1.383.077-3.543-.002-4.8-.079-1.256-.143-.124-.142,2.516m344.4,0c0,2.64.065,3.668.144,2.284.078-1.383.077-3.543-.002-4.8-.079-1.256-.143-.124-.142,2.516m-343.603,0c.001,2.42.066,3.358.146,2.085s.079-3.253-.002-4.4c-.08-1.147-.145-.105-.144,2.315m342.8,0c.001,2.42.066,3.358.146,2.085s.079-3.253-.002-4.4c-.08-1.147-.145-.105-.144,2.315" fill="#70b0c0" fill-rule="evenodd"/></g></svg>
