<svg id="svg" version="1.1" xmlns="http://www.w3.org/2000/svg" xmlns:xlink="http://www.w3.org/1999/xlink" width="400" height="400" viewBox="0, 0, 400,400"><g id="svgg"><path id="path0" d="M38.902 0.264 C 38.078 0.597,34.000 4.729,34.000 5.232 C 34.000 5.583,34.136 5.585,34.553 5.239 C 34.982 4.883,35.162 4.925,35.353 5.423 C 35.721 6.380,35.641 6.682,35.200 6.000 C 34.915 5.559,34.811 5.540,34.806 5.927 C 34.802 6.271,34.523 6.366,34.000 6.200 C 33.541 6.054,33.200 6.128,33.200 6.373 C 33.200 6.608,33.335 6.779,33.500 6.753 C 34.362 6.617,34.469 6.863,33.776 7.387 C 33.349 7.710,33.195 7.980,33.433 7.987 C 34.222 8.010,33.882 9.200,33.087 9.200 C 32.504 9.200,32.360 8.998,32.516 8.400 C 32.777 7.403,32.163 7.348,31.642 8.322 C 31.150 9.241,31.564 9.839,32.646 9.769 C 33.885 9.689,34.493 9.200,34.295 8.443 C 34.199 8.076,34.360 7.553,34.652 7.280 C 35.089 6.872,35.140 7.016,34.939 8.092 C 34.601 9.898,34.248 10.171,32.250 10.171 C 30.717 10.171,30.461 10.303,30.093 11.278 C 29.708 12.299,29.748 12.379,30.613 12.307 C 31.173 12.261,31.635 11.908,31.760 11.432 C 31.874 10.994,32.087 10.754,32.232 10.899 C 32.635 11.302,32.031 13.266,31.588 12.993 C 31.375 12.861,31.200 12.950,31.200 13.190 C 31.200 13.497,30.971 13.506,30.440 13.221 C 29.866 12.914,29.625 12.958,29.455 13.400 C 29.297 13.811,29.477 13.958,30.059 13.893 C 30.617 13.830,31.008 14.118,31.259 14.776 C 31.614 15.709,31.598 15.722,30.884 15.076 C 30.041 14.313,29.200 14.187,29.200 14.824 C 29.200 15.057,29.377 15.138,29.594 15.004 C 29.840 14.852,29.892 15.241,29.732 16.042 C 29.525 17.075,29.585 17.261,30.038 16.998 C 30.347 16.819,30.460 16.825,30.290 17.013 C 30.119 17.200,29.583 17.414,29.098 17.488 C 28.614 17.562,28.033 17.822,27.809 18.066 C 27.516 18.383,27.655 18.447,28.300 18.292 C 28.795 18.173,29.200 18.238,29.200 18.437 C 29.200 18.802,28.630 18.951,27.700 18.830 C 27.425 18.794,27.200 19.015,27.200 19.322 C 27.200 19.671,27.667 19.892,28.455 19.914 C 29.145 19.934,29.884 20.124,30.097 20.337 C 30.348 20.588,30.222 20.703,29.743 20.663 C 29.321 20.627,29.000 20.860,29.000 21.200 C 29.000 21.539,29.292 21.752,29.670 21.689 C 30.038 21.629,30.471 21.791,30.632 22.051 C 30.816 22.349,30.752 22.417,30.459 22.236 C 30.199 22.076,29.889 22.225,29.754 22.575 C 29.622 22.919,29.219 23.186,28.857 23.168 C 28.442 23.148,28.384 23.062,28.700 22.935 C 28.975 22.824,29.200 22.558,29.200 22.343 C 29.200 22.128,29.020 22.064,28.800 22.200 C 28.580 22.336,28.400 22.227,28.400 21.957 C 28.400 21.422,27.831 21.839,27.750 22.433 C 27.723 22.635,27.672 23.025,27.638 23.300 C 27.600 23.607,27.420 23.532,27.171 23.105 C 26.718 22.328,27.383 20.619,27.992 20.995 C 28.186 21.115,28.450 21.043,28.579 20.834 C 28.708 20.626,28.641 20.349,28.430 20.219 C 27.783 19.819,26.332 21.712,26.520 22.710 C 26.615 23.210,26.537 23.715,26.346 23.833 C 25.847 24.142,25.897 68.400,26.397 68.400 C 26.653 68.400,26.830 60.571,26.897 46.300 C 26.976 29.312,27.106 24.431,27.458 25.200 C 27.729 25.792,27.770 26.355,27.558 26.580 C 27.357 26.794,27.200 35.875,27.200 47.309 C 27.200 68.459,27.197 68.426,28.714 65.800 C 29.117 65.101,29.177 65.088,29.188 65.700 C 29.195 66.085,29.391 66.400,29.624 66.400 C 29.857 66.400,29.936 66.580,29.800 66.800 C 29.409 67.433,30.248 67.265,30.800 66.600 C 31.074 66.270,31.501 66.003,31.749 66.006 C 31.997 66.009,31.930 66.204,31.600 66.437 C 31.152 66.755,31.305 66.785,32.200 66.556 C 32.860 66.388,68.050 66.197,110.400 66.132 C 160.229 66.056,188.258 65.871,189.833 65.607 C 192.982 65.080,207.018 65.080,210.167 65.607 C 211.742 65.871,239.771 66.056,289.600 66.132 C 331.950 66.197,367.140 66.388,367.800 66.556 C 368.695 66.785,368.848 66.755,368.400 66.437 C 368.070 66.204,368.003 66.009,368.251 66.006 C 368.499 66.003,368.926 66.270,369.200 66.600 C 369.752 67.265,370.591 67.433,370.200 66.800 C 370.064 66.580,370.143 66.400,370.376 66.400 C 370.609 66.400,370.805 66.085,370.812 65.700 C 370.823 65.088,370.883 65.101,371.286 65.800 C 372.803 68.426,372.800 68.459,372.800 47.309 C 372.800 35.875,372.643 26.794,372.442 26.580 C 372.230 26.355,372.271 25.792,372.542 25.200 C 372.894 24.431,373.024 29.312,373.103 46.300 C 373.170 60.571,373.347 68.400,373.603 68.400 C 374.073 68.400,374.169 24.303,373.700 23.832 C 373.535 23.666,373.400 22.961,373.400 22.265 C 373.400 21.337,373.160 20.895,372.500 20.605 C 372.005 20.388,371.600 19.972,371.600 19.682 C 371.600 19.391,371.415 19.267,371.190 19.406 C 370.964 19.546,370.590 19.117,370.359 18.454 C 370.061 17.599,369.744 17.308,369.269 17.455 C 368.689 17.633,368.693 17.601,369.300 17.210 C 370.143 16.668,370.238 15.823,369.420 16.137 C 369.037 16.284,368.915 16.167,369.058 15.792 C 369.178 15.480,369.484 15.265,369.738 15.313 C 369.992 15.361,370.145 15.145,370.077 14.832 C 369.976 14.365,370.064 14.355,370.573 14.778 C 370.913 15.060,371.093 15.449,370.974 15.642 C 370.854 15.835,370.948 16.310,371.181 16.697 C 371.548 17.303,371.590 17.262,371.489 16.400 C 371.338 15.121,370.807 14.254,369.800 13.645 C 369.035 13.183,369.040 13.173,369.900 13.408 C 370.425 13.551,370.800 13.476,370.800 13.227 C 370.800 12.992,370.609 12.800,370.376 12.800 C 370.143 12.800,370.063 12.622,370.198 12.403 C 370.333 12.185,370.028 11.591,369.520 11.084 C 369.012 10.576,368.656 9.854,368.728 9.480 C 368.800 9.106,368.665 8.800,368.429 8.800 C 368.193 8.800,368.000 9.055,368.000 9.367 C 368.000 9.678,367.796 10.001,367.546 10.085 C 367.253 10.182,367.334 10.477,367.775 10.918 C 368.150 11.293,368.309 11.597,368.129 11.594 C 367.574 11.584,366.728 10.930,366.796 10.565 C 366.831 10.375,366.665 10.155,366.427 10.076 C 366.124 9.975,366.112 10.242,366.387 10.966 C 366.642 11.636,366.643 12.000,366.390 12.000 C 366.053 12.000,365.981 11.648,366.004 10.100 C 366.007 9.935,366.307 9.799,366.672 9.798 C 367.036 9.797,367.411 9.566,367.505 9.285 C 367.628 8.915,367.280 8.816,366.249 8.930 C 365.464 9.016,364.919 8.931,365.037 8.740 C 365.387 8.173,364.779 6.766,364.309 7.056 C 364.030 7.229,363.994 7.133,364.207 6.788 C 364.464 6.372,364.667 6.448,365.118 7.127 C 365.437 7.607,365.991 7.994,366.349 7.987 C 366.896 7.977,366.876 7.881,366.224 7.387 C 365.531 6.863,365.638 6.617,366.500 6.753 C 366.665 6.779,366.800 6.608,366.800 6.373 C 366.800 6.128,366.459 6.054,366.000 6.200 C 365.523 6.351,365.200 6.272,365.200 6.003 C 365.200 5.756,365.022 5.663,364.805 5.797 C 364.576 5.938,364.512 5.775,364.651 5.411 C 364.838 4.923,365.019 4.884,365.447 5.239 C 367.026 6.549,365.746 4.517,363.788 2.606 C 361.713 0.579,359.037 -1.043,360.320 0.503 C 360.738 1.007,360.738 1.167,360.317 1.363 C 360.033 1.495,360.295 1.538,360.900 1.457 C 361.505 1.377,362.000 1.361,362.000 1.423 C 362.000 1.484,362.121 1.849,362.268 2.233 C 362.465 2.747,362.396 2.845,362.006 2.604 C 361.654 2.386,361.572 2.431,361.762 2.738 C 361.933 3.015,361.787 3.200,361.400 3.200 C 361.044 3.200,360.863 3.378,360.997 3.595 C 361.137 3.822,360.977 3.889,360.621 3.753 C 360.279 3.622,360.000 3.343,360.000 3.134 C 360.000 2.924,360.161 2.852,360.358 2.974 C 360.555 3.096,360.819 2.926,360.946 2.598 C 361.225 1.869,360.369 1.806,359.621 2.500 C 359.183 2.906,359.124 2.880,359.305 2.362 C 359.479 1.861,359.312 1.766,358.520 1.917 C 357.588 2.096,357.548 2.044,357.989 1.221 C 358.501 0.263,358.173 -0.527,357.628 0.354 C 357.398 0.726,357.218 0.753,357.026 0.443 C 356.635 -0.190,43.365 -0.190,42.974 0.443 C 42.782 0.753,42.602 0.726,42.372 0.354 C 41.827 -0.527,41.499 0.263,42.011 1.221 C 42.452 2.044,42.412 2.096,41.480 1.917 C 40.688 1.766,40.521 1.861,40.695 2.362 C 40.876 2.880,40.817 2.906,40.379 2.500 C 39.631 1.806,38.775 1.869,39.054 2.598 C 39.181 2.926,39.445 3.096,39.642 2.974 C 39.839 2.852,40.000 2.924,40.000 3.134 C 40.000 3.343,39.721 3.622,39.379 3.753 C 39.023 3.889,38.863 3.822,39.003 3.595 C 39.137 3.378,38.956 3.200,38.600 3.200 C 38.213 3.200,38.067 3.015,38.238 2.738 C 38.428 2.431,38.346 2.386,37.994 2.604 C 37.604 2.845,37.535 2.747,37.732 2.233 C 37.879 1.849,38.000 1.484,38.000 1.423 C 38.000 1.361,38.495 1.377,39.100 1.457 C 39.705 1.538,39.967 1.495,39.683 1.363 C 39.287 1.178,39.275 0.992,39.632 0.561 C 40.099 -0.002,39.831 -0.111,38.902 0.264 M43.717 1.196 C 43.603 1.633,43.357 1.897,43.172 1.783 C 42.778 1.539,43.135 0.400,43.605 0.400 C 43.781 0.400,43.831 0.758,43.717 1.196 M356.940 0.987 C 357.064 1.310,357.013 1.668,356.828 1.783 C 356.643 1.897,356.397 1.633,356.283 1.196 C 356.044 0.281,356.601 0.104,356.940 0.987 M37.942 3.556 C 38.348 3.813,38.155 4.063,37.177 4.551 C 35.611 5.333,35.202 5.103,36.198 4.002 C 37.009 3.106,37.168 3.065,37.942 3.556 M363.802 4.002 C 364.798 5.103,364.389 5.333,362.823 4.551 C 361.845 4.063,361.652 3.813,362.058 3.556 C 362.832 3.065,362.991 3.106,363.802 4.002 M296.315 6.433 C 298.450 6.671,300.378 7.009,300.599 7.185 C 300.819 7.360,302.080 7.805,303.400 8.173 C 310.929 10.275,316.531 14.945,320.961 22.815 C 322.274 25.146,323.680 34.231,323.207 37.316 C 322.047 44.870,321.581 46.319,319.124 50.018 C 315.501 55.470,309.577 60.166,303.800 62.163 L 301.400 62.993 197.800 63.103 C 81.918 63.226,90.919 63.447,85.220 60.336 C 76.374 55.506,73.146 51.169,69.973 39.850 L 68.642 35.100 69.885 30.450 C 73.815 15.755,82.285 8.090,96.400 6.453 C 100.984 5.921,291.553 5.902,296.315 6.433 M28.406 16.500 C 28.411 17.228,28.486 17.285,28.800 16.800 C 29.301 16.024,29.301 15.600,28.800 15.600 C 28.580 15.600,28.403 16.005,28.406 16.500 M370.666 17.933 C 370.740 18.226,370.800 18.541,370.800 18.633 C 370.800 18.725,370.991 18.800,371.224 18.800 C 371.457 18.800,371.544 18.634,371.419 18.430 C 371.293 18.227,371.417 17.983,371.695 17.888 C 371.973 17.793,371.894 17.760,371.519 17.815 C 371.145 17.870,370.769 17.799,370.685 17.658 C 370.600 17.516,370.592 17.640,370.666 17.933 M30.522 19.223 C 30.687 19.853,30.618 19.947,30.232 19.626 C 29.954 19.396,29.598 19.335,29.442 19.491 C 29.286 19.648,29.276 19.466,29.422 19.088 C 29.777 18.161,30.260 18.220,30.522 19.223 M372.788 21.577 C 373.081 22.125,373.068 22.652,372.743 23.365 C 371.957 25.090,371.621 24.111,371.966 21.100 C 372.025 20.580,372.357 20.772,372.788 21.577 M18.100 70.069 C 16.945 70.284,16.000 70.627,16.000 70.831 C 16.000 71.034,15.750 71.200,15.445 71.200 C 15.140 71.200,13.974 71.830,12.855 72.600 C 11.735 73.370,10.648 74.000,10.438 74.000 C 9.796 74.000,3.600 80.399,3.600 81.063 C 3.600 81.461,3.824 81.600,4.221 81.447 C 4.599 81.302,4.739 81.375,4.580 81.632 C 4.437 81.864,4.096 81.969,3.823 81.864 C 2.444 81.335,0.351 85.957,1.700 86.555 C 1.975 86.677,1.859 86.737,1.441 86.688 C 1.024 86.640,0.604 86.825,0.508 87.100 C 0.390 87.439,0.569 87.512,1.067 87.325 C 1.661 87.102,1.715 87.159,1.351 87.625 C 0.518 88.692,1.639 90.820,3.000 90.756 C 3.220 90.745,3.175 90.646,2.900 90.535 C 2.625 90.424,2.406 90.123,2.413 89.867 C 2.421 89.610,2.758 89.797,3.164 90.283 C 3.569 90.769,4.013 91.054,4.150 90.916 C 4.288 90.779,4.400 90.886,4.400 91.154 C 4.400 92.654,14.253 93.432,19.800 92.369 C 20.900 92.158,23.135 91.889,24.768 91.771 C 26.400 91.652,28.052 91.386,28.439 91.179 C 30.269 90.200,30.716 75.470,28.959 74.048 C 28.496 73.673,27.867 72.924,27.561 72.383 C 27.032 71.451,26.956 71.211,26.846 70.154 C 26.787 69.586,20.990 69.529,18.100 70.069 M373.154 70.161 C 373.043 71.214,372.967 71.452,372.439 72.383 C 372.133 72.924,371.504 73.673,371.041 74.048 C 369.307 75.451,369.728 90.217,371.529 91.151 C 371.898 91.342,373.550 91.607,375.200 91.740 C 376.850 91.872,379.100 92.154,380.200 92.366 C 385.728 93.433,395.600 92.656,395.600 91.154 C 395.600 90.886,395.712 90.779,395.850 90.916 C 395.987 91.054,396.431 90.769,396.836 90.283 C 397.242 89.797,397.579 89.610,397.587 89.867 C 397.594 90.123,397.375 90.424,397.100 90.535 C 396.825 90.646,396.780 90.745,397.000 90.756 C 398.361 90.820,399.482 88.692,398.649 87.625 C 398.285 87.159,398.339 87.102,398.933 87.325 C 399.431 87.512,399.610 87.439,399.492 87.100 C 399.396 86.825,398.976 86.640,398.559 86.688 C 398.141 86.737,398.025 86.677,398.300 86.555 C 399.649 85.957,397.556 81.335,396.177 81.864 C 395.904 81.969,395.563 81.864,395.420 81.632 C 395.261 81.375,395.401 81.302,395.779 81.447 C 396.176 81.600,396.400 81.461,396.400 81.063 C 396.400 80.399,390.204 74.000,389.562 74.000 C 389.352 74.000,388.265 73.370,387.145 72.600 C 386.026 71.830,384.860 71.200,384.555 71.200 C 384.250 71.200,384.000 71.038,384.000 70.841 C 384.000 69.833,373.259 69.159,373.154 70.161 M22.400 70.400 C 22.400 70.620,21.939 70.800,21.376 70.800 C 20.813 70.800,20.436 70.935,20.538 71.100 C 20.640 71.265,20.021 71.400,19.162 71.400 C 18.292 71.400,17.664 71.223,17.744 71.000 C 17.822 70.780,18.452 70.646,19.144 70.702 C 19.835 70.757,20.400 70.622,20.400 70.402 C 20.400 70.181,20.850 70.000,21.400 70.000 C 21.950 70.000,22.400 70.180,22.400 70.400 M378.800 70.400 C 378.800 70.620,378.530 70.800,378.200 70.800 C 377.870 70.800,377.600 70.620,377.600 70.400 C 377.600 70.180,377.870 70.000,378.200 70.000 C 378.530 70.000,378.800 70.180,378.800 70.400 M382.267 71.000 C 382.341 71.222,381.689 71.400,380.800 71.400 C 378.958 71.400,378.857 71.314,380.100 70.808 C 381.176 70.369,382.084 70.450,382.267 71.000 M11.200 75.000 C 10.917 75.341,10.596 75.529,10.486 75.419 C 10.376 75.309,10.517 74.941,10.800 74.600 C 11.083 74.259,11.404 74.071,11.514 74.181 C 11.624 74.291,11.483 74.659,11.200 75.000 M389.600 75.298 C 389.600 75.521,389.335 75.478,389.000 75.200 C 388.670 74.926,388.400 74.522,388.400 74.302 C 388.400 74.079,388.665 74.122,389.000 74.400 C 389.330 74.674,389.600 75.078,389.600 75.298 M9.168 76.461 C 8.772 77.200,8.801 77.285,9.374 77.065 C 9.790 76.906,9.943 76.968,9.780 77.232 C 9.637 77.464,9.288 77.566,9.005 77.457 C 8.131 77.122,6.304 79.332,6.901 80.002 C 7.318 80.469,7.296 80.484,6.770 80.090 C 6.285 79.727,6.024 79.732,5.632 80.110 C 5.225 80.501,5.151 80.439,5.267 79.800 C 5.346 79.360,5.678 78.992,6.005 78.982 C 6.332 78.972,6.560 78.761,6.511 78.514 C 6.430 78.109,8.942 75.600,9.428 75.600 C 9.538 75.600,9.421 75.987,9.168 76.461 M392.800 77.395 C 393.350 77.983,393.755 78.585,393.700 78.732 C 393.645 78.880,393.823 79.000,394.095 79.000 C 394.367 79.000,394.654 79.360,394.733 79.800 C 394.849 80.439,394.775 80.501,394.368 80.110 C 393.976 79.732,393.715 79.727,393.230 80.090 C 392.704 80.484,392.682 80.469,393.099 80.002 C 393.696 79.332,391.869 77.122,390.995 77.457 C 390.712 77.566,390.363 77.464,390.220 77.232 C 390.057 76.968,390.210 76.906,390.626 77.065 C 391.205 77.287,391.230 77.203,390.816 76.430 C 390.189 75.258,391.312 75.805,392.800 77.395 M5.082 83.300 C 5.130 84.499,5.109 84.522,4.807 83.600 C 4.627 83.050,4.462 82.855,4.440 83.167 C 4.418 83.478,4.284 83.618,4.143 83.476 C 3.944 83.277,4.654 82.000,4.964 82.000 C 5.000 82.000,5.053 82.585,5.082 83.300 M395.994 83.349 C 395.990 83.602,395.831 83.552,395.630 83.235 C 395.353 82.798,395.230 82.888,395.084 83.635 C 394.946 84.340,394.905 84.255,394.931 83.320 C 394.959 82.322,395.081 82.135,395.484 82.469 C 395.768 82.705,395.997 83.101,395.994 83.349 M8.323 172.699 C 11.031 172.768,15.351 172.768,17.923 172.699 C 20.495 172.629,18.280 172.572,13.000 172.573 C 7.720 172.573,5.615 172.630,8.323 172.699 M382.323 172.699 C 385.031 172.768,389.351 172.768,391.923 172.699 C 394.495 172.629,392.280 172.572,387.000 172.573 C 381.720 172.573,379.615 172.630,382.323 172.699 M26.293 227.600 C 25.857 229.589,25.427 287.311,25.808 292.605 L 26.125 297.000 26.623 295.200 C 26.897 294.210,27.139 293.783,27.161 294.251 C 27.182 294.719,27.442 295.303,27.739 295.549 C 28.510 296.189,371.490 296.189,372.261 295.549 C 372.558 295.303,372.818 294.719,372.839 294.251 C 372.861 293.783,373.103 294.210,373.377 295.200 L 373.875 297.000 374.192 292.605 C 374.614 286.748,374.145 229.393,373.660 227.600 C 373.383 226.574,373.247 228.550,373.153 235.000 L 373.024 243.800 372.800 235.000 C 372.677 230.160,372.522 226.920,372.457 227.800 C 372.391 228.680,372.246 229.175,372.135 228.900 C 372.024 228.625,371.668 228.400,371.343 228.400 C 371.018 228.400,370.864 228.580,371.000 228.799 C 371.135 229.019,370.966 229.599,370.623 230.088 L 370.000 230.978 370.000 230.116 L 370.000 229.253 292.457 229.214 C 231.471 229.183,214.283 229.283,211.957 229.683 C 210.166 229.990,205.453 230.190,200.000 230.190 C 194.547 230.190,189.834 229.990,188.043 229.683 C 185.717 229.283,168.529 229.183,107.543 229.214 L 30.000 229.253 30.000 230.116 L 30.000 230.978 29.377 230.088 C 29.034 229.599,28.865 229.019,29.000 228.799 C 29.136 228.580,28.967 228.400,28.624 228.400 C 28.281 228.400,27.974 228.625,27.943 228.900 C 27.912 229.175,27.758 228.680,27.600 227.800 C 27.430 226.849,27.255 229.772,27.169 235.000 L 27.024 243.800 26.812 235.000 C 26.679 229.467,26.486 226.720,26.293 227.600 M27.897 236.484 C 27.818 237.868,27.753 236.840,27.753 234.200 C 27.752 231.560,27.816 230.428,27.895 231.684 C 27.974 232.941,27.975 235.101,27.897 236.484 M372.297 236.484 C 372.218 237.868,372.153 236.840,372.153 234.200 C 372.152 231.560,372.216 230.428,372.295 231.684 C 372.374 232.941,372.375 235.101,372.297 236.484 M28.696 236.285 C 28.616 237.558,28.551 236.620,28.550 234.200 C 28.549 231.780,28.614 230.738,28.694 231.885 C 28.775 233.032,28.776 235.012,28.696 236.285 M371.496 236.285 C 371.416 237.558,371.351 236.620,371.350 234.200 C 371.349 231.780,371.414 230.738,371.494 231.885 C 371.575 233.032,371.576 235.012,371.496 236.285 M90.809 256.425 C 106.059 258.337,107.438 277.849,92.545 281.004 C 89.244 281.704,69.711 281.833,65.600 281.182 C 50.156 278.738,50.770 258.233,66.341 256.416 C 70.411 255.940,86.996 255.947,90.809 256.425 M335.166 257.030 C 345.514 260.535,346.495 275.664,336.657 280.016 C 332.878 281.688,311.798 282.348,305.410 280.995 C 290.718 277.883,291.814 258.279,306.786 256.387 C 311.949 255.734,332.731 256.206,335.166 257.030 M65.400 306.358 C 57.425 310.051,59.594 321.468,68.356 321.915 C 77.368 322.376,80.746 310.635,72.748 306.649 C 70.230 305.394,67.699 305.294,65.400 306.358 M327.326 306.574 C 320.836 309.595,321.425 319.364,328.232 321.611 C 332.315 322.958,336.734 321.194,338.587 317.476 C 342.178 310.269,334.778 303.104,327.326 306.574 " stroke="none" fill="#bbe5f0" fill-rule="evenodd"></path><path id="path1" d="M66.341 256.416 C 50.770 258.233,50.156 278.738,65.600 281.182 C 74.293 282.558,93.491 281.477,97.012 279.414 C 105.245 274.589,104.516 261.455,95.798 257.564 C 92.586 256.131,74.743 255.435,66.341 256.416 M306.786 256.387 C 291.814 258.279,290.718 277.883,305.410 280.995 C 311.798 282.348,332.878 281.688,336.657 280.016 C 346.495 275.664,345.514 260.535,335.166 257.030 C 332.731 256.206,311.949 255.734,306.786 256.387 M26.475 295.700 C 25.958 298.098,25.701 339.556,26.187 342.200 C 26.348 343.080,26.811 344.520,27.214 345.400 C 27.618 346.280,28.072 347.686,28.223 348.524 C 28.409 349.557,28.669 349.982,29.029 349.844 C 29.362 349.716,29.479 349.850,29.343 350.205 C 28.860 351.463,31.299 356.567,32.032 355.835 C 32.125 355.743,32.223 356.060,32.252 356.540 C 32.315 357.597,34.615 360.162,35.184 359.810 C 35.426 359.661,35.492 359.817,35.347 360.194 C 35.076 360.901,36.231 362.400,37.048 362.400 C 37.336 362.400,37.765 362.760,38.000 363.200 C 38.235 363.640,38.623 364.000,38.860 364.000 C 39.098 364.000,40.151 364.630,41.200 365.400 C 42.249 366.170,43.387 366.800,43.730 366.800 C 44.073 366.800,44.457 366.968,44.583 367.173 C 44.710 367.378,45.846 367.746,47.107 367.990 C 48.368 368.235,50.210 368.822,51.200 369.297 C 52.340 369.843,53.807 370.167,55.200 370.180 C 56.410 370.191,57.532 370.380,57.694 370.600 C 57.856 370.820,57.991 370.599,57.994 370.110 C 58.000 369.171,61.950 365.102,63.925 364.000 C 65.015 363.392,123.087 362.818,126.217 363.385 C 127.453 363.608,132.800 367.354,132.800 367.996 C 132.800 368.188,133.173 368.464,133.629 368.609 C 134.127 368.767,134.372 369.097,134.241 369.436 C 134.056 369.920,143.399 370.000,200.000 370.000 C 256.601 370.000,265.944 369.920,265.759 369.436 C 265.628 369.097,265.873 368.767,266.371 368.609 C 266.827 368.464,267.200 368.188,267.200 367.996 C 267.200 367.354,272.547 363.608,273.783 363.385 C 276.913 362.818,334.985 363.392,336.075 364.000 C 338.050 365.102,342.000 369.171,342.006 370.110 C 342.009 370.599,342.144 370.820,342.306 370.600 C 342.468 370.380,343.590 370.191,344.800 370.180 C 346.193 370.167,347.660 369.843,348.800 369.297 C 349.790 368.822,351.632 368.235,352.893 367.990 C 354.154 367.746,355.290 367.378,355.417 367.173 C 355.543 366.968,355.927 366.800,356.270 366.800 C 356.613 366.800,357.751 366.170,358.800 365.400 C 359.849 364.630,360.902 364.000,361.140 364.000 C 361.377 364.000,361.765 363.640,362.000 363.200 C 362.235 362.760,362.664 362.400,362.952 362.400 C 363.769 362.400,364.924 360.901,364.653 360.194 C 364.508 359.817,364.574 359.661,364.816 359.810 C 365.270 360.090,367.165 358.216,367.907 356.752 C 368.172 356.228,368.776 355.318,369.250 354.730 C 369.724 354.141,370.132 353.124,370.156 352.469 C 370.180 351.814,370.361 351.378,370.558 351.499 C 370.755 351.620,370.828 351.259,370.720 350.696 C 370.596 350.043,370.686 349.735,370.971 349.844 C 371.231 349.944,371.727 348.963,372.155 347.508 C 372.560 346.129,373.028 344.820,373.194 344.600 C 374.307 343.125,374.469 299.105,373.375 295.360 C 373.060 294.282,372.880 293.948,372.975 294.619 C 373.070 295.289,372.982 296.099,372.780 296.419 C 372.480 296.893,372.411 296.862,372.406 296.251 C 372.401 295.669,372.280 295.602,371.862 295.948 C 371.093 296.587,28.907 296.587,28.138 295.948 C 27.720 295.602,27.599 295.669,27.594 296.251 C 27.589 296.862,27.520 296.893,27.220 296.419 C 27.018 296.099,26.953 295.334,27.076 294.719 C 27.199 294.103,27.216 293.600,27.114 293.600 C 27.011 293.600,26.724 294.545,26.475 295.700 M72.313 305.821 C 78.978 308.606,79.460 318.228,73.095 321.453 C 65.412 325.346,57.370 317.864,60.958 310.160 C 62.866 306.062,68.101 304.062,72.313 305.821 M335.858 306.618 C 338.095 307.984,340.001 311.186,339.998 313.572 C 339.982 323.761,325.520 325.971,322.589 316.231 C 320.306 308.644,328.935 302.392,335.858 306.618 M42.800 365.400 C 43.078 365.735,43.121 366.000,42.898 366.000 C 42.678 366.000,42.274 365.730,42.000 365.400 C 41.722 365.065,41.679 364.800,41.902 364.800 C 42.122 364.800,42.526 365.070,42.800 365.400 M358.000 365.400 C 357.726 365.730,357.322 366.000,357.102 366.000 C 356.879 366.000,356.922 365.735,357.200 365.400 C 357.474 365.070,357.878 364.800,358.098 364.800 C 358.321 364.800,358.278 365.065,358.000 365.400 M167.900 370.700 C 185.555 370.758,214.445 370.758,232.100 370.700 C 249.755 370.642,235.310 370.595,200.000 370.595 C 164.690 370.595,150.245 370.642,167.900 370.700 " stroke="none" fill="#df6555" fill-rule="evenodd"></path><path id="path2" d="M94.338 12.595 C 82.680 14.566,75.183 23.300,75.207 34.879 C 75.231 46.200,81.692 54.251,93.200 57.299 L 96.600 58.200 196.400 58.200 L 296.200 58.200 299.800 57.258 C 323.406 51.083,324.140 18.511,300.800 12.938 C 296.848 11.994,99.827 11.667,94.338 12.595 M301.303 14.897 C 321.732 21.059,320.730 49.937,299.903 55.255 L 296.200 56.200 196.200 56.200 L 96.200 56.200 92.425 55.073 C 70.773 48.608,72.138 17.687,94.219 14.441 C 99.364 13.685,298.739 14.124,301.303 14.897 M194.863 71.211 C 192.547 71.548,190.797 72.832,190.044 74.747 C 189.789 75.395,189.576 82.495,189.489 93.200 C 189.314 114.849,189.001 116.214,185.082 112.451 C 180.609 108.157,175.980 107.271,171.044 109.763 C 168.720 110.936,166.003 113.841,165.998 115.158 C 165.996 115.511,165.686 116.340,165.309 117.000 C 164.704 118.058,164.592 120.142,164.367 134.600 C 164.129 149.799,163.972 152.320,163.197 153.400 C 163.039 153.620,162.792 154.295,162.647 154.901 C 162.280 156.437,157.552 161.334,155.715 162.080 C 150.567 164.170,145.577 163.913,142.818 161.416 C 142.443 161.077,141.963 160.800,141.750 160.800 C 140.996 160.800,138.518 157.770,137.498 155.600 C 135.369 151.070,135.432 151.747,135.290 131.800 C 135.212 120.704,135.002 112.844,134.779 112.620 C 134.570 112.411,134.400 111.939,134.400 111.571 C 134.400 110.329,132.858 107.409,131.524 106.126 C 124.310 99.187,113.415 102.658,111.805 112.410 C 111.643 113.394,111.360 114.387,111.176 114.615 C 110.993 114.843,110.779 123.663,110.700 134.215 C 110.533 156.519,110.732 155.274,106.671 159.371 C 99.283 166.823,86.442 164.098,83.840 154.527 C 83.492 153.247,82.995 151.660,82.736 151.000 C 82.421 150.199,82.183 144.813,82.019 134.800 L 81.774 119.800 80.669 117.707 C 79.566 115.616,77.442 113.600,76.342 113.600 C 76.022 113.600,75.535 113.375,75.260 113.100 C 74.340 112.180,68.464 112.492,66.600 113.560 C 64.286 114.884,62.990 116.230,62.200 118.129 C 61.817 119.048,61.353 120.160,61.169 120.600 C 60.984 121.040,60.758 127.520,60.666 135.000 C 60.455 152.077,59.996 153.730,54.293 157.925 C 50.488 160.723,42.238 161.301,39.569 158.955 C 38.700 158.192,38.305 158.255,37.389 159.300 C 36.621 160.176,36.597 160.992,36.493 190.278 L 36.385 220.355 37.693 220.975 C 38.856 221.525,47.178 221.605,113.000 221.697 L 187.000 221.800 189.400 222.943 C 194.738 225.484,205.262 225.484,210.600 222.943 L 213.000 221.800 287.000 221.697 C 352.640 221.605,361.147 221.524,362.300 220.978 L 363.600 220.362 363.600 192.199 L 363.600 164.036 362.608 163.044 C 361.581 162.017,360.571 162.038,358.536 163.127 C 354.180 165.458,345.057 162.576,342.808 158.158 C 342.483 157.521,341.839 156.370,341.376 155.600 C 339.944 153.222,339.891 152.636,339.638 136.600 C 339.365 119.303,339.353 119.224,336.483 115.955 C 331.562 110.351,321.681 111.912,319.059 118.708 C 318.500 120.158,318.400 122.226,318.400 132.378 C 318.400 143.462,318.155 146.941,317.201 149.400 C 317.031 149.840,316.650 151.010,316.356 152.000 C 313.851 160.421,301.290 163.167,294.266 156.830 C 289.779 152.781,289.215 150.617,289.206 137.428 C 289.203 131.944,289.035 126.904,288.833 126.228 C 288.631 125.553,288.274 123.934,288.039 122.631 C 286.326 113.104,273.259 111.171,268.823 119.788 L 267.800 121.776 267.564 136.188 C 267.312 151.564,266.845 155.939,265.164 158.659 C 264.052 160.457,260.494 163.598,258.800 164.276 C 258.030 164.584,256.968 165.053,256.439 165.318 C 255.247 165.917,250.322 165.953,249.561 165.369 C 249.253 165.132,248.155 164.626,247.123 164.245 C 243.358 162.854,239.200 157.120,239.200 153.318 C 239.200 152.901,239.028 152.388,238.818 152.178 C 238.589 151.949,238.387 143.935,238.313 132.198 C 238.176 110.458,238.178 110.475,235.483 107.665 C 232.980 105.055,227.025 103.566,225.127 105.077 C 224.837 105.307,223.934 105.710,223.120 105.972 C 221.467 106.505,219.553 108.471,218.504 110.715 C 217.885 112.039,217.785 114.365,217.578 132.200 C 217.295 156.544,216.608 160.800,212.963 160.800 C 210.527 160.800,210.620 162.406,210.400 116.600 C 210.189 72.628,210.270 74.332,208.286 72.477 C 206.702 70.995,200.418 70.403,194.863 71.211 M23.800 95.223 C 23.360 95.399,22.325 96.176,21.500 96.951 C 20.675 97.725,19.997 98.233,19.994 98.080 C 19.991 97.926,19.856 98.005,19.694 98.255 C 18.383 100.284,7.070 100.555,4.312 98.623 C 3.822 98.280,3.102 98.000,2.711 98.000 C 2.320 98.000,2.000 97.761,2.000 97.470 C 2.000 97.178,1.550 96.517,1.000 96.000 L -0.000 95.061 0.006 133.030 C 0.010 156.622,0.153 170.777,0.385 170.411 C 0.704 169.907,0.795 169.921,1.020 170.509 C 1.165 170.886,1.448 171.094,1.648 170.970 C 1.849 170.846,1.901 170.564,1.765 170.343 C 1.628 170.122,1.895 170.178,2.358 170.467 C 2.821 170.756,3.200 171.084,3.200 171.196 C 3.200 171.308,7.700 171.400,13.200 171.400 C 18.700 171.400,23.200 171.275,23.200 171.121 C 23.200 170.968,23.907 170.871,24.772 170.905 C 25.643 170.940,26.239 171.136,26.110 171.346 C 25.982 171.554,26.087 171.593,26.345 171.434 C 26.602 171.275,26.709 170.976,26.581 170.770 C 26.454 170.563,26.601 170.298,26.908 170.180 C 27.541 169.937,27.676 168.800,27.071 168.800 C 26.854 168.800,27.002 168.440,27.400 168.000 C 27.798 167.560,27.933 167.200,27.699 167.200 C 27.466 167.200,27.369 166.842,27.483 166.404 C 27.597 165.967,27.850 165.708,28.045 165.828 C 28.240 165.949,28.400 165.867,28.400 165.647 C 28.400 165.427,28.193 165.119,27.939 164.963 C 27.620 164.765,27.705 164.512,28.216 164.139 C 28.621 163.843,28.750 163.600,28.503 163.600 C 28.060 163.600,28.182 161.876,28.683 161.066 C 28.816 160.850,28.717 160.804,28.462 160.962 C 28.208 161.119,28.000 161.057,28.000 160.824 C 28.000 160.591,28.180 160.400,28.400 160.400 C 28.645 160.400,28.800 158.459,28.800 155.376 C 28.800 152.002,28.663 150.437,28.384 150.610 C 28.098 150.787,27.980 142.477,28.006 123.933 C 28.033 104.119,27.924 97.029,27.592 97.110 C 27.344 97.170,27.262 97.024,27.409 96.785 C 28.151 95.585,25.629 94.493,23.800 95.223 M372.829 95.769 L 371.938 96.718 371.983 125.992 C 372.015 146.098,371.899 155.185,371.614 155.009 C 371.343 154.841,371.200 155.730,371.200 157.576 C 371.200 159.192,371.371 160.400,371.600 160.400 C 371.820 160.400,372.000 160.591,372.000 160.824 C 372.000 161.057,371.792 161.119,371.538 160.962 C 371.283 160.804,371.184 160.850,371.317 161.066 C 371.818 161.876,371.940 163.600,371.497 163.600 C 371.250 163.600,371.379 163.843,371.784 164.139 C 372.295 164.512,372.380 164.765,372.061 164.963 C 371.807 165.119,371.600 165.427,371.600 165.647 C 371.600 165.867,371.760 165.949,371.955 165.828 C 372.150 165.708,372.403 165.967,372.517 166.404 C 372.631 166.842,372.534 167.200,372.301 167.200 C 372.067 167.200,372.202 167.560,372.600 168.000 C 372.998 168.440,373.146 168.800,372.929 168.800 C 372.324 168.800,372.459 169.937,373.092 170.180 C 373.399 170.298,373.546 170.563,373.419 170.770 C 373.291 170.976,373.398 171.275,373.655 171.434 C 373.913 171.593,374.018 171.554,373.890 171.346 C 373.761 171.136,374.357 170.940,375.228 170.905 C 376.093 170.871,376.800 170.968,376.800 171.121 C 376.800 171.275,381.300 171.400,386.800 171.400 C 392.300 171.400,396.800 171.308,396.800 171.196 C 396.800 171.084,397.179 170.756,397.642 170.467 C 398.105 170.178,398.372 170.122,398.235 170.343 C 398.099 170.564,398.151 170.846,398.352 170.970 C 398.552 171.094,398.835 170.886,398.980 170.509 C 399.205 169.921,399.296 169.907,399.615 170.411 C 399.847 170.777,399.990 156.622,399.994 133.030 L 400.000 95.061 399.000 96.000 C 398.450 96.517,398.000 97.178,398.000 97.470 C 398.000 97.761,397.680 98.000,397.289 98.000 C 396.898 98.000,396.178 98.280,395.688 98.623 C 393.028 100.486,380.400 100.233,380.400 98.316 C 380.400 98.116,380.220 98.064,380.000 98.200 C 379.780 98.336,379.597 98.302,379.593 98.124 C 379.548 96.134,374.226 94.282,372.829 95.769 M198.800 160.217 C 199.790 160.549,200.960 160.983,201.400 161.180 C 201.840 161.377,202.655 161.635,203.211 161.754 C 204.652 162.063,207.057 164.342,207.782 166.087 C 208.604 168.064,208.703 220.172,207.887 221.235 C 206.867 222.563,205.673 222.800,200.000 222.800 C 194.327 222.800,193.133 222.563,192.113 221.235 C 191.523 220.467,191.395 165.568,191.976 163.061 C 192.734 159.794,194.881 158.899,198.800 160.217 M4.500 169.700 C 4.626 170.079,6.756 170.200,13.333 170.200 C 18.100 170.200,22.000 170.335,22.000 170.500 C 22.000 170.665,17.950 170.800,13.000 170.800 C 8.050 170.800,4.000 170.725,4.000 170.633 C 4.000 170.541,3.891 170.181,3.757 169.833 C 3.624 169.485,3.699 169.200,3.924 169.200 C 4.149 169.200,4.408 169.425,4.500 169.700 M24.600 170.089 C 24.820 170.253,24.601 170.391,24.113 170.394 C 23.476 170.398,23.292 170.226,23.462 169.783 C 23.592 169.443,23.812 169.306,23.949 169.478 C 24.087 169.650,24.380 169.925,24.600 170.089 M376.545 169.800 C 376.702 170.211,376.521 170.400,375.972 170.400 C 375.298 170.400,375.252 170.305,375.684 169.815 C 376.327 169.086,376.271 169.087,376.545 169.800 M396.400 169.367 C 396.400 170.746,396.041 170.800,386.957 170.800 C 382.031 170.800,378.000 170.665,378.000 170.500 C 378.000 170.335,381.900 170.200,386.667 170.200 C 393.244 170.200,395.374 170.079,395.500 169.700 C 395.651 169.246,396.400 168.969,396.400 169.367 M65.426 364.044 C 63.678 364.460,62.236 365.454,59.700 367.992 C 57.772 369.922,57.657 370.163,58.839 369.787 C 59.782 369.488,61.200 368.194,61.200 367.632 C 61.200 365.948,64.020 365.800,96.200 365.800 L 127.000 365.800 128.700 366.708 C 129.635 367.208,130.400 367.481,130.400 367.315 C 130.400 367.150,130.871 367.708,131.447 368.555 C 132.172 369.622,132.589 369.942,132.802 369.597 C 132.972 369.322,133.298 369.214,133.528 369.355 C 133.757 369.497,134.058 369.430,134.196 369.207 C 134.334 368.983,134.087 368.800,133.646 368.800 C 133.206 368.800,132.592 368.438,132.282 367.996 C 131.973 367.554,130.657 366.429,129.360 365.496 L 127.000 363.800 97.000 363.735 C 79.532 363.698,66.342 363.827,65.426 364.044 M273.402 363.889 C 272.329 364.168,268.421 366.992,267.718 367.996 C 267.408 368.438,266.794 368.800,266.354 368.800 C 265.913 368.800,265.666 368.983,265.804 369.207 C 265.942 369.430,266.243 369.497,266.472 369.355 C 266.702 369.214,267.028 369.322,267.198 369.597 C 267.411 369.942,267.828 369.622,268.553 368.555 C 269.129 367.708,269.600 367.150,269.600 367.315 C 269.600 367.481,270.365 367.208,271.300 366.708 L 273.000 365.800 303.800 365.800 C 335.980 365.800,338.800 365.948,338.800 367.632 C 338.800 368.194,340.218 369.488,341.161 369.787 C 342.406 370.183,342.225 369.888,339.719 367.441 C 335.667 363.485,338.755 363.808,304.400 363.740 C 287.790 363.708,273.841 363.774,273.402 363.889 " stroke="none" fill="#6a6a6a" fill-rule="evenodd"></path><path id="path3" d="M94.219 14.441 C 85.542 15.717,78.186 23.135,77.090 31.714 C 75.653 42.978,81.439 51.793,92.425 55.073 L 96.200 56.200 196.200 56.200 L 296.200 56.200 299.903 55.255 C 320.730 49.937,321.732 21.059,301.303 14.897 C 298.739 14.124,99.364 13.685,94.219 14.441 M193.236 160.561 C 192.740 161.090,192.173 162.215,191.976 163.061 C 191.395 165.568,191.523 220.467,192.113 221.235 C 193.133 222.563,194.327 222.800,200.000 222.800 C 205.673 222.800,206.867 222.563,207.887 221.235 C 208.703 220.172,208.604 168.064,207.782 166.087 C 207.057 164.342,204.652 162.063,203.211 161.754 C 202.655 161.635,201.840 161.377,201.400 161.180 C 197.361 159.372,194.553 159.159,193.236 160.561 M0.261 170.586 C -0.044 171.381,0.140 171.763,0.721 171.542 C 0.926 171.464,0.968 171.053,0.816 170.629 C 0.554 169.897,0.526 169.895,0.261 170.586 M399.093 170.766 C 398.948 171.319,399.064 171.600,399.437 171.600 C 400.075 171.600,400.142 171.244,399.649 170.466 C 399.392 170.060,399.259 170.132,399.093 170.766 M0.700 171.876 C -0.287 172.134,-0.166 172.520,1.083 173.100 C 2.276 173.654,24.022 173.844,24.562 173.305 C 24.724 173.143,25.143 173.008,25.494 173.005 C 25.844 173.002,26.195 172.810,26.273 172.578 C 26.369 172.293,25.667 172.250,24.107 172.444 C 21.047 172.827,5.437 172.877,2.956 172.513 L 1.000 172.226 2.400 171.965 C 3.724 171.719,3.735 171.705,2.600 171.699 C 1.940 171.696,1.085 171.775,0.700 171.876 M23.100 171.882 C 23.595 171.978,24.405 171.978,24.900 171.882 C 25.395 171.787,24.990 171.709,24.000 171.709 C 23.010 171.709,22.605 171.787,23.100 171.882 M375.100 171.882 C 375.595 171.978,376.405 171.978,376.900 171.882 C 377.395 171.787,376.990 171.709,376.000 171.709 C 375.010 171.709,374.605 171.787,375.100 171.882 M397.600 171.965 L 399.000 172.226 397.044 172.513 C 394.563 172.877,378.953 172.827,375.893 172.444 C 374.333 172.250,373.631 172.293,373.727 172.578 C 373.805 172.810,374.156 173.002,374.506 173.005 C 374.857 173.008,375.276 173.143,375.438 173.305 C 375.978 173.844,397.724 173.654,398.917 173.100 C 400.630 172.305,399.718 171.539,397.200 171.658 C 396.445 171.694,396.543 171.769,397.600 171.965 M25.786 314.000 C 25.786 325.110,25.837 329.655,25.900 324.100 C 25.962 318.545,25.962 309.455,25.900 303.900 C 25.837 298.345,25.786 302.890,25.786 314.000 M374.186 314.000 C 374.186 325.110,374.237 329.655,374.300 324.100 C 374.362 318.545,374.362 309.455,374.300 303.900 C 374.237 298.345,374.186 302.890,374.186 314.000 M66.200 365.872 C 64.303 366.136,61.200 367.228,61.200 367.632 C 61.200 368.111,59.709 369.600,59.229 369.600 C 59.024 369.600,58.574 369.883,58.229 370.229 C 57.856 370.601,57.600 370.671,57.600 370.399 C 57.600 370.147,57.314 370.000,56.966 370.071 C 56.226 370.221,56.079 385.679,56.814 385.933 C 57.027 386.007,57.200 387.184,57.200 388.549 C 57.200 391.747,58.197 395.583,59.214 396.295 C 59.646 396.598,60.000 397.022,60.000 397.239 C 60.000 397.455,60.395 398.167,60.878 398.820 L 61.757 400.008 95.321 399.995 L 128.886 399.983 129.666 399.091 L 130.445 398.200 130.009 399.100 C 129.656 399.827,129.687 400.000,130.172 400.000 C 130.929 400.000,132.800 397.286,132.800 396.187 C 132.800 395.732,132.976 395.184,133.190 394.970 C 133.405 394.755,133.876 393.144,134.238 391.390 C 134.599 389.635,135.098 388.072,135.347 387.915 C 135.837 387.607,136.406 371.050,135.952 370.320 C 135.816 370.101,135.366 369.991,134.952 370.075 C 134.538 370.160,133.978 369.953,133.708 369.615 C 133.297 369.102,133.155 369.091,132.854 369.548 C 132.578 369.968,132.249 369.736,131.447 368.555 C 130.871 367.708,130.400 367.150,130.400 367.315 C 130.400 367.481,129.635 367.208,128.700 366.708 L 127.000 365.800 97.200 365.753 C 80.810 365.727,66.860 365.781,66.200 365.872 M273.600 365.966 C 272.830 366.126,271.615 366.564,270.900 366.939 C 270.185 367.314,269.600 367.484,269.600 367.317 C 269.600 367.151,269.129 367.708,268.553 368.555 C 267.751 369.736,267.422 369.968,267.146 369.548 C 266.845 369.091,266.703 369.102,266.292 369.615 C 266.022 369.953,265.462 370.160,265.048 370.075 C 264.634 369.991,264.184 370.101,264.048 370.320 C 263.594 371.050,264.163 387.607,264.653 387.915 C 264.902 388.072,265.401 389.635,265.762 391.390 C 266.124 393.144,266.595 394.755,266.810 394.970 C 267.024 395.184,267.200 395.732,267.200 396.187 C 267.200 397.286,269.071 400.000,269.828 400.000 C 270.313 400.000,270.344 399.827,269.991 399.100 L 269.555 398.200 270.334 399.091 L 271.114 399.983 304.679 399.995 L 338.243 400.008 339.122 398.820 C 339.605 398.167,340.000 397.455,340.000 397.239 C 340.000 397.022,340.354 396.598,340.786 396.295 C 341.803 395.583,342.800 391.747,342.800 388.549 C 342.800 387.184,342.973 386.007,343.186 385.933 C 343.921 385.679,343.774 370.221,343.034 370.071 C 342.686 370.000,342.400 370.147,342.400 370.399 C 342.400 370.671,342.144 370.601,341.771 370.229 C 341.426 369.883,340.976 369.600,340.771 369.600 C 340.294 369.600,338.800 368.113,338.800 367.638 C 338.800 366.006,280.593 364.514,273.600 365.966 M57.899 383.478 C 57.828 385.855,57.770 384.020,57.769 379.400 C 57.769 374.780,57.827 372.835,57.898 375.078 C 57.969 377.321,57.970 381.101,57.899 383.478 M134.698 382.100 C 134.625 384.135,134.566 382.470,134.566 378.400 C 134.566 374.330,134.625 372.665,134.698 374.700 C 134.771 376.735,134.771 380.065,134.698 382.100 M265.498 382.100 C 265.425 384.135,265.366 382.470,265.366 378.400 C 265.366 374.330,265.425 372.665,265.498 374.700 C 265.571 376.735,265.571 380.065,265.498 382.100 M342.299 383.478 C 342.228 385.855,342.170 384.020,342.169 379.400 C 342.169 374.780,342.227 372.835,342.298 375.078 C 342.369 377.321,342.370 381.101,342.299 383.478 " stroke="none" fill="#444444" fill-rule="evenodd"></path><path id="path4" d="M148.332 11.900 C 175.025 11.957,218.585 11.957,245.132 11.900 C 271.679 11.843,249.840 11.797,196.600 11.797 C 143.360 11.797,121.639 11.843,148.332 11.900 M81.381 18.900 L 79.800 20.600 81.500 19.019 C 83.081 17.548,83.384 17.200,83.081 17.200 C 83.016 17.200,82.251 17.965,81.381 18.900 M74.924 35.000 C 74.926 36.320,75.001 36.812,75.090 36.093 C 75.179 35.374,75.177 34.294,75.086 33.693 C 74.995 33.092,74.922 33.680,74.924 35.000 M81.200 51.000 C 81.946 51.770,82.647 52.400,82.757 52.400 C 82.867 52.400,82.346 51.770,81.600 51.000 C 80.854 50.230,80.153 49.600,80.043 49.600 C 79.933 49.600,80.454 50.230,81.200 51.000 M17.800 70.800 C 17.664 71.020,17.823 71.200,18.153 71.200 C 18.483 71.200,18.864 71.020,19.000 70.800 C 19.136 70.580,18.977 70.400,18.647 70.400 C 18.317 70.400,17.936 70.580,17.800 70.800 M193.216 70.674 C 192.675 70.786,191.325 71.265,190.216 71.739 L 188.200 72.600 112.117 72.800 C 36.626 72.998,36.030 73.006,35.417 73.800 C 34.905 74.464,34.840 75.450,35.036 79.600 C 35.192 82.891,35.105 85.420,34.781 87.000 C 34.101 90.324,32.752 218.961,33.372 221.430 C 33.889 223.489,30.044 223.383,112.800 223.633 C 155.150 223.760,190.430 223.985,191.200 224.132 C 191.970 224.279,192.330 224.282,192.000 224.140 C 191.670 223.998,190.410 223.413,189.200 222.841 L 187.000 221.800 113.000 221.697 C 47.178 221.605,38.856 221.525,37.693 220.975 L 36.385 220.355 36.493 190.278 C 36.597 160.992,36.621 160.176,37.389 159.300 C 38.305 158.255,38.700 158.192,39.569 158.955 C 42.238 161.301,50.488 160.723,54.293 157.925 C 59.996 153.730,60.455 152.077,60.666 135.000 C 60.758 127.520,60.984 121.040,61.169 120.600 C 61.353 120.160,61.817 119.048,62.200 118.129 C 62.990 116.230,64.286 114.884,66.600 113.560 C 68.464 112.492,74.340 112.180,75.260 113.100 C 75.535 113.375,76.022 113.600,76.342 113.600 C 77.442 113.600,79.566 115.616,80.669 117.707 L 81.774 119.800 82.019 134.800 C 82.183 144.813,82.421 150.199,82.736 151.000 C 82.995 151.660,83.492 153.247,83.840 154.527 C 86.442 164.098,99.283 166.823,106.671 159.371 C 110.732 155.274,110.533 156.519,110.700 134.215 C 110.779 123.663,110.993 114.843,111.176 114.615 C 111.360 114.387,111.643 113.394,111.805 112.410 C 113.415 102.658,124.310 99.187,131.524 106.126 C 132.858 107.409,134.400 110.329,134.400 111.571 C 134.400 111.939,134.570 112.411,134.779 112.620 C 135.002 112.844,135.212 120.704,135.290 131.800 C 135.432 151.747,135.369 151.070,137.498 155.600 C 138.518 157.770,140.996 160.800,141.750 160.800 C 141.963 160.800,142.443 161.077,142.818 161.416 C 145.577 163.913,150.567 164.170,155.715 162.080 C 157.552 161.334,162.280 156.437,162.647 154.901 C 162.792 154.295,163.039 153.620,163.197 153.400 C 163.972 152.320,164.129 149.799,164.367 134.600 C 164.592 120.142,164.704 118.058,165.309 117.000 C 165.686 116.340,165.996 115.511,165.998 115.158 C 166.003 113.841,168.720 110.936,171.044 109.763 C 175.980 107.271,180.609 108.157,185.082 112.451 C 189.001 116.214,189.314 114.849,189.489 93.200 C 189.638 74.809,189.675 74.444,191.608 72.592 C 193.977 70.323,205.871 70.217,208.252 72.445 C 210.276 74.338,210.188 72.534,210.400 116.600 C 210.620 162.406,210.527 160.800,212.963 160.800 C 216.608 160.800,217.295 156.544,217.578 132.200 C 217.785 114.365,217.885 112.039,218.504 110.715 C 219.553 108.471,221.467 106.505,223.120 105.972 C 223.934 105.710,224.837 105.307,225.127 105.077 C 227.025 103.566,232.980 105.055,235.483 107.665 C 238.178 110.475,238.176 110.458,238.313 132.198 C 238.387 143.935,238.589 151.949,238.818 152.178 C 239.028 152.388,239.200 152.901,239.200 153.318 C 239.200 157.120,243.358 162.854,247.123 164.245 C 248.155 164.626,249.253 165.132,249.561 165.369 C 250.322 165.953,255.247 165.917,256.439 165.318 C 256.968 165.053,258.030 164.584,258.800 164.276 C 260.494 163.598,264.052 160.457,265.164 158.659 C 266.845 155.939,267.312 151.564,267.564 136.188 L 267.800 121.776 268.823 119.788 C 273.259 111.171,286.326 113.104,288.039 122.631 C 288.274 123.934,288.631 125.553,288.833 126.228 C 289.035 126.904,289.203 131.944,289.206 137.428 C 289.215 150.617,289.779 152.781,294.266 156.830 C 301.290 163.167,313.851 160.421,316.356 152.000 C 316.650 151.010,317.031 149.840,317.201 149.400 C 318.155 146.941,318.400 143.462,318.400 132.378 C 318.400 122.226,318.500 120.158,319.059 118.708 C 321.681 111.912,331.562 110.351,336.483 115.955 C 339.353 119.224,339.365 119.303,339.638 136.600 C 339.891 152.636,339.944 153.222,341.376 155.600 C 341.839 156.370,342.483 157.521,342.808 158.158 C 345.057 162.576,354.180 165.458,358.536 163.127 C 360.571 162.038,361.581 162.017,362.608 163.044 L 363.600 164.036 363.600 192.199 L 363.600 220.362 362.300 220.978 C 361.147 221.524,352.640 221.605,287.000 221.697 L 213.000 221.800 210.800 222.841 C 209.590 223.413,208.330 223.998,208.000 224.140 C 207.670 224.282,208.030 224.279,208.800 224.132 C 209.570 223.985,244.850 223.760,287.200 223.633 C 369.949 223.383,366.112 223.489,366.628 221.431 C 367.222 219.057,365.873 90.181,365.220 87.000 C 364.895 85.417,364.808 82.898,364.964 79.600 C 365.160 75.450,365.095 74.464,364.583 73.800 C 363.970 73.006,363.374 72.998,287.883 72.800 L 211.800 72.600 209.600 71.626 C 207.420 70.661,196.379 70.019,193.216 70.674 M381.000 70.800 C 381.136 71.020,381.517 71.200,381.847 71.200 C 382.177 71.200,382.336 71.020,382.200 70.800 C 382.064 70.580,381.683 70.400,381.353 70.400 C 381.023 70.400,380.864 70.580,381.000 70.800 M7.800 76.853 C 7.015 77.543,6.449 78.182,6.541 78.274 C 6.634 78.367,7.405 77.804,8.255 77.023 C 10.162 75.272,9.769 75.125,7.800 76.853 M391.722 76.962 C 392.560 77.753,393.356 78.400,393.492 78.400 C 393.912 78.400,391.848 76.350,391.000 75.926 C 390.560 75.705,390.885 76.172,391.722 76.962 M0.432 87.939 C -0.129 88.989,-0.117 89.600,0.467 89.600 C 0.723 89.600,0.820 89.486,0.681 89.347 C 0.542 89.208,0.616 88.743,0.846 88.313 C 1.077 87.883,1.175 87.441,1.065 87.331 C 0.955 87.221,0.670 87.495,0.432 87.939 M399.015 87.800 C 399.169 88.240,399.304 88.825,399.314 89.100 C 399.325 89.375,399.483 89.600,399.667 89.600 C 400.210 89.600,400.047 88.611,399.367 87.776 C 398.744 87.011,398.739 87.011,399.015 87.800 M-0.000 93.730 C -0.000 94.632,0.322 95.363,1.000 96.000 C 1.550 96.517,2.000 97.178,2.000 97.470 C 2.000 97.761,2.320 98.000,2.711 98.000 C 3.102 98.000,3.822 98.280,4.312 98.623 C 6.972 100.486,19.600 100.233,19.600 98.316 C 19.600 98.116,19.780 98.064,20.000 98.200 C 20.220 98.336,20.403 98.302,20.407 98.124 C 20.423 97.402,23.678 95.153,24.940 94.992 C 26.385 94.807,27.936 95.933,27.409 96.785 C 27.262 97.024,27.344 97.170,27.592 97.110 C 27.924 97.029,28.033 104.119,28.006 123.933 C 27.980 142.477,28.098 150.787,28.384 150.610 C 28.663 150.437,28.800 152.002,28.800 155.376 C 28.800 158.459,28.645 160.400,28.400 160.400 C 28.180 160.400,28.000 160.591,28.000 160.824 C 28.000 161.057,28.208 161.119,28.462 160.962 C 28.717 160.804,28.816 160.850,28.683 161.066 C 28.182 161.876,28.060 163.600,28.503 163.600 C 28.750 163.600,28.621 163.843,28.216 164.139 C 27.705 164.512,27.620 164.765,27.939 164.963 C 28.193 165.119,28.400 165.427,28.400 165.647 C 28.400 165.867,28.240 165.949,28.045 165.828 C 27.850 165.708,27.597 165.967,27.483 166.404 C 27.369 166.842,27.466 167.200,27.699 167.200 C 27.933 167.200,27.798 167.560,27.400 168.000 C 27.002 168.440,26.846 168.800,27.053 168.800 C 27.260 168.800,27.474 169.376,27.527 170.079 C 27.650 171.686,28.000 172.104,28.000 170.643 C 28.000 169.926,28.157 169.650,28.458 169.836 C 28.772 170.030,28.855 169.798,28.720 169.096 C 28.566 168.289,28.659 168.120,29.162 168.295 C 29.644 168.463,29.691 168.399,29.355 168.034 C 29.028 167.679,29.046 167.158,29.422 166.066 C 30.351 163.371,29.627 95.134,28.659 94.064 C 27.358 92.627,22.562 93.502,20.200 95.606 C 16.234 99.141,4.093 97.940,2.128 93.818 C 1.223 91.921,0.000 91.871,-0.000 93.730 M397.872 93.818 C 395.907 97.940,383.766 99.141,379.800 95.606 C 377.438 93.502,372.642 92.627,371.341 94.064 C 370.386 95.119,369.676 163.357,370.592 166.075 C 370.958 167.160,370.972 167.679,370.645 168.034 C 370.309 168.399,370.356 168.463,370.838 168.295 C 371.341 168.120,371.434 168.289,371.280 169.096 C 371.145 169.798,371.228 170.030,371.542 169.836 C 371.843 169.650,372.000 169.926,372.000 170.643 C 372.000 172.104,372.350 171.686,372.473 170.079 C 372.526 169.376,372.740 168.800,372.947 168.800 C 373.154 168.800,372.998 168.440,372.600 168.000 C 372.202 167.560,372.067 167.200,372.301 167.200 C 372.534 167.200,372.631 166.842,372.517 166.404 C 372.403 165.967,372.150 165.708,371.955 165.828 C 371.760 165.949,371.600 165.867,371.600 165.647 C 371.600 165.427,371.807 165.119,372.061 164.963 C 372.380 164.765,372.295 164.512,371.784 164.139 C 371.379 163.843,371.250 163.600,371.497 163.600 C 371.940 163.600,371.818 161.876,371.317 161.066 C 371.184 160.850,371.283 160.804,371.538 160.962 C 371.792 161.119,372.000 161.057,372.000 160.824 C 372.000 160.591,371.820 160.400,371.600 160.400 C 371.371 160.400,371.200 159.192,371.200 157.576 C 371.200 155.730,371.343 154.841,371.614 155.009 C 371.899 155.185,372.015 146.098,371.983 125.992 L 371.938 96.718 372.829 95.769 C 374.226 94.282,379.548 96.134,379.593 98.124 C 379.597 98.302,379.780 98.336,380.000 98.200 C 380.220 98.064,380.400 98.116,380.400 98.316 C 380.400 100.233,393.028 100.486,395.688 98.623 C 396.178 98.280,396.898 98.000,397.289 98.000 C 397.680 98.000,398.000 97.761,398.000 97.470 C 398.000 97.178,398.450 96.517,399.000 96.000 C 400.247 94.829,400.432 92.400,399.274 92.400 C 398.837 92.400,398.280 92.963,397.872 93.818 M3.757 169.833 C 3.891 170.181,4.000 170.541,4.000 170.633 C 4.000 170.725,8.050 170.800,13.000 170.800 C 17.950 170.800,22.000 170.665,22.000 170.500 C 22.000 170.335,18.100 170.200,13.333 170.200 C 6.756 170.200,4.626 170.079,4.500 169.700 C 4.408 169.425,4.149 169.200,3.924 169.200 C 3.699 169.200,3.624 169.485,3.757 169.833 M395.500 169.700 C 395.374 170.079,393.244 170.200,386.667 170.200 C 381.900 170.200,378.000 170.335,378.000 170.500 C 378.000 170.665,382.031 170.800,386.957 170.800 C 396.041 170.800,396.400 170.746,396.400 169.367 C 396.400 168.969,395.651 169.246,395.500 169.700 M26.750 170.200 C 26.723 170.310,26.677 170.621,26.650 170.892 C 26.618 171.210,25.964 171.365,24.800 171.330 L 23.000 171.276 24.600 171.538 C 25.480 171.682,20.544 171.800,13.630 171.800 C 6.717 171.800,1.587 171.686,2.230 171.547 L 3.400 171.295 2.333 171.247 C 1.747 171.221,1.191 171.065,1.099 170.900 C 1.007 170.735,0.986 170.825,1.053 171.100 C 1.120 171.375,0.866 171.611,0.487 171.625 C 0.006 171.643,0.090 171.767,0.765 172.036 C 1.332 172.263,6.762 172.376,13.965 172.311 L 26.200 172.200 26.190 199.400 L 26.181 226.600 26.390 199.800 C 26.506 185.060,26.746 172.775,26.924 172.500 C 27.114 172.205,27.064 172.000,26.800 172.000 C 26.542 172.000,26.485 171.788,26.665 171.500 C 27.024 170.926,27.208 170.000,26.965 170.000 C 26.874 170.000,26.777 170.090,26.750 170.200 M372.941 170.463 C 372.986 170.759,373.163 171.225,373.335 171.500 C 373.515 171.788,373.458 172.000,373.200 172.000 C 372.936 172.000,372.886 172.205,373.076 172.500 C 373.254 172.775,373.494 185.060,373.610 199.800 L 373.819 226.600 373.810 199.400 L 373.800 172.200 386.035 172.311 C 393.238 172.376,398.668 172.263,399.235 172.036 C 399.910 171.767,399.994 171.643,399.513 171.625 C 399.134 171.611,398.880 171.375,398.947 171.100 C 399.014 170.825,398.993 170.735,398.901 170.900 C 398.809 171.065,398.253 171.221,397.667 171.247 L 396.600 171.295 397.770 171.547 C 398.413 171.686,393.283 171.800,386.370 171.800 C 379.456 171.800,374.520 171.682,375.400 171.538 L 377.000 171.276 375.200 171.330 C 374.081 171.364,373.400 171.211,373.400 170.925 C 373.400 170.673,373.279 170.345,373.130 170.197 C 372.982 170.048,372.897 170.168,372.941 170.463 M27.788 197.600 C 27.788 211.570,27.839 217.285,27.900 210.300 C 27.961 203.315,27.961 191.885,27.900 184.900 C 27.839 177.915,27.788 183.630,27.788 197.600 M28.588 197.000 C 28.588 210.640,28.638 216.278,28.700 209.529 C 28.761 202.780,28.761 191.620,28.700 184.729 C 28.638 177.838,28.588 183.360,28.588 197.000 M371.388 197.000 C 371.388 210.640,371.438 216.278,371.500 209.529 C 371.561 202.780,371.561 191.620,371.500 184.729 C 371.438 177.838,371.388 183.360,371.388 197.000 M372.188 197.600 C 372.188 211.570,372.239 217.285,372.300 210.300 C 372.361 203.315,372.361 191.885,372.300 184.900 C 372.239 177.915,372.188 183.630,372.188 197.600 M193.505 224.683 C 194.002 224.779,194.722 224.775,195.105 224.675 C 195.487 224.575,195.080 224.496,194.200 224.501 C 193.320 224.505,193.007 224.587,193.505 224.683 M205.105 224.683 C 205.602 224.779,206.322 224.775,206.705 224.675 C 207.087 224.575,206.680 224.496,205.800 224.501 C 204.920 224.505,204.607 224.587,205.105 224.683 M167.900 370.300 C 185.555 370.358,214.445 370.358,232.100 370.300 C 249.755 370.242,235.310 370.195,200.000 370.195 C 164.690 370.195,150.245 370.242,167.900 370.300 M57.769 379.400 C 57.770 384.020,57.828 385.855,57.899 383.478 C 57.970 381.101,57.969 377.321,57.898 375.078 C 57.827 372.835,57.769 374.780,57.769 379.400 M134.566 378.400 C 134.566 382.470,134.625 384.135,134.698 382.100 C 134.771 380.065,134.771 376.735,134.698 374.700 C 134.625 372.665,134.566 374.330,134.566 378.400 M265.366 378.400 C 265.366 382.470,265.425 384.135,265.498 382.100 C 265.571 380.065,265.571 376.735,265.498 374.700 C 265.425 372.665,265.366 374.330,265.366 378.400 M342.169 379.400 C 342.170 384.020,342.228 385.855,342.299 383.478 C 342.370 381.101,342.369 377.321,342.298 375.078 C 342.227 372.835,342.169 374.780,342.169 379.400 " stroke="none" fill="#7c7c7c" fill-rule="evenodd"></path><path id="path5" d="M26.214 69.506 C 26.102 69.801,26.187 69.932,26.405 69.797 C 26.622 69.663,26.821 69.788,26.846 70.076 C 26.944 71.182,27.020 71.429,27.561 72.383 C 27.867 72.924,28.496 73.673,28.959 74.048 C 30.716 75.470,30.269 90.200,28.439 91.179 C 28.052 91.386,26.400 91.652,24.768 91.771 C 23.135 91.889,20.900 92.158,19.800 92.369 C 14.253 93.432,4.400 92.654,4.400 91.154 C 4.400 90.886,4.288 90.779,4.150 90.916 C 4.013 91.054,3.569 90.769,3.164 90.283 C 2.758 89.797,2.421 89.610,2.413 89.867 C 2.406 90.123,2.625 90.424,2.900 90.535 C 3.175 90.646,3.209 90.751,2.975 90.768 C 2.284 90.820,0.759 89.190,1.053 88.714 C 1.217 88.449,1.139 88.391,0.855 88.566 C 0.598 88.725,0.491 89.023,0.617 89.228 C 0.744 89.432,0.657 89.600,0.424 89.600 C 0.191 89.600,0.000 89.881,0.000 90.224 C 0.000 90.567,0.178 90.737,0.395 90.603 C 0.622 90.463,0.689 90.623,0.553 90.979 C 0.393 91.396,0.547 91.600,1.024 91.600 C 1.414 91.600,1.630 91.703,1.503 91.830 C 1.087 92.246,4.848 95.553,6.340 96.082 C 7.212 96.391,9.653 96.600,12.400 96.600 L 17.000 96.600 20.043 94.903 C 23.639 92.899,26.252 92.508,28.558 93.629 C 29.453 94.065,30.000 94.163,30.000 93.889 C 30.000 93.646,30.283 93.796,30.630 94.224 C 30.976 94.651,31.153 94.787,31.023 94.527 C 30.893 94.267,31.119 93.817,31.525 93.527 C 33.855 91.864,35.689 78.755,34.026 75.648 C 33.304 74.300,33.525 72.941,34.578 72.251 C 35.465 71.670,42.623 71.600,111.478 71.505 L 187.400 71.400 189.600 70.459 C 190.810 69.942,192.610 69.367,193.600 69.183 C 195.278 68.871,195.251 68.863,193.200 69.067 C 191.990 69.187,155.270 69.406,111.600 69.553 C 67.930 69.699,31.826 69.934,31.369 70.074 C 30.330 70.391,27.775 69.864,27.871 69.352 C 27.982 68.761,26.446 68.904,26.214 69.506 M206.400 69.183 C 207.390 69.367,209.190 69.942,210.400 70.459 L 212.600 71.400 288.522 71.505 C 357.377 71.600,364.535 71.670,365.422 72.251 C 366.475 72.941,366.696 74.300,365.974 75.648 C 364.311 78.755,366.145 91.864,368.475 93.527 C 368.881 93.817,369.107 94.267,368.977 94.527 C 368.847 94.787,369.024 94.651,369.370 94.224 C 369.828 93.659,370.002 93.604,370.006 94.024 C 370.010 94.401,370.114 94.449,370.306 94.162 C 371.471 92.423,376.138 92.775,379.925 94.886 L 383.000 96.600 387.600 96.600 C 390.347 96.600,392.788 96.391,393.660 96.082 C 395.152 95.553,398.913 92.246,398.497 91.830 C 398.370 91.703,398.586 91.600,398.976 91.600 C 399.453 91.600,399.607 91.396,399.447 90.979 C 399.311 90.623,399.378 90.463,399.605 90.603 C 399.822 90.737,400.000 90.567,400.000 90.224 C 400.000 89.881,399.809 89.600,399.576 89.600 C 399.343 89.600,399.256 89.432,399.383 89.228 C 399.509 89.023,399.402 88.725,399.145 88.566 C 398.861 88.391,398.783 88.449,398.947 88.714 C 399.241 89.190,397.716 90.820,397.025 90.768 C 396.791 90.751,396.825 90.646,397.100 90.535 C 397.375 90.424,397.594 90.123,397.587 89.867 C 397.579 89.610,397.242 89.797,396.836 90.283 C 396.431 90.769,395.987 91.054,395.850 90.916 C 395.712 90.779,395.600 90.886,395.600 91.154 C 395.600 92.656,385.728 93.433,380.200 92.366 C 379.100 92.154,376.850 91.872,375.200 91.740 C 373.550 91.607,371.898 91.342,371.529 91.151 C 369.728 90.217,369.307 75.451,371.041 74.048 C 371.504 73.673,372.133 72.924,372.439 72.383 C 372.980 71.429,373.056 71.182,373.154 70.076 C 373.179 69.788,373.378 69.663,373.595 69.797 C 373.813 69.932,373.898 69.801,373.786 69.506 C 373.554 68.904,372.018 68.761,372.129 69.352 C 372.225 69.864,369.670 70.391,368.631 70.074 C 368.174 69.934,332.070 69.699,288.400 69.553 C 244.730 69.406,208.010 69.187,206.800 69.067 C 204.749 68.863,204.722 68.871,206.400 69.183 M19.600 70.766 L 18.600 71.052 19.688 71.268 C 20.286 71.387,20.688 71.343,20.581 71.169 C 20.474 70.996,20.884 70.779,21.493 70.687 C 22.511 70.533,22.519 70.518,21.600 70.500 C 21.050 70.489,20.150 70.609,19.600 70.766 M6.985 78.479 C 5.893 79.622,5.283 80.347,5.630 80.089 C 6.045 79.779,6.419 79.752,6.730 80.010 C 7.068 80.291,7.088 80.266,6.801 79.921 C 6.304 79.324,8.238 77.163,9.005 77.457 C 9.288 77.566,9.637 77.464,9.780 77.232 C 9.945 76.966,9.787 76.907,9.355 77.073 C 8.889 77.251,8.762 77.185,8.958 76.868 C 9.522 75.955,8.945 76.426,6.985 78.479 M391.042 76.868 C 391.238 77.185,391.111 77.251,390.645 77.073 C 390.213 76.907,390.055 76.966,390.220 77.232 C 390.363 77.464,390.712 77.566,390.995 77.457 C 391.869 77.122,393.696 79.332,393.099 80.002 C 392.682 80.469,392.704 80.484,393.230 80.090 C 393.714 79.727,393.990 79.731,394.430 80.108 C 394.743 80.377,394.107 79.652,393.015 78.498 C 391.061 76.433,390.472 75.946,391.042 76.868 M4.392 82.610 C 4.114 82.945,4.002 83.335,4.143 83.476 C 4.284 83.618,4.418 83.478,4.440 83.167 C 4.462 82.855,4.627 83.050,4.807 83.600 C 5.109 84.522,5.130 84.499,5.082 83.300 C 5.021 81.792,5.048 81.819,4.392 82.610 M394.931 83.320 C 394.905 84.255,394.946 84.340,395.084 83.635 C 395.230 82.888,395.353 82.798,395.630 83.235 C 395.831 83.552,395.990 83.602,395.994 83.349 C 395.997 83.101,395.768 82.705,395.484 82.469 C 395.081 82.135,394.959 82.322,394.931 83.320 M9.100 171.498 C 11.355 171.570,15.045 171.570,17.300 171.498 C 19.555 171.427,17.710 171.369,13.200 171.369 C 8.690 171.369,6.845 171.427,9.100 171.498 M382.700 171.498 C 384.955 171.570,388.645 171.570,390.900 171.498 C 393.155 171.427,391.310 171.369,386.800 171.369 C 382.290 171.369,380.445 171.427,382.700 171.498 M27.389 198.800 C 27.389 213.430,27.439 219.415,27.500 212.100 C 27.561 204.785,27.561 192.815,27.500 185.500 C 27.439 178.185,27.389 184.170,27.389 198.800 M372.589 198.800 C 372.589 213.430,372.639 219.415,372.700 212.100 C 372.761 204.785,372.761 192.815,372.700 185.500 C 372.639 178.185,372.589 184.170,372.589 198.800 M26.589 199.800 C 26.589 214.540,26.639 220.512,26.700 213.071 C 26.761 205.630,26.761 193.570,26.700 186.271 C 26.639 178.972,26.589 185.060,26.589 199.800 M373.389 199.800 C 373.389 214.540,373.439 220.512,373.500 213.071 C 373.561 205.630,373.561 193.570,373.500 186.271 C 373.439 178.972,373.389 185.060,373.389 199.800 M28.006 223.700 C 28.012 224.594,28.782 226.209,28.794 225.352 C 28.798 225.061,29.398 224.972,30.500 225.099 C 34.929 225.606,191.489 225.909,190.093 225.407 C 189.400 225.158,160.735 224.931,111.800 224.787 C 33.313 224.556,28.800 224.465,28.800 223.111 C 28.800 222.940,28.620 222.800,28.400 222.800 C 28.180 222.800,28.003 223.205,28.006 223.700 M371.200 223.111 C 371.200 224.465,366.687 224.556,288.200 224.787 C 239.265 224.931,210.600 225.158,209.907 225.407 C 208.511 225.909,365.071 225.606,369.500 225.099 C 370.602 224.972,371.202 225.061,371.206 225.352 C 371.209 225.598,371.387 225.530,371.600 225.200 C 372.109 224.412,372.109 222.800,371.600 222.800 C 371.380 222.800,371.200 222.940,371.200 223.111 M26.806 295.500 C 26.824 296.377,27.588 296.959,27.594 296.100 C 27.597 295.605,27.420 295.200,27.200 295.200 C 26.980 295.200,26.803 295.335,26.806 295.500 M372.406 296.100 C 372.411 296.828,372.486 296.885,372.800 296.400 C 373.301 295.624,373.301 295.200,372.800 295.200 C 372.580 295.200,372.403 295.605,372.406 296.100 M28.400 295.913 C 28.400 296.085,28.895 296.263,29.500 296.309 C 30.342 296.373,30.459 296.301,30.000 296.002 C 29.275 295.531,28.400 295.482,28.400 295.913 M370.000 296.002 C 369.541 296.301,369.658 296.373,370.500 296.309 C 371.105 296.263,371.600 296.085,371.600 295.913 C 371.600 295.482,370.725 295.531,370.000 296.002 M115.900 296.300 C 162.155 296.356,237.845 296.356,284.100 296.300 C 330.355 296.244,292.510 296.198,200.000 296.198 C 107.490 296.198,69.645 296.244,115.900 296.300 M65.673 305.808 C 56.614 309.743,59.148 322.458,69.001 322.505 C 78.328 322.549,80.934 309.423,72.313 305.821 C 70.468 305.051,67.430 305.045,65.673 305.808 M327.600 305.816 C 320.779 308.876,320.462 318.474,327.079 321.600 C 334.863 325.277,342.734 317.536,338.900 309.974 C 336.902 306.033,331.526 304.055,327.600 305.816 M72.748 306.649 C 78.626 309.578,78.653 318.105,72.795 321.125 C 68.632 323.271,63.494 321.651,61.449 317.548 C 57.798 310.221,65.332 302.954,72.748 306.649 M334.313 306.221 C 342.318 309.565,340.597 321.301,332.010 321.922 C 326.332 322.333,322.530 318.778,322.874 313.380 C 323.239 307.634,329.027 304.013,334.313 306.221 " stroke="none" fill="#85a4ac" fill-rule="evenodd"></path><path id="path6" d="M0.200 92.000 C 0.064 92.220,0.223 92.400,0.553 92.400 C 0.883 92.400,1.264 92.220,1.400 92.000 C 1.536 91.780,1.377 91.600,1.047 91.600 C 0.717 91.600,0.336 91.780,0.200 92.000 M398.600 92.000 C 398.736 92.220,399.117 92.400,399.447 92.400 C 399.777 92.400,399.936 92.220,399.800 92.000 C 399.664 91.780,399.283 91.600,398.953 91.600 C 398.623 91.600,398.464 91.780,398.600 92.000 M1.600 92.556 C 1.600 97.331,15.675 99.639,20.200 95.606 C 21.329 94.600,23.413 93.600,24.380 93.600 C 24.831 93.600,25.200 93.439,25.200 93.242 C 25.200 92.591,22.581 93.460,19.768 95.043 L 17.000 96.600 12.400 96.600 C 6.943 96.600,5.398 96.148,3.201 93.906 C 2.320 93.007,1.600 92.400,1.600 92.556 M396.872 93.841 C 394.775 96.125,393.272 96.581,387.800 96.591 L 383.000 96.600 380.232 95.043 C 377.419 93.460,374.800 92.591,374.800 93.242 C 374.800 93.439,375.169 93.600,375.620 93.600 C 376.587 93.600,378.671 94.600,379.800 95.606 C 383.662 99.048,395.750 97.964,397.804 93.992 C 398.713 92.234,398.394 92.182,396.872 93.841 M64.631 363.794 C 63.768 364.102,62.508 364.930,61.831 365.634 L 60.600 366.916 62.200 365.674 C 64.871 363.600,65.414 363.569,97.400 363.689 L 127.000 363.800 129.360 365.496 C 130.657 366.429,131.973 367.554,132.282 367.996 C 132.592 368.438,133.022 368.800,133.239 368.800 C 134.251 368.800,128.810 364.288,126.941 363.578 C 125.206 362.918,66.518 363.122,64.631 363.794 M272.939 363.598 C 271.117 364.333,265.812 368.800,266.761 368.800 C 266.978 368.800,267.408 368.438,267.718 367.996 C 268.027 367.554,269.343 366.429,270.640 365.496 L 273.000 363.800 302.600 363.689 C 334.531 363.570,335.114 363.602,337.800 365.654 L 339.400 366.876 337.938 365.467 C 337.134 364.692,335.784 363.866,334.938 363.631 C 333.051 363.108,274.234 363.076,272.939 363.598 M59.100 368.033 C 58.715 368.455,58.552 368.800,58.738 368.800 C 58.924 368.800,59.402 368.440,59.800 368.000 C 60.198 367.560,60.361 367.215,60.162 367.233 C 59.963 367.252,59.485 367.612,59.100 368.033 M340.200 368.000 C 340.598 368.440,341.076 368.800,341.262 368.800 C 341.448 368.800,341.240 368.440,340.800 368.000 C 340.360 367.560,339.882 367.200,339.738 367.200 C 339.594 367.200,339.802 367.560,340.200 368.000 " stroke="none" fill="#84787c" fill-rule="evenodd"></path><path id="path7" d="M97.123 10.428 C 88.766 11.666,83.922 13.925,79.748 18.534 C 68.916 30.492,72.478 49.677,86.844 56.761 C 93.560 60.072,83.747 59.800,196.600 59.800 L 297.000 59.800 300.266 58.928 C 325.944 52.071,326.147 17.670,300.547 11.297 L 296.200 10.215 197.800 10.153 C 143.680 10.119,98.375 10.243,97.123 10.428 M300.350 12.702 C 324.002 18.133,323.997 50.820,300.343 57.286 L 297.000 58.200 196.400 58.200 L 95.800 58.200 92.462 57.287 C 71.396 51.528,68.368 24.783,87.612 14.436 C 89.639 13.346,93.837 12.382,98.800 11.866 C 99.570 11.786,144.390 11.747,198.400 11.781 L 296.600 11.841 300.350 12.702 M193.600 69.180 C 192.610 69.366,190.810 69.942,189.600 70.459 L 187.400 71.400 111.478 71.505 C 42.623 71.600,35.465 71.670,34.578 72.251 C 33.525 72.941,33.304 74.300,34.026 75.648 C 35.689 78.755,33.855 91.864,31.525 93.527 C 31.119 93.817,30.893 94.267,31.023 94.527 C 31.153 94.787,30.976 94.651,30.630 94.224 C 30.197 93.690,30.000 93.621,30.000 94.004 C 30.000 94.436,29.893 94.453,29.520 94.080 C 28.792 93.352,28.224 93.506,28.851 94.261 C 29.646 95.219,30.192 163.831,29.422 166.066 C 29.046 167.158,29.028 167.679,29.355 168.034 C 29.691 168.399,29.644 168.463,29.162 168.295 C 28.659 168.120,28.566 168.289,28.720 169.096 C 28.855 169.798,28.772 170.030,28.458 169.836 C 28.160 169.651,28.000 169.909,28.000 170.576 C 28.000 171.139,27.837 171.600,27.637 171.600 C 27.438 171.600,27.376 171.212,27.500 170.737 C 27.640 170.204,27.570 169.971,27.317 170.128 C 26.738 170.485,26.928 172.222,27.532 172.095 C 27.929 172.011,28.009 177.451,27.916 198.495 C 27.852 213.073,27.857 224.505,27.927 223.900 C 28.036 222.948,28.800 222.258,28.800 223.111 C 28.800 224.465,33.311 224.556,111.800 224.785 C 178.571 224.980,189.216 225.091,190.600 225.602 C 192.886 226.448,207.114 226.448,209.400 225.602 C 210.784 225.091,221.429 224.980,288.200 224.785 C 366.689 224.556,371.200 224.465,371.200 223.111 C 371.200 222.258,371.964 222.948,372.073 223.900 C 372.143 224.505,372.148 213.073,372.084 198.495 C 371.991 177.451,372.071 172.011,372.468 172.095 C 373.072 172.222,373.262 170.485,372.683 170.128 C 372.430 169.971,372.360 170.204,372.500 170.737 C 372.624 171.212,372.562 171.600,372.363 171.600 C 372.163 171.600,372.000 171.139,372.000 170.576 C 372.000 169.909,371.840 169.651,371.542 169.836 C 371.228 170.030,371.145 169.798,371.280 169.096 C 371.434 168.289,371.341 168.120,370.838 168.295 C 370.356 168.463,370.309 168.399,370.645 168.034 C 370.972 167.679,370.958 167.160,370.592 166.075 C 369.835 163.828,370.367 95.203,371.149 94.261 C 371.619 93.695,371.610 93.600,371.082 93.600 C 370.744 93.600,370.376 93.825,370.265 94.100 C 370.122 94.454,370.054 94.432,370.032 94.024 C 370.008 93.597,369.837 93.648,369.370 94.224 C 369.024 94.651,368.847 94.787,368.977 94.527 C 369.107 94.267,368.881 93.817,368.475 93.527 C 366.145 91.864,364.311 78.755,365.974 75.648 C 366.696 74.300,366.475 72.941,365.422 72.251 C 364.535 71.670,357.377 71.600,288.522 71.505 L 212.600 71.400 209.800 70.249 C 206.761 69.001,197.732 68.405,193.600 69.180 M209.600 71.626 L 211.800 72.600 287.883 72.800 C 363.374 72.998,363.970 73.006,364.583 73.800 C 365.095 74.464,365.160 75.450,364.964 79.600 C 364.808 82.898,364.895 85.417,365.220 87.000 C 365.878 90.204,367.221 219.063,366.622 221.455 C 366.057 223.707,369.982 223.600,287.892 223.600 C 222.630 223.600,212.182 223.680,209.465 224.200 C 205.282 225.000,194.718 225.000,190.535 224.200 C 187.818 223.680,177.370 223.600,112.108 223.600 C 30.012 223.600,33.943 223.707,33.378 221.454 C 32.753 218.966,34.096 90.347,34.781 87.000 C 35.105 85.420,35.192 82.891,35.036 79.600 C 34.840 75.450,34.905 74.464,35.417 73.800 C 36.030 73.006,36.626 72.998,112.117 72.800 L 188.200 72.600 190.216 71.739 C 194.270 70.008,205.793 69.941,209.600 71.626 M28.700 209.529 C 28.638 216.278,28.588 210.640,28.588 197.000 C 28.588 183.360,28.638 177.838,28.700 184.729 C 28.761 191.620,28.761 202.780,28.700 209.529 M371.500 209.529 C 371.438 216.278,371.388 210.640,371.388 197.000 C 371.388 183.360,371.438 177.838,371.500 184.729 C 371.561 191.620,371.561 202.780,371.500 209.529 M26.989 199.000 C 26.989 213.520,27.039 219.402,27.100 212.071 C 27.161 204.740,27.161 192.860,27.100 185.671 C 27.039 178.482,26.989 184.480,26.989 199.000 M372.989 199.000 C 372.989 213.520,373.039 219.402,373.100 212.071 C 373.161 204.740,373.161 192.860,373.100 185.671 C 373.039 178.482,372.989 184.480,372.989 199.000 " stroke="none" fill="#6e939c" fill-rule="evenodd"></path><path id="path8" d="M35.900 2.248 C 34.635 3.478,33.600 4.727,33.600 5.023 C 33.600 5.318,33.375 5.704,33.100 5.880 C 32.825 6.056,32.346 6.650,32.036 7.200 C 31.511 8.131,31.519 8.161,32.161 7.630 C 32.790 7.110,32.827 7.153,32.582 8.130 C 32.360 9.015,32.448 9.200,33.090 9.200 C 33.883 9.200,34.220 8.010,33.433 7.987 C 33.195 7.980,33.312 7.737,33.694 7.448 C 34.075 7.158,34.272 6.805,34.131 6.664 C 33.989 6.523,33.628 6.611,33.328 6.860 C 32.895 7.219,32.835 7.174,33.038 6.645 C 33.206 6.208,33.555 6.059,34.047 6.215 C 34.523 6.366,34.802 6.260,34.806 5.927 C 34.811 5.535,34.923 5.554,35.244 6.000 C 35.603 6.499,35.635 6.477,35.438 5.867 C 35.307 5.464,35.200 5.037,35.200 4.918 C 35.200 4.799,34.930 4.926,34.600 5.200 C 33.401 6.195,33.984 4.789,35.310 3.487 C 37.703 1.136,38.164 0.854,37.815 1.953 C 37.589 2.664,37.640 2.822,38.019 2.588 C 38.347 2.386,38.424 2.438,38.238 2.738 C 38.067 3.015,38.213 3.200,38.600 3.200 C 38.956 3.200,39.137 3.378,39.003 3.595 C 38.863 3.822,39.023 3.889,39.379 3.753 C 39.721 3.622,40.000 3.343,40.000 3.134 C 40.000 2.924,39.839 2.852,39.642 2.974 C 39.445 3.096,39.181 2.926,39.054 2.598 C 38.775 1.869,39.631 1.806,40.379 2.500 C 40.817 2.906,40.876 2.880,40.695 2.362 C 40.522 1.865,40.688 1.766,41.450 1.912 C 42.372 2.088,42.401 2.039,41.955 1.061 C 41.490 0.040,40.751 -0.121,39.657 0.562 C 39.200 0.847,39.200 0.958,39.657 1.267 C 40.046 1.531,39.925 1.601,39.231 1.517 C 38.053 1.375,37.679 0.539,38.678 0.280 C 39.166 0.154,39.205 0.079,38.800 0.051 C 38.470 0.029,37.165 1.017,35.900 2.248 M42.400 0.424 C 42.400 0.657,42.611 0.717,42.868 0.558 C 43.181 0.365,43.253 0.485,43.085 0.922 C 42.948 1.281,42.987 1.668,43.172 1.783 C 43.357 1.897,43.600 1.645,43.710 1.221 C 43.830 0.765,43.672 0.360,43.323 0.226 C 42.511 -0.086,42.400 -0.062,42.400 0.424 M356.542 0.251 C 356.291 0.354,356.176 0.788,356.288 1.215 C 356.400 1.642,356.643 1.897,356.828 1.783 C 357.013 1.668,357.052 1.281,356.915 0.922 C 356.747 0.485,356.819 0.365,357.132 0.558 C 357.389 0.717,357.600 0.657,357.600 0.424 C 357.600 -0.019,357.314 -0.065,356.542 0.251 M358.045 1.061 C 357.599 2.039,357.628 2.088,358.550 1.912 C 359.312 1.766,359.478 1.865,359.305 2.362 C 359.124 2.880,359.183 2.906,359.621 2.500 C 360.369 1.806,361.225 1.869,360.946 2.598 C 360.819 2.926,360.555 3.096,360.358 2.974 C 360.161 2.852,360.000 2.924,360.000 3.134 C 360.000 3.343,360.279 3.622,360.621 3.753 C 360.977 3.889,361.137 3.822,360.997 3.595 C 360.863 3.378,361.044 3.200,361.400 3.200 C 361.787 3.200,361.933 3.015,361.762 2.738 C 361.576 2.438,361.653 2.386,361.981 2.588 C 362.360 2.822,362.411 2.664,362.185 1.953 C 361.836 0.854,362.297 1.136,364.690 3.487 C 365.990 4.763,366.613 6.207,365.447 5.239 C 365.019 4.884,364.838 4.923,364.651 5.411 C 364.512 5.775,364.576 5.938,364.805 5.797 C 365.022 5.663,365.200 5.756,365.200 6.003 C 365.200 6.272,365.523 6.351,366.000 6.200 C 366.459 6.054,366.800 6.128,366.800 6.373 C 366.800 6.608,366.665 6.779,366.500 6.753 C 365.638 6.617,365.531 6.863,366.224 7.387 C 366.876 7.881,366.896 7.977,366.349 7.987 C 365.991 7.994,365.437 7.607,365.118 7.127 C 364.667 6.448,364.464 6.372,364.207 6.788 C 363.994 7.133,364.030 7.229,364.309 7.056 C 364.779 6.766,365.387 8.173,365.037 8.740 C 364.919 8.931,365.464 9.016,366.249 8.930 C 367.280 8.816,367.628 8.915,367.505 9.285 C 367.411 9.566,367.036 9.797,366.672 9.798 C 366.307 9.799,366.007 9.935,366.004 10.100 C 365.981 11.648,366.053 12.000,366.390 12.000 C 366.643 12.000,366.642 11.636,366.387 10.966 C 366.112 10.242,366.124 9.975,366.427 10.076 C 366.665 10.155,366.831 10.375,366.796 10.565 C 366.728 10.930,367.574 11.584,368.129 11.594 C 368.309 11.597,368.150 11.293,367.775 10.918 C 367.334 10.477,367.253 10.182,367.546 10.085 C 368.151 9.883,368.124 8.691,367.500 8.030 C 367.098 7.603,367.110 7.534,367.566 7.672 C 368.220 7.871,370.441 12.010,370.148 12.484 C 370.041 12.658,370.143 12.800,370.376 12.800 C 370.609 12.800,370.800 12.732,370.800 12.649 C 370.800 12.096,369.358 9.183,368.561 8.127 C 368.032 7.426,367.600 6.681,367.600 6.469 C 367.600 6.258,367.330 5.982,367.000 5.855 C 366.670 5.729,366.400 5.369,366.400 5.055 C 366.400 4.281,361.951 -0.000,361.200 0.051 C 360.795 0.079,360.834 0.154,361.322 0.280 C 362.321 0.539,361.947 1.375,360.769 1.517 C 360.075 1.601,359.954 1.531,360.343 1.267 C 360.800 0.958,360.800 0.847,360.343 0.562 C 359.249 -0.121,358.510 0.040,358.045 1.061 M36.198 4.002 C 35.202 5.103,35.611 5.333,37.177 4.551 C 38.155 4.063,38.348 3.813,37.942 3.556 C 37.168 3.065,37.009 3.106,36.198 4.002 M362.058 3.556 C 361.652 3.813,361.845 4.063,362.823 4.551 C 364.389 5.333,364.798 5.103,363.802 4.002 C 362.991 3.106,362.832 3.065,362.058 3.556 M96.400 6.453 C 82.285 8.090,73.815 15.755,69.885 30.450 L 68.642 35.100 69.973 39.850 C 73.146 51.169,76.374 55.506,85.220 60.336 C 90.919 63.447,81.918 63.226,197.800 63.103 L 301.400 62.993 303.800 62.163 C 309.577 60.166,315.501 55.470,319.124 50.018 C 321.581 46.319,322.047 44.870,323.207 37.316 C 323.680 34.231,322.274 25.146,320.961 22.815 C 316.531 14.945,310.929 10.275,303.400 8.173 C 302.080 7.805,300.819 7.360,300.599 7.185 C 299.241 6.106,289.586 6.002,195.916 6.052 C 142.832 6.081,98.050 6.261,96.400 6.453 M34.589 7.340 C 34.362 7.593,34.237 8.098,34.311 8.463 C 34.466 9.235,33.944 9.633,32.577 9.783 C 31.687 9.880,31.406 9.572,31.563 8.670 C 31.594 8.489,31.417 8.466,31.169 8.619 C 30.617 8.960,29.474 11.608,29.757 11.890 C 29.869 12.003,30.077 11.634,30.218 11.071 C 30.435 10.208,30.663 10.071,31.675 10.199 C 33.615 10.445,34.674 9.831,34.903 8.329 C 35.140 6.773,35.129 6.737,34.589 7.340 M300.547 11.297 C 326.147 17.670,325.944 52.071,300.266 58.928 L 297.000 59.800 196.600 59.800 C 83.747 59.800,93.560 60.072,86.844 56.761 C 72.478 49.677,68.916 30.492,79.748 18.534 C 83.922 13.925,88.766 11.666,97.123 10.428 C 98.375 10.243,143.680 10.119,197.800 10.153 L 296.200 10.215 300.547 11.297 M31.739 11.513 C 31.612 11.996,31.386 12.315,31.235 12.222 C 30.595 11.826,29.769 12.780,30.400 13.187 C 30.788 13.437,31.048 13.436,31.134 13.185 C 31.208 12.970,31.428 12.893,31.622 13.014 C 32.042 13.273,32.616 11.283,32.232 10.899 C 32.087 10.754,31.865 11.030,31.739 11.513 M29.878 13.879 C 29.770 14.055,30.110 14.521,30.633 14.912 C 31.569 15.614,31.578 15.612,31.254 14.733 C 30.902 13.783,30.201 13.348,29.878 13.879 M28.400 14.824 C 28.400 15.277,28.580 15.536,28.800 15.400 C 29.020 15.264,29.200 14.893,29.200 14.576 C 29.200 14.259,29.020 14.000,28.800 14.000 C 28.580 14.000,28.400 14.371,28.400 14.824 M370.092 14.875 C 370.151 15.164,369.992 15.361,369.738 15.313 C 369.484 15.265,369.178 15.480,369.058 15.792 C 368.915 16.167,369.037 16.284,369.420 16.137 C 370.238 15.823,370.143 16.668,369.300 17.210 C 368.693 17.601,368.689 17.633,369.269 17.455 C 369.744 17.308,370.061 17.599,370.359 18.454 C 370.590 19.117,370.964 19.546,371.190 19.406 C 371.415 19.267,371.601 19.388,371.603 19.676 C 371.605 19.964,372.055 20.408,372.603 20.662 C 373.737 21.188,374.050 19.986,373.087 18.800 C 372.523 18.105,370.979 17.718,371.383 18.373 C 371.529 18.608,371.476 18.800,371.266 18.800 C 370.822 18.800,370.283 17.584,370.591 17.276 C 370.706 17.161,370.800 17.260,370.800 17.496 C 370.800 17.732,371.132 17.838,371.539 17.732 C 372.542 17.470,372.224 16.016,370.959 15.075 C 370.298 14.584,370.018 14.520,370.092 14.875 M29.034 16.100 C 28.603 17.085,28.454 17.206,28.417 16.600 C 28.381 16.009,28.215 16.155,27.778 17.161 C 27.453 17.909,27.264 18.597,27.357 18.691 C 27.451 18.784,27.638 18.512,27.773 18.086 C 27.943 17.549,28.321 17.345,29.007 17.421 C 29.551 17.480,30.115 17.337,30.260 17.103 C 30.427 16.833,30.331 16.795,29.999 17.000 C 29.592 17.252,29.531 17.043,29.728 16.062 C 30.053 14.435,29.755 14.452,29.034 16.100 M29.422 19.088 C 29.276 19.466,29.286 19.648,29.442 19.491 C 29.598 19.335,29.954 19.396,30.232 19.626 C 30.618 19.947,30.687 19.853,30.522 19.223 C 30.260 18.220,29.777 18.161,29.422 19.088 M26.700 19.429 C 26.535 19.596,26.400 20.189,26.400 20.747 C 26.400 21.475,26.522 21.638,26.834 21.326 C 27.072 21.088,27.207 20.494,27.134 20.008 C 27.060 19.522,26.865 19.261,26.700 19.429 M27.761 20.064 C 27.640 20.260,27.689 20.370,27.870 20.310 C 28.052 20.249,28.245 20.380,28.300 20.600 C 28.355 20.820,28.196 21.000,27.946 21.000 C 27.303 21.000,26.804 22.561,27.231 23.236 C 27.490 23.646,27.603 23.664,27.644 23.300 C 27.767 22.204,27.811 22.056,28.100 21.767 C 28.265 21.602,28.400 21.687,28.400 21.957 C 28.400 22.227,28.580 22.336,28.800 22.200 C 29.020 22.064,29.200 22.128,29.200 22.343 C 29.200 22.558,28.975 22.824,28.700 22.935 C 28.384 23.062,28.442 23.148,28.857 23.168 C 29.219 23.186,29.622 22.919,29.754 22.575 C 29.889 22.225,30.199 22.076,30.459 22.236 C 30.752 22.417,30.816 22.349,30.632 22.051 C 30.471 21.791,30.038 21.629,29.670 21.689 C 29.292 21.752,29.000 21.539,29.000 21.200 C 29.000 20.870,29.313 20.625,29.696 20.655 C 30.078 20.685,30.306 20.571,30.202 20.403 C 29.908 19.928,28.008 19.664,27.761 20.064 M371.966 21.100 C 371.630 24.025,371.954 25.096,372.687 23.487 C 372.923 22.971,372.952 22.223,372.759 21.700 C 372.431 20.814,372.033 20.513,371.966 21.100 M373.500 22.610 C 373.394 23.165,373.463 23.715,373.654 23.833 C 373.844 23.951,374.000 23.497,374.000 22.824 C 374.000 21.339,373.763 21.237,373.500 22.610 M26.000 23.024 C 26.000 23.587,26.163 23.946,26.362 23.823 C 26.562 23.700,26.631 23.239,26.516 22.800 C 26.228 21.699,26.000 21.798,26.000 23.024 M26.800 46.376 C 26.800 70.048,26.769 69.025,27.484 68.947 C 27.751 68.918,27.931 69.083,27.884 69.313 C 27.775 69.855,30.290 70.403,31.369 70.074 C 34.378 69.154,365.622 69.154,368.631 70.074 C 369.710 70.403,372.225 69.855,372.116 69.313 C 372.069 69.083,372.297 68.918,372.622 68.947 C 373.191 68.998,373.567 25.033,373.002 24.469 C 372.639 24.106,372.083 26.200,372.442 26.580 C 372.643 26.794,372.800 35.875,372.800 47.309 C 372.800 68.459,372.803 68.426,371.286 65.800 C 370.883 65.101,370.823 65.088,370.812 65.700 C 370.805 66.085,370.609 66.400,370.376 66.400 C 370.143 66.400,370.064 66.580,370.200 66.800 C 370.591 67.433,369.752 67.265,369.200 66.600 C 368.926 66.270,368.499 66.003,368.251 66.006 C 368.003 66.009,368.070 66.204,368.400 66.437 C 368.848 66.755,368.695 66.785,367.800 66.556 C 367.140 66.388,331.950 66.197,289.600 66.132 C 239.771 66.056,211.742 65.871,210.167 65.607 C 207.018 65.080,192.982 65.080,189.833 65.607 C 188.258 65.871,160.229 66.056,110.400 66.132 C 68.050 66.197,32.860 66.388,32.200 66.556 C 31.305 66.785,31.152 66.755,31.600 66.437 C 31.930 66.204,31.997 66.009,31.749 66.006 C 31.501 66.003,31.074 66.270,30.800 66.600 C 30.248 67.265,29.409 67.433,29.800 66.800 C 29.936 66.580,29.857 66.400,29.624 66.400 C 29.391 66.400,29.195 66.085,29.188 65.700 C 29.177 65.088,29.117 65.101,28.714 65.800 C 27.197 68.427,27.200 68.461,27.200 47.252 C 27.200 35.490,27.354 26.752,27.562 26.623 C 27.976 26.368,27.682 24.898,27.152 24.570 C 26.951 24.446,26.800 33.811,26.800 46.376 M25.600 48.280 C 25.490 59.984,25.537 69.424,25.704 69.257 C 25.871 69.089,25.961 59.513,25.903 47.976 L 25.800 27.000 25.600 48.280 M374.091 48.076 C 374.041 59.668,374.135 69.236,374.300 69.338 C 374.573 69.507,374.568 54.176,374.290 34.600 C 374.230 30.420,374.141 36.484,374.091 48.076 M25.771 206.800 C 25.765 225.390,25.859 237.720,25.980 234.200 C 26.101 230.680,26.106 215.470,25.991 200.400 L 25.781 173.000 25.771 206.800 M373.913 200.500 C 373.851 215.515,373.899 230.680,374.020 234.200 C 374.141 237.720,374.276 225.435,374.320 206.900 C 374.364 188.365,374.316 173.200,374.213 173.200 C 374.110 173.200,373.975 185.485,373.913 200.500 M27.300 225.065 C 26.917 225.220,26.821 227.427,26.888 234.533 L 26.976 243.800 27.200 235.000 C 27.323 230.160,27.478 226.920,27.543 227.800 C 27.609 228.680,27.754 229.175,27.865 228.900 C 27.976 228.625,28.332 228.400,28.657 228.400 C 28.982 228.400,29.136 228.580,29.000 228.799 C 28.865 229.019,29.034 229.599,29.377 230.088 L 30.000 230.978 30.000 230.116 L 30.000 229.253 107.543 229.214 C 168.529 229.183,185.717 229.283,188.043 229.683 C 189.834 229.990,194.547 230.190,200.000 230.190 C 205.453 230.190,210.166 229.990,211.957 229.683 C 214.283 229.283,231.471 229.183,292.457 229.214 L 370.000 229.253 370.000 230.116 L 370.000 230.978 370.623 230.088 C 370.966 229.599,371.135 229.019,371.000 228.799 C 370.864 228.580,371.018 228.400,371.343 228.400 C 371.668 228.400,372.024 228.625,372.135 228.900 C 372.246 229.175,372.391 228.680,372.457 227.800 C 372.522 226.920,372.677 230.160,372.800 235.000 L 373.024 243.800 373.112 234.543 C 373.191 226.214,373.133 225.260,372.532 225.029 C 372.164 224.888,371.718 225.003,371.538 225.286 C 371.335 225.606,371.210 225.631,371.206 225.352 C 371.202 225.062,370.600 224.971,369.500 225.094 C 367.588 225.308,337.864 225.502,259.600 225.809 C 185.095 226.101,35.626 225.640,30.600 225.102 C 29.701 225.006,28.871 225.122,28.706 225.366 C 28.506 225.662,28.410 225.641,28.406 225.300 C 28.400 224.779,28.143 224.725,27.300 225.065 M27.753 234.200 C 27.753 236.840,27.818 237.868,27.897 236.484 C 27.975 235.101,27.974 232.941,27.895 231.684 C 27.816 230.428,27.752 231.560,27.753 234.200 M372.153 234.200 C 372.153 236.840,372.218 237.868,372.297 236.484 C 372.375 235.101,372.374 232.941,372.295 231.684 C 372.216 230.428,372.152 231.560,372.153 234.200 M28.550 234.200 C 28.551 236.620,28.616 237.558,28.696 236.285 C 28.776 235.012,28.775 233.032,28.694 231.885 C 28.614 230.738,28.549 231.780,28.550 234.200 M371.350 234.200 C 371.351 236.620,371.416 237.558,371.496 236.285 C 371.576 235.012,371.575 233.032,371.494 231.885 C 371.414 230.738,371.349 231.780,371.350 234.200 " stroke="none" fill="#70b0c0" fill-rule="evenodd"></path></g></svg>