<svg id="esV4LXaKxdf1" xmlns="http://www.w3.org/2000/svg" xmlns:xlink="http://www.w3.org/1999/xlink" viewBox="0 0 64 64" shape-rendering="geometricPrecision" text-rendering="geometricPrecision"><defs><radialGradient id="esV4LXaKxdf52-fill" cx="0" cy="0" r="0.752868" spreadMethod="pad" gradientUnits="objectBoundingBox" gradientTransform="translate(0.5 0.5)"><stop id="esV4LXaKxdf52-fill-0" offset="0%" stop-color="#f80303"/><stop id="esV4LXaKxdf52-fill-1" offset="100%" stop-color="#fd0202"/></radialGradient></defs><g><polygon points="48,38.308 48,26 44,26 44,34.615 48,38.308" fill="#758190"/><path d="M4,56c-1.104569,0-2-.895431-2-2v-8c0-2.209139,1.790861-4,4-4h52c2.209139,0,4,1.790861,4,4v8c0,1.104569-.895431,2-2,2Z" fill="#f9d18b"/><path d="M59,48h3v-2c0-2.209139-1.790861-4-4-4h-2v3c0,1.656854,1.343146,3,3,3Z" fill="#ed5c58"/><path d="M9,52c9.493873.089837,18.6551-3.493106,25.569-10L6,42c-2.209139,0-4,1.790861-4,4v5.369c2.309557.4208,4.652421.631993,7,.631Z" fill="#fbe3b9"/><path d="M2,46v4c2.209139,0,4-1.790861,4-4v-4c-2.209139,0-4,1.790861-4,4Z" fill="#ed5c58"/><path d="M8,42l4.734-7.1c2.039821-3.060965,5.474634-4.89977,9.153-4.9h12.813c2.76524-.000024,5.429051,1.041437,7.461,2.917L52,42Z" fill="#7fcdee"/><path d="M34.569,42c2.888611-2.759952,5.22256-6.047031,6.876-9.684C39.51625,30.816376,37.143142,30.001533,34.7,30h-12.813c-3.678366.00023-7.113179,1.839035-9.153,4.9L8,42Z" fill="#b2e1f5"/><rect width="32" height="20" rx="0" ry="0" transform="translate(30 2)" fill="#f9d18b"/><path d="M30,2v14.723c2.237383.843772,4.608801,1.276387,7,1.277c9.779,0,17.825-7,18.876-16Z" fill="#fbe3b9"/><circle r="6" transform="translate(14 56)" fill="#758190"/><circle r="2" transform="translate(14 56)" fill="#fff"/><circle r="6" transform="translate(48 56)" fill="#758190"/><circle r="2" transform="translate(48 56)" fill="#fff"/><rect width="4" height="12" rx="0" ry="0" transform="translate(25 30)" fill="#758190"/><rect width="16" height="4" rx="0" ry="0" transform="translate(20 26)" fill="#f9d18b"/><rect width="8" height="4" rx="0" ry="0" transform="translate(42 22)" fill="#758190"/><path d="M8,56h-4c-1.104569,0-2-.895431-2-2v-8c0-2.209139,1.790861-4,4-4h52c2.209139,0,4,1.790861,4,4v8c0,1.104569-.895431,2-2,2h-6" fill="none" stroke="#000" stroke-width="2" stroke-linejoin="round"/><path d="M8,42l4.734-7.1c2.039821-3.060965,5.474634-4.89977,9.153-4.9h12.813c2.76524-.000024,5.429051,1.041437,7.461,2.917L52,42" fill="none" stroke="#000" stroke-width="2" stroke-linejoin="round"/><path d="M62,48h-3c-1.656854,0-3-1.343146-3-3v-3" fill="none" stroke="#000" stroke-width="2" stroke-linejoin="round"/><circle r="6" transform="translate(48 56)" fill="none" stroke="#000" stroke-width="2" stroke-linejoin="round"/><circle r="6" transform="translate(14 56)" fill="none" stroke="#000" stroke-width="2" stroke-linejoin="round"/><path d="M6,42v4c0,2.209139-1.790861,4-4,4v0" fill="none" stroke="#000" stroke-width="2" stroke-linejoin="round"/><polyline points="36.023,30 36.023,26 20,26 20,30" fill="none" stroke="#000" stroke-width="2" stroke-linejoin="round"/><circle r="2" transform="translate(48 56)" fill="none" stroke="#000" stroke-width="2" stroke-linejoin="round"/><circle r="2" transform="translate(14 56)" fill="none" stroke="#000" stroke-width="2" stroke-linejoin="round"/><line x1="42" y1="56" x2="20" y2="56" fill="none" stroke="#000" stroke-width="2" stroke-linejoin="round"/><line x1="25.023" y1="30" x2="25.023" y2="42" fill="none" stroke="#000" stroke-width="2" stroke-linejoin="round"/><line x1="29.023" y1="30" x2="29.023" y2="42" fill="none" stroke="#000" stroke-width="2" stroke-linejoin="round"/><line x1="23" y1="47" x2="23" y2="49" fill="none" stroke="#000" stroke-width="2" stroke-linejoin="round"/><line x1="25" y1="45" x2="25" y2="47" fill="none" stroke="#000" stroke-width="2" stroke-linejoin="round"/><line x1="27" y1="47" x2="27" y2="49" fill="none" stroke="#000" stroke-width="2" stroke-linejoin="round"/><line x1="29" y1="45" x2="29" y2="47" fill="none" stroke="#000" stroke-width="2" stroke-linejoin="round"/><line x1="31" y1="47" x2="31" y2="49" fill="none" stroke="#000" stroke-width="2" stroke-linejoin="round"/><line x1="33" y1="45" x2="33" y2="47" fill="none" stroke="#000" stroke-width="2" stroke-linejoin="round"/><line x1="35" y1="47" x2="35" y2="49" fill="none" stroke="#000" stroke-width="2" stroke-linejoin="round"/><line x1="37" y1="45" x2="37" y2="47" fill="none" stroke="#000" stroke-width="2" stroke-linejoin="round"/><line x1="39" y1="47" x2="39" y2="49" fill="none" stroke="#000" stroke-width="2" stroke-linejoin="round"/><rect width="32" height="20" rx="0" ry="0" transform="translate(30 2)" fill="none" stroke="#000" stroke-width="2" stroke-linejoin="round"/><line x1="33" y1="9" x2="39" y2="9" fill="none" stroke="#000" stroke-width="2" stroke-linejoin="round"/><line x1="36" y1="9" x2="36" y2="16" fill="none" stroke="#000" stroke-width="2" stroke-linejoin="round"/><path d="M42,16v-5c0-1.104569.895431-2,2-2v0c1.104569,0,2,.895431,2,2v5" fill="none" stroke="#000" stroke-width="2" stroke-linejoin="round"/><line x1="42" y1="13" x2="46" y2="13" fill="none" stroke="#000" stroke-width="2" stroke-linejoin="round"/><path d="M50,8v0c-.000047,1.280483.508585,2.508538,1.414,3.414l1.172,1.172c.905415.905462,1.414047,2.133517,1.414,3.414v0" fill="none" stroke="#000" stroke-width="2" stroke-linejoin="round"/><path d="M54,8v0c.000047,1.280483-.508585,2.508538-1.414,3.414l-1.172,1.172C50.508585,13.491462,49.999953,14.719517,50,16v0" fill="none" stroke="#000" stroke-width="2" stroke-linejoin="round"/><line x1="58" y1="8" x2="58" y2="16" fill="none" stroke="#000" stroke-width="2" stroke-linejoin="round"/><polyline points="42,22 42,26 50,26 50,22" fill="none" stroke="#000" stroke-width="2" stroke-linejoin="round"/><line x1="44" y1="26" x2="44" y2="35" fill="none" stroke="#000" stroke-width="2" stroke-linejoin="round"/><line x1="48" y1="26" x2="48" y2="38" fill="none" stroke="#000" stroke-width="2" stroke-linejoin="round"/></g><line x1="-32" y1="-32" x2="32" y2="32" transform="translate(32 32)" fill="none" stroke="#f00"/><line x1="-32" y1="32" x2="32" y2="-32" transform="translate(32 32)" fill="url(#esV4LXaKxdf52-fill)" stroke="#f00"/></svg>
