<svg id="eYu6EJUltNz1" xmlns="http://www.w3.org/2000/svg" xmlns:xlink="http://www.w3.org/1999/xlink" viewBox="0 0 400 400" shape-rendering="geometricPrecision" text-rendering="geometricPrecision"><g><path d="M59.684,193.676c-.993.993-.667,87.124.329,87.124.835,0,3.587-2.445,3.587-3.187c0-.227.169-.413.375-.413s1.472-1.035,2.814-2.3c1.341-1.265,3.25-2.93,4.242-3.7.991-.77,2.155-1.715,2.586-2.1s.963-.7,1.183-.7.4-.18.4-.4.32-.4.712-.4c.391,0,.971-.36,1.288-.8s.882-.8,1.255-.8.738-.135.812-.3c.167-.376,2.297-1.675,3.233-1.971.385-.122.7-.381.7-.576c0-.194.36-.353.8-.353s.8-.18.8-.4.36-.4.8-.4.8-.16.8-.356.81-.595,1.8-.887s1.8-.672,1.8-.844.349-.313.776-.313.888-.18,1.024-.4.687-.4,1.224-.4.976-.16.976-.356.585-.45,1.3-.564c1.841-.295,2.331-.429,3.802-1.039l1.303-.54-.103-31.451-.102-31.45-20.016-.104c-15.236-.079-20.132.012-20.5.38M116.4,280.261C92.631,281.55,73.238,298.909,67.535,324c-.677,2.977-.663,15.902.02,18.8c2.891,12.272,7.152,20.309,14.844,28.001c16.158,16.158,39.775,20.191,60.708,10.366c14.753-6.924,25.998-21.46,29.069-37.579.31-1.629.477-3.102.37-3.275-.106-.172-12.231-.313-26.944-.313-17.89,0-27.123-.141-27.876-.425-1.794-.676-3.6-2.696-4.142-4.633-.807-2.881-.143-4.283,4.791-10.121.847-1.002,6.193-7.414,11.882-14.25s12.116-14.536,14.284-17.111c4.614-5.481,4.681-4.99-1.064-7.77-8.893-4.303-17.184-5.966-27.077-5.429M330,280.26c-3.617.196-9.458,1.272-12.5,2.303-.385.13-.959.317-1.276.415-.425.132,2.56,6.442,11.397,24.1c6.584,13.157,12.078,24.478,12.208,25.158.853,4.465-3.86,8.72-8.213,7.416-2.933-.879-3.14-1.225-15.623-26.16-6.634-13.25-12.131-24.162-12.217-24.248-.318-.321-4.886,3.461-8.176,6.768-7.061,7.098-11.654,15.265-13.941,24.788-7.095,29.539,11.792,58.879,41.741,64.842c3.637.725,16.734.747,19.8.034c22.844-5.31,37.166-19.632,42.476-42.476.713-3.066.691-16.163-.034-19.8-5.271-26.477-28.644-44.598-55.642-43.14M146.816,311.634L134.68,326.2l18.923.104c10.407.057,18.977.049,19.045-.018.067-.067-.242-1.904-.687-4.081-1.667-8.159-6.088-17.161-11.477-23.371l-1.532-1.766-12.136,14.566m78.691,8.656c.719.089,1.799.087,2.4-.004s.013-.164-1.307-.162-1.812.077-1.093.166M222,320.8c-.533.345-.533.388,0,.388.33,0,.87-.175,1.2-.388.533-.345.533-.388,0-.388-.33,0-.87.175-1.2.388m8,0c.33.213.87.388,1.2.388.533,0,.533-.043,0-.388-.33-.213-.87-.388-1.2-.388-.533,0-.533.043,0,.388m-10.597,1.313c-6.994,5.186-8.154,13.889-2.665,19.996c1.622,1.804,4.679,3.902,5.64,3.871.342-.011-.123-.381-1.033-.823-9.722-4.719-10.216-16.916-.941-23.236.548-.373.816-.683.596-.687-.22-.005-.939.391-1.597.879M232.2,321.6c.136.22.482.4.768.4.287,0,1.333.765,2.326,1.7c6.849,6.449,5.212,17.374-3.199,21.357-1.042.493-1.663.907-1.379.92c1.038.046,3.82-1.686,5.527-3.442c4.826-4.966,5.057-12.727.532-17.868-1.889-2.147-5.504-4.569-4.575-3.067M224,346.421c1.338.4,4.407.401,5.4,0c.491-.198-.592-.318-2.8-.311-2.237.007-3.221.124-2.6.311m14.8,10.755c-2.065,1.091-5.931,2.288-8.417,2.604-3.691.47-3.952.724-3.098,3.02.563,1.511,1.251,4.245,1.176,4.67-.045.258.103.584.328.723.226.14.411.773.411,1.407s.18,1.264.4,1.4.4.601.4,1.034c0,1.415,9.497,2.287,14.35,1.316c1.246-.249,1.746-1.396.85-1.95-.22-.136-.4-.877-.4-1.647c0-.832-.162-1.3-.4-1.153-.221.137-.4-.153-.4-.648c0-.941-.654-3.268-1.249-4.447-.193-.382-.351-1.237-.351-1.9s-.18-1.205-.4-1.205-.4-.552-.4-1.226c0-2.6-.707-3.105-2.8-1.998" fill="#b5bebe" fill-rule="evenodd"/><path d="M130.8,219.62c0,.209-.36.38-.8.38s-.8.18-.8.4-.225.404-.5.409c-1.289.022-2.611,2.918-2.611,5.721c0,2.667.741,5.07,1.564,5.07.217,0,.291.167.164.372-.126.204.394.597,1.155.873.762.275,1.3.638,1.196.807-.307.496,25.442.438,26.041-.059.346-.287,3.044-.355,8.252-.207c4.257.121,11.638.315,16.403.431l8.664.212l1.836-1.734c1.01-.954,1.836-2.04,1.836-2.414c0-.375.18-.681.4-.681.222,0,.4-1.059.4-2.376c0-1.307-.18-2.488-.4-2.624s-.4-.513-.4-.837c0-.778-2.603-3.363-3.387-3.363-.337,0-.613-.18-.613-.4c0-.635-28.287-.54-28.498.095-.131.393-.395.391-1.273-.009-1.362-.621-28.629-.684-28.629-.066M111.6,266.4c-.33.213-1.534.391-2.676.394s-2.188.186-2.324.406-1.047.4-2.024.4-1.776.18-1.776.4-.54.4-1.2.4-1.2.18-1.2.4-.641.4-1.424.4c-.847,0-1.323.162-1.176.4.14.226-.188.4-.753.4-.55,0-1.111.18-1.247.4s-.561.4-.944.4c-.875,0-2.849.899-2.853,1.3-.002.165-.363.3-.803.3s-.8.18-.8.4-.36.4-.8.4-.8.18-.8.4-.36.4-.8.4-.8.18-.8.4-.274.4-.608.4c-.682,0-3.918,1.931-4.126,2.462-.074.189-.299.241-.5.117s-.366-.025-.366.221-.147.356-.327.245-.58.148-.888.576c-.309.429-.79.779-1.07.779-.279,0-.733.36-1.008.8s-.681.802-.903.804-.829.542-1.349,1.2-1.093,1.196-1.274,1.196c-.393,0-4.779,4.332-4.785,4.726-.003.151-.768,1.112-1.7,2.136-2.524,2.77-3.096,3.503-3.096,3.966c0,.231-.18.308-.4.172s-.4.033-.4.376-.18.624-.4.624-.4.27-.4.6-.135.603-.3.606c-.165.004-.74.904-1.279,2-.538,1.097-1.134,1.994-1.323,1.994-.19,0-.243.165-.118.368.125.202-.057.652-.405,1-.348.347-.523.632-.389.632.133,0,.017.405-.258.9s-.506,1.02-.514,1.167c-.008.146-.149.401-.314.566s-.3.63-.3,1.034c0,.403-.18.733-.4.733s-.4.439-.4.976-.18,1.088-.4,1.224-.4.597-.4,1.024-.18.776-.4.776-.4.439-.4.976-.18,1.088-.4,1.224-.4.856-.4,1.6-.18,1.464-.4,1.6-.4.967-.4,1.847-.15,1.508-.332,1.395c-.183-.113-.374.816-.424,2.064-.051,1.249-.267,2.481-.481,2.739-.506.609-.442,18.155.065,18.155.205,0,.372,1.08.372,2.4c0,1.333.178,2.4.4,2.4.22,0,.4.72.4,1.6s.18,1.6.4,1.6.4.72.4,1.6.18,1.6.4,1.6.4.439.4.976.18,1.088.4,1.224.4.687.4,1.224.18.976.4.976.4.36.4.8.16.8.355.8c.196,0,.474.627.617,1.394.273,1.452,1.807,4.708,2.328,4.939.165.074.3.479.3.9c0,.422.18.767.4.767s.4.188.4.417.36.803.8,1.275s1.024,1.364,1.297,1.983c.274.619.634,1.125.801,1.125.166,0,.302.198.302.44c0,.241.54.943,1.2,1.56s1.2,1.305,1.2,1.53c0,.417,8.176,8.87,8.579,8.87.121,0,.962.72,1.869,1.6s1.897,1.6,2.2,1.6c.304,0,.552.158.552.351c0,.194.54.576,1.2.849s1.2.616,1.2.762s1.077.799,2.393,1.452c1.317.652,2.397,1.321,2.4,1.486.004.165.384.3.845.3s1.36.371,1.997.825c.636.453,1.519.851,1.961.885.442.033.804.202.804.375s.371.315.824.315.712.18.576.4c-.14.227.198.4.782.4.566,0,1.431.208,1.923.462c1.954,1.01,2.32,1.138,3.266,1.138.54,0,1.093.18,1.229.4s.852.4,1.59.4c.739,0,1.418.225,1.51.5.129.388,3.429.5,14.7.5s14.571-.112,14.7-.5c.096-.287.836-.5,1.733-.5.862,0,1.567-.18,1.567-.4s.63-.4,1.4-.4s1.4-.18,1.4-.4.36-.4.8-.4.8-.18.8-.4.54-.4,1.2-.4s1.2-.18,1.2-.4.54-.4,1.2-.4s1.2-.18,1.2-.4.36-.4.8-.4.8-.18.8-.4.36-.4.8-.4.8-.18.8-.4.36-.4.8-.4.8-.18.8-.4.371-.4.824-.4.712-.18.576-.4.123-.4.576-.4.824-.191.824-.424.18-.312.4-.176.4.057.4-.176.242-.424.538-.424.864-.36,1.262-.8.921-.801,1.162-.802s1.013-.541,1.716-1.2s1.461-1.198,1.685-1.198c.223,0,2.659-2.25,5.413-5s4.923-5,4.82-5c-.176,0,.11-.374,1.904-2.495.385-.455.7-.972.7-1.148s.45-.771,1-1.321s1-1.278,1-1.618.18-.618.4-.618.4-.371.4-.824.18-.712.4-.576.4-.033.4-.376.18-.624.4-.624.4-.36.4-.8.18-.8.4-.8.4-.36.4-.8.18-.8.4-.8.4-.234.4-.52c0-.736.941-2.673,1.3-2.677.165-.002.3-.543.3-1.203s.18-1.2.4-1.2.4-.349.4-.776.18-.888.4-1.024.4-.676.4-1.2.18-1.064.4-1.2.4-.777.4-1.424.18-1.176.4-1.176.4-.72.4-1.6.148-1.6.329-1.6c.18,0,.37-.945.422-2.1s.264-2.271.472-2.48c.617-.622.429-2.292-.323-2.863-.507-.385-2.338-.535-6.656-.544-6.66-.015-7.007.121-7.031,2.759-.007.754-.18,1.924-.384,2.6-.204.675-.776,2.578-1.271,4.228-5.675,18.917-21.22,32.431-42.289,36.762-2.757.567-14.981.567-17.738,0-12.818-2.635-20.68-6.751-29.342-15.362-2.751-2.734-6.415-7.339-7.464-9.38-.288-.561-.629-1.11-.757-1.22-.247-.211-3.465-6.837-3.983-8.2-4.216-11.093-4.471-24.108-.698-35.6.469-1.43,1.074-2.94,1.56-3.895.194-.382.353-.967.353-1.3s.18-.605.4-.605.4-.36.4-.8.18-.8.4-.8.4-.36.4-.8.18-.8.4-.8.4-.187.4-.415c0-1.779,9.192-12.733,13.461-16.042c17.272-13.387,40.676-15.269,59.5-4.786l2.761,1.538l2.039-2.409c7.3-8.624,7.368-8.847,3.185-10.36-.74-.268-1.346-.631-1.346-.806c0-.176-.36-.32-.8-.32s-.801-.135-.803-.3c-.004-.359-1.941-1.3-2.677-1.3-.286,0-.52-.18-.52-.4s-.36-.4-.8-.4-.8-.18-.8-.4-.349-.4-.776-.4-.888-.18-1.024-.4-.687-.4-1.224-.4-.976-.18-.976-.4-.54-.4-1.2-.4-1.2-.18-1.2-.4-.731-.4-1.624-.4c-.98,0-1.525-.158-1.376-.4.149-.241-.388-.4-1.353-.4-.88,0-1.711-.18-1.847-.4s-1.396-.4-2.8-.4-2.664-.18-2.8-.4c-.324-.524-15.789-.524-16.6,0m213.2,0c0,.222-1.056.4-2.367.4-1.301,0-2.426.17-2.5.379-.073.208-.978.421-2.011.473s-1.787.242-1.677.422c.111.179-.338.326-.998.326s-1.311.18-1.447.4-.588.4-1.005.4c-1.04,0-2.795.839-2.795,1.336c0,1.63,5.767,11.912,6.552,11.681c14.628-4.295,29.149-3.125,41.448,3.34c3.661,1.925,4.8,2.617,4.8,2.917c0,.179.191.326.423.326c1.4,0,8.283,6.387,12.82,11.895c12.151,14.752,14.39,39.887,5.093,57.174-.689,1.282-1.452,2.735-1.695,3.228-.242.493-.576.898-.741.9s-.3.239-.3.528c0,.288-.315.873-.7,1.3s-1.23,1.496-1.878,2.375c-1.805,2.451-6.529,7.234-9.002,9.114-1.219.927-2.567,2.001-2.994,2.386s-1.013.7-1.301.7c-.289,0-.526.135-.528.3s-.407.499-.9.741c-.493.243-1.946,1.006-3.228,1.695-17.357,9.335-41.459,7.189-57.218-5.093-3.277-2.554-11.851-11.829-11.851-12.82c0-.232-.147-.423-.326-.423-.3,0-.992-1.139-2.917-4.8-11.953-22.739-5.584-51.115,15.114-67.336l2.471-1.936-2.188-4.464c-3.431-7.004-3.582-7.257-4.4-7.38-.432-.065-1.495.502-2.411,1.286-.901.771-1.751,1.288-1.89,1.149s-.253.078-.253.481-.112.621-.249.485c-.136-.137-.939.47-1.783,1.349-.845.878-1.633,1.59-1.752,1.582-.761-.055-1.004.02-.916.284.055.165-.08.385-.3.488-.765.36-2.898,2.615-2.849,3.012.027.22-.176.355-.451.3s-.5.08-.5.3c0,.77-.177,1.015-2.162,3-1.1,1.1-1.992,2.09-1.981,2.2.01.11-.674,1.116-1.52,2.236-.845,1.12-1.537,2.223-1.537,2.451s-.27.639-.6.913-.6.836-.6,1.249-.18.751-.4.751-.4.36-.4.8-.18.8-.4.8-.4.36-.4.8-.18.8-.4.8-.4.36-.4.8-.18.8-.4.8-.4.36-.4.8-.18.8-.4.8-.4.414-.4.92-.179,1.099-.398,1.318c-.218.218-.438.884-.487,1.48-.049.595-.23,1.082-.402,1.082s-.313.45-.313,1-.18,1-.4,1-.4.641-.4,1.424-.145,1.333-.323,1.223c-.178-.109-.368.555-.422,1.477s-.268,1.847-.476,2.056c-.209.209-.379,1.413-.379,2.676s-.18,2.408-.4,2.544c-.245.151-.4,3.33-.4,8.2s.155,8.049.4,8.2c.22.136.4,1.396.4,2.8s.18,2.664.4,2.8.4.957.4,1.824.18,1.576.4,1.576.4.619.4,1.376.18,1.488.4,1.624.4.687.4,1.224.18.976.4.976.4.45.4,1s.18,1,.4,1s.4.45.4,1s.18,1,.4,1s.4.36.4.8.18.8.4.8.4.234.4.52c0,.736.941,2.673,1.3,2.677.165.002.3.363.3.803s.157.8.35.8.449.497.571,1.104c.121.607.673,1.631,1.227,2.275s.942,1.276.862,1.404c-.079.128.426.877,1.123,1.664s1.717,2.027,2.267,2.755c.55.729,1.225,1.553,1.5,1.833.275.279.5.618.5.754c0,.441,6.756,6.922,6.981,6.697.12-.121.219.021.219.314s.112.421.249.285c.136-.137.932.463,1.768,1.333s1.632,1.582,1.768,1.582c.137,0,.635.36,1.107.8s1.095.8,1.383.8c.289,0,.525.191.525.424s.168.32.372.193c.205-.126.487-.046.626.179.269.435,3.317,2.004,3.894,2.004.188,0,.728.36,1.2.8s1.275.8,1.783.8c.509,0,.926.135.928.3.004.359,1.941,1.3,2.677,1.3.286,0,.52.18.52.4s.551.4,1.224.4c.713,0,1.12.167.976.4s.255.4.953.4c.66,0,1.311.18,1.447.4s.787.4,1.447.4c.698,0,1.097.167.953.4-.152.246.518.4,1.743.4c1.237,0,2.053.189,2.157.5.129.387,3.291.5,14.013.5c10.544,0,13.966-.119,14.347-.5.275-.275,1.083-.5,1.796-.5s1.408-.18,1.544-.4.777-.4,1.424-.4s1.176-.141,1.176-.313.487-.353,1.082-.402c.596-.049,1.262-.269,1.48-.487.219-.219.722-.398,1.118-.398s.72-.18.72-.4.54-.4,1.2-.4s1.2-.18,1.2-.4.36-.4.8-.4.8-.18.8-.4.36-.4.8-.4.8-.18.8-.4.36-.4.8-.4.8-.136.8-.302c0-.326,2.436-1.524,2.852-1.403.139.04.572-.28.962-.711.391-.431.945-.784,1.232-.784.288,0,.89-.394,1.338-.875.449-.482.816-.743.816-.58c0,.162.585-.253,1.3-.923s1.437-1.219,1.604-1.22c.396-.003,11.095-10.702,11.098-11.098.001-.167.55-.889,1.22-1.604s1.085-1.3.923-1.3c-.163,0,.098-.367.58-.816.481-.448.875-1.05.875-1.338c0-.287.356-.844.791-1.237.434-.394.703-.857.596-1.03s.077-.586.409-.918.604-.887.604-1.232c0-.346.18-.629.4-.629s.4-.36.4-.8.18-.8.4-.8.4-.36.4-.8.18-.8.4-.8.4-.36.4-.8.18-.8.4-.8.4-.54.4-1.2.18-1.2.4-1.2.4-.33.4-.733c0-.404.123-.857.274-1.008.439-.439,1.313-3.178,1.32-4.135.003-.482.186-.988.406-1.124s.4-.831.4-1.544.225-1.521.5-1.796c.381-.381.5-3.883.5-14.747c0-11.042-.112-14.284-.5-14.413-.287-.096-.5-.836-.5-1.733c0-.862-.18-1.567-.4-1.567s-.4-.54-.4-1.2-.18-1.2-.4-1.2-.4-.54-.4-1.2-.18-1.2-.4-1.2-.4-.45-.4-1-.18-1-.4-1-.4-.439-.4-.976-.18-1.088-.4-1.224-.4-.597-.4-1.024-.135-.777-.3-.779c-.359-.004-1.3-1.941-1.3-2.677c0-.286-.135-.523-.3-.527-.165-.003-.84-1.097-1.5-2.43s-1.515-2.763-1.9-3.177-.7-.94-.7-1.169-.18-.417-.4-.417-.4-.198-.4-.44c0-.241-.54-.943-1.2-1.56s-1.2-1.319-1.2-1.56c0-.242-.18-.44-.4-.44s-.4-.187-.4-.416c0-.558-7.499-7.952-7.78-7.671-.121.121-.22-.02-.22-.313s-.112-.421-.249-.285c-.136.137-.946-.478-1.8-1.366-.853-.888-1.551-1.485-1.551-1.327s-.472-.185-1.048-.761c-.577-.577-1.173-.972-1.325-.878-.152.095-.804-.281-1.448-.835s-1.668-1.106-2.275-1.227c-.607-.122-1.104-.378-1.104-.571s-.225-.354-.5-.359-.95-.361-1.5-.791-1.405-.786-1.9-.791-.9-.189-.9-.409-.36-.4-.8-.4-.8-.18-.8-.4-.349-.4-.776-.4-.866-.144-.975-.321c-.109-.176-1.121-.572-2.249-.879s-2.14-.703-2.249-.879c-.109-.177-.807-.321-1.551-.321s-1.464-.18-1.6-.4-.856-.4-1.6-.4-1.446-.15-1.559-.334c-.113-.183-1.339-.373-2.724-.422-1.384-.049-2.577-.259-2.65-.466-.186-.525-16.867-.503-16.867.022M163.767,291.6c-4.75,5.747-4.477,5.056-2.767,7.003c4.4,5.014,8.909,13.45,10.58,19.797.261.99.642,2.353.847,3.028.205.676.375,1.666.378,2.2.017,2.9-.252,2.802,7.344,2.681L187,326.2l.124-1.5c.068-.825-.05-1.5-.263-1.5s-.486-.945-.606-2.1c-.398-3.812-.734-5.5-1.097-5.5-.197,0-.358-.63-.358-1.4s-.18-1.4-.4-1.4-.4-.551-.4-1.224c0-.713-.167-1.12-.4-.976-.226.14-.4-.188-.4-.753c0-.55-.18-1.111-.4-1.247s-.4-.597-.4-1.024-.18-.776-.4-.776-.406-.405-.413-.9-.271-1.242-.587-1.659-.462-.94-.325-1.162c.141-.228.049-.279-.213-.117-.387.239-.703-.698-.362-1.071.055-.061-.305-.544-.8-1.076-.495-.531-.9-1.202-.9-1.49c0-.289-.18-.525-.4-.525s-.4-.32-.4-.712c0-.391-.36-.971-.8-1.288s-.8-.82-.8-1.117-.225-.777-.5-1.067c-.985-1.038-1.889-2.216-1.7-2.216.106,0-.346-.514-1.004-1.143s-1.196-1.33-1.196-1.558c0-.227-.296-.527-.657-.666-.362-.138-.548-.361-.414-.496.321-.32-1.493-1.737-2.225-1.737-.314,0-2.356,2.16-4.537,4.8M222.2,306.4c-.136.22-1.047.4-2.024.4s-1.776.18-1.776.4-.439.4-.976.4-1.088.18-1.224.4-.597.4-1.024.4-.755.135-.729.3c.134.847-.251,1.264-2.575,2.793-2.363,1.553-4.488,3.574-6.551,6.23-.48.618-1.243,1.151-1.697,1.185-.453.034-.824.294-.824.577s-.18.515-.4.515-.379.135-.353.3c.143.904-.099,1.715-.447,1.5-.233-.144-.4.263-.4.976c0,.673-.151,1.224-.335,1.224-.449,0-.644,7.132-.406,14.8.062,1.98.254,3.6.427,3.6s.314.54.314,1.2.18,1.2.4,1.2.4.36.4.8.18.8.4.8.4.294.4.653.349.956.775,1.325c.426.37.831.926.9,1.236.202.907,5.783,6.23,7.11,6.78.668.277,1.215.672,1.215.878s.18.264.4.128.4-.057.4.176.461.424,1.024.424c.58,0,.916.173.776.4-.144.233.263.4.976.4.673,0,1.224.18,1.224.4s.72.4,1.6.4s1.6.18,1.6.4c0,.697,6.274.506,6.545-.2.171-.448.887-.6,2.819-.6c1.424,0,2.7-.18,2.836-.4s.599-.4,1.029-.4s1.094-.16,1.476-.356c3.772-1.935,4.567-2.191,5.324-1.719.513.32.771.339.771.055c0-.235.18-.316.4-.18s.4.027.4-.243.106-.384.237-.254c.295.296,6.163-5.531,6.163-6.12c0-.237.208-.302.462-.145.274.169.353.111.196-.144-.146-.236.006-.701.338-1.033s.604-.887.604-1.232c0-.346.136-.629.302-.629.167,0,.538-.585.827-1.3.288-.715.692-1.613.897-1.995.206-.382.374-1.057.374-1.5s.18-.805.4-.805.4-.799.4-1.776.18-1.888.4-2.024c.544-.336.509-2.497-.043-2.681-.243-.081-.582-1.311-.752-2.733-.859-7.189-3.161-11.943-8.418-17.386-1.488-1.54-2.812-3.162-2.942-3.604-.229-.773-2.836-2.196-4.024-2.196-.316,0-.685-.18-.821-.4s-.687-.4-1.224-.4-.976-.18-.976-.4-.9-.4-2-.4-2-.18-2-.4c0-.241-1.659-.4-4.176-.4-2.353,0-4.285.175-4.424.4m7.6,13.498c10.283,2.334,14.031,15.61,6.562,23.243-1.315,1.344-3.125,2.418-6.081,3.608-1.385.558-6.544.596-6.881.051-.136-.22-.591-.4-1.011-.4-6.134,0-11.509-11.757-8.466-18.516.929-2.063,4.646-6.284,5.535-6.284.298,0,.542-.18.542-.4s.349-.4.776-.4.888-.18,1.024-.4.732-.403,1.324-.406s1.346-.189,1.676-.413c.618-.418,2.204-.318,5,.317" fill="#444c5c" fill-rule="evenodd"/><path d="M18.862,0.289c-.736.092-1.956.515-2.712.939-.756.425-1.639.772-1.962.772s-.588.18-.588.4-.36.4-.8.4-.8.18-.8.4-.201.4-.446.4c-.582,0-7.954,7.372-7.954,7.954c0,.245-.18.446-.4.446s-.4.252-.4.559c0,.308-.585,1.613-1.3,2.9L0.2,17.8v78.967c0,62.817.102,79,.5,79.133.275.092.5.692.5,1.333c0,.642.18,1.167.4,1.167s.4.32.4.712c0,.391.36.971.8,1.288s.8.857.8,1.2.36.883.8,1.2.8.907.8,1.312c0,.404.18.624.4.488s.4-.044.4.205c0,.584,1.011,1.595,1.595,1.595.249,0,.341.18.205.4s.044.4.4.4.536.18.4.4.047.4.407.4s1.203.548,1.872,1.218c.67.67,1.308,1.128,1.417,1.019.11-.109.47.071.8.402.33.33,1.119.704,1.752.831.634.126,1.152.388,1.152.58c0,.193.54.35,1.2.35s1.2.18,1.2.4.9.4,2,.4s2,.18,2,.4c0,.261,6.333.4,18.198.4h18.198l.104,43.1.104,43.1.098-43.156c.092-40.565.14-43.188.798-43.687c1.109-.842,39.4-.801,40.1.043.59.711,37.819.926,38.067.22.073-.209.898-.424,1.833-.478s1.7-.243,1.7-.42.54-.322,1.2-.322s1.2-.18,1.2-.4.291-.4.646-.4s1.569-.495,2.698-1.1c3.794-2.034,9.549-7.927,9.046-9.264-.034-.09.224-.324.574-.52s.636-.545.636-.775c0-.413.915-2.673,1.634-4.036.201-.382.366-1.327.366-2.1s.18-1.405.4-1.405c.554,0,.554-151.457,0-151.8-.22-.136-.4-.852-.4-1.59c0-.739-.178-1.403-.397-1.477-.218-.073-.436-.615-.484-1.204-.049-.589-.231-.984-.404-.877-.173.108-.315-.085-.315-.428c0-1.023-.051-1.142-1.384-3.224-1.516-2.366-6.352-7.4-7.11-7.4-.291,0-.789-.36-1.106-.8s-.897-.8-1.288-.8c-.392,0-.712-.18-.712-.4s-.349-.4-.776-.4-.888-.18-1.024-.4-.672-.4-1.19-.4c-.519,0-1.018-.225-1.11-.5-.16-.48-119.699-.878-123.438-.411m120.09,13.906c3.775,1.727,6.609,5.232,7.803,9.651.622,2.303.633,143.846.011,145.794-1.381,4.329-4.212,7.819-7.766,9.573l-2,.987h-57-57l-1.887-.938c-2.998-1.49-5.364-3.835-6.706-6.647L13.2,170.086v-73.468-73.468l1.067-2.255c1.215-2.567,3.677-5.148,5.97-6.257.86-.415,1.833-.898,2.163-1.073s26.2-.329,57.488-.341l56.888-.024l2.176.995m-87.07,26.29c-2.021.536-4.089,2.553-4.635,4.52-.554,1.995-.616,100.784-.065,103.161c1.101,4.744,7.294,6.386,10.653,2.824c2.08-2.205,2.165-3.175,2.165-24.729v-19.786l16.3-.193c17.379-.206,17.434-.212,22.865-2.405c23.454-9.474,27.64-41.547,7.435-56.958-1.787-1.362-7.06-4.233-8.6-4.682-.55-.16-1.63-.473-2.4-.696-4.945-1.429-39.192-2.256-43.718-1.056M91.783,53.812c11.07,2.884,17.498,14.516,14.139,25.588-1.754,5.784-6.393,10.611-12.522,13.029-2.353.928-2.706.95-17.9,1.088L60,93.658v-20.229-20.229h14.716c11.924,0,15.162.116,17.067.612M223.4,320.867c-3.492,1.177-7.271,4.252-8.273,6.733-4.974,12.313,7.432,23.396,18.491,16.518c2.444-1.52,5.182-5.169,5.182-6.907c0-.42.18-.875.4-1.011s.4-1.396.4-2.8-.18-2.664-.4-2.8-.4-.58-.4-.986c0-3.027-3.698-6.661-8.919-8.763-1.356-.547-4.836-.538-6.481.016" fill="#eff5f6" fill-rule="evenodd"/><path d="M23,14.157c-3.791,1.205-6.488,3.535-8.155,7.043L13.8,23.4v73.4v73.4l.923,1.854c1.485,2.986,3.489,5.016,6.257,6.337l2.534,1.209h56.468h56.468l2.583-1.246c2.813-1.356,4.765-3.325,6.244-6.3l.923-1.854v-73.6-73.6l-.941-1.894c-1.309-2.633-3.726-4.993-6.397-6.245L136.6,13.8l-56-.076c-44.383-.06-56.332.029-57.6.433M91.8,40.185c4.877.87,12.588,3.871,13.8,5.372.11.136.91.777,1.778,1.425c19.393,14.472,16.048,45.862-6.023,56.516-2.383,1.15-2.845,1.323-5.755,2.157-3.935,1.128-9.425,1.507-22.1,1.526l-13.1.019v20.204c0,22.34-.017,22.493-2.7,24.604-3.853,3.03-10.266.802-11.031-3.833-.455-2.756-.31-101.812.152-103.474.529-1.905,1.749-3.288,3.779-4.284c2.112-1.036,35.631-1.225,41.2-.232M60.4,73.167v19.633h15.072c15.869,0,16.122-.025,20.059-1.955c14.343-7.032,14.064-29.106-.447-35.378-.706-.305-1.824-.799-2.484-1.098-.926-.42-4.743-.577-16.7-.689l-15.5-.145v19.632M295.2,179.588c0,.227-.72.412-1.6.412s-1.6.18-1.6.4-.54.4-1.2.4-1.201.135-1.203.3c-.004.359-1.941,1.3-2.677,1.3-.286,0-.52.18-.52.4s-.278.4-.617.4-1.003.36-1.475.8-1.106.8-1.407.8c-.302,0-.437.18-.301.4s.049.4-.192.4c-.466,0-2.998,2.539-4.008,4.019-.33.483-.79,1.082-1.022,1.33-.233.248-.55.721-.705,1.051s-.627,1.14-1.048,1.8c-.422.66-.78,1.706-.796,2.324-.016.641-.201,1.017-.429.876-.238-.147-.4.321-.4,1.153c0,.77-.18,1.511-.4,1.647s-.4,1.227-.4,2.424-.18,2.176-.4,2.176c-.513,0-.53,5.088-.018,5.267.21.073.41,2.336.444,5.03.035,2.744.218,4.799.418,4.676.196-.121.356.77.356,1.98s.18,2.311.4,2.447.4,1.147.4,2.247.149,1.908.332,1.795c.182-.113.299.192.26.677-.039.484.158,1.54.438,2.345s.42,1.552.312,1.661c-.109.108-.023.53.191.936.411.78,1.51,4.278,1.391,4.425-.038.048.36.934.884,1.97.524,1.035.861,2.032.749,2.213-.112.182-.014.331.219.331s.424.36.424.8.18.8.4.8.4.36.4.8.18.8.4.8.4.343.4.762c0,.816,1.601,4.15,2.1,4.371.165.074.3.468.3.878c0,.409.331.979.735,1.266c1.204.858,6.589,11.762,6.371,12.902-.107.558-.008.947.229.901.23-.044.492.28.583.72.09.44.416,1.085.724,1.432.308.348.439.753.292.9-.147.148-.047.268.223.268s.379.18.243.4-.101.4.079.4c.179,0,.568.585.864,1.3c1.349,3.261,1.751,3.91,2.803,4.532.98.579,7.024,11.604,6.518,11.891-.419.238,24.516,49.161,25.418,49.87c4.711,3.705,11.849-.384,10.747-6.157-.237-1.242-23.965-49.001-24.55-49.415-1.009-.713-5.679-11.189-5.679-12.738c0-.926-.18-1.683-.4-1.683s-.4-.36-.4-.8-.143-.8-.317-.8c-.175,0-.657-.999-1.072-2.221-.415-1.221-.914-2.319-1.108-2.439-.405-.25-1.264-2.192-1.168-2.64.036-.165-.115-.3-.335-.3s-.4-.36-.4-.8-.18-.8-.4-.8-.4-.36-.4-.8-.18-.8-.4-.8-.4-.36-.4-.8-.135-.801-.3-.803c-.359-.004-1.3-1.941-1.3-2.677c0-.286-.18-.52-.4-.52s-.4-.36-.4-.8-.18-.8-.4-.8-.4-.36-.4-.8-.18-.8-.4-.8-.4-.371-.4-.824-.18-.712-.4-.576c-.227.14-.4-.196-.4-.776c0-.563-.18-1.024-.4-1.024s-.4-.255-.4-.567c0-.311-.135-.626-.3-.7-.432-.192-2.1-3.505-2.1-4.171c0-.309-.18-.562-.4-.562s-.4-.349-.4-.776-.18-.888-.4-1.024-.4-.687-.4-1.224-.18-.976-.4-.976-.4-.461-.4-1.024c0-.58-.173-.916-.4-.776-.226.14-.4-.187-.4-.75c0-.549-.198-1.505-.44-2.124s-.53-1.666-.64-2.326c-.109-.66-.361-1.503-.56-1.874-.198-.37-.36-1.189-.36-1.82c0-.63-.166-1.317-.369-1.526s-.413-1.28-.467-2.38-.248-2.199-.432-2.442c-.183-.243-.36-2.274-.392-4.513s-.212-4.166-.4-4.282c-.48-.297-.425-3.363.06-3.363.22,0,.4-.6.4-1.333c0-.734.135-1.469.3-1.634s.315-.42.334-.566c.207-1.648,4.328-6.467,5.53-6.467.35,0,.636-.18.636-.4s.551-.4,1.224-.4c.713,0,1.12-.167.976-.4-.163-.264,5.321-.4,16.153-.4c10.502,0,16.489.144,16.647.4.136.22.597.4,1.024.4s.776.18.776.4.288.4.64.4c.351,0,1.143.54,1.76,1.2s1.349,1.2,1.627,1.2c.279,0,.39.117.247.259-.143.143.073.548.479.9c1.265,1.098,2.444,3.384,2.446,4.741c0,.715.181,1.3.401,1.3s.4.72.4,1.6-.18,1.6-.4,1.6-.4.63-.4,1.4-.18,1.4-.4,1.4-.4.36-.4.8-.18.8-.4.8-.4.199-.4.442c0,.244-.452.798-1.004,1.232-.552.435-.884.983-.738,1.22.152.246.079.314-.172.159-.241-.149-.794.112-1.23.579-.989,1.062-2.704,1.968-3.725,1.968-.428,0-.667.18-.531.4.163.263-4.129.4-12.576.4-8.283,0-12.824.142-12.824.4c0,.22-.326.4-.725.4-.398,0-1.111.36-1.583.8s-1.046.8-1.275.8-.417.36-.417.8-.18.8-.4.8c-.235,0-.4,1.4-.4,3.4s.165,3.4.4,3.4c.22,0,.4.262.4.582c0,.754,1.864,2.618,2.618,2.618.32,0,.582.18.582.4c0,.259,4.992.4,14.176.4c9.02,0,14.267-.146,14.424-.4.136-.22.856-.4,1.6-.4s1.464-.18,1.6-.4.697-.4,1.247-.4c.565,0,.893-.174.753-.4-.136-.22.078-.406.476-.413s1.066-.271,1.483-.587.94-.462,1.162-.325c.228.141.279.049.117-.213-.169-.274-.031-.462.338-.462.343,0,.624-.15.624-.332c0-.183.495-.588,1.1-.9c1.849-.954,7.7-7.192,7.7-8.209c0-.308.18-.559.4-.559s.4-.36.4-.8.18-.8.4-.8.4-.45.4-1s.16-1,.355-1s.471-.585.615-1.3c.143-.715.454-2.2.692-3.3.508-2.358.769-7.428.411-8-.302-.482-.412-1.122-.536-3.1-.051-.825-.238-1.5-.415-1.5s-.322-.54-.322-1.2-.18-1.2-.4-1.2-.4-.461-.4-1.024c0-.58-.173-.916-.4-.776-.22.136-.4-.051-.4-.415c0-.562-1.275-2.741-1.981-3.385-.12-.11-.268-.438-.329-.729-.16-.773-5.527-5.965-6.479-6.267-.446-.142-.811-.399-.811-.571c0-.445-4.862-2.857-5.919-2.937-.485-.036-.881-.189-.881-.339c0-.652-4.486-.864-21.5-1.017-12.25-.111-18.1-.03-18.1.248M187.461,260.302c-.103.166.156.726.576,1.244.42.519.763.765.763.547c0-.217-.268-.617-.596-.889-.327-.272-.497-.654-.376-.849s.129-.355.019-.355-.284.136-.386.302m-15.786,22.514c-.481.448-.875.93-.875,1.069c0,.14.45-.168,1-.685.938-.881,1.171-1.2.875-1.2-.068,0-.518.367-1,.816M144.6,293.338c-8.557,10.298-24.762,29.752-26.225,31.483-4.951,5.858-5.599,7.235-4.78,10.16c1.449,5.177.749,5.071,32.605,4.93l26.4-.117-26.888-.097c-26.548-.096-26.907-.108-28.395-.943-3.767-2.116-4.538-6.445-1.742-9.774.564-.671,1.655-2.005,2.425-2.966.77-.96,1.581-1.941,1.802-2.18.403-.436,3.475-4.162,4.598-5.578.33-.416.96-1.14,1.4-1.608s1.61-1.838,2.6-3.045s2.184-2.647,2.652-3.199c.469-.552,2.784-3.344,5.144-6.204s4.677-5.652,5.148-6.204s1.666-1.992,2.656-3.199s2.34-2.796,3-3.531c1.279-1.425,1.96-2.458,1.737-2.634-.076-.059-1.937,2.059-4.137,4.706m12.918,4.812c-.505.522-1.261,1.377-1.681,1.9-.42.522-1.32,1.597-2,2.387-.68.791-1.51,1.781-1.843,2.2-.964,1.214-8.566,10.342-8.796,10.563-.115.11-1.014,1.19-1.998,2.4s-1.884,2.29-2,2.4-1.019,1.19-2.005,2.4c-.987,1.21-2.104,2.542-2.481,2.961-1.246,1.381-.419,1.44,18.81,1.345l19.076-.094-18.961-.206-18.96-.206l11.31-13.6c6.22-7.48,11.679-14.005,12.13-14.5c1.096-1.202.567-1.158-.601.05" fill="#3991d0" fill-rule="evenodd"/><path d="M225.6,372.8c0,.22-.54.4-1.2.4s-1.2.18-1.2.4-.278.4-.618.4c-.892,0-2.582,1.821-2.582,2.782c0,.45-.18.818-.4.818-.222,0-.4,1.067-.4,2.4s.178,2.4.4,2.4c.22,0,.4.36.4.8s.18.8.4.8.4.345.4.766c0,.467.469.975,1.2,1.298.66.292,1.2.667,1.2.834c0,.555,32.704.363,33.683-.198c1.382-.792,2.717-2.208,2.717-2.882c0-.34.18-.618.4-.618.233,0,.4-1.324.4-3.171v-3.172l-1.752-1.828c-1.208-1.261-2.078-1.829-2.8-1.829-.576,0-1.048-.18-1.048-.4c0-.624-9.091-.527-9.3.1-.277.835-13.113.952-14.752.134-1.4-.698-5.148-.869-5.148-.234" fill="#e47c24" fill-rule="evenodd"/><path d="M22.4,13.565c-.33.175-1.303.658-2.163,1.073-2.293,1.109-4.755,3.69-5.97,6.257L13.2,23.15v73.468v73.468l1.207,2.529c1.342,2.812,3.708,5.157,6.706,6.647L23,180.2h57h57l2-.987c3.554-1.754,6.385-5.244,7.766-9.573.622-1.948.611-143.491-.011-145.794-1.194-4.419-4.028-7.924-7.803-9.651l-2.176-.995-56.888.024c-31.288.012-57.158.166-57.488.341m116.462,1.296c2.671,1.252,5.088,3.612,6.397,6.245L146.2,23v73.6v73.6l-.923,1.854c-1.479,2.975-3.431,4.944-6.244,6.3L136.45,179.6h-56.468-56.468l-2.534-1.209c-2.768-1.321-4.772-3.351-6.257-6.337L13.8,170.2v-73.4-73.4l1.045-2.2c1.122-2.361,3.413-4.888,5.355-5.906c3.213-1.684,1.905-1.65,60.4-1.57l56,.076l2.262,1.061M50.6,40.417c-2.03.996-3.25,2.379-3.779,4.284-.462,1.662-.607,100.718-.152,103.474.765,4.635,7.178,6.863,11.031,3.833c2.683-2.111,2.7-2.264,2.7-24.604v-20.204l13.1-.019c12.675-.019,18.165-.398,22.1-1.526c2.91-.834,3.372-1.007,5.755-2.157c22.071-10.654,25.416-42.044,6.023-56.516-.868-.648-1.668-1.289-1.778-1.425-1.212-1.501-8.923-4.502-13.8-5.372-5.569-.993-39.088-.804-41.2.232m39.6.17c2.2.302,4.63.732,5.4.954.77.223,1.85.536,2.4.696c1.54.449,6.813,3.32,8.6,4.682c20.205,15.411,16.019,47.484-7.435,56.958-5.431,2.193-5.486,2.199-22.865,2.405l-16.3.193v19.786c0,21.554-.085,22.524-2.165,24.729-3.359,3.562-9.552,1.92-10.653-2.824-.551-2.377-.489-101.166.065-103.161.546-1.967,2.614-3.984,4.635-4.52c2.43-.644,33.483-.561,38.318.102M60,73.429v20.229l15.5-.141c15.194-.138,15.547-.16,17.9-1.088c6.129-2.418,10.768-7.245,12.522-13.029c3.359-11.072-3.069-22.704-14.139-25.588-1.905-.496-5.143-.612-17.067-.612L60,53.2v20.229m32.6-19.06c.66.299,1.778.793,2.484,1.098c14.511,6.272,14.79,28.346.447,35.378-3.937,1.93-4.19,1.955-20.059,1.955h-15.072v-19.633-19.632l15.5.145c11.957.112,15.774.269,16.7.689M70.1,193.1c5.445.063,14.355.063,19.8,0s.99-.115-9.9-.115-15.345.052-9.9.115" fill="#aacee5" fill-rule="evenodd"/><path d="M159.2,219.6c.783.506,1.6.506,1.6,0c0-.22-.495-.397-1.1-.394-.857.005-.968.092-.5.394m-46.6,60.458c-10.601,1.926-18.451,5.281-25.939,11.085-4.269,3.309-13.461,14.263-13.461,16.042c0,.228-.18.415-.4.415s-.4.36-.4.8-.18.8-.4.8-.4.36-.4.8-.18.8-.4.8-.4.272-.4.605-.159.918-.353,1.3c-.486.955-1.091,2.465-1.56,3.895-3.773,11.492-3.518,24.507.698,35.6.518,1.363,3.736,7.989,3.983,8.2.128.11.469.659.757,1.22c1.049,2.041,4.713,6.646,7.464,9.38c8.662,8.611,16.524,12.727,29.342,15.362c2.757.567,14.981.567,17.738,0c21.069-4.331,36.614-17.845,42.289-36.762.495-1.65,1.067-3.553,1.271-4.228.204-.676.371-1.88.371-2.677c0-.796.18-1.559.4-1.695.614-.379.475-1-.224-1-.343,0-.536.141-.43.313.303.49-.827,5.902-1.975,9.462-5.017,15.559-17.025,27.854-32.971,33.759-9.672,3.582-24.503,3.755-34.2.4C86.156,377.968,73,363.899,68.49,346.6c-1.3-4.985-1.454-6.383-1.454-13.2-.001-6.787.206-8.69,1.435-13.2c5.673-20.818,21.166-35.045,42.922-39.418c3.061-.615,14.169-.61,17.249.008c7.476,1.5,14.691,4.174,18.681,6.923.901.621,2.093.731,1.444.134-5.794-5.337-25.87-9.66-36.167-7.789m213.2.011c-1.1.216-3.53.764-5.4,1.216-1.87.453-3.788.844-4.262.869s-.767.198-.652.384c.218.355,1.236.222,3.914-.509c29.762-8.129,60.167,10.861,66.242,41.371.725,3.637.747,16.734.034,19.8-5.31,22.844-19.632,37.166-42.476,42.476-3.066.713-16.163.691-19.8-.034-19.208-3.824-34.869-17.739-40.789-36.242-1.726-5.396-2.319-9.485-2.319-16c0-6.833.604-10.759,2.586-16.8c3.151-9.602,8.909-17.931,16.909-24.462c4.062-3.316,4.941-4.611,1.15-1.694-20.885,16.066-27.382,44.746-15.326,67.656c1.93,3.667,2.559,4.7,2.863,4.7.179,0,.326.191.326.423c0,.991,8.574,10.266,11.851,12.82c15.759,12.282,39.861,14.428,57.218,5.093c1.282-.689,2.735-1.452,3.228-1.695.493-.242.898-.576.9-.741s.239-.3.528-.3c.288,0,.873-.315,1.3-.7s1.496-1.23,2.375-1.878c2.451-1.805,7.234-6.529,9.114-9.002.927-1.219,2.001-2.567,2.386-2.994s.7-1.013.7-1.301c0-.289.135-.526.3-.528s.499-.407.741-.9c.243-.493,1.006-1.946,1.695-3.228c9.297-17.287,7.058-42.422-5.093-57.174-4.537-5.508-11.42-11.895-12.82-11.895-.232,0-.423-.147-.423-.326c0-.432-4.378-2.843-8.441-4.648-7.467-3.317-21.446-5.156-28.559-3.757M159.68,296.08c-.725.725-.612,1.05,1.065,3.064c5.476,6.576,9.564,14.973,11.208,23.022.843,4.128,1.45,5.647,1.045,2.619-.625-4.683-2.433-10.35-4.909-15.385-1.446-2.942-5.027-8.498-6.577-10.205-1.935-2.131-2.046-2.351-1.512-2.995.594-.716.362-.802-.32-.12m85.103,18.02c.981,1.045,1.836,1.9,1.9,1.9.301,0-.017-.359-1.783-2.017L243,312.2l1.783,1.9M224.8,319.581c-.33.224-1.084.41-1.676.413s-1.188.186-1.324.406-.597.4-1.024.4-.776.18-.776.4-.244.4-.542.4c-2.236,0-6.246,6.719-6.446,10.8-.117,2.381-.103,2.432.157.6c1.933-13.623,17.776-17.836,24.901-6.622.622.978,1.13,1.589,1.13,1.356c0-1.47-3.89-5.609-6.395-6.803-2.585-1.232-7.063-1.988-8.005-1.35m-48.3,7.116c1.705.075,4.495.075,6.2,0s.31-.136-3.1-.136-4.805.061-3.1.136m62.728,1.979c.09,1.039.716,1.92.744,1.048.015-.482-.152-.988-.372-1.124s-.387-.102-.372.076M253.26,332c-.077.948.399,2.4.787,2.4.194,0,.353-.27.353-.6s-.167-.6-.372-.6-.45-.405-.546-.9c-.095-.495-.195-.63-.222-.3m-40.025,4.2c-.113,3.279,6.098,10.2,9.154,10.2.42,0,.875.18,1.011.4.337.545,5.496.507,6.881-.051c4.017-1.617,6.677-3.565,7.79-5.705.241-.464-.457.081-1.552,1.212-7.638,7.892-19.256,5.016-22.852-5.656-.287-.853-.412-.969-.432-.4m26.227.747c-.165.631-.206,1.242-.091,1.357.322.323.716-.966.544-1.781-.112-.533-.231-.422-.453.424M237.8,356.883c-.88.447-1.913.971-2.295,1.165s-1.021.352-1.42.352-.896.17-1.105.379c-.209.208-1.536.433-2.948.5-1.435.068-2.634.318-2.716.568-.343,1.039,8.101-.933,11.598-2.709.832-.422,1.715-.644,1.962-.491.272.168.336.096.162-.185-.401-.649-1.381-.522-3.238.421" fill="#637280" fill-rule="evenodd"/><path d="M156,234.4c0,.22.191.4.424.4s.295.208.138.462c-.177.286-.11.353.176.176.667-.412.568-1.438-.138-1.438-.33,0-.6.18-.6.4m15.869-.136c-.145.145.104.522.553.836.69.484.736.674.297,1.236-.453.579-.438.601.118.167.35-.273.779-.363.952-.2.174.164.069-.108-.233-.603s-.696-.9-.876-.9-.216-.18-.08-.4c.274-.443-.314-.553-.731-.136m-13.637,2.485c-.154.248-.089.451.144.451s.438.315.456.7c.017.392.118.487.228.215.283-.697-.472-1.942-.828-1.366m15.368.851c.235.44.473.8.528.8s.101-.36.101-.8-.238-.8-.529-.8c-.404,0-.428.188-.1.8m-13.517,3.47c-.394.159-.407.339-.054.764.53.64,1.171.39,1.171-.458c0-.596-.233-.66-1.117-.306m1.131,1.704c-.548,1.025-.541,1.046.386,1.116.44.033.8-.119.8-.338c0-.22-.18-.288-.4-.152s-.4-.044-.4-.4c0-.387.185-.533.462-.362.286.177.353.11.176-.176-.39-.632-.544-.586-1.024.312m15.834.312c-.426.426-.27.975.195.688.299-.186.353.007.167.595-.157.495-.07,1.118.202,1.446.591.712,1.239.385.915-.461-.193-.502-.303-.519-.577-.088-.262.415-.339.385-.344-.133-.003-.366.217-.741.49-.832.364-.121.324-.338-.152-.814-.357-.357-.76-.537-.896-.401m-14.438,2.498c-.341.552.673,2.018,1.386,2.003.457-.009.409-.161-.196-.622-.44-.335-.747-.87-.682-1.187.133-.657-.154-.767-.508-.194m17.816,3.103c-.016.291-.308.386-.726.236-.443-.16-.296.131.4.793c1.078,1.025,1.486,1.77.705,1.287-.229-.141-.293.022-.154.386.172.447.386.513.733.225.269-.224.608-.289.753-.144s.263.053.263-.203c0-.257-.147-.467-.327-.467-.181,0-.619-.585-.975-1.3s-.658-1.081-.672-.813m-16.061.713c.886,1.735,1.204,2.047,1.133,1.112-.036-.483-.145-.798-.242-.701s-.43-.136-.739-.517c-.514-.636-.527-.627-.152.106m1.858,2.163c-.54.873.38,2.158.999,1.395.443-.545.451-.635.035-.385-.415.25-.479.127-.273-.523.266-.838-.315-1.209-.761-.487M182.8,253.2c.47.66.942,1.2,1.05,1.2.107,0-.124-.54-.514-1.2s-.862-1.2-1.049-1.2c-.188,0,.043.54.513,1.2m102.538.997c.254.548.593.998.753,1c.161.002.087-.447-.164-.997-.25-.55-.59-1-.754-1s-.09.449.165.997m-103.541-.158c-.18.31-.171.421.018.248.189-.171.571.099.85.6.279.502.513.722.521.489.03-.906-1.041-1.937-1.389-1.337m-14.997.312c0,.247.167.449.371.449s.453.315.553.7c.155.591.19.598.23.049.025-.358-.224-.875-.554-1.149-.415-.344-.6-.359-.6-.049m115.772.004c.12.195-.181.459-.67.586-.72.189-.791.33-.378.743s.579.397.876-.084c.202-.326.674-.595,1.049-.597.375-.001.729-.233.787-.513.057-.28.013-.325-.099-.1-.112.226-.379.41-.594.41s-.279-.18-.143-.4-.044-.4-.4-.4-.549.16-.428.355M183.6,255.2c0,.22.18.4.4.4s.4.174.4.387c0,.214-.225.333-.5.266s-.364-.046-.198.047c.167.092.214.313.105.489s.115.566.497.866c.643.503.65.486.096-.22-.533-.68-.533-.742,0-.56.33.113.586.593.568,1.065-.019.518.22.873.6.892.417.02.461.1.13.234-.277.111-.406.359-.288.551.464.751,1.391-.069.969-.857-.224-.418-.271-.76-.104-.76s-.097-.28-.586-.623c-.506-.354-.889-1.043-.889-1.6c0-.602-.23-.977-.6-.977-.33,0-.6.18-.6.4m-13.107,5.2c.586.939,1.507,1.062,1.507.2c0-.33-.191-.6-.424-.6s-.309.225-.17.5-.005.185-.32-.2c-.785-.957-1.209-.886-.593.1m103.607-.209c-1.024.454-1.248,1.228-.243.843.547-.21.572-.151.154.352-.276.333-.689.489-.918.348-.251-.155-.296-.062-.113.234.224.362.583.248,1.362-.432c1.75-1.528,1.896-1.675,1.392-1.392-.256.143-.526.123-.6-.046-.074-.168-.539-.127-1.034.093M170,262.596c0,.954.033.968.792.318.586-.501.663-.758.3-.99-.83-.527-1.092-.366-1.092.672m18.159.365c-.129.337-.142.844-.028,1.126.126.313.218.231.237-.211.018-.398.212-.612.432-.476s.4.067.4-.153c0-.702-.797-.921-1.041-.286m81.941.504c-.672.271-.632.799.08,1.072.401.154.506.03.339-.404-.202-.527-.105-.554.611-.17.711.38.813.355.618-.154-.235-.613-.726-.716-1.648-.344m-101.955.622c.121.378.059.787-.137.908s-.329.589-.296,1.038c.057.754.101.764.562.133.275-.376.406-.837.29-1.025s.059-.341.389-.341.71-.178.844-.395c.144-.232-.029-.291-.417-.142-.37.142-.836.008-1.058-.305-.314-.441-.351-.413-.177.129m122.322.369c.095.671-.041.907-.467.815-.477-.102-.499-.025-.107.374.272.276.592.403.713.282.44-.44.534-1.917.137-2.162-.245-.152-.355.125-.276.691m-100.596,1.093c.124.475.368.952.542,1.059.474.293.208-.947-.315-1.47-.338-.338-.396-.233-.227.411m78.813.051c-.115.44-.046.8.153.8.2,0,.363-.075.363-.167s.109-.452.243-.8c.133-.348.064-.633-.154-.633-.217,0-.49.36-.605.8m-102.315.5c-.016.055-.093.431-.17.837-.163.862-.599,1.403-.599.742c0-.253-.285-.345-.644-.207-.58.223-.576.285.044.632.515.288.902.172,1.533-.459.514-.514.644-.845.332-.845-.282,0-.401-.18-.265-.4s.147-.4.024-.4-.238.045-.255.1m122.564,1.036c-.33.527-.797.687-1.649.562-.654-.096-1.31.02-1.457.259-.167.27-.034.344.352.196.876-.336.772.387-.179,1.247-.44.398-.8.578-.8.4s-.326-.029-.725.333c-.56.506-.834.548-1.2.182-.321-.321-.475-.333-.475-.038c0,.424.883.923,1.633.923.202,0,.322-.225.267-.5s.108-.461.362-.413.681-.177.949-.5.754-.587,1.081-.587c.354,0,.504-.234.371-.58-.139-.363-.03-.505.293-.381.284.108.745-.079,1.025-.416.28-.338.669-.516.864-.395s.355-.061.355-.404c0-.841-.505-.788-1.067.112m-98.424-.025c-.889.142-.889.144-.1.991.435.467.791,1.085.791,1.373c0,.289.169.525.375.525.275,0,.148-2.913-.132-3.016-.023-.009-.444.048-.934.127m-26.506,2.292c.214.259.257.618.094.798-.164.18-.072.198.203.04.693-.399.628-1.308-.094-1.308-.409,0-.472.146-.203.47m99.681.812c-.397.45-.402.585-.023.585.27,0,.143.28-.285.622-.745.597-.74.605.124.186.495-.24.9-.79.9-1.222c0-.927-.041-.936-.716-.171m-71.444.306c-.652.477-.658.566-.067,1.057.56.464.609.439.368-.187-.191-.497-.131-.632.191-.433.257.159.468.549.468.866s.2.576.443.576c.262,0,.35.374.214.914-.178.711-.061.915.525.915.6,0,.676-.146.372-.715-.21-.393-.241-.719-.068-.726s-.005-.198-.394-.425c-.39-.227-.616-.562-.503-.746.114-.183-.074-.441-.417-.572-.342-.132-.511-.421-.374-.642.336-.544.097-.507-.758.118m117.401.249c-.044,1.044,5.093,11.888,5.763,12.164.222.092-.844-2.286-2.369-5.283-1.525-2.998-2.903-5.991-3.063-6.651-.255-1.057-.295-1.084-.331-.23M162,271.2c-.507.44-.788.8-.624.8s.755-.36,1.315-.8c.559-.44.84-.8.624-.8s-.808.36-1.315.8m120.627.356c-.139.225-.494.317-.788.204-.295-.113-.648.086-.785.442-.142.372-.449.524-.719.358-.316-.196-.389-.077-.22.362.137.359.078.759-.132.889-.211.13-.369.451-.351.713.022.341.089.333.234-.026.111-.277.367-.401.568-.277s.388.036.416-.197c.096-.81.164-1.027.484-1.531.177-.278.452-.425.613-.326.401.248,1.49-.464,1.181-.772-.136-.136-.362-.064-.501.161M160.421,273.16c-.312.585-.259.816.231,1.005.454.174.57.07.405-.36-.128-.333-.058-.605.156-.605.213,0,.387-.18.387-.4c0-.673-.748-.445-1.179.36m18.021.406c-.307.194-.448.641-.313.994.274.714,1.071.876,1.071.216c0-.233-.208-.295-.462-.138-.279.173-.353.11-.187-.159.151-.244.584-.328.962-.187.6.225.618.173.138-.417-.302-.371-.572-.672-.6-.669s-.302.165-.609.36m83.162.23c-.272.327-.62.518-.773.423s-.718.36-1.255,1.01-.901,1.224-.808,1.276c.519.294-.858,1.835-1.44,1.612-.442-.17-.564-.099-.37.215.485.784,1.441.524,1.829-.498.202-.532.693-1.051,1.09-1.154.674-.174.672-.19-.028-.234-.588-.036-.369-.392,1-1.63.963-.871,1.638-1.591,1.5-1.6s-.473.252-.745.58m-84.704.869c-.275.111-.5.377-.5.592s.211.26.468.101c.317-.196.383-.069.205.397-.147.382-.1.585.106.458.204-.126.343-.585.31-1.021-.032-.436-.066-.778-.074-.76-.008.017-.24.122-.515.233m98.97,1.198c-.145.145-.064.503.178.795.243.293.337.804.209,1.137-.127.333-.058.605.156.605.213,0,.387-.165.387-.367s.109-.652.243-1c.161-.421.02-.633-.424-.633-.366,0-.555-.18-.419-.4.279-.451.071-.537-.33-.137m-95.011.991c-.444.712-.444.91.004,1.193.295.188.357.346.137.353s-.13.187.2.4c.436.282.457.389.076.394-.288.003-.412.186-.276.406.498.806.941.37.711-.7-.13-.605-.227-1.505-.216-2c.025-1.101.023-1.101-.636-.046m116.216.144c.47.328,2.085,3.113,3.589,6.188c1.505,3.075,2.872,5.596,3.039,5.603.463.017-5.309-11.302-6.051-11.868-.359-.272-.827-.501-1.041-.508s-.005.256.464.585m-100.758.072c.388.156.404.343.066.75-.583.703.707,3.021,1.602,2.878.338-.054.566.14.505.432-.06.291.083.41.32.264.301-.186.289-.434-.04-.83-.257-.31-.311-.57-.119-.577.192-.008-.075-.367-.593-.798-.518-.432-1.103-.685-1.3-.563s-.358.046-.358-.169.212-.461.471-.547c.578-.193.066-1.122-.595-1.078-.327.021-.314.096.041.238m58.883,3.687c0,.442,1.038.872,1.35.56.126-.126.133-.383.016-.573-.281-.454-1.366-.444-1.366.013m-83.404.85c-.138.223-.406.31-.596.193s-.475-.002-.634.255c-.181.293-.116.361.172.183.592-.366.602.262.013.851-.247.247-.742.346-1.1.221-.509-.178-.549-.117-.182.28.258.279.373.756.257,1.059-.311.811-.94.672-.676-.149.179-.554.142-.583-.175-.136-.221.31-.305.815-.187,1.121.249.648,2.112-.86,2.112-1.709c0-.266.45-.779,1-1.139.997-.654,1.337-1.437.624-1.437-.207,0-.49.183-.628.407m99.848.14c-.342.412-.325.654.071.983.409.339.525.218.525-.547c0-1.148-.003-1.15-.596-.436m-1.811,1.71c-.356.929-.151.954.737.091.637-.619.661-.748.143-.748-.345,0-.741.296-.88.657m-69.401,1.067c-.018.618.128,1.025.323.904.195-.12.448.139.562.576.114.438.399.796.633.796.508,0,.137-1.234-.541-1.8-.264-.22-.584-.67-.713-1-.136-.351-.246-.134-.264.524m70.368-.191c0,.257-.232.467-.515.467s-.543.371-.577.825c-.056.747.015.727.761-.221.452-.576.712-1.157.577-1.292s-.246-.035-.246.221m-17.926.489c-.509.204-.812.554-.674.777.138.224-.031.515-.375.647-.804.308-.815.911-.014.794.336-.05.561-.186.5-.304-.2-.384.971-1.533,1.334-1.308.195.121.355-.061.355-.404s-.045-.613-.1-.599-.517.193-1.026.397m-67.228.902c-.029.456-.231.619-.546.441-.397-.224-.398-.173-.007.25.614.661,1.041.291.789-.684-.18-.697-.191-.697-.236-.007M186,287.58c0,.205.183.486.407.624.223.138.304.417.179.619s.052.261.393.13c.77-.296.78-.239-.179-1.06-.44-.377-.8-.518-.8-.313m81.422-.015c-.148.239-.051.435.216.435.31,0,.237.275-.202.76-.548.606-.581.822-.162,1.064.289.168.391.155.225-.027-.165-.183.001-.666.371-1.074.474-.524.546-.867.246-1.167-.301-.301-.505-.298-.694.009m-118.781,1.338c-.135.493-1.223,1.973-2.417,3.289-1.195,1.316-2.106,2.459-2.025,2.54.168.169,3.001-2.59,3.001-2.922c0-.12.54-.782,1.2-1.473c1.261-1.319,1.431-1.747.843-2.111-.197-.121-.468.183-.602.677m101.497.488c-.759.812.019,1.595.804.81.79-.79.8-.861.156-1.108-.276-.106-.708.028-.96.298m-62.467.83c.166.797.851.789.969-.01.049-.336-.178-.611-.505-.611-.326,0-.535.28-.464.621m16.704,2.594c-.439.272-.391.403.236.639.434.163.987.56,1.228.882.318.424.518.457.725.122.16-.259.011-.569-.336-.703-.343-.131-.535-.381-.428-.555.296-.479-.796-.773-1.425-.385m43.305,1.265c-.684.684-.598.996.343,1.242.663.173.734.108.365-.336-.251-.303-.341-.739-.199-.968.347-.562.082-.529-.509.062m13.907,2.067c.227.227.413.737.413,1.133s.199.72.443.72c.265,0,.326-.28.152-.7-.16-.385-.299-.895-.309-1.133-.011-.239-.265-.434-.566-.434-.376,0-.418.129-.133.414m-119.662,1.128c-.582.729-2.944,3.575-5.25,6.325-3.771,4.498-5.594,7.172-2.787,4.089c2.059-2.261,4.651-5.309,5.275-6.203.786-1.124,1.977-2.537,3.167-3.756.511-.524.867-1.139.791-1.366-.076-.228-.614.183-1.196.911m16.087-.491c-.324.205-.485.477-.358.604.315.315,1.546-.187,1.546-.631c0-.456-.44-.446-1.188.027m88.059,1.185c-.324.93-.287,1.216.181,1.396.334.128.483.053.343-.172-.135-.219.036-.507.38-.639s.625-.42.625-.64-.261-.3-.58-.177c-.387.148-.505.03-.357-.357.123-.319.131-.58.019-.58s-.387.526-.611,1.169m-54.296-.067c.783.939,1.119.903,1.271-.136.065-.444-.046-.498-.408-.198-.346.288-.667.264-1.057-.078-.308-.269-.221-.084.194.412m69.533.926c-.032.424.111.772.317.772.455,0,.502-1.075.058-1.349-.174-.107-.343.152-.375.577M154.9,300.3c-.715.81-1.299,1.659-1.298,1.886.002.381,1.434-1.021,2.747-2.689c1.046-1.328-.155-.663-1.449.803m38.415-.44c-.343.139-.227.596.4,1.563.948,1.465,1.8,1.913,1.081.569-.238-.445-.321-.989-.185-1.21.137-.221.01-.352-.281-.292-.292.061-.485-.115-.43-.39s.055-.486,0-.468c-.055.017-.318.12-.585.228m51.775-.017c-.306.306.576,1.757,1.068,1.757.201,0,.068-.33-.297-.732-.364-.403-.542-.853-.395-1c.147-.148.177-.268.067-.268s-.309.109-.443.243m14.091.977c-.399.252-.424.37-.081.374.275.003.455.209.4.456s.13.504.41.57.318.026.083-.089c-.3-.147-.297-.364.01-.734.546-.658-.042-1.07-.822-.577m-14.289,1.672c.079.593.263,1.197.409,1.342.145.145.171-.249.057-.876s-.297-1.231-.408-1.342-.137.283-.058.876m-50.492.847c0,.076.36.554.8,1.061s.8.702.8.433c0-.27-.257-.747-.571-1.062-.538-.537-1.029-.744-1.029-.432M150.9,305.1c-.715.81-1.299,1.659-1.298,1.886.002.381,1.434-1.021,2.747-2.689c1.046-1.328-.155-.663-1.449.803m60.249-.376c-.427.566-.421.597.036.19.435-.387.654-.346,1.068.2.473.622.523.624.534.029.019-.944-1.039-1.215-1.638-.419m32.345.315c-.131.132-.148.475-.037.764.11.289-.077,1.063-.418,1.721-.594,1.15-.587,1.187.205.98.628-.164.697-.296.29-.553-.432-.274-.434-.34-.01-.345.288-.003.421-.171.296-.374-.125-.202.014-.609.308-.903.295-.295.462-.76.371-1.033-.178-.532-.617-.645-1.005-.257m13.75,1.108c-.348.42-.29.676.251,1.1.633.496.651.484.183-.115-.441-.563-.41-.733.2-1.088.397-.231.519-.425.271-.432s-.655.234-.905.535m-60.08,1.084c-.621.393-.575.428.736.565.495.052.9-.041.9-.208c0-.508-1.039-.735-1.636-.357m-49.764,2.23c-4.262,4.749-5.017,5.667-5.736,6.969-.724,1.313.756-.256,4.677-4.955c3.082-3.694,3.812-5.081,1.059-2.014m65.626-1.103c-.241.391.957.992,1.298.651.115-.115-.046-.212-.357-.215-.467-.005-.461-.075.033-.394.517-.334.507-.389-.076-.394-.372-.003-.776.155-.898.352m43.074,1.326c.276,1.336,1.5,1.718,1.5.469c0-.33-.18-.489-.4-.353s-.4.057-.4-.176-.18-.424-.4-.424-.355.218-.3.484m-126.162,2.018c-.804.934-1.393,1.769-1.308,1.857.2.205,2.97-2.814,2.97-3.237c0-.512-.117-.414-1.662,1.38m68.862-.98c0,.507,1.752,2.669,2.233,2.756.239.043.434-.187.434-.511s-.195-.522-.434-.441c-.545.187-1.891-1.308-1.601-1.778.118-.191.025-.348-.208-.348s-.424.145-.424.322m57.2.435c0,.27-.143.402-.317.294-.174-.107-.345.179-.38.637-.061.815-.05.814.558-.054.341-.487.512-.994.38-1.127-.133-.132-.241-.02-.241.25M201.232,314.5c-.018.385.136.7.341.7.206,0,.449.495.54,1.1.132.87.18.782.227-.424.033-.838-.105-1.421-.306-1.297s-.457,0-.568-.277c-.122-.303-.215-.224-.234.198m-75.241,1.943c-.765.904-1.572,1.849-1.793,2.1-.221.252-1.211,1.444-2.2,2.651-2.22,2.708-3.092,3.747-4.492,5.352-.601.69-1.096,1.404-1.1,1.587-.011.574,4.378-4.355,7.386-8.295.775-1.016,1.949-2.411,2.609-3.102c1.015-1.062,1.507-1.936,1.09-1.936-.06,0-.735.74-1.5,1.643m13.409,2.511c-.66.714-1.441,1.737-1.736,2.272-.514.936.325.14,2.875-2.726c1.261-1.418.199-.995-1.139.454m114.4,2.539c0,.841-.265,1.738-.6,2.029-.497.433-.429.439.4.035.848-.414.935-.402.573.078-.246.324-.308,1.077-.148,1.765l.28,1.2.048-1.126c.026-.62.233-1.475.461-1.9.326-.609.283-.774-.2-.774-.704,0-.797-.457-.213-1.041.269-.269.236-.629-.1-1.087-.434-.594-.501-.485-.501.821m-118.51,2.333c-.72.754-1.417,1.911-1.55,2.572l-.24,1.202h20.05c15.773,0,20.05-.107,20.05-.5c0-.395-4.098-.476-19.465-.385-20.194.119-20.706.078-19.271-1.537.478-.538,1.231-1.383,1.672-1.878c1.288-1.443.195-.982-1.246.526m51.777,2.841c-.772.771.282.933,6.084.933c5.157,0,6.445-.113,6.849-.6.524-.631-12.305-.962-12.933-.333m-72.069,2.935c-.4.442-.606.924-.458,1.071.265.265,1.423-.993,1.447-1.573.02-.475-.21-.358-.989.502M254.093,332c0,.77.082,1.085.183.7.1-.385.1-1.015,0-1.4-.101-.385-.183-.07-.183.7m-140.261.615c-.14.558-.075,1.323.144,1.7.312.534.402.31.412-1.015.014-1.929-.183-2.171-.556-.685m76.688,8.083c1.935.074,4.995.073,6.8-.001c1.804-.074.22-.134-3.52-.133-3.74,0-5.216.061-3.28.134" fill="#357cab" fill-rule="evenodd"/><path d="M156.4,233.6c-.51.329-.492.389.118.394.601.005.676.23.461,1.378-.208,1.109-.104,1.468.542,1.871.439.275.708.738.596,1.028-.111.291-.003.529.24.529.244,0,.422.135.396.3-.132.833.109,1.3.671,1.3.354,0,.505.191.35.443-.186.301.01.352.613.161.723-.229.857-.145.726.457-.088.407-.356.7-.596.653-.255-.051-.344.259-.216.75.218.835.221.835.902-.068.515-.683.761-.778,1.002-.389.209.34.16.419-.143.231-.277-.171-.462-.025-.462.362c0,.356.18.536.4.4s.4-.037.4.219c0,.257-.27.363-.6.236-.33-.126-.6-.056-.6.158c0,.364.59.553,1.33.424.181-.031.214.131.072.36-.141.229-.408.323-.592.209-.185-.114-.24.157-.124.603.201.768.241.773.774.1.51-.643.552-.646.451-.031-.061.372.249.971.689,1.329.791.645.79.65-.1.46-.495-.106-.9-.133-.9-.06c0,.256,2.366,2.493,2.498,2.361.074-.073.164.261.2.744.054.714-.01.767-.346.283-.364-.525-.392-.524-.239.005.108.37.587.57,1.251.522.919-.067,1.038.042.813.75-.2.63-.133.75.28.501.442-.266.44-.2-.012.358-.479.59-.459.79.148,1.462.387.427.594,1.063.46,1.413-.141.368-.077.533.152.391.217-.134.395.036.395.379c0,.812,1.314,2.119,1.925,1.916.536-.179.664.568.133.775-.188.073.019.493.461.933s.676.575.519.3-.095-.5.138-.5.424.27.424.6-.27.6-.6.6c-.676,0-.82.66-.191.87.225.075.045.448-.4.829-.777.665-.809.658-.809-.178v-.872l-.8.859c-1.031,1.107-1.031,1.846.001,1.576.44-.115.699-.046.576.153-.123.2-.494.363-.824.363s-.505.153-.389.341-.015.649-.29,1.025c-.46.63-.505.618-.563-.15-.034-.458.09-.739.276-.624s.227-.196.092-.691c-.202-.739-.273-.774-.393-.196-.081.388-.317.599-.526.47s-.354-.086-.323.095c.148.852-.08,1.351-.499,1.092-.275-.171-.353-.111-.193.149.147.238.085.547-.138.685-.224.138-.402.466-.395.728s.196.161.42-.224.607-.7.85-.7.11.366-.295.814-.983.72-1.284.604c-.302-.116-1.001.279-1.555.876-.594.641-.821,1.148-.555,1.237.248.083-.069.537-.706,1.01-.637.472-1.083,1.084-.989,1.359.093.275-.021.5-.252.5-.232,0-.317.272-.189.605.172.449.05.534-.478.332-.454-.175-.615-.119-.447.152.149.242-.183.537-.771.685-.689.173-.959.454-.81.843.129.336-.008.583-.324.583-.302,0-.724.495-.938,1.1-.215.605-2.123,3.198-4.242,5.761-2.277,2.756-3.763,4.892-3.635,5.226.119.31-.33,1.136-.998,1.835s-1.214,1.374-1.214,1.5c0,.127-.9,1.107-2,2.178s-2,2.148-2,2.392-.405.86-.9,1.367c-1.163,1.194-2.358,2.613-3.137,3.727-.896,1.283-3.892,4.733-5.863,6.752-.935.957-1.7,1.907-1.7,2.111c0,.203-.9,1.289-2,2.412-1.1,1.124-2,2.195-2,2.382c0,.186-.54.903-1.199,1.593-.66.691-1.834,2.086-2.609,3.102-2.002,2.622-4.138,5.151-5.992,7.095-.88.922-1.855,2.17-2.168,2.772-.312.602-.717,1.095-.9,1.095-.182,0-.332,1.08-.332,2.4c0,1.333.178,2.4.4,2.4.22,0,.4.283.4.629c0,.976,2.106,2.571,3.395,2.571.333,0,.605.156.605.347s14.965.428,33.389.528c30.745.167,33.449.236,34.143.864.658.595,1.585.666,7.311.561l6.557-.121-6.8-.175-6.8-.175l6.8-.214l6.8-.215-.135-1.2c-.166-1.465-.156-9.94.013-11.6l.122-1.2-6.8.075c-10.858.12-20.2.563-20.2.959c0,.216-8.208.366-20.05.366h-20.05l.237-1.185c.133-.665,1.119-2.085,2.25-3.24c1.107-1.131,2.013-2.217,2.013-2.414c0-.196.9-1.276,2-2.4c1.1-1.123,2-2.217,2-2.43c0-.214.225-.621.5-.906s1.22-1.375,2.1-2.423s2.365-2.687,3.3-3.643s1.7-1.904,1.7-2.108c0-.203.9-1.289,2-2.412c1.1-1.124,2-2.204,2-2.4c0-.197.9-1.277,2-2.4c1.1-1.124,2-2.205,2-2.402s.495-.532,1.1-.743c.666-.232,2.6-2.211,4.9-5.011c2.127-2.589,4.2-4.731,4.709-4.864.726-.191.832-.382.528-.95-.246-.46-.236-.917.029-1.291.338-.478.373-.462.197.089-.117.367.015.754.293.861.545.209.609-.815.101-1.636-.343-.555.732-.506,1.743.078.471.273.499.238.131-.16-.258-.279-.362-.785-.232-1.124.173-.449.082-.527-.331-.287-.337.195-.432.181-.235-.035.184-.2.454-.388.6-.418c1.235-.249,2.014-.708,1.797-1.059-.164-.266-.007-.325.425-.16.405.156.587.103.444-.128-.304-.492,1.605-2.45,2.023-2.075.168.152.169.039.002-.251-.168-.29-.566-.427-.885-.305-.34.131-.474.05-.323-.194.141-.229.466-.345.721-.258.254.087.778-.201,1.163-.64.758-.864.949-1.677.3-1.276-.22.136-.4.076-.4-.134c0-.209.279-.488.621-.619.356-.136.516-.069.376.158-.347.561.747.491,1.323-.085.472-.472.646-.004.587,1.58-.01.275.142.5.337.5.196,0,.356.36.356.8c0,.498.265.798.7.794.555-.005.586-.079.147-.357-.461-.291-.436-.508.149-1.293.447-.601.616-.688.464-.241-.13.387-.063,1.163.15,1.723.297.782.271.954-.111.738-.384-.217-.391-.165-.03.226.258.279.373.756.257,1.059-.264.687.327.715,1.083.051.314-.275.235-.099-.174.392-.673.806-.682.915-.092,1.142.359.137.553.411.431.608s-.02.358.226.358.318.208.161.463c-.195.315-.02.393.547.245.753-.197.791-.125.396.744-.365.799-.309,1.057.329,1.525.672.493.801.48,1.039-.107.217-.534.277-.488.3.23.015.495-.163.9-.396.9s-.31.183-.172.407c.138.223.374.336.524.251.149-.086.618.181,1.042.593.423.412.569.749.324.749-.246,0-.558-.18-.694-.4s-.462-.395-.724-.388-.157.198.232.425c.39.227.634.536.542.688-.091.151.085.507.392.791.322.297.558.34.558.1c0-.229.254-.416.565-.416.589,0,.633.647.1,1.5-.195.312-.099.5.256.5.381,0,.509.31.388.941-.121.632.158,1.306.848,2.051.565.61.915,1.292.776,1.517-.162.262.161.313.907.143c1.041-.237,1.088-.208.456.289-.579.455-.609.633-.171.997.39.324.653.324.977,0c.489-.489.497.308.011,1.085-.33.527-.182,1.652.273,2.065.188.172.224.106.08-.146s.005-.561.331-.686c.342-.131.553-.021.498.258-.052.267.143.437.435.376.291-.06.418.071.281.292-.136.221-.053.765.185,1.21.321.6.31.808-.043.808-.262,0-.072.35.42.777.627.543.817,1.024.634,1.6-.152.48-.083.823.166.823.235,0,.427.281.427.625c0,.356.302.595.7.554c1.192-.121,1.7.005,1.7.421c0,.22-.135.379-.3.353-.719-.114-1.3.076-1.3.424c0,.207.356.308.792.225.435-.084.913.044,1.061.284.152.245.088.325-.146.18-.229-.141-.51.101-.624.538-.156.595-.01.796.578.796.432,0,.689.157.571.348-.29.47,1.056,1.965,1.601,1.778.239-.081.434.117.434.441s-.173.554-.384.511c-.21-.043-.466.147-.566.422-.118.321.044.413.45.257.354-.136.633-.037.633.224c0,.256.192.348.427.203.281-.174.383.261.3,1.276-.102,1.235.064,1.695.837,2.32l.965.779l1.035-1.377c1.668-2.219,4.58-4.934,7.048-6.573c2.275-1.51,2.287-1.528,1.342-2.037-.845-.455-.874-.545-.254-.786.857-.332.923-.986.1-.986-.33,0-.622-.18-.65-.4-.216-1.727-.79-2.462-1.497-1.917-.527.406-.518.344.047-.321.693-.817.978-1.978.4-1.628-.165.1-.532-.069-.816-.376-.283-.307-.396-.558-.251-.558.146,0,.041-.27-.233-.6s-.346-.6-.16-.6-.062-.28-.551-.623c-.595-.416-.889-1.034-.889-1.866c0-.685-.111-1.133-.248-.997-.368.369-1.329-.731-1.475-1.689-.07-.46-.368-1.058-.661-1.33-.429-.398-.471-.385-.213.067.222.388.17.468-.168.259-.269-.166-.401-.533-.292-.816.129-.337-.052-.449-.528-.325-.905.237-1.435-.51-.592-.834.35-.134.514-.067.377.154-.138.223.03.287.391.148.561-.215.553-.301-.075-.76-.389-.284-.832-.44-.984-.346s-.407-.04-.566-.297c-.174-.282-.117-.362.145-.2.238.147.535.104.659-.097.124-.2-.062-.475-.414-.609-.351-.135-.542-.498-.424-.806.139-.362-.163-.659-.859-.842-.972-.256-.999-.31-.284-.573.75-.276.735-.341-.3-1.3-.599-.556-1.089-1.225-1.089-1.487c0-.263-.18-.367-.4-.231-.242.149-.4-.396-.4-1.376c0-1.162-.167-1.624-.587-1.624-.385,0-.499-.231-.331-.669.191-.499.093-.607-.385-.424-.483.186-.604.046-.486-.566.133-.69.064-.736-.458-.302-.501.416-.684.404-.997-.065-1.095-1.642-1.205-2.033-.735-2.6.373-.448.364-.574-.039-.574-.283,0-.397-.118-.252-.263s.04-.54-.233-.877c-.411-.507-.393-.56.103-.307.464.237.457.187-.035-.223-.349-.292-.564-.74-.478-.997.099-.294-.226-.425-.874-.354-.869.095-.993-.013-.78-.683.139-.438.058-.916-.18-1.063s-.493-.66-.566-1.14-.258-.997-.41-1.149c-.152-.153-.277-.607-.277-1.011c0-.403-.192-.733-.427-.733-.245,0-.319.341-.173.8s.072.8-.173.8c-.384,0-.615-.861-.464-1.73.031-.181-.083-.245-.253-.142-.171.104-.542-.063-.826-.37-.423-.458-.41-.558.077-.558.325,0,.706-.184.845-.41.139-.225.015-.36-.276-.3-.351.073-.505-.261-.455-.99.052-.758-.117-1.1-.542-1.1-.383,0-.532-.227-.39-.595.297-.775-.644-.6-1.049.195-.181.356-.237.114-.137-.596.178-1.262-.322-2.604-.971-2.604-.212,0-.4.315-.418.7-.023.516-.09.551-.255.135-.123-.311.106-.806.508-1.1.417-.305.517-.535.232-.535-.275,0-.378-.198-.228-.44.197-.319.045-.319-.552.001-.485.259-.918.29-1.051.074-.125-.202-.001-.458.276-.569.306-.124.233-.215-.188-.234-.545-.025-.62-.222-.358-.932.465-1.257.161-2.035-.541-1.388-.406.373-.422.63-.071,1.088.4.521.368.528-.236.055-.382-.3-.606-.69-.497-.866s.062-.397-.105-.489c-.166-.093-.077-.114.198-.047s.5-.037.5-.232-.225-.446-.5-.557c-.376-.153-.352-.308.1-.627.441-.312.461-.426.076-.431-.293-.003-.398-.209-.238-.468.172-.278.11-.353-.156-.189-.379.234-1.317-.909-1.518-1.849-.035-.165-.086-.412-.114-.549-.027-.137-.299-.042-.603.21-.428.355-.609.316-.796-.172-.139-.364-.075-.527.154-.386.781.483.373-.262-.705-1.287-.696-.662-.843-.953-.4-.793.471.169.7.052.7-.359c0-.336-.18-.5-.4-.364s-.4.072-.4-.143.225-.481.5-.592c.385-.155.379-.209-.024-.233-.288-.018-.412-.212-.276-.432s.057-.4-.176-.4-.424-.341-.424-.757c0-.417-.285-.867-.633-1-.907-.349-.968-.32-.961.457.005.536.085.575.344.166.274-.431.384-.414.577.088.324.846-.324,1.173-.915.461-.272-.328-.359-.951-.202-1.446.186-.588.132-.781-.167-.595-.587.362-.569-.288.024-.881.356-.356.309-.527-.198-.722-.365-.14-.547-.444-.404-.676.162-.262-.04-.343-.536-.213-.507.133-.796.01-.796-.337c0-.3.137-.545.304-.545s.002-.718-.367-1.596c-.648-1.543-1.606-2.322-1.112-.904.198.569.13.552-.368-.091-.555-.718-.546-.817.099-1.072.391-.154.475-.293.187-.309-.288-.015-.434-.172-.326-.347.108-.176.032-.581-.17-.9-.256-.404-.37-.428-.374-.078-.005.395-.171.401-.766.029-.418-.261-.678-.689-.577-.951.375-.979-14.01-1.52-15.463-.581m2.66,4.515c-.11.272-.211.177-.228-.215-.018-.385-.223-.7-.456-.7s-.298-.203-.144-.451c.356-.576,1.111.669.828,1.366M283.6,253.474c-.55.283-.764.517-.476.52s.412.186.276.406-.072.4.143.4.481-.225.592-.5c.146-.361.211-.367.233-.024.048.713-.775,1.077-1.283.569-.245-.245-.634-.442-.865-.439-.244.004-.219.134.059.311.299.19.348.515.13.868-.278.45-.467.464-.94.073-.345-.287-.649-.33-.73-.105-.076.213-.402.446-.723.517-1.183.263-1.549.886-.863,1.467.454.384.348.372-.358-.042-.975-.571-2.389-.022-1.704.662.133.134-.148.243-.624.243-.477,0-.867.138-.867.307s.642.277,1.427.24s1.325.035,1.2.159c-.124.125-.939.244-1.811.264-.871.021-1.816.298-2.1.615-.444.496-.419.503.184.047.506-.383.7-.399.7-.057c0,.26.225.348.5.196s-.13.27-.9.937c-.779.676-1.577,1.074-1.8.899-.495-.389-2.2.215-2.2.78c0,.227.161.413.357.413.197,0,.463.274.591.609.191.497.088.532-.557.186-.435-.233-.791-.627-.791-.876s-.105-.348-.232-.22c-.128.128-.041.59.193,1.027.373.698.32.768-.43.572-.549-.144-.761-.071-.592.203.307.498-.077,1.699-.544,1.699-.176,0-.225-.363-.109-.806.159-.609.058-.747-.413-.567-.37.142-.524.495-.38.872.134.348.077.532-.125.409-.438-.266-1.428.699-1.077,1.049.133.134-.169.243-.671.243-.759,0-.881.169-.721,1.003.147.773.076.908-.311.587-.532-.442-2.065.667-1.585,1.146.132.132.408-.024.613-.348.295-.466.373-.404.378.298.007,1.051-1.258,1.89-1.893,1.255-.295-.295-.505-.158-.701.46-.154.485-.847,1.405-1.54,2.043-.695.641-.946,1.052-.56.916.385-.135.7-.436.7-.669c0-.234.12-.304.268-.157.147.147.565.042.928-.233.364-.276-.05.174-.919.999-1.183,1.123-1.399,1.5-.862,1.5.898,0,.6.341-.439.503-1.073.166-1.778.655-1.763,1.221.007.262.293.116.636-.324l.623-.8-.14.8c-.082.469-.513.853-1.042.929-.496.07-.799.295-.672.5.126.204.054.371-.161.371s-.481-.225-.592-.5c-.121-.299-.215-.218-.233.2-.018.385-.257.711-.532.725s-.083.193.426.397.811.556.672.781c-.139.226-.406.316-.592.201s-.932.377-1.656,1.093c-1.397,1.382-1.883,2.516-.919,2.147.339-.131.569.028.569.392c0,.336-.168.508-.372.381-.205-.126-.488-.044-.628.183s-.468.286-.728.13c-.273-.164-.242,0,.073.388.471.581.443.71-.2.95-.41.152-1.06.632-1.445,1.065-.741.836-.911,1.245-.381.917.797-.493,1.337.436.652,1.121-.49.491-.769.555-.973.225-.356-.575-1.028.729-1.148,2.228-.028.343-.193.535-.368.427-.399-.247-.381,1.386.021,2.012.202.314.041.395-.502.253-.907-.237-1.043.252-.301,1.085.425.477.396.481-.2.031-.385-.292-.715-.463-.733-.381-.268,1.198-.151,1.841.303,1.667.291-.112.53-.024.53.196s-.281.508-.625.64-.515.42-.38.639c.143.229-.016.297-.374.16-.343-.132-.621-.029-.621.228c0,.256-.16.367-.356.246-.342-.211-.283,1.37.121,3.284.112.526.03.81-.192.672-.213-.131-.29-.393-.173-.583s.049-.446-.151-.57c-.53-.327-.933,1.665-.501,2.478.248.468.196.85-.161,1.18-.397.368-.567.373-.684.021-.092-.276-.267-.18-.425.232-.15.39-.106.6.099.473.202-.125.481-.044.619.179.138.224.016.41-.272.413-.381.005-.36.112.076.394.519.335.51.389-.067.394-.366.003-.763-.219-.881-.494s-.145-.005-.06.6.012,1.1-.164,1.1c-.992,0,.106,1.972,2.404,4.315c5.069,5.171,7.603,10.313,8.618,17.485l.283,2l.291-1.6c.181-.989.127-1.803-.14-2.13-.316-.387-.292-.618.087-.852.421-.26.416-.359-.026-.52-.401-.146-.428-.323-.103-.67.276-.295.336-1.057.158-2.028-.178-.972-.118-1.732.158-2.027.339-.361.209-.361-.558,0-.831.392-.899.383-.4-.051.335-.291.6-1.188.6-2.029c0-1.297.069-1.412.496-.829.273.373.613.56.757.416.143-.143.01-.57-.296-.947-.306-.378-.354-.565-.106-.416.459.274.949-1.336.949-3.118c0-.496.256-1.113.568-1.372.342-.284.518-1.009.442-1.823-.082-.879.069-1.426.432-1.565.307-.118.555-.445.552-.726-.004-.359-.123-.333-.394.087-.331.513-.389.498-.394-.1-.003-.385-.156-.7-.339-.7-.184,0-.334-.27-.334-.6s.15-.6.334-.6c.183,0,.333.174.333.387c0,.769,1.121-.063,1.293-.959.115-.606-.085-1.08-.589-1.395-.805-.503-.348-1.648.645-1.621.248.007.132.198-.257.425-.78.453-.577,1.163.332,1.163.317,0,.576-.349.576-.776s.192-.895.426-1.04c.281-.174.204-.509-.226-.984-.605-.668-.599-.715.074-.66.399.033.681-.165.626-.44s.125-.505.4-.512.181-.198-.208-.425c-.39-.227-.604-.581-.477-.788.128-.206-.003-.378-.291-.381-.392-.005-.377-.099.057-.374.803-.508,1.361-.073.789.616-.308.371-.323.564-.043.564.566,0,1-.747,1.127-1.942.057-.537.293-1.165.525-1.397.539-.539.543-1.979.008-2.514-.285-.285-.228-.414.182-.414.328,0,.526.114.44.253s.009.514.211.833c.287.454.369.384.374-.319.006-.966,1.285-2.491,2.106-2.513.275-.008.075-.368-.444-.8-.52-.433-.781-.787-.58-.787.2,0,.606.225.903.5.441.409.491.365.275-.245-.192-.543-.108-.685.309-.524.437.167.541-.082.44-1.056-.073-.701-.044-1.05.065-.775.296.747.847.605,1.358-.348.368-.687.351-.787-.086-.523-.447.268-.446.208.005-.348.3-.37.75-.571,1-.447s.106-.058-.321-.404c-.428-.347-.653-.652-.5-.68.152-.028.501-.077.776-.111.281-.034.456-.494.399-1.05-.08-.778-.016-.861.3-.389.439.657,1.369-.204.951-.881-.108-.175.001-.319.243-.319.951,0,2.153-1.542,1.663-2.133-.361-.435-.325-.678.162-1.082.511-.424.604-.424.505-.003-.068.285.078.593.325.684.289.107.374-.214.242-.91-.144-.752-.066-.989.259-.788.255.158.337.5.182.76-.155.259.199.022.787-.528.587-.55,1.071-1.326,1.075-1.724s.174-.62.378-.494c.571.353.954-1.349.443-1.966-.339-.407-.332-.62.028-.842.287-.177.377-.129.224.119-.141.229.146.524.638.656c1.276.342,1.578.307,1.296-.149-.136-.22.044-.4.4-.4s.536-.18.4-.4.028-.4.364-.4c.359,0,.522-.231.396-.56-.118-.307-.03-.673.195-.812.226-.14.297-.547.16-.906-.169-.439-.096-.558.22-.362.27.166.577.014.719-.358.137-.356.49-.555.785-.442.294.113.654.014.798-.22.179-.29.358-.271.563.06.216.349.377.36.575.04.152-.245-.006-.554-.35-.686s-.625-.436-.625-.677c0-.297.15-.287.47.033.361.361.609.356,1.062-.02.325-.269.95-.49,1.39-.49.532,0,.846-.315.942-.944.111-.722-.003-.888-.481-.705-.359.138-.521.072-.38-.156.344-.556,1.933-.492,2.576.105.296.275.438.318.315.096-.375-.681.87-2.101,1.272-1.451.237.383.415.41.612.091.152-.247.444-.346.648-.22.227.141.227-.152-.002-.752-.205-.54-.249-1.119-.098-1.287.15-.168.049-.176-.226-.018-.292.169-.499.071-.497-.235.003-.652-4.08-8.875-4.498-9.057-.168-.074-.311-.344-.318-.6-.032-1.175-.95-1.726-1.987-1.193m-100.414,1.902c-.008.233-.242.013-.521-.489-.279-.501-.661-.771-.85-.6-.189.173-.198.062-.018-.248.348-.6,1.419.431,1.389,1.337m9.443,15.802c0,.585-.127.673-.51.355-.281-.233-.412-.583-.291-.778.378-.612.801-.388.801.423m88.516,1.489c-.336.404-.298.533.157.533.33,0,.799-.24,1.043-.533.335-.404.297-.534-.158-.534-.33,0-.799.24-1.042.534m-101.494,1.208c.477.586.463.643-.102.431-.358-.134-.853-.042-1.1.205-.332.332-.449.28-.449-.198c0-.355.225-.737.5-.848s.523-.216.551-.233c.028-.018.298.272.6.643m17.162,4.117c-.457.283-.436.514.128,1.374.779,1.189.926,1.26.926.452c0-.321-.131-.502-.292-.403-.16.099-.391-.079-.513-.397-.147-.385-.028-.503.358-.355.319.123.58.034.58-.197c0-.629-.569-.856-1.187-.474m73.757,5.556c-.888.863-1.093.838-.737-.091.139-.361.535-.657.88-.657.518,0,.494.129-.143.748m-14.709,28.486c-.608.868-.619.869-.558.054.035-.458.206-.744.38-.637.174.108.317-.024.317-.294s.108-.382.241-.25c.132.133-.039.64-.38,1.127m-1.594,9.833c-.442.441-.301.933.266.933.294,0,.534-.27.534-.6c0-.633-.354-.78-.8-.333M200,327c-.552.666-13.2.921-13.2.267c0-.765.839-.867,7.116-.867c5.805,0,6.523.071,6.084.6" fill="#2c74ac" fill-rule="evenodd"/></g></svg>
