<svg id="eK3OYj957pA1" xmlns="http://www.w3.org/2000/svg" xmlns:xlink="http://www.w3.org/1999/xlink" viewBox="0 0 24 24" shape-rendering="geometricPrecision" text-rendering="geometricPrecision"><path d="M12,6h-3c-.552285,0-1,.447715-1,1v10c0,.552285.447715,1,1,1s1-.447715,1-1v-3h2c2.209139,0,4-1.790861,4-4s-1.790861-4-4-4Zm0,6h-2v-4h2c1.104569,0,2,.895431,2,2s-.895431,2-2,2ZM19,2L5,2C3.343146,2,2,3.343146,2,5v14c0,1.656854,1.343146,3,3,3h14c1.656854,0,3-1.343146,3-3v-14c0-1.656854-1.343146-3-3-3Zm1,17c0,.552285-.447715,1-1,1h-14c-.552285,0-1-.447715-1-1L4,5c0-.552285.447715-1,1-1h14c.552285,0,1,.447715,1,1Z" fill="#6563ff"/></svg>
